ISO-10303-21;
HEADER;
/* Generated by software containing ST-Developer
 * from STEP Tools, Inc. (www.steptools.com) 
 */

FILE_DESCRIPTION(
/* description */ ('KiCad electronic assembly'),
/* implementation_level */ '2;1');

FILE_NAME(
/* name */ 'AirCube_button-8-31-26.step',
/* time_stamp */ '2026-08-31T13:57:30-05:00',
/* author */ (''),
/* organization */ (''),
/* preprocessor_version */ 'ST-DEVELOPER v20.1',
/* originating_system */ 'Autodesk Translation Framework v15.8.0.0',
/* authorisation */ '');

FILE_SCHEMA (('AUTOMOTIVE_DESIGN { 1 0 10303 214 3 1 1 }'));
ENDSEC;

DATA;
#10=MECHANICAL_DESIGN_GEOMETRIC_PRESENTATION_REPRESENTATION('',(#13),#119);
#11=SHAPE_REPRESENTATION_RELATIONSHIP('SRR','None',#125,#12);
#12=ADVANCED_BREP_SHAPE_REPRESENTATION('',(#14),#118);
#13=STYLED_ITEM('',(#134),#14);
#14=MANIFOLD_SOLID_BREP('button',#67);
#15=FACE_BOUND('',#30,.T.);
#16=LINE('',#108,#18);
#17=LINE('',#115,#19);
#18=VECTOR('',#88,1.75);
#19=VECTOR('',#99,0.999999999999996);
#20=CYLINDRICAL_SURFACE('',#71,1.75);
#21=CYLINDRICAL_SURFACE('',#77,0.999999999999996);
#22=FACE_OUTER_BOUND('',#27,.T.);
#23=FACE_OUTER_BOUND('',#28,.T.);
#24=FACE_OUTER_BOUND('',#29,.T.);
#25=FACE_OUTER_BOUND('',#31,.T.);
#26=FACE_OUTER_BOUND('',#32,.T.);
#27=EDGE_LOOP('',(#47));
#28=EDGE_LOOP('',(#48,#49,#50,#51));
#29=EDGE_LOOP('',(#52));
#30=EDGE_LOOP('',(#53));
#31=EDGE_LOOP('',(#54));
#32=EDGE_LOOP('',(#55,#56,#57,#58));
#33=CIRCLE('',#70,0.999999999999996);
#34=CIRCLE('',#72,1.75);
#35=CIRCLE('',#73,1.75);
#36=CIRCLE('',#75,0.999999999999996);
#37=VERTEX_POINT('',#102);
#38=VERTEX_POINT('',#105);
#39=VERTEX_POINT('',#107);
#40=VERTEX_POINT('',#111);
#41=EDGE_CURVE('',#37,#37,#33,.T.);
#42=EDGE_CURVE('',#38,#38,#34,.T.);
#43=EDGE_CURVE('',#38,#39,#16,.T.);
#44=EDGE_CURVE('',#39,#39,#35,.T.);
#45=EDGE_CURVE('',#40,#40,#36,.T.);
#46=EDGE_CURVE('',#37,#40,#17,.T.);
#47=ORIENTED_EDGE('',*,*,#41,.T.);
#48=ORIENTED_EDGE('',*,*,#42,.F.);
#49=ORIENTED_EDGE('',*,*,#43,.T.);
#50=ORIENTED_EDGE('',*,*,#44,.F.);
#51=ORIENTED_EDGE('',*,*,#43,.F.);
#52=ORIENTED_EDGE('',*,*,#42,.T.);
#53=ORIENTED_EDGE('',*,*,#45,.F.);
#54=ORIENTED_EDGE('',*,*,#44,.T.);
#55=ORIENTED_EDGE('',*,*,#41,.F.);
#56=ORIENTED_EDGE('',*,*,#46,.T.);
#57=ORIENTED_EDGE('',*,*,#45,.T.);
#58=ORIENTED_EDGE('',*,*,#46,.F.);
#59=PLANE('',#69);
#60=PLANE('',#74);
#61=PLANE('',#76);
#62=ADVANCED_FACE('',(#22),#59,.T.);
#63=ADVANCED_FACE('',(#23),#20,.T.);
#64=ADVANCED_FACE('',(#24,#15),#60,.F.);
#65=ADVANCED_FACE('',(#25),#61,.F.);
#66=ADVANCED_FACE('',(#26),#21,.T.);
#67=CLOSED_SHELL('',(#62,#63,#64,#65,#66));
#68=AXIS2_PLACEMENT_3D('',#100,#78,#79);
#69=AXIS2_PLACEMENT_3D('',#101,#80,#81);
#70=AXIS2_PLACEMENT_3D('',#103,#82,#83);
#71=AXIS2_PLACEMENT_3D('',#104,#84,#85);
#72=AXIS2_PLACEMENT_3D('',#106,#86,#87);
#73=AXIS2_PLACEMENT_3D('',#109,#89,#90);
#74=AXIS2_PLACEMENT_3D('',#110,#91,#92);
#75=AXIS2_PLACEMENT_3D('',#112,#93,#94);
#76=AXIS2_PLACEMENT_3D('',#113,#95,#96);
#77=AXIS2_PLACEMENT_3D('',#114,#97,#98);
#78=DIRECTION('axis',(0.,0.,1.));
#79=DIRECTION('refdir',(1.,0.,0.));
#80=DIRECTION('center_axis',(0.,-1.,0.));
#81=DIRECTION('ref_axis',(1.,0.,0.));
#82=DIRECTION('center_axis',(0.,-1.,0.));
#83=DIRECTION('ref_axis',(1.,0.,0.));
#84=DIRECTION('center_axis',(0.,-1.,0.));
#85=DIRECTION('ref_axis',(-1.,0.,0.));
#86=DIRECTION('center_axis',(0.,-1.,0.));
#87=DIRECTION('ref_axis',(-1.,0.,0.));
#88=DIRECTION('',(0.,1.,0.));
#89=DIRECTION('center_axis',(0.,1.,0.));
#90=DIRECTION('ref_axis',(-1.,0.,0.));
#91=DIRECTION('center_axis',(0.,1.,0.));
#92=DIRECTION('ref_axis',(-1.,0.,0.));
#93=DIRECTION('center_axis',(0.,-1.,0.));
#94=DIRECTION('ref_axis',(1.,0.,0.));
#95=DIRECTION('center_axis',(0.,-1.,0.));
#96=DIRECTION('ref_axis',(1.,0.,0.));
#97=DIRECTION('center_axis',(0.,-1.,0.));
#98=DIRECTION('ref_axis',(1.,0.,0.));
#99=DIRECTION('',(0.,1.,0.));
#100=CARTESIAN_POINT('',(0.,0.,0.));
#101=CARTESIAN_POINT('Origin',(46.4999998935225,-84.,3.5));
#102=CARTESIAN_POINT('',(58.6329434457101,-84.,2.20440399364573));
#103=CARTESIAN_POINT('Origin',(59.6329434457101,-84.,2.20440399364573));
#104=CARTESIAN_POINT('Origin',(59.6329434457101,-80.3,2.20440399364573));
#105=CARTESIAN_POINT('',(61.3829434457101,-81.3,2.20440399364573));
#106=CARTESIAN_POINT('Origin',(59.6329434457101,-81.3,2.20440399364573));
#107=CARTESIAN_POINT('',(61.3829434457101,-80.3,2.20440399364573));
#108=CARTESIAN_POINT('',(61.3829434457101,-80.3,2.20440399364573));
#109=CARTESIAN_POINT('Origin',(59.6329434457101,-80.3,2.20440399364573));
#110=CARTESIAN_POINT('Origin',(59.6329434457101,-81.3,2.20440399364573));
#111=CARTESIAN_POINT('',(58.6329434457101,-81.3,2.20440399364573));
#112=CARTESIAN_POINT('Origin',(59.6329434457101,-81.3,2.20440399364573));
#113=CARTESIAN_POINT('Origin',(46.4999998935225,-80.3,3.5));
#114=CARTESIAN_POINT('Origin',(59.6329434457101,-83.,2.20440399364573));
#115=CARTESIAN_POINT('',(58.6329434457101,-83.,2.20440399364573));
#116=UNCERTAINTY_MEASURE_WITH_UNIT(LENGTH_MEASURE(0.01),#120,
'DISTANCE_ACCURACY_VALUE',
'Maximum model space distance between geometric entities at asserted c
onnectivities');
#117=UNCERTAINTY_MEASURE_WITH_UNIT(LENGTH_MEASURE(0.01),#120,
'DISTANCE_ACCURACY_VALUE',
'Maximum model space distance between geometric entities at asserted c
onnectivities');
#118=(
GEOMETRIC_REPRESENTATION_CONTEXT(3)
GLOBAL_UNCERTAINTY_ASSIGNED_CONTEXT((#116))
GLOBAL_UNIT_ASSIGNED_CONTEXT((#120,#121,#122))
REPRESENTATION_CONTEXT('','3D')
);
#119=(
GEOMETRIC_REPRESENTATION_CONTEXT(3)
GLOBAL_UNCERTAINTY_ASSIGNED_CONTEXT((#117))
GLOBAL_UNIT_ASSIGNED_CONTEXT((#120,#121,#122))
REPRESENTATION_CONTEXT('','3D')
);
#120=(
LENGTH_UNIT()
NAMED_UNIT(*)
SI_UNIT(.MILLI.,.METRE.)
);
#121=(
NAMED_UNIT(*)
PLANE_ANGLE_UNIT()
SI_UNIT($,.RADIAN.)
);
#122=(
NAMED_UNIT(*)
SI_UNIT($,.STERADIAN.)
SOLID_ANGLE_UNIT()
);
#123=SHAPE_DEFINITION_REPRESENTATION(#124,#125);
#124=PRODUCT_DEFINITION_SHAPE('',$,#127);
#125=SHAPE_REPRESENTATION('',(#68),#118);
#126=PRODUCT_DEFINITION_CONTEXT('part definition',#131,'design');
#127=PRODUCT_DEFINITION('AirCube 1','AirCube',#128,#126);
#128=PRODUCT_DEFINITION_FORMATION('',$,#133);
#129=PRODUCT_RELATED_PRODUCT_CATEGORY('AirCube','AirCube',(#133));
#130=APPLICATION_PROTOCOL_DEFINITION('international standard',
'automotive_design',2009,#131);
#131=APPLICATION_CONTEXT(
'Core Data for Automotive Mechanical Design Process');
#132=PRODUCT_CONTEXT('part definition',#131,'mechanical');
#133=PRODUCT('AirCube 1','AirCube','KiCad electronic assembly',(#132));
#134=PRESENTATION_STYLE_ASSIGNMENT((#141));
#135=PRESENTATION_STYLE_ASSIGNMENT((#142));
#136=PRESENTATION_STYLE_ASSIGNMENT((#143));
#137=PRESENTATION_STYLE_ASSIGNMENT((#144));
#138=PRESENTATION_STYLE_ASSIGNMENT((#145));
#139=PRESENTATION_STYLE_ASSIGNMENT((#146));
#140=PRESENTATION_STYLE_ASSIGNMENT((#147));
#141=SURFACE_STYLE_USAGE(.BOTH.,#148);
#142=SURFACE_STYLE_USAGE(.BOTH.,#149);
#143=SURFACE_STYLE_USAGE(.BOTH.,#150);
#144=SURFACE_STYLE_USAGE(.BOTH.,#151);
#145=SURFACE_STYLE_USAGE(.BOTH.,#152);
#146=SURFACE_STYLE_USAGE(.BOTH.,#153);
#147=SURFACE_STYLE_USAGE(.BOTH.,#154);
#148=SURFACE_SIDE_STYLE('',(#155));
#149=SURFACE_SIDE_STYLE('',(#156));
#150=SURFACE_SIDE_STYLE('',(#157));
#151=SURFACE_SIDE_STYLE('',(#158));
#152=SURFACE_SIDE_STYLE('',(#159));
#153=SURFACE_SIDE_STYLE('',(#160));
#154=SURFACE_SIDE_STYLE('',(#161));
#155=SURFACE_STYLE_FILL_AREA(#162);
#156=SURFACE_STYLE_FILL_AREA(#163);
#157=SURFACE_STYLE_FILL_AREA(#164);
#158=SURFACE_STYLE_FILL_AREA(#165);
#159=SURFACE_STYLE_FILL_AREA(#166);
#160=SURFACE_STYLE_FILL_AREA(#167);
#161=SURFACE_STYLE_FILL_AREA(#168);
#162=FILL_AREA_STYLE('Steel - Satin',(#169));
#163=FILL_AREA_STYLE('Paint - Enamel Glossy (Red)',(#170));
#164=FILL_AREA_STYLE('Opaque(202,209,238)',(#171));
#165=FILL_AREA_STYLE('Opaque(0,128,0)',(#172));
#166=FILL_AREA_STYLE('Opaque(192,192,192)',(#173));
#167=FILL_AREA_STYLE('Opaque(224,181,50)',(#174));
#168=FILL_AREA_STYLE('Opaque(210,209,199)',(#175));
#169=FILL_AREA_STYLE_COLOUR('Steel - Satin',#176);
#170=FILL_AREA_STYLE_COLOUR('Paint - Enamel Glossy (Red)',#177);
#171=FILL_AREA_STYLE_COLOUR('Opaque(202,209,238)',#178);
#172=FILL_AREA_STYLE_COLOUR('Opaque(0,128,0)',#179);
#173=FILL_AREA_STYLE_COLOUR('Opaque(192,192,192)',#180);
#174=FILL_AREA_STYLE_COLOUR('Opaque(224,181,50)',#181);
#175=FILL_AREA_STYLE_COLOUR('Opaque(210,209,199)',#182);
#176=COLOUR_RGB('Steel - Satin',0.627450980392157,0.627450980392157,0.627450980392157);
#177=COLOUR_RGB('Paint - Enamel Glossy (Red)',0.768627450980392,0.207843137254902,
0.152941176470588);
#178=COLOUR_RGB('Opaque(202,209,238)',0.792156862745098,0.819607843137255,
0.933333333333333);
#179=COLOUR_RGB('Opaque(0,128,0)',0.,0.501960784313725,0.);
#180=COLOUR_RGB('Opaque(192,192,192)',0.752941176470588,0.752941176470588,
0.752941176470588);
#181=COLOUR_RGB('Opaque(224,181,50)',0.87843137254902,0.709803921568627,
0.196078431372549);
#182=COLOUR_RGB('Opaque(210,209,199)',0.823529411764706,0.819607843137255,
0.780392156862745);
ENDSEC;
END-ISO-10303-21;
