%TF.GenerationSoftware,KiCad,Pcbnew,9.0.7*%
%TF.CreationDate,2026-07-02T22:34:11-05:00*%
%TF.ProjectId,AirCube,41697243-7562-4652-9e6b-696361645f70,rev?*%
%TF.SameCoordinates,Original*%
%TF.FileFunction,Legend,Bot*%
%TF.FilePolarity,Positive*%
%FSLAX46Y46*%
G04 Gerber Fmt 4.6, Leading zero omitted, Abs format (unit mm)*
G04 Created by KiCad (PCBNEW 9.0.7) date 2026-07-02 22:34:11*
%MOMM*%
%LPD*%
G01*
G04 APERTURE LIST*
%ADD10C,0.101600*%
%ADD11C,0.127000*%
%ADD12C,0.120000*%
G04 APERTURE END LIST*
D10*
X36752586Y-63438186D02*
X36607443Y-63486567D01*
X36607443Y-63486567D02*
X36559062Y-63534948D01*
X36559062Y-63534948D02*
X36510681Y-63631710D01*
X36510681Y-63631710D02*
X36510681Y-63776853D01*
X36510681Y-63776853D02*
X36559062Y-63873615D01*
X36559062Y-63873615D02*
X36607443Y-63921996D01*
X36607443Y-63921996D02*
X36704205Y-63970376D01*
X36704205Y-63970376D02*
X37091253Y-63970376D01*
X37091253Y-63970376D02*
X37091253Y-62954376D01*
X37091253Y-62954376D02*
X36752586Y-62954376D01*
X36752586Y-62954376D02*
X36655824Y-63002757D01*
X36655824Y-63002757D02*
X36607443Y-63051138D01*
X36607443Y-63051138D02*
X36559062Y-63147900D01*
X36559062Y-63147900D02*
X36559062Y-63244662D01*
X36559062Y-63244662D02*
X36607443Y-63341424D01*
X36607443Y-63341424D02*
X36655824Y-63389805D01*
X36655824Y-63389805D02*
X36752586Y-63438186D01*
X36752586Y-63438186D02*
X37091253Y-63438186D01*
X35930110Y-63970376D02*
X36026872Y-63921996D01*
X36026872Y-63921996D02*
X36075253Y-63873615D01*
X36075253Y-63873615D02*
X36123634Y-63776853D01*
X36123634Y-63776853D02*
X36123634Y-63486567D01*
X36123634Y-63486567D02*
X36075253Y-63389805D01*
X36075253Y-63389805D02*
X36026872Y-63341424D01*
X36026872Y-63341424D02*
X35930110Y-63293043D01*
X35930110Y-63293043D02*
X35784967Y-63293043D01*
X35784967Y-63293043D02*
X35688205Y-63341424D01*
X35688205Y-63341424D02*
X35639824Y-63389805D01*
X35639824Y-63389805D02*
X35591443Y-63486567D01*
X35591443Y-63486567D02*
X35591443Y-63776853D01*
X35591443Y-63776853D02*
X35639824Y-63873615D01*
X35639824Y-63873615D02*
X35688205Y-63921996D01*
X35688205Y-63921996D02*
X35784967Y-63970376D01*
X35784967Y-63970376D02*
X35930110Y-63970376D01*
X35010872Y-63970376D02*
X35107634Y-63921996D01*
X35107634Y-63921996D02*
X35156015Y-63873615D01*
X35156015Y-63873615D02*
X35204396Y-63776853D01*
X35204396Y-63776853D02*
X35204396Y-63486567D01*
X35204396Y-63486567D02*
X35156015Y-63389805D01*
X35156015Y-63389805D02*
X35107634Y-63341424D01*
X35107634Y-63341424D02*
X35010872Y-63293043D01*
X35010872Y-63293043D02*
X34865729Y-63293043D01*
X34865729Y-63293043D02*
X34768967Y-63341424D01*
X34768967Y-63341424D02*
X34720586Y-63389805D01*
X34720586Y-63389805D02*
X34672205Y-63486567D01*
X34672205Y-63486567D02*
X34672205Y-63776853D01*
X34672205Y-63776853D02*
X34720586Y-63873615D01*
X34720586Y-63873615D02*
X34768967Y-63921996D01*
X34768967Y-63921996D02*
X34865729Y-63970376D01*
X34865729Y-63970376D02*
X35010872Y-63970376D01*
X34381920Y-63293043D02*
X33994872Y-63293043D01*
X34236777Y-62954376D02*
X34236777Y-63825234D01*
X34236777Y-63825234D02*
X34188396Y-63921996D01*
X34188396Y-63921996D02*
X34091634Y-63970376D01*
X34091634Y-63970376D02*
X33994872Y-63970376D01*
D11*
X39241048Y-65468406D02*
X38950762Y-65468406D01*
X39095905Y-65976406D02*
X39095905Y-65468406D01*
X38781428Y-65976406D02*
X38781428Y-65468406D01*
X38781428Y-65468406D02*
X38587904Y-65468406D01*
X38587904Y-65468406D02*
X38539523Y-65492596D01*
X38539523Y-65492596D02*
X38515333Y-65516787D01*
X38515333Y-65516787D02*
X38491142Y-65565168D01*
X38491142Y-65565168D02*
X38491142Y-65637739D01*
X38491142Y-65637739D02*
X38515333Y-65686120D01*
X38515333Y-65686120D02*
X38539523Y-65710311D01*
X38539523Y-65710311D02*
X38587904Y-65734501D01*
X38587904Y-65734501D02*
X38781428Y-65734501D01*
X38007333Y-65976406D02*
X38297619Y-65976406D01*
X38152476Y-65976406D02*
X38152476Y-65468406D01*
X38152476Y-65468406D02*
X38200857Y-65540977D01*
X38200857Y-65540977D02*
X38249238Y-65589358D01*
X38249238Y-65589358D02*
X38297619Y-65613549D01*
D12*
%TO.C,TP1*%
X39300000Y-64300000D02*
G75*
G02*
X37900000Y-64300000I-700000J0D01*
G01*
X37900000Y-64300000D02*
G75*
G02*
X39300000Y-64300000I700000J0D01*
G01*
%TD*%
M02*
