%TF.GenerationSoftware,KiCad,Pcbnew,9.0.7*%
%TF.CreationDate,2026-07-02T22:34:10-05:00*%
%TF.ProjectId,AirCube,41697243-7562-4652-9e6b-696361645f70,rev?*%
%TF.SameCoordinates,Original*%
%TF.FileFunction,Copper,L2,Bot*%
%TF.FilePolarity,Positive*%
%FSLAX46Y46*%
G04 Gerber Fmt 4.6, Leading zero omitted, Abs format (unit mm)*
G04 Created by KiCad (PCBNEW 9.0.7) date 2026-07-02 22:34:10*
%MOMM*%
%LPD*%
G01*
G04 APERTURE LIST*
G04 Aperture macros list*
%AMRoundRect*
0 Rectangle with rounded corners*
0 $1 Rounding radius*
0 $2 $3 $4 $5 $6 $7 $8 $9 X,Y pos of 4 corners*
0 Add a 4 corners polygon primitive as box body*
4,1,4,$2,$3,$4,$5,$6,$7,$8,$9,$2,$3,0*
0 Add four circle primitives for the rounded corners*
1,1,$1+$1,$2,$3*
1,1,$1+$1,$4,$5*
1,1,$1+$1,$6,$7*
1,1,$1+$1,$8,$9*
0 Add four rect primitives between the rounded corners*
20,1,$1+$1,$2,$3,$4,$5,0*
20,1,$1+$1,$4,$5,$6,$7,0*
20,1,$1+$1,$6,$7,$8,$9,0*
20,1,$1+$1,$8,$9,$2,$3,0*%
G04 Aperture macros list end*
%TA.AperFunction,ComponentPad*%
%ADD10C,0.508000*%
%TD*%
%TA.AperFunction,ComponentPad*%
%ADD11O,1.000000X2.100000*%
%TD*%
%TA.AperFunction,ComponentPad*%
%ADD12RoundRect,0.250000X-0.250000X-0.650000X0.250000X-0.650000X0.250000X0.650000X-0.250000X0.650000X0*%
%TD*%
%TA.AperFunction,SMDPad,CuDef*%
%ADD13C,1.000000*%
%TD*%
%TA.AperFunction,ViaPad*%
%ADD14C,0.508000*%
%TD*%
%TA.AperFunction,Conductor*%
%ADD15C,0.152400*%
%TD*%
%TA.AperFunction,Conductor*%
%ADD16C,0.254000*%
%TD*%
%TA.AperFunction,Conductor*%
%ADD17C,0.203200*%
%TD*%
%TA.AperFunction,Conductor*%
%ADD18C,0.304800*%
%TD*%
%TA.AperFunction,Conductor*%
%ADD19C,0.508000*%
%TD*%
%TA.AperFunction,Conductor*%
%ADD20C,0.457200*%
%TD*%
G04 APERTURE END LIST*
D10*
%TO.P,U7,49,EPAD*%
%TO.N,GND*%
X34212500Y-69175000D03*
X36187500Y-69175000D03*
X33225000Y-68187500D03*
X35200000Y-68187500D03*
X37175000Y-68187500D03*
X34212500Y-67200000D03*
X36187500Y-67200000D03*
X33225000Y-66212500D03*
X35200000Y-66212500D03*
X37175000Y-66212500D03*
X34212500Y-65225000D03*
X36187500Y-65225000D03*
%TD*%
D11*
%TO.P,P1,SH1,SHELL_GND*%
%TO.N,Net-(P1-SHELL_GND)*%
X44877500Y-80620000D03*
%TO.P,P1,SH2,SHELL_GND__1*%
%TO.N,unconnected-(P1-SHELL_GND__1-PadSH2)*%
X53517500Y-80620000D03*
D12*
%TO.P,P1,SH3,SHELL_GND__2*%
%TO.N,unconnected-(P1-SHELL_GND__2-PadSH3)*%
X44877500Y-84800000D03*
%TO.P,P1,SH4,SHELL_GND__3*%
%TO.N,unconnected-(P1-SHELL_GND__3-PadSH4)*%
X53517500Y-84800000D03*
%TD*%
D13*
%TO.P,TP1,1,1*%
%TO.N,Net-(U7-IO9)*%
X38600000Y-64300000D03*
%TD*%
D14*
%TO.N,/SDA*%
X58400000Y-43600000D03*
%TO.N,/SCL*%
X57779086Y-42226285D03*
%TO.N,GND*%
X57100000Y-49100000D03*
X60400000Y-42700000D03*
%TO.N,/VCNL_INT*%
X68500000Y-45900000D03*
%TO.N,Net-(U1-Pad2)*%
X64600000Y-44787500D03*
X66800000Y-47887500D03*
%TO.N,GND*%
X65000000Y-42600000D03*
%TO.N,/SDA*%
X58400000Y-41717400D03*
%TO.N,GND*%
X57600000Y-77350000D03*
X56700000Y-72700000D03*
X52700000Y-68300000D03*
X30200000Y-74500000D03*
X58700000Y-66300000D03*
X30400000Y-60400000D03*
X32500000Y-82300000D03*
X24700000Y-50500000D03*
X45800000Y-60700000D03*
X52400000Y-60600000D03*
X60000000Y-75250000D03*
X61800000Y-77300000D03*
X27200000Y-45800000D03*
X55800000Y-75150000D03*
X33000000Y-60300000D03*
X43800000Y-74700000D03*
X53200000Y-77300000D03*
X24800000Y-48100000D03*
X30400000Y-78700000D03*
X43200000Y-68100000D03*
X66500000Y-80900000D03*
X40200000Y-60000000D03*
X61300000Y-62500000D03*
X59500000Y-77350000D03*
X38400000Y-43700000D03*
X49200000Y-60600000D03*
X59450000Y-72800000D03*
X30241200Y-52750000D03*
X67140000Y-60920000D03*
X55700000Y-65700000D03*
X53300000Y-72600000D03*
X45800000Y-71700000D03*
X45900000Y-82300000D03*
X30000000Y-43400000D03*
X55600000Y-61500000D03*
X55000000Y-77300000D03*
X44900000Y-74700000D03*
X68000000Y-48600000D03*
X61200000Y-66450000D03*
X46292000Y-68100000D03*
%TO.N,+3V3*%
X63200000Y-78408000D03*
X33700000Y-77900000D03*
X50000000Y-60200000D03*
X50000000Y-69300000D03*
X40500000Y-45300000D03*
X63200000Y-83900000D03*
X41900000Y-76200000D03*
X27900000Y-46000000D03*
%TO.N,+5VD*%
X53800000Y-71300000D03*
X53800000Y-67000000D03*
%TO.N,Net-(U7-IO11)*%
X60650000Y-77350000D03*
X41100000Y-64800000D03*
%TO.N,/USB_D-*%
X50200000Y-71600000D03*
X38400000Y-62292000D03*
%TO.N,/USB_D+*%
X37600000Y-62800000D03*
X48600000Y-71600000D03*
%TO.N,/SDA*%
X28700000Y-49900000D03*
X33200000Y-71192000D03*
X25700000Y-46200000D03*
%TO.N,/SCL*%
X32300000Y-71700000D03*
X26300000Y-45700000D03*
X28700000Y-48600000D03*
%TO.N,Net-(U7-IO9)*%
X41200000Y-63400000D03*
%TO.N,Net-(P1-DP1)*%
X48939500Y-78670000D03*
X49955500Y-78690000D03*
%TO.N,/VCNL_INT*%
X35500000Y-74900000D03*
%TD*%
D15*
%TO.N,/SDA*%
X58400000Y-41717400D02*
X58400000Y-43600000D01*
X25700000Y-45600000D02*
X25700000Y-46200000D01*
X25900000Y-45400000D02*
X25700000Y-45600000D01*
X27405800Y-41394200D02*
X25900000Y-42900000D01*
X58017400Y-41717400D02*
X57694200Y-41394200D01*
X58400000Y-41717400D02*
X58017400Y-41717400D01*
X57694200Y-41394200D02*
X27405800Y-41394200D01*
X25900000Y-42900000D02*
X25900000Y-45400000D01*
D16*
%TO.N,GND*%
X68000000Y-59400000D02*
X68000000Y-48600000D01*
X67140000Y-60260000D02*
X68000000Y-59400000D01*
X67140000Y-60920000D02*
X67140000Y-60260000D01*
D17*
%TO.N,/VCNL_INT*%
X42400000Y-74900000D02*
X35500000Y-74900000D01*
X64500000Y-77900000D02*
X51200000Y-77900000D01*
X68511200Y-73888800D02*
X64500000Y-77900000D01*
X45200000Y-77700000D02*
X42400000Y-74900000D01*
X68500000Y-45900000D02*
X68511200Y-45911200D01*
X68511200Y-45911200D02*
X68511200Y-73888800D01*
X51200000Y-77900000D02*
X51000000Y-77700000D01*
X51000000Y-77700000D02*
X45200000Y-77700000D01*
%TO.N,Net-(U1-Pad2)*%
X66800000Y-46087500D02*
X66800000Y-47887500D01*
X65500000Y-45687500D02*
X66400000Y-45687500D01*
X64600000Y-44787500D02*
X65500000Y-45687500D01*
X66400000Y-45687500D02*
X66800000Y-46087500D01*
%TO.N,+3V3*%
X63200000Y-78300000D02*
X63200000Y-78408000D01*
D18*
X40200000Y-45600000D02*
X40500000Y-45300000D01*
D19*
X34200000Y-76200000D02*
X33700000Y-76700000D01*
D17*
X63200000Y-83900000D02*
X63200000Y-78300000D01*
D18*
X28690200Y-45600000D02*
X40200000Y-45600000D01*
D19*
X41900000Y-76200000D02*
X34200000Y-76200000D01*
X33700000Y-76700000D02*
X33700000Y-77900000D01*
D18*
X50000000Y-60200000D02*
X50000000Y-69300000D01*
X28290200Y-46000000D02*
X28690200Y-45600000D01*
X27900000Y-46000000D02*
X28290200Y-46000000D01*
D20*
%TO.N,+5VD*%
X53800000Y-67000000D02*
X53800000Y-71300000D01*
D17*
%TO.N,Net-(U7-IO11)*%
X59600000Y-76300000D02*
X49500000Y-76300000D01*
X49500000Y-76300000D02*
X46800000Y-73600000D01*
X44600000Y-64800000D02*
X41100000Y-64800000D01*
X46800000Y-73600000D02*
X46800000Y-67000000D01*
X46800000Y-67000000D02*
X44600000Y-64800000D01*
X60650000Y-77350000D02*
X59600000Y-76300000D01*
%TO.N,/USB_D-*%
X45800000Y-63600000D02*
X49100000Y-66900000D01*
X38400000Y-62292000D02*
X44492000Y-62292000D01*
X49100000Y-66900000D02*
X49100000Y-70200000D01*
X49100000Y-70200000D02*
X49100000Y-70500000D01*
X49100000Y-70500000D02*
X50200000Y-71600000D01*
X44492000Y-62292000D02*
X45800000Y-63600000D01*
%TO.N,/USB_D+*%
X46100000Y-64500000D02*
X44400000Y-62800000D01*
X48600000Y-67000000D02*
X46100000Y-64500000D01*
X44400000Y-62800000D02*
X37600000Y-62800000D01*
X48600000Y-71600000D02*
X48600000Y-67000000D01*
D15*
%TO.N,/SDA*%
X25700000Y-46200000D02*
X28200000Y-48700000D01*
X33200000Y-71900000D02*
X32891000Y-72209000D01*
X32009000Y-72209000D02*
X31100000Y-71300000D01*
X28200000Y-48700000D02*
X28200000Y-48900000D01*
X31100000Y-52300000D02*
X31100000Y-50800000D01*
X30200000Y-49900000D02*
X28700000Y-49900000D01*
X32891000Y-72209000D02*
X32009000Y-72209000D01*
X31100000Y-71300000D02*
X31100000Y-52300000D01*
X33200000Y-71192000D02*
X33200000Y-71900000D01*
X28700000Y-49400000D02*
X28700000Y-49900000D01*
X28200000Y-48900000D02*
X28700000Y-49400000D01*
X31100000Y-50800000D02*
X30300000Y-50000000D01*
X30300000Y-50000000D02*
X30200000Y-49900000D01*
%TO.N,/SCL*%
X32300000Y-71700000D02*
X31405800Y-70805800D01*
X31405800Y-50673334D02*
X31400000Y-50667533D01*
X26300000Y-45700000D02*
X26300000Y-46300000D01*
X30300000Y-49500000D02*
X29600000Y-49500000D01*
X26300000Y-46300000D02*
X28600000Y-48600000D01*
X31400000Y-50600000D02*
X30300000Y-49500000D01*
X29600000Y-49500000D02*
X28700000Y-48600000D01*
X31400000Y-50667533D02*
X31400000Y-50600000D01*
X28600000Y-48600000D02*
X28700000Y-48600000D01*
X31405800Y-70805800D02*
X31405800Y-50673334D01*
D17*
%TO.N,Net-(U7-IO9)*%
X39500000Y-63400000D02*
X38600000Y-64300000D01*
X41200000Y-63400000D02*
X39500000Y-63400000D01*
D15*
%TO.N,Net-(P1-DP1)*%
X48959500Y-78650000D02*
X48939500Y-78670000D01*
X49955500Y-78690000D02*
X49955500Y-78680000D01*
X49925500Y-78650000D02*
X48959500Y-78650000D01*
X49955500Y-78680000D02*
X49925500Y-78650000D01*
%TO.N,/SCL*%
X26300000Y-42932466D02*
X26300000Y-45700000D01*
X27532466Y-41700000D02*
X26300000Y-42932466D01*
X57200000Y-41700000D02*
X27532466Y-41700000D01*
X57726285Y-42226285D02*
X57200000Y-41700000D01*
X57779086Y-42226285D02*
X57726285Y-42226285D01*
%TD*%
%TA.AperFunction,Conductor*%
%TO.N,GND*%
G36*
X30778631Y-60019213D02*
G01*
X30815176Y-60069513D01*
X30820100Y-60100600D01*
X30820100Y-71263150D01*
X30820100Y-71336850D01*
X30839175Y-71408037D01*
X30876024Y-71471862D01*
X31837138Y-72432976D01*
X31900962Y-72469825D01*
X31972150Y-72488900D01*
X31972152Y-72488900D01*
X32927850Y-72488900D01*
X32999037Y-72469825D01*
X33062862Y-72432976D01*
X33423976Y-72071862D01*
X33460825Y-72008037D01*
X33479900Y-71936850D01*
X33479900Y-71863150D01*
X33479900Y-71601054D01*
X33499113Y-71541923D01*
X33509359Y-71529925D01*
X33566251Y-71473034D01*
X33626508Y-71368665D01*
X33657700Y-71252257D01*
X33657700Y-71131743D01*
X33626508Y-71015335D01*
X33606066Y-70979929D01*
X33566252Y-70910968D01*
X33566251Y-70910966D01*
X33481034Y-70825749D01*
X33481031Y-70825747D01*
X33376668Y-70765493D01*
X33376665Y-70765492D01*
X33345478Y-70757135D01*
X33260259Y-70734300D01*
X33260257Y-70734300D01*
X33139743Y-70734300D01*
X33139740Y-70734300D01*
X33023331Y-70765493D01*
X32918968Y-70825747D01*
X32918967Y-70825748D01*
X32918966Y-70825749D01*
X32833749Y-70910966D01*
X32833748Y-70910967D01*
X32833747Y-70910968D01*
X32773493Y-71015331D01*
X32742300Y-71131740D01*
X32742300Y-71253496D01*
X32723087Y-71312627D01*
X32672787Y-71349172D01*
X32610613Y-71349172D01*
X32586934Y-71336715D01*
X32586744Y-71337046D01*
X32581034Y-71333749D01*
X32544449Y-71312627D01*
X32476668Y-71273493D01*
X32476665Y-71273492D01*
X32438069Y-71263150D01*
X32360259Y-71242300D01*
X32360257Y-71242300D01*
X32279808Y-71242300D01*
X32220677Y-71223087D01*
X32208673Y-71212835D01*
X31715165Y-70719327D01*
X31686939Y-70663929D01*
X31685700Y-70648192D01*
X31685700Y-69562285D01*
X33968897Y-69562285D01*
X34036024Y-69601041D01*
X34152305Y-69632199D01*
X34152308Y-69632200D01*
X34272692Y-69632200D01*
X34272694Y-69632199D01*
X34388973Y-69601041D01*
X34456098Y-69562285D01*
X35943897Y-69562285D01*
X36011024Y-69601041D01*
X36127305Y-69632199D01*
X36127308Y-69632200D01*
X36247692Y-69632200D01*
X36247694Y-69632199D01*
X36363973Y-69601041D01*
X36431100Y-69562284D01*
X36187500Y-69318684D01*
X35943897Y-69562285D01*
X34456098Y-69562285D01*
X34456100Y-69562284D01*
X34212500Y-69318684D01*
X33968897Y-69562285D01*
X31685700Y-69562285D01*
X31685700Y-69114804D01*
X33755300Y-69114804D01*
X33755300Y-69235194D01*
X33786459Y-69351476D01*
X33825213Y-69418600D01*
X34068815Y-69174999D01*
X34043554Y-69149738D01*
X34085500Y-69149738D01*
X34085500Y-69200262D01*
X34104835Y-69246940D01*
X34140560Y-69282665D01*
X34187238Y-69302000D01*
X34237762Y-69302000D01*
X34284440Y-69282665D01*
X34320165Y-69246940D01*
X34339500Y-69200262D01*
X34339500Y-69174999D01*
X34356184Y-69174999D01*
X34356184Y-69175000D01*
X34599784Y-69418600D01*
X34638541Y-69351473D01*
X34669699Y-69235194D01*
X34669700Y-69235191D01*
X34669700Y-69114808D01*
X34669699Y-69114805D01*
X34669699Y-69114804D01*
X35730300Y-69114804D01*
X35730300Y-69235194D01*
X35761459Y-69351476D01*
X35800213Y-69418600D01*
X36043815Y-69174999D01*
X36018554Y-69149738D01*
X36060500Y-69149738D01*
X36060500Y-69200262D01*
X36079835Y-69246940D01*
X36115560Y-69282665D01*
X36162238Y-69302000D01*
X36212762Y-69302000D01*
X36259440Y-69282665D01*
X36295165Y-69246940D01*
X36314500Y-69200262D01*
X36314500Y-69174999D01*
X36331184Y-69174999D01*
X36331184Y-69175000D01*
X36574784Y-69418600D01*
X36613541Y-69351473D01*
X36644699Y-69235194D01*
X36644700Y-69235191D01*
X36644700Y-69114808D01*
X36644699Y-69114805D01*
X36613541Y-68998524D01*
X36574785Y-68931397D01*
X36331184Y-69174999D01*
X36314500Y-69174999D01*
X36314500Y-69149738D01*
X36295165Y-69103060D01*
X36259440Y-69067335D01*
X36212762Y-69048000D01*
X36162238Y-69048000D01*
X36115560Y-69067335D01*
X36079835Y-69103060D01*
X36060500Y-69149738D01*
X36018554Y-69149738D01*
X35800214Y-68931398D01*
X35761457Y-68998528D01*
X35761456Y-68998531D01*
X35730300Y-69114804D01*
X34669699Y-69114804D01*
X34638541Y-68998524D01*
X34599785Y-68931397D01*
X34356184Y-69174999D01*
X34339500Y-69174999D01*
X34339500Y-69149738D01*
X34320165Y-69103060D01*
X34284440Y-69067335D01*
X34237762Y-69048000D01*
X34187238Y-69048000D01*
X34140560Y-69067335D01*
X34104835Y-69103060D01*
X34085500Y-69149738D01*
X34043554Y-69149738D01*
X33825214Y-68931398D01*
X33786457Y-68998528D01*
X33786456Y-68998531D01*
X33755300Y-69114804D01*
X31685700Y-69114804D01*
X31685700Y-68787714D01*
X33968898Y-68787714D01*
X34212499Y-69031315D01*
X34456100Y-68787714D01*
X35943898Y-68787714D01*
X36187499Y-69031315D01*
X36431101Y-68787713D01*
X36363976Y-68748959D01*
X36247694Y-68717800D01*
X36127304Y-68717800D01*
X36011031Y-68748956D01*
X36011028Y-68748957D01*
X35943898Y-68787714D01*
X34456100Y-68787714D01*
X34456101Y-68787713D01*
X34388976Y-68748959D01*
X34272694Y-68717800D01*
X34152304Y-68717800D01*
X34036031Y-68748956D01*
X34036028Y-68748957D01*
X33968898Y-68787714D01*
X31685700Y-68787714D01*
X31685700Y-68574785D01*
X32981397Y-68574785D01*
X33048524Y-68613541D01*
X33164805Y-68644699D01*
X33164808Y-68644700D01*
X33285192Y-68644700D01*
X33285194Y-68644699D01*
X33401473Y-68613541D01*
X33468598Y-68574785D01*
X34956397Y-68574785D01*
X35023524Y-68613541D01*
X35139805Y-68644699D01*
X35139808Y-68644700D01*
X35260192Y-68644700D01*
X35260194Y-68644699D01*
X35376473Y-68613541D01*
X35443598Y-68574785D01*
X36931397Y-68574785D01*
X36998524Y-68613541D01*
X37114805Y-68644699D01*
X37114808Y-68644700D01*
X37235192Y-68644700D01*
X37235194Y-68644699D01*
X37351473Y-68613541D01*
X37418600Y-68574784D01*
X37175000Y-68331184D01*
X36931397Y-68574785D01*
X35443598Y-68574785D01*
X35443600Y-68574784D01*
X35200000Y-68331184D01*
X34956397Y-68574785D01*
X33468598Y-68574785D01*
X33468600Y-68574784D01*
X33225000Y-68331184D01*
X32981397Y-68574785D01*
X31685700Y-68574785D01*
X31685700Y-68127304D01*
X32767800Y-68127304D01*
X32767800Y-68247694D01*
X32798959Y-68363976D01*
X32837713Y-68431100D01*
X33081315Y-68187499D01*
X33056054Y-68162238D01*
X33098000Y-68162238D01*
X33098000Y-68212762D01*
X33117335Y-68259440D01*
X33153060Y-68295165D01*
X33199738Y-68314500D01*
X33250262Y-68314500D01*
X33296940Y-68295165D01*
X33332665Y-68259440D01*
X33352000Y-68212762D01*
X33352000Y-68187499D01*
X33368684Y-68187499D01*
X33368684Y-68187500D01*
X33612284Y-68431100D01*
X33651041Y-68363973D01*
X33682199Y-68247694D01*
X33682200Y-68247691D01*
X33682200Y-68127308D01*
X33682199Y-68127305D01*
X33682199Y-68127304D01*
X34742800Y-68127304D01*
X34742800Y-68247694D01*
X34773959Y-68363976D01*
X34812713Y-68431100D01*
X35056315Y-68187499D01*
X35031054Y-68162238D01*
X35073000Y-68162238D01*
X35073000Y-68212762D01*
X35092335Y-68259440D01*
X35128060Y-68295165D01*
X35174738Y-68314500D01*
X35225262Y-68314500D01*
X35271940Y-68295165D01*
X35307665Y-68259440D01*
X35327000Y-68212762D01*
X35327000Y-68187499D01*
X35343684Y-68187499D01*
X35343684Y-68187500D01*
X35587284Y-68431100D01*
X35626041Y-68363973D01*
X35657199Y-68247694D01*
X35657200Y-68247691D01*
X35657200Y-68127308D01*
X35657199Y-68127305D01*
X35657199Y-68127304D01*
X36717800Y-68127304D01*
X36717800Y-68247694D01*
X36748959Y-68363976D01*
X36787713Y-68431100D01*
X37031315Y-68187499D01*
X37006054Y-68162238D01*
X37048000Y-68162238D01*
X37048000Y-68212762D01*
X37067335Y-68259440D01*
X37103060Y-68295165D01*
X37149738Y-68314500D01*
X37200262Y-68314500D01*
X37246940Y-68295165D01*
X37282665Y-68259440D01*
X37302000Y-68212762D01*
X37302000Y-68187499D01*
X37318684Y-68187499D01*
X37318684Y-68187500D01*
X37562284Y-68431100D01*
X37601041Y-68363973D01*
X37632199Y-68247694D01*
X37632200Y-68247691D01*
X37632200Y-68127308D01*
X37632199Y-68127305D01*
X37601041Y-68011024D01*
X37562285Y-67943897D01*
X37318684Y-68187499D01*
X37302000Y-68187499D01*
X37302000Y-68162238D01*
X37282665Y-68115560D01*
X37246940Y-68079835D01*
X37200262Y-68060500D01*
X37149738Y-68060500D01*
X37103060Y-68079835D01*
X37067335Y-68115560D01*
X37048000Y-68162238D01*
X37006054Y-68162238D01*
X36787714Y-67943898D01*
X36748957Y-68011028D01*
X36748956Y-68011031D01*
X36717800Y-68127304D01*
X35657199Y-68127304D01*
X35626041Y-68011024D01*
X35587285Y-67943897D01*
X35343684Y-68187499D01*
X35327000Y-68187499D01*
X35327000Y-68162238D01*
X35307665Y-68115560D01*
X35271940Y-68079835D01*
X35225262Y-68060500D01*
X35174738Y-68060500D01*
X35128060Y-68079835D01*
X35092335Y-68115560D01*
X35073000Y-68162238D01*
X35031054Y-68162238D01*
X34812714Y-67943898D01*
X34773957Y-68011028D01*
X34773956Y-68011031D01*
X34742800Y-68127304D01*
X33682199Y-68127304D01*
X33651041Y-68011024D01*
X33612285Y-67943897D01*
X33368684Y-68187499D01*
X33352000Y-68187499D01*
X33352000Y-68162238D01*
X33332665Y-68115560D01*
X33296940Y-68079835D01*
X33250262Y-68060500D01*
X33199738Y-68060500D01*
X33153060Y-68079835D01*
X33117335Y-68115560D01*
X33098000Y-68162238D01*
X33056054Y-68162238D01*
X32837714Y-67943898D01*
X32798957Y-68011028D01*
X32798956Y-68011031D01*
X32767800Y-68127304D01*
X31685700Y-68127304D01*
X31685700Y-67800214D01*
X32981398Y-67800214D01*
X33224999Y-68043815D01*
X33468600Y-67800214D01*
X34956398Y-67800214D01*
X35199999Y-68043815D01*
X35443600Y-67800214D01*
X36931398Y-67800214D01*
X37174999Y-68043815D01*
X37418601Y-67800213D01*
X37351476Y-67761459D01*
X37235194Y-67730300D01*
X37114804Y-67730300D01*
X36998531Y-67761456D01*
X36998528Y-67761457D01*
X36931398Y-67800214D01*
X35443600Y-67800214D01*
X35443601Y-67800213D01*
X35376476Y-67761459D01*
X35260194Y-67730300D01*
X35139804Y-67730300D01*
X35023531Y-67761456D01*
X35023528Y-67761457D01*
X34956398Y-67800214D01*
X33468600Y-67800214D01*
X33468601Y-67800213D01*
X33401476Y-67761459D01*
X33285194Y-67730300D01*
X33164804Y-67730300D01*
X33048531Y-67761456D01*
X33048528Y-67761457D01*
X32981398Y-67800214D01*
X31685700Y-67800214D01*
X31685700Y-67587285D01*
X33968897Y-67587285D01*
X34036024Y-67626041D01*
X34152305Y-67657199D01*
X34152308Y-67657200D01*
X34272692Y-67657200D01*
X34272694Y-67657199D01*
X34388973Y-67626041D01*
X34456098Y-67587285D01*
X35943897Y-67587285D01*
X36011024Y-67626041D01*
X36127305Y-67657199D01*
X36127308Y-67657200D01*
X36247692Y-67657200D01*
X36247694Y-67657199D01*
X36363973Y-67626041D01*
X36431100Y-67587284D01*
X36187500Y-67343684D01*
X35943897Y-67587285D01*
X34456098Y-67587285D01*
X34456100Y-67587284D01*
X34212500Y-67343684D01*
X33968897Y-67587285D01*
X31685700Y-67587285D01*
X31685700Y-67139804D01*
X33755300Y-67139804D01*
X33755300Y-67260194D01*
X33786459Y-67376476D01*
X33825213Y-67443600D01*
X34068815Y-67199999D01*
X34043554Y-67174738D01*
X34085500Y-67174738D01*
X34085500Y-67225262D01*
X34104835Y-67271940D01*
X34140560Y-67307665D01*
X34187238Y-67327000D01*
X34237762Y-67327000D01*
X34284440Y-67307665D01*
X34320165Y-67271940D01*
X34339500Y-67225262D01*
X34339500Y-67199999D01*
X34356184Y-67199999D01*
X34356184Y-67200000D01*
X34599784Y-67443600D01*
X34638541Y-67376473D01*
X34669699Y-67260194D01*
X34669700Y-67260191D01*
X34669700Y-67139808D01*
X34669699Y-67139805D01*
X34669699Y-67139804D01*
X35730300Y-67139804D01*
X35730300Y-67260194D01*
X35761459Y-67376476D01*
X35800213Y-67443600D01*
X36043815Y-67199999D01*
X36018554Y-67174738D01*
X36060500Y-67174738D01*
X36060500Y-67225262D01*
X36079835Y-67271940D01*
X36115560Y-67307665D01*
X36162238Y-67327000D01*
X36212762Y-67327000D01*
X36259440Y-67307665D01*
X36295165Y-67271940D01*
X36314500Y-67225262D01*
X36314500Y-67199999D01*
X36331184Y-67199999D01*
X36331184Y-67200000D01*
X36574784Y-67443600D01*
X36613541Y-67376473D01*
X36644699Y-67260194D01*
X36644700Y-67260191D01*
X36644700Y-67139808D01*
X36644699Y-67139805D01*
X36613541Y-67023524D01*
X36574785Y-66956397D01*
X36331184Y-67199999D01*
X36314500Y-67199999D01*
X36314500Y-67174738D01*
X36295165Y-67128060D01*
X36259440Y-67092335D01*
X36212762Y-67073000D01*
X36162238Y-67073000D01*
X36115560Y-67092335D01*
X36079835Y-67128060D01*
X36060500Y-67174738D01*
X36018554Y-67174738D01*
X35800214Y-66956398D01*
X35761457Y-67023528D01*
X35761456Y-67023531D01*
X35730300Y-67139804D01*
X34669699Y-67139804D01*
X34638541Y-67023524D01*
X34599785Y-66956397D01*
X34356184Y-67199999D01*
X34339500Y-67199999D01*
X34339500Y-67174738D01*
X34320165Y-67128060D01*
X34284440Y-67092335D01*
X34237762Y-67073000D01*
X34187238Y-67073000D01*
X34140560Y-67092335D01*
X34104835Y-67128060D01*
X34085500Y-67174738D01*
X34043554Y-67174738D01*
X33825214Y-66956398D01*
X33786457Y-67023528D01*
X33786456Y-67023531D01*
X33755300Y-67139804D01*
X31685700Y-67139804D01*
X31685700Y-66812714D01*
X33968898Y-66812714D01*
X34212499Y-67056315D01*
X34456100Y-66812714D01*
X35943898Y-66812714D01*
X36187499Y-67056315D01*
X36431101Y-66812713D01*
X36363976Y-66773959D01*
X36247694Y-66742800D01*
X36127304Y-66742800D01*
X36011031Y-66773956D01*
X36011028Y-66773957D01*
X35943898Y-66812714D01*
X34456100Y-66812714D01*
X34456101Y-66812713D01*
X34388976Y-66773959D01*
X34272694Y-66742800D01*
X34152304Y-66742800D01*
X34036031Y-66773956D01*
X34036028Y-66773957D01*
X33968898Y-66812714D01*
X31685700Y-66812714D01*
X31685700Y-66599785D01*
X32981397Y-66599785D01*
X33048524Y-66638541D01*
X33164805Y-66669699D01*
X33164808Y-66669700D01*
X33285192Y-66669700D01*
X33285194Y-66669699D01*
X33401473Y-66638541D01*
X33468598Y-66599785D01*
X34956397Y-66599785D01*
X35023524Y-66638541D01*
X35139805Y-66669699D01*
X35139808Y-66669700D01*
X35260192Y-66669700D01*
X35260194Y-66669699D01*
X35376473Y-66638541D01*
X35443598Y-66599785D01*
X36931397Y-66599785D01*
X36998524Y-66638541D01*
X37114805Y-66669699D01*
X37114808Y-66669700D01*
X37235192Y-66669700D01*
X37235194Y-66669699D01*
X37351473Y-66638541D01*
X37418600Y-66599784D01*
X37175000Y-66356184D01*
X36931397Y-66599785D01*
X35443598Y-66599785D01*
X35443600Y-66599784D01*
X35200000Y-66356184D01*
X34956397Y-66599785D01*
X33468598Y-66599785D01*
X33468600Y-66599784D01*
X33225000Y-66356184D01*
X32981397Y-66599785D01*
X31685700Y-66599785D01*
X31685700Y-66152304D01*
X32767800Y-66152304D01*
X32767800Y-66272694D01*
X32798959Y-66388976D01*
X32837713Y-66456100D01*
X33081315Y-66212499D01*
X33056054Y-66187238D01*
X33098000Y-66187238D01*
X33098000Y-66237762D01*
X33117335Y-66284440D01*
X33153060Y-66320165D01*
X33199738Y-66339500D01*
X33250262Y-66339500D01*
X33296940Y-66320165D01*
X33332665Y-66284440D01*
X33352000Y-66237762D01*
X33352000Y-66212499D01*
X33368684Y-66212499D01*
X33368684Y-66212500D01*
X33612284Y-66456100D01*
X33651041Y-66388973D01*
X33682199Y-66272694D01*
X33682200Y-66272691D01*
X33682200Y-66152308D01*
X33682199Y-66152305D01*
X33682199Y-66152304D01*
X34742800Y-66152304D01*
X34742800Y-66272694D01*
X34773959Y-66388976D01*
X34812713Y-66456100D01*
X35056315Y-66212499D01*
X35031054Y-66187238D01*
X35073000Y-66187238D01*
X35073000Y-66237762D01*
X35092335Y-66284440D01*
X35128060Y-66320165D01*
X35174738Y-66339500D01*
X35225262Y-66339500D01*
X35271940Y-66320165D01*
X35307665Y-66284440D01*
X35327000Y-66237762D01*
X35327000Y-66212499D01*
X35343684Y-66212499D01*
X35343684Y-66212500D01*
X35587284Y-66456100D01*
X35626041Y-66388973D01*
X35657199Y-66272694D01*
X35657200Y-66272691D01*
X35657200Y-66152308D01*
X35657199Y-66152305D01*
X35657199Y-66152304D01*
X36717800Y-66152304D01*
X36717800Y-66272694D01*
X36748959Y-66388976D01*
X36787713Y-66456100D01*
X37031315Y-66212499D01*
X37006054Y-66187238D01*
X37048000Y-66187238D01*
X37048000Y-66237762D01*
X37067335Y-66284440D01*
X37103060Y-66320165D01*
X37149738Y-66339500D01*
X37200262Y-66339500D01*
X37246940Y-66320165D01*
X37282665Y-66284440D01*
X37302000Y-66237762D01*
X37302000Y-66212499D01*
X37318684Y-66212499D01*
X37318684Y-66212500D01*
X37562284Y-66456100D01*
X37601041Y-66388973D01*
X37632199Y-66272694D01*
X37632200Y-66272691D01*
X37632200Y-66152308D01*
X37632199Y-66152305D01*
X37601041Y-66036024D01*
X37562285Y-65968897D01*
X37318684Y-66212499D01*
X37302000Y-66212499D01*
X37302000Y-66187238D01*
X37282665Y-66140560D01*
X37246940Y-66104835D01*
X37200262Y-66085500D01*
X37149738Y-66085500D01*
X37103060Y-66104835D01*
X37067335Y-66140560D01*
X37048000Y-66187238D01*
X37006054Y-66187238D01*
X36787714Y-65968898D01*
X36748957Y-66036028D01*
X36748956Y-66036031D01*
X36717800Y-66152304D01*
X35657199Y-66152304D01*
X35626041Y-66036024D01*
X35587285Y-65968897D01*
X35343684Y-66212499D01*
X35327000Y-66212499D01*
X35327000Y-66187238D01*
X35307665Y-66140560D01*
X35271940Y-66104835D01*
X35225262Y-66085500D01*
X35174738Y-66085500D01*
X35128060Y-66104835D01*
X35092335Y-66140560D01*
X35073000Y-66187238D01*
X35031054Y-66187238D01*
X34812714Y-65968898D01*
X34773957Y-66036028D01*
X34773956Y-66036031D01*
X34742800Y-66152304D01*
X33682199Y-66152304D01*
X33651041Y-66036024D01*
X33612285Y-65968897D01*
X33368684Y-66212499D01*
X33352000Y-66212499D01*
X33352000Y-66187238D01*
X33332665Y-66140560D01*
X33296940Y-66104835D01*
X33250262Y-66085500D01*
X33199738Y-66085500D01*
X33153060Y-66104835D01*
X33117335Y-66140560D01*
X33098000Y-66187238D01*
X33056054Y-66187238D01*
X32837714Y-65968898D01*
X32798957Y-66036028D01*
X32798956Y-66036031D01*
X32767800Y-66152304D01*
X31685700Y-66152304D01*
X31685700Y-65825214D01*
X32981398Y-65825214D01*
X33224999Y-66068815D01*
X33468600Y-65825214D01*
X34956398Y-65825214D01*
X35199999Y-66068815D01*
X35443600Y-65825214D01*
X36931398Y-65825214D01*
X37174999Y-66068815D01*
X37418601Y-65825213D01*
X37351476Y-65786459D01*
X37235194Y-65755300D01*
X37114804Y-65755300D01*
X36998531Y-65786456D01*
X36998528Y-65786457D01*
X36931398Y-65825214D01*
X35443600Y-65825214D01*
X35443601Y-65825213D01*
X35376476Y-65786459D01*
X35260194Y-65755300D01*
X35139804Y-65755300D01*
X35023531Y-65786456D01*
X35023528Y-65786457D01*
X34956398Y-65825214D01*
X33468600Y-65825214D01*
X33468601Y-65825213D01*
X33401476Y-65786459D01*
X33285194Y-65755300D01*
X33164804Y-65755300D01*
X33048531Y-65786456D01*
X33048528Y-65786457D01*
X32981398Y-65825214D01*
X31685700Y-65825214D01*
X31685700Y-65612285D01*
X33968897Y-65612285D01*
X34036024Y-65651041D01*
X34152305Y-65682199D01*
X34152308Y-65682200D01*
X34272692Y-65682200D01*
X34272694Y-65682199D01*
X34388973Y-65651041D01*
X34456098Y-65612285D01*
X35943897Y-65612285D01*
X36011024Y-65651041D01*
X36127305Y-65682199D01*
X36127308Y-65682200D01*
X36247692Y-65682200D01*
X36247694Y-65682199D01*
X36363973Y-65651041D01*
X36431100Y-65612284D01*
X36187500Y-65368684D01*
X35943897Y-65612285D01*
X34456098Y-65612285D01*
X34456100Y-65612284D01*
X34212500Y-65368684D01*
X33968897Y-65612285D01*
X31685700Y-65612285D01*
X31685700Y-65164804D01*
X33755300Y-65164804D01*
X33755300Y-65285194D01*
X33786459Y-65401476D01*
X33825213Y-65468600D01*
X34068815Y-65224999D01*
X34043554Y-65199738D01*
X34085500Y-65199738D01*
X34085500Y-65250262D01*
X34104835Y-65296940D01*
X34140560Y-65332665D01*
X34187238Y-65352000D01*
X34237762Y-65352000D01*
X34284440Y-65332665D01*
X34320165Y-65296940D01*
X34339500Y-65250262D01*
X34339500Y-65224999D01*
X34356184Y-65224999D01*
X34356184Y-65225000D01*
X34599784Y-65468600D01*
X34638541Y-65401473D01*
X34669699Y-65285194D01*
X34669700Y-65285191D01*
X34669700Y-65164808D01*
X34669699Y-65164805D01*
X34669699Y-65164804D01*
X35730300Y-65164804D01*
X35730300Y-65285194D01*
X35761459Y-65401476D01*
X35800213Y-65468600D01*
X36043815Y-65224999D01*
X36018554Y-65199738D01*
X36060500Y-65199738D01*
X36060500Y-65250262D01*
X36079835Y-65296940D01*
X36115560Y-65332665D01*
X36162238Y-65352000D01*
X36212762Y-65352000D01*
X36259440Y-65332665D01*
X36295165Y-65296940D01*
X36314500Y-65250262D01*
X36314500Y-65224999D01*
X36331184Y-65224999D01*
X36331184Y-65225000D01*
X36574784Y-65468600D01*
X36613541Y-65401473D01*
X36644699Y-65285194D01*
X36644700Y-65285191D01*
X36644700Y-65164808D01*
X36644699Y-65164805D01*
X36613541Y-65048524D01*
X36574785Y-64981397D01*
X36331184Y-65224999D01*
X36314500Y-65224999D01*
X36314500Y-65199738D01*
X36295165Y-65153060D01*
X36259440Y-65117335D01*
X36212762Y-65098000D01*
X36162238Y-65098000D01*
X36115560Y-65117335D01*
X36079835Y-65153060D01*
X36060500Y-65199738D01*
X36018554Y-65199738D01*
X35800214Y-64981398D01*
X35761457Y-65048528D01*
X35761456Y-65048531D01*
X35730300Y-65164804D01*
X34669699Y-65164804D01*
X34638541Y-65048524D01*
X34599785Y-64981397D01*
X34356184Y-65224999D01*
X34339500Y-65224999D01*
X34339500Y-65199738D01*
X34320165Y-65153060D01*
X34284440Y-65117335D01*
X34237762Y-65098000D01*
X34187238Y-65098000D01*
X34140560Y-65117335D01*
X34104835Y-65153060D01*
X34085500Y-65199738D01*
X34043554Y-65199738D01*
X33825214Y-64981398D01*
X33786457Y-65048528D01*
X33786456Y-65048531D01*
X33755300Y-65164804D01*
X31685700Y-65164804D01*
X31685700Y-64837714D01*
X33968898Y-64837714D01*
X34212499Y-65081315D01*
X34456100Y-64837714D01*
X35943898Y-64837714D01*
X36187499Y-65081315D01*
X36431101Y-64837713D01*
X36363976Y-64798959D01*
X36247694Y-64767800D01*
X36127304Y-64767800D01*
X36011031Y-64798956D01*
X36011028Y-64798957D01*
X35943898Y-64837714D01*
X34456100Y-64837714D01*
X34456101Y-64837713D01*
X34388976Y-64798959D01*
X34272694Y-64767800D01*
X34152304Y-64767800D01*
X34036031Y-64798956D01*
X34036028Y-64798957D01*
X33968898Y-64837714D01*
X31685700Y-64837714D01*
X31685700Y-60100600D01*
X31704913Y-60041469D01*
X31755213Y-60004924D01*
X31786300Y-60000000D01*
X49448639Y-60000000D01*
X49507770Y-60019213D01*
X49544315Y-60069513D01*
X49545811Y-60126637D01*
X49542300Y-60139737D01*
X49542300Y-60260259D01*
X49559016Y-60322643D01*
X49573492Y-60376665D01*
X49630422Y-60475272D01*
X49643900Y-60525570D01*
X49643900Y-68974429D01*
X49630422Y-69024728D01*
X49622063Y-69039207D01*
X49593022Y-69089507D01*
X49546817Y-69131110D01*
X49484984Y-69137609D01*
X49431139Y-69106521D01*
X49405851Y-69049722D01*
X49405300Y-69039207D01*
X49405300Y-66859806D01*
X49405299Y-66859802D01*
X49384495Y-66782162D01*
X49384493Y-66782157D01*
X49369218Y-66755700D01*
X49369217Y-66755699D01*
X49361770Y-66742800D01*
X49344301Y-66712541D01*
X45987459Y-63355700D01*
X44679459Y-62047700D01*
X44638095Y-62023818D01*
X44609842Y-62007506D01*
X44532195Y-61986700D01*
X44532193Y-61986700D01*
X38783655Y-61986700D01*
X38724524Y-61967487D01*
X38712521Y-61957236D01*
X38681034Y-61925749D01*
X38681031Y-61925747D01*
X38576668Y-61865493D01*
X38576665Y-61865492D01*
X38545478Y-61857135D01*
X38460259Y-61834300D01*
X38460257Y-61834300D01*
X38339743Y-61834300D01*
X38339740Y-61834300D01*
X38223331Y-61865493D01*
X38118968Y-61925747D01*
X38118967Y-61925748D01*
X38118966Y-61925749D01*
X38033749Y-62010966D01*
X38033748Y-62010967D01*
X38033747Y-62010968D01*
X37973493Y-62115331D01*
X37942300Y-62231740D01*
X37942300Y-62294876D01*
X37923087Y-62354007D01*
X37872787Y-62390552D01*
X37810613Y-62390552D01*
X37791403Y-62382000D01*
X37776668Y-62373493D01*
X37776665Y-62373492D01*
X37745478Y-62365135D01*
X37660259Y-62342300D01*
X37660257Y-62342300D01*
X37539743Y-62342300D01*
X37539740Y-62342300D01*
X37423331Y-62373493D01*
X37318968Y-62433747D01*
X37318967Y-62433748D01*
X37318966Y-62433749D01*
X37233749Y-62518966D01*
X37233748Y-62518967D01*
X37233747Y-62518968D01*
X37173493Y-62623331D01*
X37142300Y-62739740D01*
X37142300Y-62860259D01*
X37173493Y-62976668D01*
X37233747Y-63081031D01*
X37233749Y-63081034D01*
X37318966Y-63166251D01*
X37318968Y-63166252D01*
X37423331Y-63226506D01*
X37423335Y-63226508D01*
X37539743Y-63257700D01*
X37660257Y-63257700D01*
X37776665Y-63226508D01*
X37881034Y-63166251D01*
X37912521Y-63134764D01*
X37967919Y-63106538D01*
X37983655Y-63105300D01*
X39120071Y-63105300D01*
X39179202Y-63124513D01*
X39215747Y-63174813D01*
X39215747Y-63236987D01*
X39191206Y-63277035D01*
X38876343Y-63591896D01*
X38820945Y-63620122D01*
X38785582Y-63619428D01*
X38708265Y-63604049D01*
X38669308Y-63596300D01*
X38530692Y-63596300D01*
X38496703Y-63603060D01*
X38394735Y-63623343D01*
X38266676Y-63676387D01*
X38266673Y-63676388D01*
X38151413Y-63753403D01*
X38053403Y-63851413D01*
X37976388Y-63966673D01*
X37976387Y-63966676D01*
X37923343Y-64094735D01*
X37911025Y-64156663D01*
X37896300Y-64230692D01*
X37896300Y-64369308D01*
X37905314Y-64414626D01*
X37923343Y-64505264D01*
X37976387Y-64633323D01*
X37976388Y-64633326D01*
X37976389Y-64633327D01*
X38053400Y-64748583D01*
X38151417Y-64846600D01*
X38266673Y-64923611D01*
X38330705Y-64950134D01*
X38394735Y-64976656D01*
X38394736Y-64976656D01*
X38394738Y-64976657D01*
X38530692Y-65003700D01*
X38530693Y-65003700D01*
X38669307Y-65003700D01*
X38669308Y-65003700D01*
X38805262Y-64976657D01*
X38933327Y-64923611D01*
X39048583Y-64846600D01*
X39146600Y-64748583D01*
X39223611Y-64633327D01*
X39276657Y-64505262D01*
X39303700Y-64369308D01*
X39303700Y-64230692D01*
X39280571Y-64114414D01*
X39287879Y-64052672D01*
X39308100Y-64023657D01*
X39596994Y-63734765D01*
X39652392Y-63706538D01*
X39668129Y-63705300D01*
X40816345Y-63705300D01*
X40875476Y-63724513D01*
X40887479Y-63734764D01*
X40918966Y-63766251D01*
X40918968Y-63766252D01*
X41023331Y-63826506D01*
X41023335Y-63826508D01*
X41139743Y-63857700D01*
X41260257Y-63857700D01*
X41376665Y-63826508D01*
X41481034Y-63766251D01*
X41566251Y-63681034D01*
X41626508Y-63576665D01*
X41657700Y-63460257D01*
X41657700Y-63339743D01*
X41628813Y-63231937D01*
X41632066Y-63169849D01*
X41671194Y-63121530D01*
X41725985Y-63105300D01*
X44231871Y-63105300D01*
X44291002Y-63124513D01*
X44303006Y-63134765D01*
X48265235Y-67096994D01*
X48293461Y-67152392D01*
X48294700Y-67168129D01*
X48294700Y-71216345D01*
X48275487Y-71275476D01*
X48265236Y-71287479D01*
X48233747Y-71318968D01*
X48173493Y-71423331D01*
X48142300Y-71539740D01*
X48142300Y-71660259D01*
X48143906Y-71666251D01*
X48169095Y-71760257D01*
X48173493Y-71776668D01*
X48233747Y-71881031D01*
X48233749Y-71881034D01*
X48318966Y-71966251D01*
X48318968Y-71966252D01*
X48423331Y-72026506D01*
X48423335Y-72026508D01*
X48539743Y-72057700D01*
X48660257Y-72057700D01*
X48776665Y-72026508D01*
X48881034Y-71966251D01*
X48966251Y-71881034D01*
X49026508Y-71776665D01*
X49057700Y-71660257D01*
X49057700Y-71539743D01*
X49026508Y-71423335D01*
X49017676Y-71408038D01*
X48966252Y-71318968D01*
X48966251Y-71318966D01*
X48934764Y-71287479D01*
X48906538Y-71232081D01*
X48905300Y-71216345D01*
X48905300Y-70979929D01*
X48924513Y-70920798D01*
X48974813Y-70884253D01*
X49036987Y-70884253D01*
X49077035Y-70908794D01*
X49712835Y-71544594D01*
X49741061Y-71599992D01*
X49742300Y-71615729D01*
X49742300Y-71660259D01*
X49743906Y-71666251D01*
X49769095Y-71760257D01*
X49773493Y-71776668D01*
X49833747Y-71881031D01*
X49833749Y-71881034D01*
X49918966Y-71966251D01*
X49918968Y-71966252D01*
X50023331Y-72026506D01*
X50023335Y-72026508D01*
X50139743Y-72057700D01*
X50260257Y-72057700D01*
X50376665Y-72026508D01*
X50481034Y-71966251D01*
X50566251Y-71881034D01*
X50626508Y-71776665D01*
X50657700Y-71660257D01*
X50657700Y-71539743D01*
X50626508Y-71423335D01*
X50617676Y-71408038D01*
X50566252Y-71318968D01*
X50566251Y-71318966D01*
X50481034Y-71233749D01*
X50462567Y-71223087D01*
X50376668Y-71173493D01*
X50376665Y-71173492D01*
X50317894Y-71157744D01*
X50260259Y-71142300D01*
X50260257Y-71142300D01*
X50215730Y-71142300D01*
X50156599Y-71123087D01*
X50144595Y-71112835D01*
X49434765Y-70403005D01*
X49406539Y-70347607D01*
X49405300Y-70331870D01*
X49405300Y-69560792D01*
X49424513Y-69501661D01*
X49474813Y-69465116D01*
X49536987Y-69465116D01*
X49587287Y-69501661D01*
X49593020Y-69510490D01*
X49633749Y-69581034D01*
X49718966Y-69666251D01*
X49718968Y-69666252D01*
X49823331Y-69726506D01*
X49823335Y-69726508D01*
X49939743Y-69757700D01*
X50060257Y-69757700D01*
X50176665Y-69726508D01*
X50281034Y-69666251D01*
X50366251Y-69581034D01*
X50426508Y-69476665D01*
X50457700Y-69360257D01*
X50457700Y-69239743D01*
X50426508Y-69123335D01*
X50421583Y-69114805D01*
X50377937Y-69039207D01*
X50369577Y-69024728D01*
X50356100Y-68974429D01*
X50356100Y-66939740D01*
X53342300Y-66939740D01*
X53342300Y-67060259D01*
X53364272Y-67142255D01*
X53367700Y-67168293D01*
X53367700Y-71131706D01*
X53364272Y-71157744D01*
X53342300Y-71239740D01*
X53342300Y-71360259D01*
X53373493Y-71476668D01*
X53420595Y-71558251D01*
X53433749Y-71581034D01*
X53518966Y-71666251D01*
X53518968Y-71666252D01*
X53623331Y-71726506D01*
X53623335Y-71726508D01*
X53739743Y-71757700D01*
X53860257Y-71757700D01*
X53976665Y-71726508D01*
X54081034Y-71666251D01*
X54166251Y-71581034D01*
X54226508Y-71476665D01*
X54257700Y-71360257D01*
X54257700Y-71239743D01*
X54235727Y-71157742D01*
X54232300Y-71131706D01*
X54232300Y-67168293D01*
X54235728Y-67142255D01*
X54236384Y-67139808D01*
X54257700Y-67060257D01*
X54257700Y-66939743D01*
X54226508Y-66823335D01*
X54220375Y-66812713D01*
X54166252Y-66718968D01*
X54166251Y-66718966D01*
X54081034Y-66633749D01*
X54081031Y-66633747D01*
X53976668Y-66573493D01*
X53976665Y-66573492D01*
X53945478Y-66565135D01*
X53860259Y-66542300D01*
X53860257Y-66542300D01*
X53739743Y-66542300D01*
X53739740Y-66542300D01*
X53623331Y-66573493D01*
X53518968Y-66633747D01*
X53518967Y-66633748D01*
X53518966Y-66633749D01*
X53433749Y-66718966D01*
X53433748Y-66718967D01*
X53433747Y-66718968D01*
X53373493Y-66823331D01*
X53342300Y-66939740D01*
X50356100Y-66939740D01*
X50356100Y-63401390D01*
X63747100Y-63401390D01*
X63747100Y-63598609D01*
X63777950Y-63793383D01*
X63777953Y-63793397D01*
X63838891Y-63980947D01*
X63928424Y-64156663D01*
X64044340Y-64316207D01*
X64044342Y-64316209D01*
X64183791Y-64455658D01*
X64343337Y-64571576D01*
X64429520Y-64615488D01*
X64519052Y-64661108D01*
X64706602Y-64722046D01*
X64706604Y-64722046D01*
X64706612Y-64722049D01*
X64901390Y-64752899D01*
X64901392Y-64752900D01*
X64901395Y-64752900D01*
X65098608Y-64752900D01*
X65098608Y-64752899D01*
X65293388Y-64722049D01*
X65480947Y-64661108D01*
X65656663Y-64571576D01*
X65816209Y-64455658D01*
X65955658Y-64316209D01*
X66071576Y-64156663D01*
X66161108Y-63980947D01*
X66222049Y-63793388D01*
X66252900Y-63598605D01*
X66252900Y-63401395D01*
X66252900Y-63401391D01*
X66252899Y-63401390D01*
X66222049Y-63206612D01*
X66210104Y-63169849D01*
X66161108Y-63019052D01*
X66071575Y-62843336D01*
X65955659Y-62683792D01*
X65816207Y-62544340D01*
X65656663Y-62428424D01*
X65480947Y-62338891D01*
X65293397Y-62277953D01*
X65293383Y-62277950D01*
X65098609Y-62247100D01*
X65098605Y-62247100D01*
X64901395Y-62247100D01*
X64901391Y-62247100D01*
X64706616Y-62277950D01*
X64706602Y-62277953D01*
X64519052Y-62338891D01*
X64343336Y-62428424D01*
X64183792Y-62544340D01*
X64044340Y-62683792D01*
X63928424Y-62843336D01*
X63838891Y-63019052D01*
X63777953Y-63206602D01*
X63777950Y-63206616D01*
X63747100Y-63401390D01*
X50356100Y-63401390D01*
X50356100Y-60525570D01*
X50369577Y-60475272D01*
X50426508Y-60376665D01*
X50457700Y-60260257D01*
X50457700Y-60139743D01*
X50457699Y-60139737D01*
X50454189Y-60126637D01*
X50457443Y-60064548D01*
X50496570Y-60016230D01*
X50551361Y-60000000D01*
X68105300Y-60000000D01*
X68164431Y-60019213D01*
X68200976Y-60069513D01*
X68205900Y-60100600D01*
X68205900Y-73720671D01*
X68186687Y-73779802D01*
X68176435Y-73791806D01*
X64403006Y-77565235D01*
X64347608Y-77593461D01*
X64331871Y-77594700D01*
X61189383Y-77594700D01*
X61130252Y-77575487D01*
X61093707Y-77525187D01*
X61092211Y-77468062D01*
X61095523Y-77455700D01*
X61107700Y-77410257D01*
X61107700Y-77289743D01*
X61076508Y-77173335D01*
X61016251Y-77068966D01*
X60931034Y-76983749D01*
X60931031Y-76983747D01*
X60826668Y-76923493D01*
X60826665Y-76923492D01*
X60795478Y-76915135D01*
X60710259Y-76892300D01*
X60710257Y-76892300D01*
X60665729Y-76892300D01*
X60606598Y-76873087D01*
X60594594Y-76862835D01*
X59787461Y-76055702D01*
X59787459Y-76055700D01*
X59746095Y-76031818D01*
X59717842Y-76015506D01*
X59640195Y-75994700D01*
X59640193Y-75994700D01*
X49668130Y-75994700D01*
X49608999Y-75975487D01*
X49596995Y-75965235D01*
X47134765Y-73503005D01*
X47106539Y-73447607D01*
X47105300Y-73431870D01*
X47105300Y-66959808D01*
X47105299Y-66959804D01*
X47084494Y-66882159D01*
X47071589Y-66859807D01*
X47044301Y-66812541D01*
X44787459Y-64555700D01*
X44746095Y-64531818D01*
X44717842Y-64515506D01*
X44640195Y-64494700D01*
X44640193Y-64494700D01*
X41483655Y-64494700D01*
X41424524Y-64475487D01*
X41412521Y-64465236D01*
X41402943Y-64455658D01*
X41381034Y-64433749D01*
X41381031Y-64433747D01*
X41276668Y-64373493D01*
X41276665Y-64373492D01*
X41245478Y-64365135D01*
X41160259Y-64342300D01*
X41160257Y-64342300D01*
X41039743Y-64342300D01*
X41039740Y-64342300D01*
X40923331Y-64373493D01*
X40818968Y-64433747D01*
X40818967Y-64433748D01*
X40818966Y-64433749D01*
X40733749Y-64518966D01*
X40733748Y-64518967D01*
X40733747Y-64518968D01*
X40673493Y-64623331D01*
X40642300Y-64739740D01*
X40642300Y-64860259D01*
X40673493Y-64976668D01*
X40733747Y-65081031D01*
X40733749Y-65081034D01*
X40818966Y-65166251D01*
X40818968Y-65166252D01*
X40923331Y-65226506D01*
X40923335Y-65226508D01*
X41039743Y-65257700D01*
X41160257Y-65257700D01*
X41276665Y-65226508D01*
X41381034Y-65166251D01*
X41412521Y-65134764D01*
X41467919Y-65106538D01*
X41483655Y-65105300D01*
X44431871Y-65105300D01*
X44491002Y-65124513D01*
X44503006Y-65134765D01*
X46465235Y-67096994D01*
X46493461Y-67152392D01*
X46494700Y-67168129D01*
X46494700Y-73640195D01*
X46511085Y-73701341D01*
X46515506Y-73717841D01*
X46555700Y-73787459D01*
X46555702Y-73787461D01*
X49312542Y-76544302D01*
X49312543Y-76544303D01*
X49350560Y-76566251D01*
X49382159Y-76584494D01*
X49382162Y-76584495D01*
X49382165Y-76584496D01*
X49459802Y-76605299D01*
X49459804Y-76605299D01*
X49459807Y-76605300D01*
X59431871Y-76605300D01*
X59491002Y-76624513D01*
X59503006Y-76634765D01*
X60162835Y-77294594D01*
X60191061Y-77349992D01*
X60191225Y-77351063D01*
X60192300Y-77358357D01*
X60192300Y-77410257D01*
X60209293Y-77473676D01*
X60210142Y-77479434D01*
X60205873Y-77504626D01*
X60204536Y-77530151D01*
X60200757Y-77534816D01*
X60199755Y-77540734D01*
X60181492Y-77558607D01*
X60165408Y-77578470D01*
X60159369Y-77580258D01*
X60155320Y-77584222D01*
X60136753Y-77586957D01*
X60110617Y-77594700D01*
X51368130Y-77594700D01*
X51308999Y-77575487D01*
X51296995Y-77565235D01*
X51187461Y-77455702D01*
X51187459Y-77455700D01*
X51146095Y-77431818D01*
X51117842Y-77415506D01*
X51040195Y-77394700D01*
X51040193Y-77394700D01*
X45368129Y-77394700D01*
X45308998Y-77375487D01*
X45296994Y-77365235D01*
X42587461Y-74655702D01*
X42587459Y-74655700D01*
X42546095Y-74631818D01*
X42517842Y-74615506D01*
X42440195Y-74594700D01*
X42440193Y-74594700D01*
X35883655Y-74594700D01*
X35824524Y-74575487D01*
X35812521Y-74565236D01*
X35781034Y-74533749D01*
X35781031Y-74533747D01*
X35676668Y-74473493D01*
X35676665Y-74473492D01*
X35645478Y-74465135D01*
X35560259Y-74442300D01*
X35560257Y-74442300D01*
X35439743Y-74442300D01*
X35439740Y-74442300D01*
X35323331Y-74473493D01*
X35218968Y-74533747D01*
X35218967Y-74533748D01*
X35218966Y-74533749D01*
X35133749Y-74618966D01*
X35133748Y-74618967D01*
X35133747Y-74618968D01*
X35073493Y-74723331D01*
X35042300Y-74839740D01*
X35042300Y-74960259D01*
X35073493Y-75076668D01*
X35133747Y-75181031D01*
X35133749Y-75181034D01*
X35218966Y-75266251D01*
X35218968Y-75266252D01*
X35323331Y-75326506D01*
X35323335Y-75326508D01*
X35439743Y-75357700D01*
X35560257Y-75357700D01*
X35676665Y-75326508D01*
X35781034Y-75266251D01*
X35812521Y-75234764D01*
X35867919Y-75206538D01*
X35883655Y-75205300D01*
X42231871Y-75205300D01*
X42291002Y-75224513D01*
X42303005Y-75234764D01*
X45012541Y-77944300D01*
X45076959Y-77981492D01*
X45076961Y-77981493D01*
X45076960Y-77981493D01*
X45079158Y-77982761D01*
X45082159Y-77984494D01*
X45116393Y-77993667D01*
X45159802Y-78005299D01*
X45159804Y-78005299D01*
X45159807Y-78005300D01*
X50831871Y-78005300D01*
X50891002Y-78024513D01*
X50903004Y-78034763D01*
X51012541Y-78144301D01*
X51076166Y-78181034D01*
X51082159Y-78184494D01*
X51082162Y-78184494D01*
X51082165Y-78184496D01*
X51159802Y-78205299D01*
X51159804Y-78205299D01*
X51159807Y-78205300D01*
X62649363Y-78205300D01*
X62708494Y-78224513D01*
X62745039Y-78274813D01*
X62746535Y-78331939D01*
X62742300Y-78347742D01*
X62742300Y-78468259D01*
X62773493Y-78584668D01*
X62833747Y-78689031D01*
X62833749Y-78689034D01*
X62865236Y-78720521D01*
X62893461Y-78775917D01*
X62894700Y-78791654D01*
X62894700Y-83516345D01*
X62875487Y-83575476D01*
X62865236Y-83587479D01*
X62833747Y-83618968D01*
X62773493Y-83723331D01*
X62742300Y-83839740D01*
X62742300Y-83960259D01*
X62773493Y-84076668D01*
X62833747Y-84181031D01*
X62833749Y-84181034D01*
X62918966Y-84266251D01*
X62918968Y-84266252D01*
X63023331Y-84326506D01*
X63023335Y-84326508D01*
X63139743Y-84357700D01*
X63260257Y-84357700D01*
X63376665Y-84326508D01*
X63481034Y-84266251D01*
X63566251Y-84181034D01*
X63626508Y-84076665D01*
X63657700Y-83960257D01*
X63657700Y-83839743D01*
X63626508Y-83723335D01*
X63610899Y-83696300D01*
X63566252Y-83618968D01*
X63566251Y-83618966D01*
X63534764Y-83587479D01*
X63506538Y-83532081D01*
X63505300Y-83516345D01*
X63505300Y-78791654D01*
X63524513Y-78732523D01*
X63534759Y-78720525D01*
X63566251Y-78689034D01*
X63626508Y-78584665D01*
X63657700Y-78468257D01*
X63657700Y-78347743D01*
X63653465Y-78331938D01*
X63656718Y-78269850D01*
X63695845Y-78221531D01*
X63750637Y-78205300D01*
X64540191Y-78205300D01*
X64540193Y-78205300D01*
X64617841Y-78184494D01*
X64652253Y-78164626D01*
X64687459Y-78144300D01*
X68755500Y-74076259D01*
X68795693Y-74006642D01*
X68795694Y-74006641D01*
X68802632Y-73980747D01*
X68803766Y-73977450D01*
X68820468Y-73955264D01*
X68835591Y-73931978D01*
X68838977Y-73930677D01*
X68841161Y-73927778D01*
X68867713Y-73919647D01*
X68893635Y-73909697D01*
X68897140Y-73910636D01*
X68900610Y-73909574D01*
X68926866Y-73918601D01*
X68953691Y-73925789D01*
X68955974Y-73928609D01*
X68959406Y-73929789D01*
X68975344Y-73952529D01*
X68992818Y-73974108D01*
X68993662Y-73978665D01*
X68995091Y-73980703D01*
X68995002Y-73985895D01*
X68999500Y-74010159D01*
X68999500Y-81997668D01*
X68999393Y-82002315D01*
X68984196Y-82330988D01*
X68983819Y-82336201D01*
X68976337Y-82412168D01*
X68975856Y-82416206D01*
X68935732Y-82703848D01*
X68934764Y-82709576D01*
X68920890Y-82779327D01*
X68920151Y-82782734D01*
X68852271Y-83071341D01*
X68850611Y-83077510D01*
X68832838Y-83136101D01*
X68831955Y-83138869D01*
X68734395Y-83429949D01*
X68731953Y-83436476D01*
X68715142Y-83477062D01*
X68714227Y-83479200D01*
X68583036Y-83776317D01*
X68579731Y-83783100D01*
X68573805Y-83794188D01*
X68572968Y-83795722D01*
X68402708Y-84101397D01*
X68397817Y-84109298D01*
X68194296Y-84406403D01*
X68188696Y-84413818D01*
X67958637Y-84690867D01*
X67952377Y-84697734D01*
X67697734Y-84952377D01*
X67690867Y-84958637D01*
X67413818Y-85188696D01*
X67406403Y-85194296D01*
X67109298Y-85397817D01*
X67101397Y-85402708D01*
X66795722Y-85572968D01*
X66794188Y-85573805D01*
X66783100Y-85579731D01*
X66776317Y-85583036D01*
X66479200Y-85714227D01*
X66477062Y-85715142D01*
X66436476Y-85731953D01*
X66429949Y-85734395D01*
X66138869Y-85831955D01*
X66136101Y-85832838D01*
X66077510Y-85850611D01*
X66071341Y-85852271D01*
X65782734Y-85920151D01*
X65779327Y-85920890D01*
X65709576Y-85934764D01*
X65703848Y-85935732D01*
X65416206Y-85975856D01*
X65412168Y-85976337D01*
X65336201Y-85983819D01*
X65330988Y-85984196D01*
X65007849Y-85999137D01*
X65002313Y-85999393D01*
X64997668Y-85999500D01*
X64351100Y-85999500D01*
X64291969Y-85980287D01*
X64255424Y-85929987D01*
X64250500Y-85898900D01*
X64250500Y-84749793D01*
X64250207Y-84749500D01*
X62250207Y-84749500D01*
X57250207Y-84749500D01*
X55250207Y-84749500D01*
X55249793Y-84749500D01*
X55249500Y-84749793D01*
X55249500Y-85898900D01*
X55230287Y-85958031D01*
X55179987Y-85994576D01*
X55148900Y-85999500D01*
X54092710Y-85999500D01*
X54033579Y-85980287D01*
X53997034Y-85929987D01*
X53997034Y-85867813D01*
X54032972Y-85817958D01*
X54091934Y-85774441D01*
X54091934Y-85774440D01*
X54091938Y-85774438D01*
X54173154Y-85664395D01*
X54218326Y-85535301D01*
X54221200Y-85504653D01*
X54221199Y-84095348D01*
X54218326Y-84064699D01*
X54173154Y-83935605D01*
X54091938Y-83825562D01*
X54034404Y-83783100D01*
X53981895Y-83744346D01*
X53852801Y-83699174D01*
X53822153Y-83696300D01*
X53822147Y-83696300D01*
X53212855Y-83696300D01*
X53212844Y-83696301D01*
X53182201Y-83699173D01*
X53053104Y-83744346D01*
X52943062Y-83825561D01*
X52943061Y-83825562D01*
X52861846Y-83935604D01*
X52861846Y-83935605D01*
X52816674Y-84064699D01*
X52813801Y-84095344D01*
X52813800Y-84095352D01*
X52813800Y-85504644D01*
X52813801Y-85504655D01*
X52816673Y-85535298D01*
X52861846Y-85664395D01*
X52943061Y-85774437D01*
X52943065Y-85774441D01*
X53002028Y-85817958D01*
X53038196Y-85868530D01*
X53037731Y-85930702D01*
X53000811Y-85980727D01*
X52942290Y-85999500D01*
X45452710Y-85999500D01*
X45393579Y-85980287D01*
X45357034Y-85929987D01*
X45357034Y-85867813D01*
X45392972Y-85817958D01*
X45451934Y-85774441D01*
X45451934Y-85774440D01*
X45451938Y-85774438D01*
X45533154Y-85664395D01*
X45578326Y-85535301D01*
X45581200Y-85504653D01*
X45581199Y-84095348D01*
X45578326Y-84064699D01*
X45533154Y-83935605D01*
X45451938Y-83825562D01*
X45394404Y-83783100D01*
X45341895Y-83744346D01*
X45212801Y-83699174D01*
X45182153Y-83696300D01*
X45182147Y-83696300D01*
X44572855Y-83696300D01*
X44572844Y-83696301D01*
X44542201Y-83699173D01*
X44413104Y-83744346D01*
X44303062Y-83825561D01*
X44303061Y-83825562D01*
X44221846Y-83935604D01*
X44221846Y-83935605D01*
X44176674Y-84064699D01*
X44173801Y-84095344D01*
X44173800Y-84095352D01*
X44173800Y-85504644D01*
X44173801Y-85504655D01*
X44176673Y-85535298D01*
X44221846Y-85664395D01*
X44303061Y-85774437D01*
X44303065Y-85774441D01*
X44362028Y-85817958D01*
X44398196Y-85868530D01*
X44397731Y-85930702D01*
X44360811Y-85980727D01*
X44302290Y-85999500D01*
X30100600Y-85999500D01*
X30041469Y-85980287D01*
X30004924Y-85929987D01*
X30000000Y-85898900D01*
X30000000Y-80000692D01*
X44173800Y-80000692D01*
X44173800Y-81239307D01*
X44200843Y-81375264D01*
X44253887Y-81503323D01*
X44253888Y-81503326D01*
X44253889Y-81503327D01*
X44330900Y-81618583D01*
X44428917Y-81716600D01*
X44544173Y-81793611D01*
X44608205Y-81820134D01*
X44672235Y-81846656D01*
X44672236Y-81846656D01*
X44672238Y-81846657D01*
X44808192Y-81873700D01*
X44808193Y-81873700D01*
X44946807Y-81873700D01*
X44946808Y-81873700D01*
X45082762Y-81846657D01*
X45210827Y-81793611D01*
X45326083Y-81716600D01*
X45424100Y-81618583D01*
X45501111Y-81503327D01*
X45554157Y-81375262D01*
X45581200Y-81239308D01*
X45581200Y-81057077D01*
X45829600Y-81057077D01*
X45829600Y-81182922D01*
X45862166Y-81304459D01*
X45862168Y-81304464D01*
X45925085Y-81413438D01*
X46014061Y-81502414D01*
X46014060Y-81502414D01*
X46015642Y-81503327D01*
X46123037Y-81565332D01*
X46123038Y-81565332D01*
X46123040Y-81565333D01*
X46244577Y-81597899D01*
X46244581Y-81597899D01*
X46244583Y-81597900D01*
X46244585Y-81597900D01*
X46370415Y-81597900D01*
X46370417Y-81597900D01*
X46370419Y-81597899D01*
X46370422Y-81597899D01*
X46491959Y-81565333D01*
X46491958Y-81565333D01*
X46491963Y-81565332D01*
X46600938Y-81502415D01*
X46689915Y-81413438D01*
X46752832Y-81304463D01*
X46770290Y-81239308D01*
X46785399Y-81182922D01*
X46785400Y-81182915D01*
X46785400Y-81057084D01*
X46785399Y-81057077D01*
X51609600Y-81057077D01*
X51609600Y-81182922D01*
X51642166Y-81304459D01*
X51642168Y-81304464D01*
X51705085Y-81413438D01*
X51794061Y-81502414D01*
X51794060Y-81502414D01*
X51795642Y-81503327D01*
X51903037Y-81565332D01*
X51903038Y-81565332D01*
X51903040Y-81565333D01*
X52024577Y-81597899D01*
X52024581Y-81597899D01*
X52024583Y-81597900D01*
X52024585Y-81597900D01*
X52150415Y-81597900D01*
X52150417Y-81597900D01*
X52150419Y-81597899D01*
X52150422Y-81597899D01*
X52271959Y-81565333D01*
X52271958Y-81565333D01*
X52271963Y-81565332D01*
X52380938Y-81502415D01*
X52469915Y-81413438D01*
X52532832Y-81304463D01*
X52550290Y-81239308D01*
X52565399Y-81182922D01*
X52565400Y-81182915D01*
X52565400Y-81057084D01*
X52565399Y-81057077D01*
X52532833Y-80935540D01*
X52532831Y-80935535D01*
X52469914Y-80826561D01*
X52380938Y-80737585D01*
X52380939Y-80737585D01*
X52271964Y-80674668D01*
X52271959Y-80674666D01*
X52150422Y-80642100D01*
X52150417Y-80642100D01*
X52024583Y-80642100D01*
X52024577Y-80642100D01*
X51903040Y-80674666D01*
X51903035Y-80674668D01*
X51794061Y-80737585D01*
X51705085Y-80826561D01*
X51642168Y-80935535D01*
X51642166Y-80935540D01*
X51609600Y-81057077D01*
X46785399Y-81057077D01*
X46752833Y-80935540D01*
X46752831Y-80935535D01*
X46689914Y-80826561D01*
X46600938Y-80737585D01*
X46600939Y-80737585D01*
X46491964Y-80674668D01*
X46491959Y-80674666D01*
X46370422Y-80642100D01*
X46370417Y-80642100D01*
X46244583Y-80642100D01*
X46244577Y-80642100D01*
X46123040Y-80674666D01*
X46123035Y-80674668D01*
X46014061Y-80737585D01*
X45925085Y-80826561D01*
X45862168Y-80935535D01*
X45862166Y-80935540D01*
X45829600Y-81057077D01*
X45581200Y-81057077D01*
X45581200Y-80000692D01*
X52813800Y-80000692D01*
X52813800Y-81239307D01*
X52840843Y-81375264D01*
X52893887Y-81503323D01*
X52893888Y-81503326D01*
X52893889Y-81503327D01*
X52970900Y-81618583D01*
X53068917Y-81716600D01*
X53184173Y-81793611D01*
X53248205Y-81820134D01*
X53312235Y-81846656D01*
X53312236Y-81846656D01*
X53312238Y-81846657D01*
X53448192Y-81873700D01*
X53448193Y-81873700D01*
X53586807Y-81873700D01*
X53586808Y-81873700D01*
X53722762Y-81846657D01*
X53850827Y-81793611D01*
X53966083Y-81716600D01*
X54064100Y-81618583D01*
X54141111Y-81503327D01*
X54194157Y-81375262D01*
X54221200Y-81239308D01*
X54221200Y-80000692D01*
X54194157Y-79864738D01*
X54141111Y-79736673D01*
X54064100Y-79621417D01*
X53966083Y-79523400D01*
X53850827Y-79446389D01*
X53850828Y-79446389D01*
X53850826Y-79446388D01*
X53850823Y-79446387D01*
X53722764Y-79393343D01*
X53632126Y-79375314D01*
X53586808Y-79366300D01*
X53448192Y-79366300D01*
X53414203Y-79373060D01*
X53312235Y-79393343D01*
X53184176Y-79446387D01*
X53184173Y-79446388D01*
X53068913Y-79523403D01*
X52970903Y-79621413D01*
X52893888Y-79736673D01*
X52893887Y-79736676D01*
X52840843Y-79864735D01*
X52813800Y-80000692D01*
X45581200Y-80000692D01*
X45554157Y-79864738D01*
X45501111Y-79736673D01*
X45424100Y-79621417D01*
X45326083Y-79523400D01*
X45210827Y-79446389D01*
X45210828Y-79446389D01*
X45210826Y-79446388D01*
X45210823Y-79446387D01*
X45082764Y-79393343D01*
X44992126Y-79375314D01*
X44946808Y-79366300D01*
X44808192Y-79366300D01*
X44774203Y-79373060D01*
X44672235Y-79393343D01*
X44544176Y-79446387D01*
X44544173Y-79446388D01*
X44428913Y-79523403D01*
X44330903Y-79621413D01*
X44253888Y-79736673D01*
X44253887Y-79736676D01*
X44200843Y-79864735D01*
X44173800Y-80000692D01*
X30000000Y-80000692D01*
X30000000Y-78609740D01*
X48481800Y-78609740D01*
X48481800Y-78730259D01*
X48512993Y-78846668D01*
X48561047Y-78929900D01*
X48573249Y-78951034D01*
X48658466Y-79036251D01*
X48658468Y-79036252D01*
X48762831Y-79096506D01*
X48762835Y-79096508D01*
X48879243Y-79127700D01*
X48999757Y-79127700D01*
X49116165Y-79096508D01*
X49220534Y-79036251D01*
X49297420Y-78959365D01*
X49304653Y-78955679D01*
X49309424Y-78949113D01*
X49331825Y-78941834D01*
X49352818Y-78931138D01*
X49368555Y-78929900D01*
X49508075Y-78929900D01*
X49567206Y-78949113D01*
X49587884Y-78969256D01*
X49589246Y-78971031D01*
X49589248Y-78971033D01*
X49589249Y-78971034D01*
X49674466Y-79056251D01*
X49674468Y-79056252D01*
X49778831Y-79116506D01*
X49778835Y-79116508D01*
X49895243Y-79147700D01*
X50015757Y-79147700D01*
X50132165Y-79116508D01*
X50236534Y-79056251D01*
X50321751Y-78971034D01*
X50382008Y-78866665D01*
X50413200Y-78750257D01*
X50413200Y-78629743D01*
X50382008Y-78513335D01*
X50355982Y-78468257D01*
X50321752Y-78408968D01*
X50321751Y-78408966D01*
X50236534Y-78323749D01*
X50201893Y-78303749D01*
X50132168Y-78263493D01*
X50132165Y-78263492D01*
X50100978Y-78255135D01*
X50015759Y-78232300D01*
X50015757Y-78232300D01*
X49895243Y-78232300D01*
X49895240Y-78232300D01*
X49778831Y-78263493D01*
X49674468Y-78323747D01*
X49674467Y-78323748D01*
X49674466Y-78323749D01*
X49657578Y-78340636D01*
X49602183Y-78368861D01*
X49586446Y-78370100D01*
X49328555Y-78370100D01*
X49269424Y-78350887D01*
X49257421Y-78340636D01*
X49240532Y-78323747D01*
X49220534Y-78303749D01*
X49220531Y-78303747D01*
X49116168Y-78243493D01*
X49116165Y-78243492D01*
X49074397Y-78232300D01*
X48999759Y-78212300D01*
X48999757Y-78212300D01*
X48879243Y-78212300D01*
X48879240Y-78212300D01*
X48762831Y-78243493D01*
X48658468Y-78303747D01*
X48658467Y-78303748D01*
X48658466Y-78303749D01*
X48573249Y-78388966D01*
X48573248Y-78388967D01*
X48573247Y-78388968D01*
X48512993Y-78493331D01*
X48481800Y-78609740D01*
X30000000Y-78609740D01*
X30000000Y-76639743D01*
X33242300Y-76639743D01*
X33242300Y-76645730D01*
X33242300Y-77960259D01*
X33273493Y-78076668D01*
X33312541Y-78144301D01*
X33333749Y-78181034D01*
X33418966Y-78266251D01*
X33418968Y-78266252D01*
X33523331Y-78326506D01*
X33523335Y-78326508D01*
X33639743Y-78357700D01*
X33760257Y-78357700D01*
X33876665Y-78326508D01*
X33981034Y-78266251D01*
X34066251Y-78181034D01*
X34126508Y-78076665D01*
X34157700Y-77960257D01*
X34157700Y-76931255D01*
X34176913Y-76872124D01*
X34187165Y-76860120D01*
X34360120Y-76687165D01*
X34415518Y-76658939D01*
X34431255Y-76657700D01*
X41960257Y-76657700D01*
X42076665Y-76626508D01*
X42181034Y-76566251D01*
X42266251Y-76481034D01*
X42326508Y-76376665D01*
X42357700Y-76260257D01*
X42357700Y-76139743D01*
X42326508Y-76023335D01*
X42266251Y-75918966D01*
X42181034Y-75833749D01*
X42181031Y-75833747D01*
X42076668Y-75773493D01*
X42076665Y-75773492D01*
X42045478Y-75765135D01*
X41960259Y-75742300D01*
X41960257Y-75742300D01*
X34260258Y-75742300D01*
X34139743Y-75742300D01*
X34139738Y-75742300D01*
X34023337Y-75773490D01*
X34023332Y-75773492D01*
X33918968Y-75833747D01*
X33918966Y-75833749D01*
X33333749Y-76418964D01*
X33273492Y-76523332D01*
X33272175Y-76528250D01*
X33271519Y-76530700D01*
X33242300Y-76639743D01*
X30000000Y-76639743D01*
X30000000Y-60100600D01*
X30019213Y-60041469D01*
X30069513Y-60004924D01*
X30100600Y-60000000D01*
X30719500Y-60000000D01*
X30778631Y-60019213D01*
G37*
%TD.AperFunction*%
%TA.AperFunction,Conductor*%
G36*
X27075014Y-41133042D02*
G01*
X27122105Y-41173638D01*
X27136339Y-41234161D01*
X27112281Y-41291492D01*
X27107222Y-41296940D01*
X25676022Y-42728140D01*
X25639176Y-42791961D01*
X25620100Y-42863149D01*
X25620100Y-45242392D01*
X25600887Y-45301523D01*
X25590635Y-45313527D01*
X25476022Y-45428140D01*
X25439176Y-45491961D01*
X25420100Y-45563149D01*
X25420100Y-45790945D01*
X25400887Y-45850076D01*
X25390636Y-45862079D01*
X25333747Y-45918968D01*
X25273493Y-46023331D01*
X25242300Y-46139740D01*
X25242300Y-46260259D01*
X25273493Y-46376668D01*
X25320277Y-46457700D01*
X25333749Y-46481034D01*
X25418966Y-46566251D01*
X25418968Y-46566252D01*
X25523331Y-46626506D01*
X25523335Y-46626508D01*
X25639743Y-46657700D01*
X25720192Y-46657700D01*
X25779323Y-46676913D01*
X25791327Y-46687165D01*
X27890635Y-48786473D01*
X27918861Y-48841871D01*
X27920100Y-48857608D01*
X27920100Y-48863150D01*
X27920100Y-48936850D01*
X27939175Y-49008037D01*
X27976024Y-49071862D01*
X28180184Y-49276022D01*
X28357303Y-49453141D01*
X28385529Y-49508539D01*
X28375803Y-49569948D01*
X28357305Y-49595408D01*
X28333753Y-49618961D01*
X28333747Y-49618968D01*
X28273493Y-49723331D01*
X28242300Y-49839740D01*
X28242300Y-49960259D01*
X28273493Y-50076668D01*
X28333094Y-50179900D01*
X28333749Y-50181034D01*
X28418966Y-50266251D01*
X28418968Y-50266252D01*
X28523331Y-50326506D01*
X28523335Y-50326508D01*
X28639743Y-50357700D01*
X28760257Y-50357700D01*
X28876665Y-50326508D01*
X28981034Y-50266251D01*
X29037921Y-50209364D01*
X29093318Y-50181138D01*
X29109055Y-50179900D01*
X30042391Y-50179900D01*
X30050109Y-50182407D01*
X30058126Y-50181138D01*
X30079116Y-50191832D01*
X30101522Y-50199113D01*
X30113524Y-50209363D01*
X30128137Y-50223976D01*
X30128138Y-50223976D01*
X30133872Y-50229710D01*
X30790635Y-50886473D01*
X30818861Y-50941871D01*
X30820100Y-50957608D01*
X30820100Y-53399400D01*
X30800887Y-53458531D01*
X30750587Y-53495076D01*
X30719500Y-53500000D01*
X30100600Y-53500000D01*
X30041469Y-53480787D01*
X30004924Y-53430487D01*
X30000000Y-53399400D01*
X30000000Y-51000000D01*
X24101100Y-51000000D01*
X24041969Y-50980787D01*
X24005424Y-50930487D01*
X24000500Y-50899400D01*
X24000500Y-45002331D01*
X24000607Y-44997685D01*
X24007538Y-44847759D01*
X24015803Y-44668995D01*
X24016179Y-44663797D01*
X24021396Y-44610831D01*
X24023664Y-44587802D01*
X24024142Y-44583792D01*
X24064270Y-44296120D01*
X24065226Y-44290465D01*
X24079127Y-44220581D01*
X24079829Y-44217345D01*
X24147735Y-43928627D01*
X24149378Y-43922519D01*
X24167191Y-43863797D01*
X24168010Y-43861232D01*
X24265620Y-43570002D01*
X24268021Y-43563584D01*
X24284939Y-43522741D01*
X24285702Y-43520956D01*
X24416970Y-43223662D01*
X24420267Y-43216898D01*
X24426193Y-43205810D01*
X24426952Y-43204416D01*
X24597303Y-42898581D01*
X24602169Y-42890721D01*
X24805717Y-42593576D01*
X24811288Y-42586200D01*
X25041371Y-42309121D01*
X25047611Y-42302276D01*
X25302276Y-42047611D01*
X25309121Y-42041371D01*
X25586200Y-41811288D01*
X25593576Y-41805717D01*
X25890721Y-41602169D01*
X25898581Y-41597303D01*
X26204417Y-41426952D01*
X26205764Y-41426218D01*
X26216898Y-41420267D01*
X26223662Y-41416970D01*
X26520956Y-41285702D01*
X26522741Y-41284939D01*
X26563584Y-41268021D01*
X26570002Y-41265620D01*
X26861232Y-41168010D01*
X26863797Y-41167191D01*
X26922519Y-41149378D01*
X26928634Y-41147733D01*
X27013057Y-41127877D01*
X27075014Y-41133042D01*
G37*
%TD.AperFunction*%
%TA.AperFunction,Conductor*%
G36*
X41458031Y-41999113D02*
G01*
X41494576Y-42049413D01*
X41499500Y-42080500D01*
X41499500Y-53398900D01*
X41480287Y-53458031D01*
X41429987Y-53494576D01*
X41398900Y-53499500D01*
X31786300Y-53499500D01*
X31727169Y-53480287D01*
X31690624Y-53429987D01*
X31685700Y-53398900D01*
X31685700Y-50668093D01*
X31685703Y-50636508D01*
X31685700Y-50636496D01*
X31685700Y-50636484D01*
X31685700Y-50636482D01*
X31683328Y-50627630D01*
X31679900Y-50601593D01*
X31679900Y-50563150D01*
X31660825Y-50491963D01*
X31623976Y-50428138D01*
X31571862Y-50376024D01*
X30471862Y-49276024D01*
X30408037Y-49239175D01*
X30336850Y-49220100D01*
X29757608Y-49220100D01*
X29698477Y-49200887D01*
X29686473Y-49190635D01*
X29187165Y-48691327D01*
X29158939Y-48635929D01*
X29157700Y-48620192D01*
X29157700Y-48539743D01*
X29157699Y-48539740D01*
X29126508Y-48423335D01*
X29066251Y-48318966D01*
X28981034Y-48233749D01*
X28981031Y-48233747D01*
X28876668Y-48173493D01*
X28876665Y-48173492D01*
X28845478Y-48165135D01*
X28760259Y-48142300D01*
X28760257Y-48142300D01*
X28639743Y-48142300D01*
X28639738Y-48142300D01*
X28615708Y-48148739D01*
X28553619Y-48145483D01*
X28518539Y-48122701D01*
X26609365Y-46213527D01*
X26605679Y-46206293D01*
X26599113Y-46201523D01*
X26591833Y-46179117D01*
X26581139Y-46158129D01*
X26579900Y-46142392D01*
X26579900Y-46109054D01*
X26599113Y-46049923D01*
X26609359Y-46037925D01*
X26666251Y-45981034D01*
X26690092Y-45939740D01*
X27442300Y-45939740D01*
X27442300Y-46060259D01*
X27473493Y-46176668D01*
X27532642Y-46279117D01*
X27533749Y-46281034D01*
X27618966Y-46366251D01*
X27618968Y-46366252D01*
X27723331Y-46426506D01*
X27723335Y-46426508D01*
X27839743Y-46457700D01*
X27960257Y-46457700D01*
X28076665Y-46426508D01*
X28175271Y-46369577D01*
X28225571Y-46356100D01*
X28337080Y-46356100D01*
X28337081Y-46356100D01*
X28370840Y-46347054D01*
X28427645Y-46331835D01*
X28427647Y-46331833D01*
X28427650Y-46331833D01*
X28508851Y-46284951D01*
X28808236Y-45985564D01*
X28863634Y-45957339D01*
X28879371Y-45956100D01*
X40246880Y-45956100D01*
X40246881Y-45956100D01*
X40280640Y-45947054D01*
X40337445Y-45931835D01*
X40337447Y-45931833D01*
X40337450Y-45931833D01*
X40418651Y-45884951D01*
X40521588Y-45782013D01*
X40566683Y-45755978D01*
X40676665Y-45726508D01*
X40781034Y-45666251D01*
X40866251Y-45581034D01*
X40926508Y-45476665D01*
X40957700Y-45360257D01*
X40957700Y-45239743D01*
X40926508Y-45123335D01*
X40866251Y-45018966D01*
X40781034Y-44933749D01*
X40781031Y-44933747D01*
X40676668Y-44873493D01*
X40676665Y-44873492D01*
X40645478Y-44865135D01*
X40560259Y-44842300D01*
X40560257Y-44842300D01*
X40439743Y-44842300D01*
X40439740Y-44842300D01*
X40323331Y-44873493D01*
X40218968Y-44933747D01*
X40218967Y-44933748D01*
X40218966Y-44933749D01*
X40133749Y-45018966D01*
X40133748Y-45018967D01*
X40133747Y-45018968D01*
X40073493Y-45123331D01*
X40073492Y-45123335D01*
X40061164Y-45169339D01*
X40027303Y-45221481D01*
X39969259Y-45243762D01*
X39963994Y-45243900D01*
X28643319Y-45243900D01*
X28643318Y-45243900D01*
X28643312Y-45243901D01*
X28552754Y-45268164D01*
X28552748Y-45268167D01*
X28471550Y-45315047D01*
X28471549Y-45315049D01*
X28405247Y-45381351D01*
X28217748Y-45568848D01*
X28162350Y-45597075D01*
X28100941Y-45587348D01*
X28096316Y-45584837D01*
X28076666Y-45573492D01*
X27960259Y-45542300D01*
X27960257Y-45542300D01*
X27839743Y-45542300D01*
X27839740Y-45542300D01*
X27723331Y-45573493D01*
X27618968Y-45633747D01*
X27618967Y-45633748D01*
X27618966Y-45633749D01*
X27533749Y-45718966D01*
X27533748Y-45718967D01*
X27533747Y-45718968D01*
X27473493Y-45823331D01*
X27442300Y-45939740D01*
X26690092Y-45939740D01*
X26726508Y-45876665D01*
X26757700Y-45760257D01*
X26757700Y-45639743D01*
X26726508Y-45523335D01*
X26708394Y-45491961D01*
X26679723Y-45442300D01*
X26666251Y-45418966D01*
X26609364Y-45362079D01*
X26581138Y-45306682D01*
X26579900Y-45290945D01*
X26579900Y-43090074D01*
X26599113Y-43030943D01*
X26609365Y-43018939D01*
X27618939Y-42009365D01*
X27674337Y-41981139D01*
X27690074Y-41979900D01*
X41398900Y-41979900D01*
X41458031Y-41999113D01*
G37*
%TD.AperFunction*%
%TA.AperFunction,Conductor*%
G36*
X65002314Y-41000607D02*
G01*
X65330999Y-41015802D01*
X65336190Y-41016178D01*
X65412186Y-41023663D01*
X65416196Y-41024140D01*
X65703868Y-41064269D01*
X65709545Y-41065228D01*
X65779394Y-41079122D01*
X65782678Y-41079834D01*
X66071357Y-41147731D01*
X66077496Y-41149383D01*
X66136162Y-41167179D01*
X66138808Y-41168023D01*
X66429978Y-41265613D01*
X66436434Y-41268029D01*
X66477196Y-41284913D01*
X66479107Y-41285731D01*
X66764300Y-41411655D01*
X66776317Y-41416962D01*
X66783100Y-41420267D01*
X66794188Y-41426193D01*
X66795676Y-41427004D01*
X67101408Y-41597297D01*
X67109288Y-41602175D01*
X67406412Y-41805710D01*
X67413809Y-41811296D01*
X67666790Y-42021369D01*
X67690867Y-42041362D01*
X67697734Y-42047622D01*
X67952377Y-42302265D01*
X67958637Y-42309132D01*
X68123209Y-42507319D01*
X68188696Y-42586181D01*
X68194292Y-42593591D01*
X68378943Y-42863149D01*
X68397817Y-42890701D01*
X68402708Y-42898601D01*
X68572968Y-43204275D01*
X68573805Y-43205810D01*
X68579731Y-43216898D01*
X68583036Y-43223681D01*
X68714227Y-43520798D01*
X68715120Y-43522886D01*
X68731957Y-43563534D01*
X68734395Y-43570049D01*
X68831955Y-43861129D01*
X68832838Y-43863897D01*
X68850611Y-43922488D01*
X68852271Y-43928657D01*
X68920151Y-44217264D01*
X68920890Y-44220671D01*
X68934764Y-44290422D01*
X68935732Y-44296150D01*
X68975856Y-44583792D01*
X68976337Y-44587830D01*
X68983819Y-44663797D01*
X68984196Y-44669010D01*
X68999393Y-44997684D01*
X68999500Y-45002331D01*
X68999500Y-45509346D01*
X68980287Y-45568477D01*
X68929987Y-45605022D01*
X68867813Y-45605022D01*
X68827767Y-45580482D01*
X68781034Y-45533749D01*
X68781031Y-45533747D01*
X68676668Y-45473493D01*
X68676665Y-45473492D01*
X68645478Y-45465135D01*
X68560259Y-45442300D01*
X68560257Y-45442300D01*
X68439743Y-45442300D01*
X68439740Y-45442300D01*
X68323331Y-45473493D01*
X68218968Y-45533747D01*
X68218967Y-45533748D01*
X68218966Y-45533749D01*
X68133749Y-45618966D01*
X68133748Y-45618967D01*
X68133747Y-45618968D01*
X68073493Y-45723331D01*
X68042300Y-45839740D01*
X68042300Y-45960259D01*
X68051020Y-45992800D01*
X68069095Y-46060257D01*
X68073493Y-46076668D01*
X68131228Y-46176668D01*
X68133749Y-46181034D01*
X68176436Y-46223721D01*
X68204661Y-46279117D01*
X68205900Y-46294854D01*
X68205900Y-50899400D01*
X68186687Y-50958531D01*
X68136387Y-50995076D01*
X68105300Y-51000000D01*
X67521425Y-51000000D01*
X67518912Y-50999500D01*
X67500207Y-50999500D01*
X56101100Y-50999500D01*
X56041969Y-50980287D01*
X56005424Y-50929987D01*
X56000500Y-50898900D01*
X56000500Y-44727240D01*
X64142300Y-44727240D01*
X64142300Y-44847759D01*
X64173493Y-44964168D01*
X64205132Y-45018968D01*
X64233749Y-45068534D01*
X64318966Y-45153751D01*
X64318968Y-45153752D01*
X64423331Y-45214006D01*
X64423335Y-45214008D01*
X64539743Y-45245200D01*
X64584271Y-45245200D01*
X64643402Y-45264413D01*
X64655406Y-45274665D01*
X65312541Y-45931800D01*
X65382158Y-45971994D01*
X65397197Y-45976023D01*
X65397198Y-45976024D01*
X65397199Y-45976024D01*
X65459807Y-45992800D01*
X66231871Y-45992800D01*
X66291002Y-46012013D01*
X66303006Y-46022265D01*
X66465235Y-46184494D01*
X66493461Y-46239892D01*
X66494700Y-46255629D01*
X66494700Y-47503845D01*
X66475487Y-47562976D01*
X66465236Y-47574979D01*
X66433747Y-47606468D01*
X66373493Y-47710831D01*
X66342300Y-47827240D01*
X66342300Y-47947759D01*
X66373493Y-48064168D01*
X66422320Y-48148739D01*
X66433749Y-48168534D01*
X66518966Y-48253751D01*
X66518968Y-48253752D01*
X66623331Y-48314006D01*
X66623335Y-48314008D01*
X66739743Y-48345200D01*
X66860257Y-48345200D01*
X66976665Y-48314008D01*
X67081034Y-48253751D01*
X67166251Y-48168534D01*
X67226508Y-48064165D01*
X67257700Y-47947757D01*
X67257700Y-47827243D01*
X67226508Y-47710835D01*
X67166251Y-47606466D01*
X67134764Y-47574979D01*
X67106538Y-47519581D01*
X67105300Y-47503845D01*
X67105300Y-46047308D01*
X67105299Y-46047304D01*
X67098876Y-46023335D01*
X67084494Y-45969659D01*
X67084494Y-45969658D01*
X67044300Y-45900041D01*
X66587459Y-45443200D01*
X66545485Y-45418966D01*
X66517842Y-45403006D01*
X66440195Y-45382200D01*
X66440193Y-45382200D01*
X65668129Y-45382200D01*
X65608998Y-45362987D01*
X65596994Y-45352735D01*
X65087165Y-44842906D01*
X65058939Y-44787508D01*
X65057700Y-44771771D01*
X65057700Y-44727243D01*
X65057699Y-44727240D01*
X65040699Y-44663797D01*
X65026508Y-44610835D01*
X64966251Y-44506466D01*
X64881034Y-44421249D01*
X64881031Y-44421247D01*
X64776668Y-44360993D01*
X64776665Y-44360992D01*
X64745478Y-44352635D01*
X64660259Y-44329800D01*
X64660257Y-44329800D01*
X64539743Y-44329800D01*
X64539740Y-44329800D01*
X64423331Y-44360993D01*
X64318968Y-44421247D01*
X64318967Y-44421248D01*
X64318966Y-44421249D01*
X64233749Y-44506466D01*
X64233748Y-44506467D01*
X64233747Y-44506468D01*
X64173493Y-44610831D01*
X64142300Y-44727240D01*
X56000500Y-44727240D01*
X56000500Y-42080500D01*
X56019713Y-42021369D01*
X56070013Y-41984824D01*
X56101100Y-41979900D01*
X57042392Y-41979900D01*
X57101523Y-41999113D01*
X57113527Y-42009365D01*
X57291921Y-42187759D01*
X57320147Y-42243157D01*
X57321386Y-42258894D01*
X57321386Y-42286544D01*
X57352579Y-42402953D01*
X57412833Y-42507316D01*
X57412835Y-42507319D01*
X57498052Y-42592536D01*
X57498054Y-42592537D01*
X57602417Y-42652791D01*
X57602421Y-42652793D01*
X57718829Y-42683985D01*
X57839343Y-42683985D01*
X57955751Y-42652793D01*
X57969199Y-42645028D01*
X58030013Y-42632101D01*
X58086813Y-42657388D01*
X58117901Y-42711232D01*
X58120100Y-42732150D01*
X58120100Y-43190945D01*
X58100887Y-43250076D01*
X58090636Y-43262079D01*
X58033747Y-43318968D01*
X57973493Y-43423331D01*
X57942300Y-43539740D01*
X57942300Y-43660259D01*
X57973493Y-43776668D01*
X58022257Y-43861129D01*
X58033749Y-43881034D01*
X58118966Y-43966251D01*
X58118968Y-43966252D01*
X58223331Y-44026506D01*
X58223335Y-44026508D01*
X58339743Y-44057700D01*
X58460257Y-44057700D01*
X58576665Y-44026508D01*
X58681034Y-43966251D01*
X58766251Y-43881034D01*
X58826508Y-43776665D01*
X58857700Y-43660257D01*
X58857700Y-43539743D01*
X58826508Y-43423335D01*
X58802867Y-43382388D01*
X58766252Y-43318968D01*
X58766251Y-43318966D01*
X58709364Y-43262079D01*
X58681138Y-43206682D01*
X58679900Y-43190945D01*
X58679900Y-42126454D01*
X58699113Y-42067323D01*
X58709359Y-42055325D01*
X58766251Y-41998434D01*
X58826508Y-41894065D01*
X58857700Y-41777657D01*
X58857700Y-41657143D01*
X58826508Y-41540735D01*
X58766251Y-41436366D01*
X58681034Y-41351149D01*
X58681031Y-41351147D01*
X58576668Y-41290893D01*
X58576665Y-41290892D01*
X58545478Y-41282535D01*
X58460259Y-41259700D01*
X58460257Y-41259700D01*
X58339743Y-41259700D01*
X58339740Y-41259700D01*
X58265939Y-41279475D01*
X58223335Y-41290892D01*
X58223333Y-41290892D01*
X58223333Y-41290893D01*
X58140183Y-41338899D01*
X58079368Y-41351825D01*
X58022569Y-41326536D01*
X58018749Y-41322911D01*
X57955538Y-41259700D01*
X57868070Y-41172232D01*
X57839846Y-41116838D01*
X57849572Y-41055429D01*
X57893535Y-41011465D01*
X57939207Y-41000500D01*
X64997668Y-41000500D01*
X65002314Y-41000607D01*
G37*
%TD.AperFunction*%
%TD*%
M02*
