M48
; DRILL file {KiCad 9.0.7} date 2026-07-02T22:34:07-0500
; FORMAT={-:-/ absolute / inch / decimal}
; #@! TF.CreationDate,2026-07-02T22:34:07-05:00
; #@! TF.GenerationSoftware,Kicad,Pcbnew,9.0.7
; #@! TF.FileFunction,Plated,1,2,PTH
FMAT,2
INCH
; #@! TA.AperFunction,Plated,PTH,ViaDrill
T1C0.0100
; #@! TA.AperFunction,Plated,PTH,ComponentDrill
T2C0.0100
; #@! TA.AperFunction,Plated,PTH,ComponentDrill
T3C0.0236
%
G90
G05
T1
X0.9724Y-1.9882
X0.9764Y-1.8937
X1.0118Y-1.8189
X1.0354Y-1.7992
X1.0709Y-1.8031
X1.0984Y-1.811
X1.1299Y-1.9134
X1.1299Y-1.9646
X1.1811Y-1.7087
X1.189Y-2.9331
X1.1906Y-2.0768
X1.1969Y-2.378
X1.1969Y-3.0984
X1.2717Y-2.8228
X1.2795Y-3.2402
X1.2992Y-2.374
X1.3071Y-2.8028
X1.3268Y-3.0669
X1.3976Y-2.9488
X1.4803Y-2.4724
X1.5118Y-1.7205
X1.5118Y-2.4524
X1.5827Y-2.3622
X1.5945Y-1.7835
X1.6181Y-2.5512
X1.622Y-2.4961
X1.6496Y-3.0
X1.7008Y-2.6811
X1.7244Y-2.9409
X1.7677Y-2.9409
X1.8031Y-2.3898
X1.8031Y-2.8228
X1.8071Y-3.2402
X1.8225Y-2.6811
X1.9134Y-2.8189
X1.9268Y-3.0972
X1.937Y-2.3858
X1.9668Y-3.098
X1.9685Y-2.3701
X1.9685Y-2.7283
X1.9764Y-2.8189
X2.063Y-2.3858
X2.0748Y-2.689
X2.0945Y-3.0433
X2.0984Y-2.8583
X2.1181Y-2.6378
X2.1181Y-2.8071
X2.1654Y-3.0433
X2.189Y-2.4213
X2.1929Y-2.5866
X2.1969Y-2.9587
X2.2323Y-2.8622
X2.248Y-1.9331
X2.2677Y-3.0453
X2.2748Y-1.6625
X2.2992Y-1.6424
X2.2992Y-1.7165
X2.311Y-2.6102
X2.3406Y-2.8661
X2.3425Y-3.0453
X2.3622Y-2.9626
X2.378Y-1.6811
X2.3878Y-3.0453
X2.4094Y-2.6161
X2.4134Y-2.4606
X2.4331Y-3.0433
X2.4882Y-3.0869
X2.4882Y-3.3031
X2.5433Y-1.7633
X2.5591Y-1.6772
X2.6181Y-3.185
X2.6299Y-1.8853
X2.6433Y-2.3984
X2.6772Y-1.9134
X2.6969Y-1.8071
T2
X1.3081Y-2.6068
X1.3081Y-2.6845
X1.3469Y-2.5679
X1.3469Y-2.6457
X1.3469Y-2.7234
X1.3858Y-2.6068
X1.3858Y-2.6845
X1.4247Y-2.5679
X1.4247Y-2.6457
X1.4247Y-2.7234
X1.4636Y-2.6068
X1.4636Y-2.6845
T3
G00X1.7668Y-3.1524
M15
G01X1.7668Y-3.1957
M16
G05
G00X1.7668Y-3.3228
M15
G01X1.7668Y-3.3543
M16
G05
G00X2.107Y-3.1524
M15
G01X2.107Y-3.1957
M16
G05
G00X2.107Y-3.3228
M15
G01X2.107Y-3.3543
M16
G05
M30
