%TF.GenerationSoftware,KiCad,Pcbnew,9.0.7*%
%TF.CreationDate,2026-07-02T22:34:10-05:00*%
%TF.ProjectId,AirCube,41697243-7562-4652-9e6b-696361645f70,rev?*%
%TF.SameCoordinates,Original*%
%TF.FileFunction,Legend,Top*%
%TF.FilePolarity,Positive*%
%FSLAX46Y46*%
G04 Gerber Fmt 4.6, Leading zero omitted, Abs format (unit mm)*
G04 Created by KiCad (PCBNEW 9.0.7) date 2026-07-02 22:34:10*
%MOMM*%
%LPD*%
G01*
G04 APERTURE LIST*
%ADD10C,0.101600*%
%ADD11C,0.150000*%
%ADD12C,0.125000*%
%ADD13C,0.175000*%
%ADD14C,0.120000*%
%ADD15C,0.127000*%
%ADD16C,0.200000*%
%ADD17C,0.050000*%
%ADD18C,0.010000*%
%ADD19C,0.100000*%
G04 APERTURE END LIST*
D10*
G36*
X54361200Y-54261140D02*
G01*
X54417756Y-54291657D01*
X54466201Y-54341281D01*
X54507163Y-54414504D01*
X54542115Y-54522668D01*
X54565734Y-54664731D01*
X54574537Y-54848535D01*
X54562578Y-55154439D01*
X54522880Y-55533930D01*
X54403958Y-56337806D01*
X54852827Y-56282961D01*
X54860631Y-56282961D01*
X54895226Y-56290925D01*
X54920202Y-56314513D01*
X54937128Y-56359129D01*
X54930242Y-56390158D01*
X54909091Y-56416152D01*
X54868984Y-56438373D01*
X54380218Y-56496076D01*
X54257229Y-57312921D01*
X54214503Y-57708620D01*
X54201835Y-58016451D01*
X54206962Y-58158907D01*
X54220519Y-58266055D01*
X54247316Y-58358180D01*
X54281629Y-58412124D01*
X54295624Y-58439056D01*
X54299984Y-58464661D01*
X54294320Y-58492259D01*
X54276353Y-58518846D01*
X54250763Y-58537819D01*
X54223487Y-58543795D01*
X54195950Y-58537662D01*
X54168093Y-58517637D01*
X54122019Y-58454135D01*
X54083797Y-58356298D01*
X54056718Y-58211957D01*
X54046203Y-58006339D01*
X54057989Y-57713780D01*
X54097751Y-57337321D01*
X54219310Y-56514650D01*
X53665366Y-56597679D01*
X53153300Y-56697429D01*
X52924642Y-57272303D01*
X52705640Y-57768715D01*
X52571592Y-58030568D01*
X52455488Y-58218723D01*
X52355235Y-58348116D01*
X52268656Y-58431810D01*
X52193328Y-58480756D01*
X52126418Y-58503349D01*
X52075420Y-58508515D01*
X52036119Y-58504374D01*
X51988482Y-58490599D01*
X51941782Y-58466328D01*
X51891542Y-58424324D01*
X51873522Y-58396665D01*
X51867911Y-58369040D01*
X51873630Y-58341748D01*
X51891652Y-58316173D01*
X51917566Y-58298273D01*
X51946936Y-58292433D01*
X51972454Y-58297914D01*
X51999692Y-58316063D01*
X52043959Y-58347203D01*
X52075200Y-58355411D01*
X52131828Y-58337252D01*
X52194922Y-58295929D01*
X52266942Y-58223869D01*
X52349863Y-58110973D01*
X52441441Y-57957983D01*
X52541729Y-57764837D01*
X52651345Y-57525156D01*
X52805967Y-57155677D01*
X52968763Y-56742272D01*
X52753855Y-56801113D01*
X52500329Y-56883836D01*
X52470764Y-56891859D01*
X52435981Y-56884050D01*
X52411055Y-56861102D01*
X52394267Y-56818110D01*
X52406561Y-56776344D01*
X52446693Y-56741613D01*
X52742868Y-56645533D01*
X53037236Y-56565538D01*
X53052723Y-56525861D01*
X53219136Y-56525861D01*
X53686778Y-56436192D01*
X54243051Y-56356271D01*
X54366039Y-55540634D01*
X54408729Y-55145750D01*
X54421434Y-54835896D01*
X54411852Y-54635387D01*
X54388671Y-54513829D01*
X54358516Y-54446277D01*
X54324831Y-54413457D01*
X54286465Y-54403842D01*
X54248920Y-54412837D01*
X54192602Y-54447367D01*
X54135218Y-54503349D01*
X54050050Y-54616407D01*
X53963919Y-54757462D01*
X53848916Y-54978448D01*
X53576024Y-55607538D01*
X53277388Y-56368251D01*
X53219136Y-56525861D01*
X53052723Y-56525861D01*
X53134836Y-56315495D01*
X53382811Y-55675678D01*
X53584364Y-55188265D01*
X53724705Y-54882760D01*
X53846864Y-54654083D01*
X53952780Y-54488363D01*
X54048901Y-54372111D01*
X54136244Y-54299542D01*
X54216955Y-54260460D01*
X54294049Y-54248211D01*
X54361200Y-54261140D01*
G37*
G36*
X55204098Y-57465915D02*
G01*
X55133898Y-57457736D01*
X55077028Y-57434650D01*
X55030441Y-57397002D01*
X54976855Y-57319836D01*
X54938886Y-57216751D01*
X54918150Y-57102654D01*
X54910969Y-56976379D01*
X54917149Y-56818745D01*
X54936249Y-56651158D01*
X54964150Y-56485225D01*
X54995490Y-56336048D01*
X55055830Y-56094247D01*
X55084846Y-55983129D01*
X55120358Y-55940830D01*
X55163981Y-55927845D01*
X55206041Y-55940785D01*
X55229390Y-55966090D01*
X55237840Y-56007089D01*
X55235202Y-56025334D01*
X55185914Y-56202199D01*
X55124413Y-56467060D01*
X55089985Y-56655186D01*
X55070341Y-56826998D01*
X55064073Y-56983963D01*
X55073540Y-57128402D01*
X55097486Y-57224884D01*
X55126266Y-57275972D01*
X55161952Y-57303659D01*
X55206625Y-57312921D01*
X55270009Y-57299125D01*
X55359917Y-57247838D01*
X55487773Y-57138495D01*
X55665039Y-56953255D01*
X55857288Y-56724907D01*
X56039537Y-56487534D01*
X56190863Y-56274279D01*
X56222255Y-56248054D01*
X56254171Y-56240097D01*
X56288583Y-56248218D01*
X56313647Y-56272473D01*
X56330778Y-56318792D01*
X56317588Y-56363855D01*
X56191413Y-56539160D01*
X55899384Y-56918237D01*
X55685883Y-57157454D01*
X55517907Y-57313274D01*
X55386840Y-57405960D01*
X55284726Y-57452495D01*
X55204098Y-57465915D01*
G37*
G36*
X55269494Y-55479085D02*
G01*
X55242088Y-55473155D01*
X55215418Y-55454136D01*
X55196532Y-55427112D01*
X55190469Y-55397532D01*
X55196398Y-55370127D01*
X55215418Y-55343457D01*
X55242096Y-55324350D01*
X55269494Y-55318398D01*
X55299065Y-55324484D01*
X55326097Y-55343457D01*
X55345204Y-55370135D01*
X55351156Y-55397532D01*
X55345070Y-55427104D01*
X55326097Y-55454136D01*
X55299073Y-55473022D01*
X55269494Y-55479085D01*
G37*
G36*
X56395161Y-55514296D02*
G01*
X56434092Y-55533050D01*
X56465196Y-55560020D01*
X56484321Y-55584598D01*
X56507114Y-55646281D01*
X56514986Y-55717258D01*
X56508802Y-55809175D01*
X56489235Y-55911021D01*
X56454426Y-56024345D01*
X56355947Y-56270322D01*
X56544881Y-56250209D01*
X56677889Y-56224709D01*
X56850648Y-56182285D01*
X56866256Y-56179647D01*
X56894158Y-56185298D01*
X56921870Y-56203387D01*
X56941735Y-56229484D01*
X56948138Y-56259111D01*
X56942972Y-56284940D01*
X56788110Y-56709409D01*
X56703389Y-56974731D01*
X56626983Y-57247855D01*
X56584670Y-57433942D01*
X56562078Y-57584196D01*
X56555322Y-57704198D01*
X56561761Y-57788344D01*
X56577744Y-57841475D01*
X56589713Y-57860427D01*
X56612255Y-57866864D01*
X56640683Y-57858904D01*
X56706228Y-57821911D01*
X56779961Y-57760267D01*
X56905493Y-57621217D01*
X57041235Y-57442180D01*
X57241376Y-57143331D01*
X57474164Y-56754472D01*
X57642765Y-56451123D01*
X57709480Y-56325167D01*
X57742356Y-56292793D01*
X57778173Y-56282961D01*
X57805446Y-56288683D01*
X57830929Y-56306702D01*
X57848821Y-56332540D01*
X57854670Y-56361986D01*
X57844338Y-56398806D01*
X57703105Y-56660830D01*
X57559700Y-56915400D01*
X57373157Y-57225104D01*
X57165464Y-57532716D01*
X57013974Y-57727939D01*
X56868277Y-57882744D01*
X56769975Y-57960397D01*
X56676020Y-58007409D01*
X56612255Y-58019968D01*
X56544077Y-58009305D01*
X56492003Y-57979135D01*
X56452008Y-57927974D01*
X56425167Y-57864794D01*
X56408219Y-57790898D01*
X56402219Y-57704198D01*
X56408944Y-57570401D01*
X56430727Y-57413832D01*
X56470252Y-57231259D01*
X56542457Y-56964994D01*
X56618850Y-56722269D01*
X56745026Y-56369460D01*
X56512960Y-56412534D01*
X56310005Y-56425953D01*
X56190180Y-56418896D01*
X56092943Y-56399463D01*
X56014424Y-56369672D01*
X55951371Y-56330662D01*
X55896769Y-56278440D01*
X55858850Y-56220220D01*
X55835954Y-56154745D01*
X55828320Y-56082487D01*
X55981156Y-56082487D01*
X55994675Y-56155247D01*
X56014949Y-56187702D01*
X56054026Y-56219434D01*
X56106091Y-56242839D01*
X56189544Y-56262408D01*
X56274486Y-56057536D01*
X56330565Y-55876770D01*
X56361882Y-55717039D01*
X56358171Y-55683390D01*
X56350451Y-55670987D01*
X56339131Y-55662963D01*
X56287917Y-55670699D01*
X56231402Y-55695803D01*
X56167342Y-55742867D01*
X56085077Y-55830897D01*
X56018525Y-55938066D01*
X55992367Y-56002803D01*
X55981156Y-56082487D01*
X55828320Y-56082487D01*
X55828053Y-56079959D01*
X55835388Y-56007116D01*
X55858859Y-55925837D01*
X55901472Y-55834092D01*
X55955401Y-55748585D01*
X56018600Y-55671971D01*
X56091505Y-55603612D01*
X56173121Y-55548971D01*
X56255373Y-55517643D01*
X56340230Y-55507332D01*
X56395161Y-55514296D01*
G37*
G36*
X58319146Y-58246601D02*
G01*
X58169011Y-58233646D01*
X58033787Y-58195953D01*
X57910614Y-58133944D01*
X57827966Y-58072377D01*
X57754057Y-57997202D01*
X57688434Y-57907077D01*
X57631114Y-57800149D01*
X57577008Y-57649378D01*
X57542365Y-57470534D01*
X57529998Y-57258516D01*
X57537699Y-57072804D01*
X57561997Y-56866782D01*
X57604883Y-56638290D01*
X57668593Y-56385067D01*
X57772130Y-56060630D01*
X57900394Y-55736978D01*
X58054265Y-55413469D01*
X58208166Y-55134948D01*
X58353020Y-54913233D01*
X58489286Y-54740165D01*
X58609688Y-54616636D01*
X58713938Y-54535259D01*
X58804870Y-54486964D01*
X58885509Y-54464732D01*
X58933539Y-54462204D01*
X59020866Y-54473773D01*
X59098951Y-54508000D01*
X59170504Y-54566728D01*
X59224315Y-54644040D01*
X59268619Y-54742526D01*
X59302175Y-54866561D01*
X59330353Y-55061006D01*
X59340094Y-55274104D01*
X59333136Y-55510037D01*
X59312397Y-55741658D01*
X59258211Y-56127220D01*
X59226667Y-56305053D01*
X59206449Y-56340027D01*
X59181340Y-56359098D01*
X59149841Y-56365503D01*
X59120350Y-56356793D01*
X59095985Y-56341763D01*
X59079614Y-56319589D01*
X59073674Y-56286479D01*
X59073674Y-56276037D01*
X59107359Y-56092654D01*
X59146653Y-55826508D01*
X59175062Y-55546016D01*
X59184462Y-55269048D01*
X59178099Y-55083496D01*
X59160612Y-54931187D01*
X59127026Y-54794010D01*
X59082137Y-54699828D01*
X59040217Y-54652382D01*
X58990056Y-54624814D01*
X58928813Y-54615308D01*
X58860082Y-54633689D01*
X58779254Y-54678798D01*
X58682448Y-54759585D01*
X58565893Y-54887663D01*
X58435078Y-55062950D01*
X58298510Y-55279340D01*
X58156041Y-55542722D01*
X58030431Y-55813031D01*
X57918390Y-56098317D01*
X57820158Y-56399465D01*
X57759635Y-56631766D01*
X57717846Y-56851694D01*
X57693532Y-57060277D01*
X57685629Y-57258516D01*
X57695366Y-57430637D01*
X57724537Y-57600004D01*
X57757919Y-57708645D01*
X57804623Y-57805496D01*
X57864672Y-57892033D01*
X57939233Y-57964837D01*
X58033544Y-58023720D01*
X58151315Y-58068438D01*
X58236513Y-58085423D01*
X58319146Y-58090969D01*
X58443927Y-58080386D01*
X58568849Y-58048228D01*
X58695476Y-57993040D01*
X58815646Y-57922360D01*
X58934871Y-57836887D01*
X59053450Y-57735523D01*
X59219560Y-57568494D01*
X59376584Y-57383373D01*
X59522390Y-57189387D01*
X59653445Y-56998361D01*
X59773465Y-56808790D01*
X59869856Y-56644783D01*
X60010760Y-56383199D01*
X60063627Y-56274828D01*
X60096512Y-56242365D01*
X60132320Y-56232513D01*
X60157845Y-56237739D01*
X60185076Y-56254935D01*
X60204764Y-56280322D01*
X60211345Y-56311978D01*
X60206289Y-56335168D01*
X60158148Y-56433977D01*
X60029665Y-56674678D01*
X59833147Y-57006055D01*
X59714281Y-57186549D01*
X59578597Y-57373921D01*
X59398069Y-57597573D01*
X59229690Y-57778572D01*
X59072461Y-57922238D01*
X58925296Y-58033377D01*
X58760233Y-58131217D01*
X58605538Y-58196927D01*
X58459212Y-58234474D01*
X58319146Y-58246601D01*
G37*
G36*
X61143265Y-57904123D02*
G01*
X61083854Y-57893653D01*
X61033255Y-57868012D01*
X60989354Y-57826054D01*
X60951474Y-57764209D01*
X60920382Y-57670294D01*
X60897235Y-57518228D01*
X60887946Y-57286213D01*
X60894189Y-57045702D01*
X60914324Y-56764694D01*
X60943895Y-56493029D01*
X60972027Y-56311648D01*
X60894651Y-56491789D01*
X60751063Y-56795516D01*
X60626681Y-57017036D01*
X60519355Y-57172373D01*
X60426917Y-57275700D01*
X60347041Y-57339178D01*
X60277064Y-57372606D01*
X60213872Y-57382824D01*
X60128564Y-57361226D01*
X60063657Y-57319598D01*
X60014827Y-57256758D01*
X59983039Y-57180316D01*
X59961685Y-57078942D01*
X59953717Y-56946264D01*
X59962931Y-56760459D01*
X59991526Y-56561691D01*
X60069672Y-56211301D01*
X60122648Y-56020828D01*
X60142968Y-55986670D01*
X60167881Y-55970333D01*
X60199584Y-55968181D01*
X60239357Y-55980321D01*
X60260096Y-55998156D01*
X60267838Y-56021927D01*
X60270476Y-56065231D01*
X60223553Y-56229201D01*
X60164633Y-56477171D01*
X60131528Y-56653640D01*
X60112768Y-56812785D01*
X60106821Y-56956266D01*
X60113790Y-57072522D01*
X60131441Y-57150805D01*
X60153271Y-57192950D01*
X60181260Y-57217159D01*
X60216730Y-57227302D01*
X60250611Y-57217630D01*
X60314110Y-57176194D01*
X60381126Y-57107147D01*
X60489415Y-56952968D01*
X60600081Y-56756170D01*
X60754846Y-56428591D01*
X60891970Y-56097024D01*
X60995218Y-55823101D01*
X61094795Y-55539535D01*
X61130549Y-55503075D01*
X61168764Y-55492164D01*
X61210994Y-55506429D01*
X61234240Y-55531866D01*
X61242513Y-55571299D01*
X61242513Y-55581630D01*
X61185453Y-55908253D01*
X61114030Y-56388804D01*
X61073509Y-56728746D01*
X61050729Y-57029180D01*
X61043578Y-57293687D01*
X61048000Y-57446535D01*
X61059844Y-57564943D01*
X61082845Y-57669021D01*
X61110842Y-57729807D01*
X61133264Y-57748492D01*
X61194721Y-57736360D01*
X61269009Y-57694547D01*
X61361435Y-57610666D01*
X61486918Y-57459736D01*
X61627636Y-57252691D01*
X61761026Y-57026458D01*
X61894385Y-56774586D01*
X62019062Y-56516645D01*
X62129811Y-56267135D01*
X62163387Y-56230918D01*
X62201032Y-56219983D01*
X62228404Y-56225428D01*
X62253789Y-56242405D01*
X62271760Y-56266811D01*
X62277529Y-56293952D01*
X62272473Y-56322309D01*
X62161465Y-56569605D01*
X62040678Y-56820284D01*
X61881746Y-57119151D01*
X61703460Y-57416765D01*
X61552454Y-57624910D01*
X61424913Y-57762789D01*
X61316994Y-57846947D01*
X61224610Y-57890850D01*
X61143265Y-57904123D01*
G37*
G36*
X62793007Y-53863358D02*
G01*
X62818812Y-53887633D01*
X62837407Y-53933980D01*
X62826220Y-53971485D01*
X62789377Y-54003333D01*
X62771022Y-54030151D01*
X62722552Y-54142258D01*
X62645945Y-54401205D01*
X62558249Y-54777504D01*
X62444481Y-55347743D01*
X62264780Y-56374626D01*
X62312790Y-56284991D01*
X62386669Y-56181076D01*
X62475213Y-56084040D01*
X62576482Y-56000165D01*
X62651163Y-55956458D01*
X62726395Y-55931149D01*
X62803665Y-55922789D01*
X62886298Y-55932081D01*
X62959730Y-55959249D01*
X63026202Y-56004803D01*
X63087011Y-56071276D01*
X63133427Y-56147497D01*
X63167884Y-56236532D01*
X63189728Y-56340668D01*
X63197470Y-56462663D01*
X63193638Y-56575343D01*
X63183951Y-56651707D01*
X63500710Y-56455959D01*
X63760205Y-56311098D01*
X63882424Y-56245482D01*
X63916716Y-56237569D01*
X63944211Y-56243249D01*
X63970792Y-56261309D01*
X63989764Y-56286900D01*
X63995741Y-56314176D01*
X63985491Y-56349695D01*
X63951228Y-56382649D01*
X63826481Y-56450683D01*
X63521812Y-56625659D01*
X63128996Y-56872845D01*
X63072942Y-57023530D01*
X62998658Y-57176018D01*
X62904781Y-57330946D01*
X62796147Y-57475360D01*
X62670340Y-57608093D01*
X62526254Y-57729697D01*
X62438947Y-57788269D01*
X62371721Y-57822021D01*
X62307453Y-57842807D01*
X62259724Y-57848729D01*
X62201007Y-57838571D01*
X62159157Y-57810151D01*
X62129481Y-57772562D01*
X62119042Y-57743194D01*
X62115193Y-57704198D01*
X62116359Y-57695631D01*
X62269192Y-57695631D01*
X62316327Y-57678150D01*
X62362042Y-57654603D01*
X62436458Y-57605610D01*
X62600813Y-57462012D01*
X62735411Y-57309184D01*
X62844676Y-57149986D01*
X62906870Y-57026278D01*
X62751495Y-57142334D01*
X62585715Y-57282367D01*
X62434307Y-57433723D01*
X62325669Y-57575275D01*
X62280717Y-57658696D01*
X62269192Y-57695631D01*
X62116359Y-57695631D01*
X62121737Y-57656097D01*
X62145425Y-57587292D01*
X62193778Y-57490755D01*
X62280396Y-57376341D01*
X62392259Y-57254678D01*
X62533068Y-57124976D01*
X62757675Y-56944451D01*
X62999523Y-56772827D01*
X63033420Y-56616262D01*
X63044366Y-56467719D01*
X63038699Y-56373547D01*
X63021835Y-56282522D01*
X62990926Y-56198957D01*
X62946107Y-56134254D01*
X62907213Y-56102205D01*
X62860514Y-56082737D01*
X62803665Y-56075892D01*
X62743027Y-56086378D01*
X62677159Y-56120516D01*
X62593452Y-56190445D01*
X62511532Y-56282947D01*
X62431292Y-56401773D01*
X62329345Y-56587168D01*
X62252909Y-56754802D01*
X62194231Y-56907662D01*
X62177622Y-56964399D01*
X62079363Y-57609017D01*
X62068570Y-57639171D01*
X62047819Y-57659136D01*
X62020536Y-57671052D01*
X61992095Y-57674963D01*
X61953488Y-57652839D01*
X61932972Y-57626929D01*
X61926259Y-57595938D01*
X61926259Y-57588134D01*
X62090089Y-56521151D01*
X62296653Y-55293558D01*
X62413167Y-54716533D01*
X62503063Y-54338996D01*
X62589365Y-54065749D01*
X62646165Y-53943103D01*
X62691340Y-53884715D01*
X62727598Y-53859441D01*
X62758602Y-53855285D01*
X62793007Y-53863358D01*
G37*
G36*
X64494801Y-55693750D02*
G01*
X64554771Y-55723862D01*
X64598664Y-55768104D01*
X64628679Y-55828837D01*
X64643876Y-55911138D01*
X64635819Y-55978254D01*
X64611626Y-56041507D01*
X64569907Y-56102490D01*
X64481576Y-56174321D01*
X64379818Y-56229579D01*
X64262491Y-56268453D01*
X64091649Y-56304582D01*
X64000687Y-56315055D01*
X63923227Y-56563948D01*
X63881122Y-56774035D01*
X63868246Y-56951210D01*
X63873929Y-57056850D01*
X63888557Y-57130922D01*
X63909242Y-57181140D01*
X63956237Y-57242239D01*
X64007281Y-57274123D01*
X64063559Y-57290291D01*
X64111475Y-57295226D01*
X64158360Y-57292386D01*
X64188522Y-57285334D01*
X64298035Y-57246095D01*
X64418302Y-57181170D01*
X64551442Y-57085629D01*
X64738423Y-56923994D01*
X64917330Y-56746119D01*
X65081660Y-56566138D01*
X65201556Y-56425294D01*
X65317400Y-56279334D01*
X65348209Y-56256996D01*
X65378180Y-56250209D01*
X65405472Y-56255927D01*
X65431046Y-56273949D01*
X65449065Y-56299432D01*
X65454787Y-56326705D01*
X65451144Y-56347666D01*
X65439070Y-56371438D01*
X65368398Y-56464861D01*
X65200786Y-56667754D01*
X64963932Y-56924832D01*
X64828051Y-57055651D01*
X64685312Y-57178173D01*
X64536396Y-57287508D01*
X64391195Y-57372492D01*
X64290500Y-57415999D01*
X64197801Y-57440514D01*
X64111475Y-57448330D01*
X64023849Y-57439770D01*
X63947812Y-57415141D01*
X63881002Y-57374812D01*
X63821864Y-57317538D01*
X63776438Y-57249932D01*
X63742369Y-57167945D01*
X63720479Y-57068702D01*
X63712615Y-56948682D01*
X63720851Y-56808363D01*
X63748005Y-56638188D01*
X63804506Y-56419213D01*
X63866335Y-56240314D01*
X63908047Y-56148872D01*
X64072128Y-56148872D01*
X64151067Y-56136263D01*
X64265129Y-56106887D01*
X64341603Y-56078158D01*
X64403799Y-56042253D01*
X64453843Y-55999505D01*
X64481842Y-55955178D01*
X64490772Y-55908720D01*
X64482689Y-55867001D01*
X64461282Y-55843685D01*
X64423728Y-55834202D01*
X64379173Y-55840415D01*
X64324966Y-55861349D01*
X64258204Y-55901686D01*
X64200674Y-55952701D01*
X64138828Y-56032313D01*
X64072128Y-56148872D01*
X63908047Y-56148872D01*
X63932213Y-56095896D01*
X64013393Y-55958603D01*
X64092600Y-55855710D01*
X64169947Y-55781226D01*
X64258467Y-55721412D01*
X64338911Y-55688800D01*
X64413836Y-55678570D01*
X64494801Y-55693750D01*
G37*
G36*
X67480767Y-79066346D02*
G01*
X67484331Y-79113351D01*
X67494250Y-79151865D01*
X67509771Y-79183461D01*
X67532213Y-79208603D01*
X67560659Y-79223594D01*
X67597088Y-79228890D01*
X67633603Y-79223632D01*
X67662819Y-79208623D01*
X67686542Y-79183339D01*
X67704103Y-79150183D01*
X67726364Y-79088980D01*
X67754075Y-78987273D01*
X67784035Y-78888770D01*
X67818563Y-78814594D01*
X67856657Y-78760066D01*
X67892198Y-78727490D01*
X67935393Y-78703702D01*
X67987839Y-78688640D01*
X68051746Y-78683251D01*
X68114133Y-78689528D01*
X68168803Y-78707682D01*
X68217389Y-78737609D01*
X68260940Y-78780399D01*
X68294978Y-78830771D01*
X68319949Y-78888977D01*
X68335641Y-78956446D01*
X68341174Y-79034961D01*
X68334758Y-79125167D01*
X68315802Y-79210354D01*
X68284338Y-79291509D01*
X68239853Y-79369452D01*
X68181317Y-79444801D01*
X68053822Y-79338799D01*
X68112936Y-79259740D01*
X68152808Y-79182777D01*
X68175837Y-79106870D01*
X68183393Y-79030748D01*
X68179177Y-78978940D01*
X68167590Y-78937907D01*
X68149626Y-78905451D01*
X68124277Y-78879497D01*
X68094918Y-78864399D01*
X68060111Y-78859228D01*
X68025223Y-78864221D01*
X67996862Y-78878551D01*
X67973405Y-78902765D01*
X67946358Y-78955266D01*
X67916496Y-79053890D01*
X67889895Y-79154693D01*
X67868869Y-79217655D01*
X67843491Y-79271081D01*
X67811960Y-79317367D01*
X67775656Y-79354664D01*
X67731028Y-79381688D01*
X67676329Y-79398752D01*
X67608995Y-79404867D01*
X67542530Y-79398237D01*
X67486578Y-79379383D01*
X67438972Y-79348804D01*
X67398335Y-79305582D01*
X67366680Y-79254397D01*
X67343663Y-79197166D01*
X67329369Y-79132851D01*
X67324391Y-79060179D01*
X67332046Y-78966868D01*
X67355287Y-78873456D01*
X67379232Y-78813445D01*
X67408651Y-78759821D01*
X67443520Y-78711950D01*
X67571320Y-78802442D01*
X67535830Y-78852471D01*
X67505863Y-78920961D01*
X67486913Y-78994934D01*
X67480767Y-79066346D01*
G37*
G36*
X67711638Y-78325069D02*
G01*
X68087405Y-78325069D01*
X68121366Y-78321735D01*
X68148676Y-78312440D01*
X68170753Y-78297653D01*
X68187538Y-78277501D01*
X68197892Y-78252357D01*
X68201589Y-78220717D01*
X68196574Y-78189642D01*
X68180685Y-78157729D01*
X68151336Y-78123813D01*
X68265458Y-78057318D01*
X68299453Y-78101872D01*
X68322808Y-78147154D01*
X68336573Y-78193754D01*
X68341174Y-78242454D01*
X68336712Y-78291515D01*
X68323680Y-78335942D01*
X68302111Y-78376696D01*
X68271381Y-78414462D01*
X68234370Y-78444991D01*
X68191496Y-78467058D01*
X68141618Y-78480816D01*
X68083192Y-78485659D01*
X67711638Y-78485659D01*
X67711638Y-78579448D01*
X67581823Y-78579448D01*
X67581823Y-78485659D01*
X67348204Y-78485659D01*
X67348204Y-78325069D01*
X67581823Y-78325069D01*
X67581823Y-78129248D01*
X67711638Y-78129248D01*
X67711638Y-78325069D01*
G37*
G36*
X67986655Y-77416425D02*
G01*
X67581823Y-77416425D01*
X67581823Y-77255835D01*
X68330000Y-77255835D01*
X68330000Y-77416425D01*
X68199940Y-77416425D01*
X68238525Y-77442568D01*
X68272351Y-77476034D01*
X68301728Y-77517663D01*
X68323694Y-77563592D01*
X68336772Y-77611483D01*
X68341174Y-77662072D01*
X68335969Y-77724492D01*
X68321093Y-77778523D01*
X68297081Y-77825672D01*
X68263688Y-77867053D01*
X68222765Y-77899928D01*
X68173109Y-77924229D01*
X68112917Y-77939719D01*
X68039839Y-77945272D01*
X67581823Y-77945272D01*
X67581823Y-77784621D01*
X67992273Y-77784621D01*
X68060972Y-77778790D01*
X68111490Y-77763239D01*
X68148146Y-77739795D01*
X68173931Y-77708646D01*
X68190105Y-77668311D01*
X68195971Y-77615910D01*
X68189977Y-77564326D01*
X68172371Y-77518140D01*
X68142665Y-77475959D01*
X68114167Y-77450766D01*
X68079586Y-77432313D01*
X68037655Y-77420612D01*
X67986655Y-77416425D01*
G37*
G36*
X68341174Y-76701038D02*
G01*
X68334399Y-76777124D01*
X68314582Y-76846379D01*
X68281766Y-76910210D01*
X68235050Y-76969644D01*
X68190339Y-77009850D01*
X68140997Y-77040935D01*
X68086370Y-77063413D01*
X68025535Y-77077301D01*
X67957346Y-77082117D01*
X67889416Y-77077141D01*
X67828560Y-77062755D01*
X67773636Y-77039383D01*
X67723737Y-77006911D01*
X67678237Y-76964698D01*
X67631262Y-76902939D01*
X67597942Y-76835519D01*
X67577638Y-76761271D01*
X67570648Y-76678628D01*
X67575504Y-76612270D01*
X67589696Y-76551246D01*
X67613017Y-76494647D01*
X67645730Y-76441741D01*
X67688557Y-76392009D01*
X67804816Y-76486714D01*
X67765709Y-76538551D01*
X67739662Y-76587764D01*
X67724817Y-76635101D01*
X67720003Y-76681437D01*
X67727270Y-76743771D01*
X67748592Y-76799417D01*
X67784544Y-76850087D01*
X67819120Y-76881334D01*
X67857777Y-76903394D01*
X67901350Y-76916860D01*
X67951057Y-76921528D01*
X68000716Y-76916987D01*
X68045436Y-76903750D01*
X68086224Y-76881881D01*
X68123797Y-76850758D01*
X68154851Y-76813200D01*
X68176726Y-76772201D01*
X68190002Y-76727019D01*
X68194567Y-76676613D01*
X68189036Y-76627558D01*
X68172155Y-76579062D01*
X68142707Y-76530108D01*
X68098518Y-76479937D01*
X68202199Y-76384987D01*
X68253616Y-76443478D01*
X68292292Y-76503725D01*
X68319425Y-76566227D01*
X68335683Y-76631701D01*
X68341174Y-76701038D01*
G37*
G36*
X68330000Y-76066556D02*
G01*
X68330000Y-76227145D01*
X67287998Y-76227145D01*
X67287998Y-76066556D01*
X67895064Y-76066556D01*
X67581823Y-75767175D01*
X67581823Y-75560301D01*
X67879127Y-75844966D01*
X68330000Y-75540212D01*
X68330000Y-75735179D01*
X68005157Y-75955486D01*
X68117569Y-76066556D01*
X68330000Y-76066556D01*
G37*
G36*
X68330000Y-74665151D02*
G01*
X68107555Y-74763093D01*
X68107555Y-75250174D01*
X68330000Y-75348115D01*
X68330000Y-75528672D01*
X67348204Y-75096057D01*
X67348204Y-75006664D01*
X67555017Y-75006664D01*
X67951179Y-75181297D01*
X67951179Y-74831969D01*
X67555017Y-75006664D01*
X67348204Y-75006664D01*
X67348204Y-74917210D01*
X68330000Y-74484595D01*
X68330000Y-74665151D01*
G37*
G36*
X67711638Y-74212997D02*
G01*
X68087405Y-74212997D01*
X68121366Y-74209663D01*
X68148676Y-74200367D01*
X68170753Y-74185580D01*
X68187538Y-74165428D01*
X68197892Y-74140285D01*
X68201589Y-74108644D01*
X68196574Y-74077570D01*
X68180685Y-74045656D01*
X68151336Y-74011741D01*
X68265458Y-73945245D01*
X68299453Y-73989800D01*
X68322808Y-74035081D01*
X68336573Y-74081682D01*
X68341174Y-74130382D01*
X68336712Y-74179442D01*
X68323680Y-74223870D01*
X68302111Y-74264623D01*
X68271381Y-74302390D01*
X68234370Y-74332919D01*
X68191496Y-74354986D01*
X68141618Y-74368744D01*
X68083192Y-74373586D01*
X67711638Y-74373586D01*
X67711638Y-74467376D01*
X67581823Y-74467376D01*
X67581823Y-74373586D01*
X67348204Y-74373586D01*
X67348204Y-74212997D01*
X67581823Y-74212997D01*
X67581823Y-74017175D01*
X67711638Y-74017175D01*
X67711638Y-74212997D01*
G37*
G36*
X67771059Y-73040866D02*
G01*
X67831718Y-73054517D01*
X67882462Y-73075906D01*
X67924894Y-73104619D01*
X67960155Y-73140893D01*
X67993714Y-73194504D01*
X68019700Y-73263423D01*
X68036885Y-73351161D01*
X68043197Y-73461889D01*
X68043197Y-73633408D01*
X68330000Y-73633408D01*
X68330000Y-73802424D01*
X67348204Y-73802424D01*
X67348204Y-73467445D01*
X67501772Y-73467445D01*
X67501772Y-73633408D01*
X67889569Y-73633408D01*
X67889569Y-73443693D01*
X67885344Y-73373019D01*
X67874228Y-73321268D01*
X67858033Y-73284198D01*
X67837728Y-73258374D01*
X67800170Y-73232265D01*
X67750572Y-73215418D01*
X67685321Y-73209220D01*
X67635533Y-73213723D01*
X67596724Y-73226070D01*
X67566514Y-73245285D01*
X67543293Y-73271502D01*
X67522111Y-73315314D01*
X67507421Y-73378551D01*
X67501772Y-73467445D01*
X67348204Y-73467445D01*
X67348204Y-73464698D01*
X67354815Y-73350114D01*
X67372698Y-73260637D01*
X67399558Y-73191509D01*
X67434056Y-73138756D01*
X67470240Y-73103244D01*
X67513462Y-73075092D01*
X67564833Y-73054122D01*
X67625891Y-73040756D01*
X67698510Y-73035990D01*
X67771059Y-73040866D01*
G37*
G36*
X67732643Y-72475087D02*
G01*
X67737820Y-72531679D01*
X67752349Y-72578210D01*
X67775487Y-72616693D01*
X67807564Y-72648499D01*
X67846096Y-72672910D01*
X67891614Y-72691077D01*
X67945413Y-72702637D01*
X68009064Y-72706751D01*
X68330000Y-72706751D01*
X68330000Y-72867341D01*
X67581823Y-72867341D01*
X67581823Y-72706751D01*
X67725743Y-72706751D01*
X67685942Y-72680784D01*
X67649816Y-72647748D01*
X67617116Y-72606917D01*
X67591648Y-72561631D01*
X67576320Y-72514968D01*
X67570587Y-72466111D01*
X67732643Y-72464706D01*
X67732643Y-72475087D01*
G37*
G36*
X68034637Y-71594914D02*
G01*
X68105443Y-71615961D01*
X68169974Y-71650733D01*
X68229371Y-71700226D01*
X68278189Y-71759833D01*
X68312775Y-71825638D01*
X68333882Y-71898909D01*
X68341174Y-71981411D01*
X68333884Y-72063879D01*
X68312780Y-72137142D01*
X68278194Y-72202958D01*
X68229371Y-72262595D01*
X68169977Y-72312060D01*
X68105448Y-72346813D01*
X68034640Y-72367850D01*
X67955942Y-72375069D01*
X67877211Y-72367849D01*
X67806383Y-72346810D01*
X67741844Y-72312057D01*
X67682451Y-72262595D01*
X67633628Y-72202958D01*
X67599042Y-72137142D01*
X67577938Y-72063879D01*
X67570648Y-71981411D01*
X67714446Y-71981411D01*
X67718857Y-72030957D01*
X67731588Y-72074645D01*
X67752400Y-72113592D01*
X67781735Y-72148595D01*
X67817249Y-72177044D01*
X67857462Y-72197459D01*
X67903283Y-72210076D01*
X67955942Y-72214480D01*
X68008566Y-72210078D01*
X68054378Y-72197463D01*
X68094604Y-72177049D01*
X68130148Y-72148595D01*
X68159454Y-72113596D01*
X68180248Y-72074650D01*
X68192969Y-72030961D01*
X68197376Y-71981411D01*
X68192968Y-71931829D01*
X68180245Y-71888119D01*
X68159451Y-71849164D01*
X68130148Y-71814166D01*
X68094604Y-71785712D01*
X68054378Y-71765297D01*
X68008566Y-71752683D01*
X67955942Y-71748281D01*
X67903283Y-71752685D01*
X67857462Y-71765302D01*
X67817249Y-71785717D01*
X67781735Y-71814166D01*
X67752403Y-71849168D01*
X67731591Y-71888124D01*
X67718858Y-71931832D01*
X67714446Y-71981411D01*
X67570648Y-71981411D01*
X67577940Y-71898909D01*
X67599047Y-71825638D01*
X67633633Y-71759833D01*
X67682451Y-71700226D01*
X67741848Y-71650736D01*
X67806388Y-71615964D01*
X67877214Y-71594915D01*
X67955942Y-71587691D01*
X68034637Y-71594914D01*
G37*
G36*
X67711638Y-71228349D02*
G01*
X68087405Y-71228349D01*
X68121366Y-71225015D01*
X68148676Y-71215719D01*
X68170753Y-71200933D01*
X68187538Y-71180781D01*
X68197892Y-71155637D01*
X68201589Y-71123996D01*
X68196574Y-71092922D01*
X68180685Y-71061009D01*
X68151336Y-71027093D01*
X68265458Y-70960598D01*
X68299453Y-71005152D01*
X68322808Y-71050434D01*
X68336573Y-71097034D01*
X68341174Y-71145734D01*
X68336712Y-71194794D01*
X68323680Y-71239222D01*
X68302111Y-71279976D01*
X68271381Y-71317742D01*
X68234370Y-71348271D01*
X68191496Y-71370338D01*
X68141618Y-71384096D01*
X68083192Y-71388939D01*
X67711638Y-71388939D01*
X67711638Y-71482728D01*
X67581823Y-71482728D01*
X67581823Y-71388939D01*
X67348204Y-71388939D01*
X67348204Y-71228349D01*
X67581823Y-71228349D01*
X67581823Y-71032527D01*
X67711638Y-71032527D01*
X67711638Y-71228349D01*
G37*
G36*
X68034637Y-70114802D02*
G01*
X68105443Y-70135850D01*
X68169974Y-70170621D01*
X68229371Y-70220115D01*
X68278189Y-70279722D01*
X68312775Y-70345526D01*
X68333882Y-70418797D01*
X68341174Y-70501299D01*
X68333884Y-70583768D01*
X68312780Y-70657030D01*
X68278194Y-70722847D01*
X68229371Y-70782484D01*
X68169977Y-70831948D01*
X68105448Y-70866701D01*
X68034640Y-70887738D01*
X67955942Y-70894958D01*
X67877211Y-70887737D01*
X67806383Y-70866698D01*
X67741844Y-70831945D01*
X67682451Y-70782484D01*
X67633628Y-70722847D01*
X67599042Y-70657030D01*
X67577938Y-70583768D01*
X67570648Y-70501299D01*
X67714446Y-70501299D01*
X67718857Y-70550845D01*
X67731588Y-70594534D01*
X67752400Y-70633481D01*
X67781735Y-70668483D01*
X67817249Y-70696932D01*
X67857462Y-70717347D01*
X67903283Y-70729964D01*
X67955942Y-70734368D01*
X68008566Y-70729966D01*
X68054378Y-70717352D01*
X68094604Y-70696937D01*
X68130148Y-70668483D01*
X68159454Y-70633485D01*
X68180248Y-70594539D01*
X68192969Y-70550849D01*
X68197376Y-70501299D01*
X68192968Y-70451717D01*
X68180245Y-70408007D01*
X68159451Y-70369052D01*
X68130148Y-70334054D01*
X68094604Y-70305600D01*
X68054378Y-70285186D01*
X68008566Y-70272571D01*
X67955942Y-70268169D01*
X67903283Y-70272573D01*
X67857462Y-70285190D01*
X67817249Y-70305605D01*
X67781735Y-70334054D01*
X67752403Y-70369056D01*
X67731591Y-70408012D01*
X67718858Y-70451720D01*
X67714446Y-70501299D01*
X67570648Y-70501299D01*
X67577940Y-70418797D01*
X67599047Y-70345526D01*
X67633633Y-70279722D01*
X67682451Y-70220115D01*
X67741848Y-70170624D01*
X67806388Y-70135852D01*
X67877214Y-70114803D01*
X67955942Y-70107580D01*
X68034637Y-70114802D01*
G37*
G36*
X67711638Y-69748237D02*
G01*
X68087405Y-69748237D01*
X68121366Y-69744903D01*
X68148676Y-69735608D01*
X68170753Y-69720821D01*
X68187538Y-69700669D01*
X68197892Y-69675525D01*
X68201589Y-69643885D01*
X68196574Y-69612810D01*
X68180685Y-69580897D01*
X68151336Y-69546981D01*
X68265458Y-69480486D01*
X68299453Y-69525040D01*
X68322808Y-69570322D01*
X68336573Y-69616923D01*
X68341174Y-69665622D01*
X68336712Y-69714683D01*
X68323680Y-69759111D01*
X68302111Y-69799864D01*
X68271381Y-69837630D01*
X68234370Y-69868160D01*
X68191496Y-69890227D01*
X68141618Y-69903985D01*
X68083192Y-69908827D01*
X67711638Y-69908827D01*
X67711638Y-70002616D01*
X67581823Y-70002616D01*
X67581823Y-69908827D01*
X67348204Y-69908827D01*
X67348204Y-69748237D01*
X67581823Y-69748237D01*
X67581823Y-69552416D01*
X67711638Y-69552416D01*
X67711638Y-69748237D01*
G37*
G36*
X68626571Y-69264331D02*
G01*
X68621936Y-69314124D01*
X68608117Y-69361404D01*
X68584767Y-69406969D01*
X68550917Y-69451421D01*
X68420064Y-69378148D01*
X68447519Y-69342598D01*
X68462593Y-69309005D01*
X68467386Y-69276299D01*
X68463131Y-69243593D01*
X68450841Y-69216025D01*
X68430200Y-69192341D01*
X68404057Y-69174021D01*
X68377236Y-69163472D01*
X68349050Y-69159979D01*
X68263573Y-69190315D01*
X67581823Y-69461680D01*
X67581823Y-69289549D01*
X68126973Y-69068449D01*
X67581823Y-68847348D01*
X67581823Y-68675218D01*
X68468729Y-69037308D01*
X68514798Y-69062475D01*
X68553007Y-69093407D01*
X68584256Y-69130364D01*
X68607854Y-69172403D01*
X68621851Y-69216761D01*
X68626571Y-69264331D01*
G37*
G36*
X68036806Y-67799084D02*
G01*
X68110814Y-67819442D01*
X68175691Y-67852365D01*
X68232913Y-67898220D01*
X68281223Y-67954861D01*
X68314595Y-68014332D01*
X68334455Y-68077548D01*
X68341174Y-68145821D01*
X68333908Y-68213466D01*
X68312244Y-68276914D01*
X68275369Y-68337564D01*
X68221189Y-68396353D01*
X68601414Y-68396353D01*
X68601414Y-68556943D01*
X67581823Y-68556943D01*
X67581823Y-68396353D01*
X67707363Y-68396353D01*
X67656503Y-68356634D01*
X67618670Y-68313416D01*
X67592172Y-68266295D01*
X67576150Y-68214395D01*
X67572758Y-68178672D01*
X67711638Y-68178672D01*
X67716077Y-68223594D01*
X67729056Y-68264075D01*
X67750646Y-68301107D01*
X67781674Y-68335354D01*
X67818435Y-68362979D01*
X67859378Y-68382764D01*
X67905307Y-68394937D01*
X67957285Y-68399162D01*
X68009308Y-68394898D01*
X68054730Y-68382672D01*
X68094719Y-68362890D01*
X68130148Y-68335354D01*
X68159885Y-68301264D01*
X68180626Y-68264497D01*
X68193108Y-68224412D01*
X68197376Y-68180076D01*
X68189995Y-68121731D01*
X68168154Y-68069127D01*
X68130819Y-68020586D01*
X68095491Y-67991114D01*
X68055573Y-67970059D01*
X68010164Y-67957086D01*
X67958018Y-67952564D01*
X67905837Y-67956957D01*
X67859753Y-67969626D01*
X67818659Y-67990263D01*
X67781735Y-68019181D01*
X67750592Y-68054796D01*
X67728979Y-68092781D01*
X67716041Y-68133766D01*
X67711638Y-68178672D01*
X67572758Y-68178672D01*
X67570648Y-68156446D01*
X67577298Y-68083080D01*
X67596725Y-68016579D01*
X67628884Y-67955523D01*
X67674696Y-67898892D01*
X67729905Y-67852859D01*
X67793309Y-67819740D01*
X67866502Y-67799184D01*
X67951667Y-67791974D01*
X68036806Y-67799084D01*
G37*
G36*
X68026406Y-67502974D02*
G01*
X68075082Y-67492492D01*
X68117001Y-67468563D01*
X68153778Y-67429640D01*
X68181043Y-67382369D01*
X68197408Y-67330972D01*
X68202993Y-67274241D01*
X68196860Y-67205829D01*
X68179587Y-67148981D01*
X68152011Y-67101437D01*
X68113784Y-67061627D01*
X68214778Y-66969364D01*
X68259987Y-67020690D01*
X68294938Y-67077099D01*
X68320192Y-67139310D01*
X68335776Y-67208333D01*
X68341174Y-67285415D01*
X68334420Y-67362340D01*
X68314749Y-67431706D01*
X68282333Y-67494994D01*
X68236393Y-67553288D01*
X68192430Y-67592426D01*
X68143208Y-67622892D01*
X68087988Y-67645076D01*
X68025741Y-67658874D01*
X67955209Y-67663686D01*
X67884738Y-67658792D01*
X67822611Y-67644757D01*
X67767539Y-67622182D01*
X67718481Y-67591147D01*
X67674696Y-67551212D01*
X67628801Y-67491857D01*
X67596628Y-67428597D01*
X67577253Y-67360466D01*
X67570648Y-67286147D01*
X67570986Y-67281934D01*
X67708829Y-67281934D01*
X67714645Y-67337095D01*
X67731827Y-67387785D01*
X67760792Y-67435197D01*
X67789270Y-67465178D01*
X67821302Y-67486061D01*
X67857617Y-67498715D01*
X67899399Y-67503096D01*
X67899399Y-67080312D01*
X67841484Y-67087259D01*
X67795523Y-67106744D01*
X67758715Y-67138442D01*
X67731306Y-67179607D01*
X67714630Y-67226882D01*
X67708829Y-67281934D01*
X67570986Y-67281934D01*
X67576672Y-67211106D01*
X67594143Y-67143688D01*
X67622717Y-67082543D01*
X67662789Y-67026639D01*
X67712395Y-66980465D01*
X67770069Y-66947422D01*
X67837413Y-66926930D01*
X67916741Y-66919722D01*
X68026406Y-66919722D01*
X68026406Y-67502974D01*
G37*
X61909699Y-58505668D02*
X62147794Y-59172335D01*
X62147794Y-59172335D02*
X62385889Y-58505668D01*
X62766842Y-59077096D02*
X62814461Y-59124716D01*
X62814461Y-59124716D02*
X62766842Y-59172335D01*
X62766842Y-59172335D02*
X62719223Y-59124716D01*
X62719223Y-59124716D02*
X62766842Y-59077096D01*
X62766842Y-59077096D02*
X62766842Y-59172335D01*
X63195413Y-58267573D02*
X63243032Y-58219954D01*
X63243032Y-58219954D02*
X63338270Y-58172335D01*
X63338270Y-58172335D02*
X63576365Y-58172335D01*
X63576365Y-58172335D02*
X63671603Y-58219954D01*
X63671603Y-58219954D02*
X63719222Y-58267573D01*
X63719222Y-58267573D02*
X63766841Y-58362811D01*
X63766841Y-58362811D02*
X63766841Y-58458049D01*
X63766841Y-58458049D02*
X63719222Y-58600906D01*
X63719222Y-58600906D02*
X63147794Y-59172335D01*
X63147794Y-59172335D02*
X63766841Y-59172335D01*
X64195413Y-59077096D02*
X64243032Y-59124716D01*
X64243032Y-59124716D02*
X64195413Y-59172335D01*
X64195413Y-59172335D02*
X64147794Y-59124716D01*
X64147794Y-59124716D02*
X64195413Y-59077096D01*
X64195413Y-59077096D02*
X64195413Y-59172335D01*
X65195412Y-59172335D02*
X64623984Y-59172335D01*
X64909698Y-59172335D02*
X64909698Y-58172335D01*
X64909698Y-58172335D02*
X64814460Y-58315192D01*
X64814460Y-58315192D02*
X64719222Y-58410430D01*
X64719222Y-58410430D02*
X64623984Y-58458049D01*
D11*
X46916033Y-64708353D02*
X46916033Y-65041686D01*
X46916033Y-65041686D02*
X46216033Y-65041686D01*
X46549366Y-64475019D02*
X46549366Y-64241686D01*
X46916033Y-64141686D02*
X46916033Y-64475019D01*
X46916033Y-64475019D02*
X46216033Y-64475019D01*
X46216033Y-64475019D02*
X46216033Y-64141686D01*
X46916033Y-63841686D02*
X46216033Y-63841686D01*
X46216033Y-63841686D02*
X46216033Y-63675019D01*
X46216033Y-63675019D02*
X46249366Y-63575019D01*
X46249366Y-63575019D02*
X46316033Y-63508353D01*
X46316033Y-63508353D02*
X46382700Y-63475019D01*
X46382700Y-63475019D02*
X46516033Y-63441686D01*
X46516033Y-63441686D02*
X46616033Y-63441686D01*
X46616033Y-63441686D02*
X46749366Y-63475019D01*
X46749366Y-63475019D02*
X46816033Y-63508353D01*
X46816033Y-63508353D02*
X46882700Y-63575019D01*
X46882700Y-63575019D02*
X46916033Y-63675019D01*
X46916033Y-63675019D02*
X46916033Y-63841686D01*
X46916033Y-62775019D02*
X46916033Y-63175019D01*
X46916033Y-62975019D02*
X46216033Y-62975019D01*
X46216033Y-62975019D02*
X46316033Y-63041686D01*
X46316033Y-63041686D02*
X46382700Y-63108353D01*
X46382700Y-63108353D02*
X46416033Y-63175019D01*
X50441033Y-64683333D02*
X50441033Y-65016666D01*
X50441033Y-65016666D02*
X49741033Y-65016666D01*
X50074366Y-64449999D02*
X50074366Y-64216666D01*
X50441033Y-64116666D02*
X50441033Y-64449999D01*
X50441033Y-64449999D02*
X49741033Y-64449999D01*
X49741033Y-64449999D02*
X49741033Y-64116666D01*
X50441033Y-63816666D02*
X49741033Y-63816666D01*
X49741033Y-63816666D02*
X49741033Y-63649999D01*
X49741033Y-63649999D02*
X49774366Y-63549999D01*
X49774366Y-63549999D02*
X49841033Y-63483333D01*
X49841033Y-63483333D02*
X49907700Y-63449999D01*
X49907700Y-63449999D02*
X50041033Y-63416666D01*
X50041033Y-63416666D02*
X50141033Y-63416666D01*
X50141033Y-63416666D02*
X50274366Y-63449999D01*
X50274366Y-63449999D02*
X50341033Y-63483333D01*
X50341033Y-63483333D02*
X50407700Y-63549999D01*
X50407700Y-63549999D02*
X50441033Y-63649999D01*
X50441033Y-63649999D02*
X50441033Y-63816666D01*
X49807700Y-63149999D02*
X49774366Y-63116666D01*
X49774366Y-63116666D02*
X49741033Y-63049999D01*
X49741033Y-63049999D02*
X49741033Y-62883333D01*
X49741033Y-62883333D02*
X49774366Y-62816666D01*
X49774366Y-62816666D02*
X49807700Y-62783333D01*
X49807700Y-62783333D02*
X49874366Y-62749999D01*
X49874366Y-62749999D02*
X49941033Y-62749999D01*
X49941033Y-62749999D02*
X50041033Y-62783333D01*
X50041033Y-62783333D02*
X50441033Y-63183333D01*
X50441033Y-63183333D02*
X50441033Y-62749999D01*
X53916033Y-64658313D02*
X53916033Y-64991646D01*
X53916033Y-64991646D02*
X53216033Y-64991646D01*
X53549366Y-64424979D02*
X53549366Y-64191646D01*
X53916033Y-64091646D02*
X53916033Y-64424979D01*
X53916033Y-64424979D02*
X53216033Y-64424979D01*
X53216033Y-64424979D02*
X53216033Y-64091646D01*
X53916033Y-63791646D02*
X53216033Y-63791646D01*
X53216033Y-63791646D02*
X53216033Y-63624979D01*
X53216033Y-63624979D02*
X53249366Y-63524979D01*
X53249366Y-63524979D02*
X53316033Y-63458313D01*
X53316033Y-63458313D02*
X53382700Y-63424979D01*
X53382700Y-63424979D02*
X53516033Y-63391646D01*
X53516033Y-63391646D02*
X53616033Y-63391646D01*
X53616033Y-63391646D02*
X53749366Y-63424979D01*
X53749366Y-63424979D02*
X53816033Y-63458313D01*
X53816033Y-63458313D02*
X53882700Y-63524979D01*
X53882700Y-63524979D02*
X53916033Y-63624979D01*
X53916033Y-63624979D02*
X53916033Y-63791646D01*
X53216033Y-63158313D02*
X53216033Y-62724979D01*
X53216033Y-62724979D02*
X53482700Y-62958313D01*
X53482700Y-62958313D02*
X53482700Y-62858313D01*
X53482700Y-62858313D02*
X53516033Y-62791646D01*
X53516033Y-62791646D02*
X53549366Y-62758313D01*
X53549366Y-62758313D02*
X53616033Y-62724979D01*
X53616033Y-62724979D02*
X53782700Y-62724979D01*
X53782700Y-62724979D02*
X53849366Y-62758313D01*
X53849366Y-62758313D02*
X53882700Y-62791646D01*
X53882700Y-62791646D02*
X53916033Y-62858313D01*
X53916033Y-62858313D02*
X53916033Y-63058313D01*
X53916033Y-63058313D02*
X53882700Y-63124979D01*
X53882700Y-63124979D02*
X53849366Y-63158313D01*
X63483333Y-49166033D02*
X63250000Y-48832700D01*
X63083333Y-49166033D02*
X63083333Y-48466033D01*
X63083333Y-48466033D02*
X63350000Y-48466033D01*
X63350000Y-48466033D02*
X63416667Y-48499366D01*
X63416667Y-48499366D02*
X63450000Y-48532700D01*
X63450000Y-48532700D02*
X63483333Y-48599366D01*
X63483333Y-48599366D02*
X63483333Y-48699366D01*
X63483333Y-48699366D02*
X63450000Y-48766033D01*
X63450000Y-48766033D02*
X63416667Y-48799366D01*
X63416667Y-48799366D02*
X63350000Y-48832700D01*
X63350000Y-48832700D02*
X63083333Y-48832700D01*
X63716667Y-48466033D02*
X64150000Y-48466033D01*
X64150000Y-48466033D02*
X63916667Y-48732700D01*
X63916667Y-48732700D02*
X64016667Y-48732700D01*
X64016667Y-48732700D02*
X64083333Y-48766033D01*
X64083333Y-48766033D02*
X64116667Y-48799366D01*
X64116667Y-48799366D02*
X64150000Y-48866033D01*
X64150000Y-48866033D02*
X64150000Y-49032700D01*
X64150000Y-49032700D02*
X64116667Y-49099366D01*
X64116667Y-49099366D02*
X64083333Y-49132700D01*
X64083333Y-49132700D02*
X64016667Y-49166033D01*
X64016667Y-49166033D02*
X63816667Y-49166033D01*
X63816667Y-49166033D02*
X63750000Y-49132700D01*
X63750000Y-49132700D02*
X63716667Y-49099366D01*
X68449366Y-49066666D02*
X68482700Y-49099999D01*
X68482700Y-49099999D02*
X68516033Y-49199999D01*
X68516033Y-49199999D02*
X68516033Y-49266666D01*
X68516033Y-49266666D02*
X68482700Y-49366666D01*
X68482700Y-49366666D02*
X68416033Y-49433333D01*
X68416033Y-49433333D02*
X68349366Y-49466666D01*
X68349366Y-49466666D02*
X68216033Y-49499999D01*
X68216033Y-49499999D02*
X68116033Y-49499999D01*
X68116033Y-49499999D02*
X67982700Y-49466666D01*
X67982700Y-49466666D02*
X67916033Y-49433333D01*
X67916033Y-49433333D02*
X67849366Y-49366666D01*
X67849366Y-49366666D02*
X67816033Y-49266666D01*
X67816033Y-49266666D02*
X67816033Y-49199999D01*
X67816033Y-49199999D02*
X67849366Y-49099999D01*
X67849366Y-49099999D02*
X67882700Y-49066666D01*
X67882700Y-48799999D02*
X67849366Y-48766666D01*
X67849366Y-48766666D02*
X67816033Y-48699999D01*
X67816033Y-48699999D02*
X67816033Y-48533333D01*
X67816033Y-48533333D02*
X67849366Y-48466666D01*
X67849366Y-48466666D02*
X67882700Y-48433333D01*
X67882700Y-48433333D02*
X67949366Y-48399999D01*
X67949366Y-48399999D02*
X68016033Y-48399999D01*
X68016033Y-48399999D02*
X68116033Y-48433333D01*
X68116033Y-48433333D02*
X68516033Y-48833333D01*
X68516033Y-48833333D02*
X68516033Y-48399999D01*
X65666666Y-41866033D02*
X65666666Y-42432700D01*
X65666666Y-42432700D02*
X65700000Y-42499366D01*
X65700000Y-42499366D02*
X65733333Y-42532700D01*
X65733333Y-42532700D02*
X65800000Y-42566033D01*
X65800000Y-42566033D02*
X65933333Y-42566033D01*
X65933333Y-42566033D02*
X66000000Y-42532700D01*
X66000000Y-42532700D02*
X66033333Y-42499366D01*
X66033333Y-42499366D02*
X66066666Y-42432700D01*
X66066666Y-42432700D02*
X66066666Y-41866033D01*
X66766666Y-42566033D02*
X66366666Y-42566033D01*
X66566666Y-42566033D02*
X66566666Y-41866033D01*
X66566666Y-41866033D02*
X66499999Y-41966033D01*
X66499999Y-41966033D02*
X66433333Y-42032700D01*
X66433333Y-42032700D02*
X66366666Y-42066033D01*
X37349999Y-75316033D02*
X37116666Y-74982700D01*
X36949999Y-75316033D02*
X36949999Y-74616033D01*
X36949999Y-74616033D02*
X37216666Y-74616033D01*
X37216666Y-74616033D02*
X37283333Y-74649366D01*
X37283333Y-74649366D02*
X37316666Y-74682700D01*
X37316666Y-74682700D02*
X37349999Y-74749366D01*
X37349999Y-74749366D02*
X37349999Y-74849366D01*
X37349999Y-74849366D02*
X37316666Y-74916033D01*
X37316666Y-74916033D02*
X37283333Y-74949366D01*
X37283333Y-74949366D02*
X37216666Y-74982700D01*
X37216666Y-74982700D02*
X36949999Y-74982700D01*
X38016666Y-75316033D02*
X37616666Y-75316033D01*
X37816666Y-75316033D02*
X37816666Y-74616033D01*
X37816666Y-74616033D02*
X37749999Y-74716033D01*
X37749999Y-74716033D02*
X37683333Y-74782700D01*
X37683333Y-74782700D02*
X37616666Y-74816033D01*
X38450000Y-74616033D02*
X38516666Y-74616033D01*
X38516666Y-74616033D02*
X38583333Y-74649366D01*
X38583333Y-74649366D02*
X38616666Y-74682700D01*
X38616666Y-74682700D02*
X38650000Y-74749366D01*
X38650000Y-74749366D02*
X38683333Y-74882700D01*
X38683333Y-74882700D02*
X38683333Y-75049366D01*
X38683333Y-75049366D02*
X38650000Y-75182700D01*
X38650000Y-75182700D02*
X38616666Y-75249366D01*
X38616666Y-75249366D02*
X38583333Y-75282700D01*
X38583333Y-75282700D02*
X38516666Y-75316033D01*
X38516666Y-75316033D02*
X38450000Y-75316033D01*
X38450000Y-75316033D02*
X38383333Y-75282700D01*
X38383333Y-75282700D02*
X38350000Y-75249366D01*
X38350000Y-75249366D02*
X38316666Y-75182700D01*
X38316666Y-75182700D02*
X38283333Y-75049366D01*
X38283333Y-75049366D02*
X38283333Y-74882700D01*
X38283333Y-74882700D02*
X38316666Y-74749366D01*
X38316666Y-74749366D02*
X38350000Y-74682700D01*
X38350000Y-74682700D02*
X38383333Y-74649366D01*
X38383333Y-74649366D02*
X38450000Y-74616033D01*
X58199366Y-47550000D02*
X58232700Y-47583333D01*
X58232700Y-47583333D02*
X58266033Y-47683333D01*
X58266033Y-47683333D02*
X58266033Y-47750000D01*
X58266033Y-47750000D02*
X58232700Y-47850000D01*
X58232700Y-47850000D02*
X58166033Y-47916667D01*
X58166033Y-47916667D02*
X58099366Y-47950000D01*
X58099366Y-47950000D02*
X57966033Y-47983333D01*
X57966033Y-47983333D02*
X57866033Y-47983333D01*
X57866033Y-47983333D02*
X57732700Y-47950000D01*
X57732700Y-47950000D02*
X57666033Y-47916667D01*
X57666033Y-47916667D02*
X57599366Y-47850000D01*
X57599366Y-47850000D02*
X57566033Y-47750000D01*
X57566033Y-47750000D02*
X57566033Y-47683333D01*
X57566033Y-47683333D02*
X57599366Y-47583333D01*
X57599366Y-47583333D02*
X57632700Y-47550000D01*
X58266033Y-46883333D02*
X58266033Y-47283333D01*
X58266033Y-47083333D02*
X57566033Y-47083333D01*
X57566033Y-47083333D02*
X57666033Y-47150000D01*
X57666033Y-47150000D02*
X57732700Y-47216667D01*
X57732700Y-47216667D02*
X57766033Y-47283333D01*
X57566033Y-46250000D02*
X57566033Y-46583333D01*
X57566033Y-46583333D02*
X57899366Y-46616666D01*
X57899366Y-46616666D02*
X57866033Y-46583333D01*
X57866033Y-46583333D02*
X57832700Y-46516666D01*
X57832700Y-46516666D02*
X57832700Y-46350000D01*
X57832700Y-46350000D02*
X57866033Y-46283333D01*
X57866033Y-46283333D02*
X57899366Y-46250000D01*
X57899366Y-46250000D02*
X57966033Y-46216666D01*
X57966033Y-46216666D02*
X58132700Y-46216666D01*
X58132700Y-46216666D02*
X58199366Y-46250000D01*
X58199366Y-46250000D02*
X58232700Y-46283333D01*
X58232700Y-46283333D02*
X58266033Y-46350000D01*
X58266033Y-46350000D02*
X58266033Y-46516666D01*
X58266033Y-46516666D02*
X58232700Y-46583333D01*
X58232700Y-46583333D02*
X58199366Y-46616666D01*
X41816033Y-73633333D02*
X42382700Y-73633333D01*
X42382700Y-73633333D02*
X42449366Y-73600000D01*
X42449366Y-73600000D02*
X42482700Y-73566666D01*
X42482700Y-73566666D02*
X42516033Y-73500000D01*
X42516033Y-73500000D02*
X42516033Y-73366666D01*
X42516033Y-73366666D02*
X42482700Y-73300000D01*
X42482700Y-73300000D02*
X42449366Y-73266666D01*
X42449366Y-73266666D02*
X42382700Y-73233333D01*
X42382700Y-73233333D02*
X41816033Y-73233333D01*
X41816033Y-72966667D02*
X41816033Y-72500000D01*
X41816033Y-72500000D02*
X42516033Y-72800000D01*
X40383333Y-41949366D02*
X40350000Y-41982700D01*
X40350000Y-41982700D02*
X40250000Y-42016033D01*
X40250000Y-42016033D02*
X40183333Y-42016033D01*
X40183333Y-42016033D02*
X40083333Y-41982700D01*
X40083333Y-41982700D02*
X40016667Y-41916033D01*
X40016667Y-41916033D02*
X39983333Y-41849366D01*
X39983333Y-41849366D02*
X39950000Y-41716033D01*
X39950000Y-41716033D02*
X39950000Y-41616033D01*
X39950000Y-41616033D02*
X39983333Y-41482700D01*
X39983333Y-41482700D02*
X40016667Y-41416033D01*
X40016667Y-41416033D02*
X40083333Y-41349366D01*
X40083333Y-41349366D02*
X40183333Y-41316033D01*
X40183333Y-41316033D02*
X40250000Y-41316033D01*
X40250000Y-41316033D02*
X40350000Y-41349366D01*
X40350000Y-41349366D02*
X40383333Y-41382700D01*
X40616667Y-41316033D02*
X41050000Y-41316033D01*
X41050000Y-41316033D02*
X40816667Y-41582700D01*
X40816667Y-41582700D02*
X40916667Y-41582700D01*
X40916667Y-41582700D02*
X40983333Y-41616033D01*
X40983333Y-41616033D02*
X41016667Y-41649366D01*
X41016667Y-41649366D02*
X41050000Y-41716033D01*
X41050000Y-41716033D02*
X41050000Y-41882700D01*
X41050000Y-41882700D02*
X41016667Y-41949366D01*
X41016667Y-41949366D02*
X40983333Y-41982700D01*
X40983333Y-41982700D02*
X40916667Y-42016033D01*
X40916667Y-42016033D02*
X40716667Y-42016033D01*
X40716667Y-42016033D02*
X40650000Y-41982700D01*
X40650000Y-41982700D02*
X40616667Y-41949366D01*
X24516033Y-48366666D02*
X25082700Y-48366666D01*
X25082700Y-48366666D02*
X25149366Y-48333333D01*
X25149366Y-48333333D02*
X25182700Y-48299999D01*
X25182700Y-48299999D02*
X25216033Y-48233333D01*
X25216033Y-48233333D02*
X25216033Y-48099999D01*
X25216033Y-48099999D02*
X25182700Y-48033333D01*
X25182700Y-48033333D02*
X25149366Y-47999999D01*
X25149366Y-47999999D02*
X25082700Y-47966666D01*
X25082700Y-47966666D02*
X24516033Y-47966666D01*
X25216033Y-47266666D02*
X25216033Y-47666666D01*
X25216033Y-47466666D02*
X24516033Y-47466666D01*
X24516033Y-47466666D02*
X24616033Y-47533333D01*
X24616033Y-47533333D02*
X24682700Y-47600000D01*
X24682700Y-47600000D02*
X24716033Y-47666666D01*
X24516033Y-46833333D02*
X24516033Y-46766666D01*
X24516033Y-46766666D02*
X24549366Y-46699999D01*
X24549366Y-46699999D02*
X24582700Y-46666666D01*
X24582700Y-46666666D02*
X24649366Y-46633333D01*
X24649366Y-46633333D02*
X24782700Y-46599999D01*
X24782700Y-46599999D02*
X24949366Y-46599999D01*
X24949366Y-46599999D02*
X25082700Y-46633333D01*
X25082700Y-46633333D02*
X25149366Y-46666666D01*
X25149366Y-46666666D02*
X25182700Y-46699999D01*
X25182700Y-46699999D02*
X25216033Y-46766666D01*
X25216033Y-46766666D02*
X25216033Y-46833333D01*
X25216033Y-46833333D02*
X25182700Y-46899999D01*
X25182700Y-46899999D02*
X25149366Y-46933333D01*
X25149366Y-46933333D02*
X25082700Y-46966666D01*
X25082700Y-46966666D02*
X24949366Y-46999999D01*
X24949366Y-46999999D02*
X24782700Y-46999999D01*
X24782700Y-46999999D02*
X24649366Y-46966666D01*
X24649366Y-46966666D02*
X24582700Y-46933333D01*
X24582700Y-46933333D02*
X24549366Y-46899999D01*
X24549366Y-46899999D02*
X24516033Y-46833333D01*
X47216033Y-70950000D02*
X46882700Y-71183333D01*
X47216033Y-71350000D02*
X46516033Y-71350000D01*
X46516033Y-71350000D02*
X46516033Y-71083333D01*
X46516033Y-71083333D02*
X46549366Y-71016667D01*
X46549366Y-71016667D02*
X46582700Y-70983333D01*
X46582700Y-70983333D02*
X46649366Y-70950000D01*
X46649366Y-70950000D02*
X46749366Y-70950000D01*
X46749366Y-70950000D02*
X46816033Y-70983333D01*
X46816033Y-70983333D02*
X46849366Y-71016667D01*
X46849366Y-71016667D02*
X46882700Y-71083333D01*
X46882700Y-71083333D02*
X46882700Y-71350000D01*
X47216033Y-70283333D02*
X47216033Y-70683333D01*
X47216033Y-70483333D02*
X46516033Y-70483333D01*
X46516033Y-70483333D02*
X46616033Y-70550000D01*
X46616033Y-70550000D02*
X46682700Y-70616667D01*
X46682700Y-70616667D02*
X46716033Y-70683333D01*
X46816033Y-69883333D02*
X46782700Y-69950000D01*
X46782700Y-69950000D02*
X46749366Y-69983333D01*
X46749366Y-69983333D02*
X46682700Y-70016666D01*
X46682700Y-70016666D02*
X46649366Y-70016666D01*
X46649366Y-70016666D02*
X46582700Y-69983333D01*
X46582700Y-69983333D02*
X46549366Y-69950000D01*
X46549366Y-69950000D02*
X46516033Y-69883333D01*
X46516033Y-69883333D02*
X46516033Y-69750000D01*
X46516033Y-69750000D02*
X46549366Y-69683333D01*
X46549366Y-69683333D02*
X46582700Y-69650000D01*
X46582700Y-69650000D02*
X46649366Y-69616666D01*
X46649366Y-69616666D02*
X46682700Y-69616666D01*
X46682700Y-69616666D02*
X46749366Y-69650000D01*
X46749366Y-69650000D02*
X46782700Y-69683333D01*
X46782700Y-69683333D02*
X46816033Y-69750000D01*
X46816033Y-69750000D02*
X46816033Y-69883333D01*
X46816033Y-69883333D02*
X46849366Y-69950000D01*
X46849366Y-69950000D02*
X46882700Y-69983333D01*
X46882700Y-69983333D02*
X46949366Y-70016666D01*
X46949366Y-70016666D02*
X47082700Y-70016666D01*
X47082700Y-70016666D02*
X47149366Y-69983333D01*
X47149366Y-69983333D02*
X47182700Y-69950000D01*
X47182700Y-69950000D02*
X47216033Y-69883333D01*
X47216033Y-69883333D02*
X47216033Y-69750000D01*
X47216033Y-69750000D02*
X47182700Y-69683333D01*
X47182700Y-69683333D02*
X47149366Y-69650000D01*
X47149366Y-69650000D02*
X47082700Y-69616666D01*
X47082700Y-69616666D02*
X46949366Y-69616666D01*
X46949366Y-69616666D02*
X46882700Y-69650000D01*
X46882700Y-69650000D02*
X46849366Y-69683333D01*
X46849366Y-69683333D02*
X46816033Y-69750000D01*
X58099366Y-49950000D02*
X58132700Y-49983333D01*
X58132700Y-49983333D02*
X58166033Y-50083333D01*
X58166033Y-50083333D02*
X58166033Y-50150000D01*
X58166033Y-50150000D02*
X58132700Y-50250000D01*
X58132700Y-50250000D02*
X58066033Y-50316667D01*
X58066033Y-50316667D02*
X57999366Y-50350000D01*
X57999366Y-50350000D02*
X57866033Y-50383333D01*
X57866033Y-50383333D02*
X57766033Y-50383333D01*
X57766033Y-50383333D02*
X57632700Y-50350000D01*
X57632700Y-50350000D02*
X57566033Y-50316667D01*
X57566033Y-50316667D02*
X57499366Y-50250000D01*
X57499366Y-50250000D02*
X57466033Y-50150000D01*
X57466033Y-50150000D02*
X57466033Y-50083333D01*
X57466033Y-50083333D02*
X57499366Y-49983333D01*
X57499366Y-49983333D02*
X57532700Y-49950000D01*
X58166033Y-49283333D02*
X58166033Y-49683333D01*
X58166033Y-49483333D02*
X57466033Y-49483333D01*
X57466033Y-49483333D02*
X57566033Y-49550000D01*
X57566033Y-49550000D02*
X57632700Y-49616667D01*
X57632700Y-49616667D02*
X57666033Y-49683333D01*
X57699366Y-48683333D02*
X58166033Y-48683333D01*
X57432700Y-48850000D02*
X57932700Y-49016666D01*
X57932700Y-49016666D02*
X57932700Y-48583333D01*
X40383333Y-49249366D02*
X40350000Y-49282700D01*
X40350000Y-49282700D02*
X40250000Y-49316033D01*
X40250000Y-49316033D02*
X40183333Y-49316033D01*
X40183333Y-49316033D02*
X40083333Y-49282700D01*
X40083333Y-49282700D02*
X40016667Y-49216033D01*
X40016667Y-49216033D02*
X39983333Y-49149366D01*
X39983333Y-49149366D02*
X39950000Y-49016033D01*
X39950000Y-49016033D02*
X39950000Y-48916033D01*
X39950000Y-48916033D02*
X39983333Y-48782700D01*
X39983333Y-48782700D02*
X40016667Y-48716033D01*
X40016667Y-48716033D02*
X40083333Y-48649366D01*
X40083333Y-48649366D02*
X40183333Y-48616033D01*
X40183333Y-48616033D02*
X40250000Y-48616033D01*
X40250000Y-48616033D02*
X40350000Y-48649366D01*
X40350000Y-48649366D02*
X40383333Y-48682700D01*
X40616667Y-48616033D02*
X41083333Y-48616033D01*
X41083333Y-48616033D02*
X40783333Y-49316033D01*
X53179366Y-67850000D02*
X53212700Y-67883333D01*
X53212700Y-67883333D02*
X53246033Y-67983333D01*
X53246033Y-67983333D02*
X53246033Y-68050000D01*
X53246033Y-68050000D02*
X53212700Y-68150000D01*
X53212700Y-68150000D02*
X53146033Y-68216667D01*
X53146033Y-68216667D02*
X53079366Y-68250000D01*
X53079366Y-68250000D02*
X52946033Y-68283333D01*
X52946033Y-68283333D02*
X52846033Y-68283333D01*
X52846033Y-68283333D02*
X52712700Y-68250000D01*
X52712700Y-68250000D02*
X52646033Y-68216667D01*
X52646033Y-68216667D02*
X52579366Y-68150000D01*
X52579366Y-68150000D02*
X52546033Y-68050000D01*
X52546033Y-68050000D02*
X52546033Y-67983333D01*
X52546033Y-67983333D02*
X52579366Y-67883333D01*
X52579366Y-67883333D02*
X52612700Y-67850000D01*
X52612700Y-67583333D02*
X52579366Y-67550000D01*
X52579366Y-67550000D02*
X52546033Y-67483333D01*
X52546033Y-67483333D02*
X52546033Y-67316667D01*
X52546033Y-67316667D02*
X52579366Y-67250000D01*
X52579366Y-67250000D02*
X52612700Y-67216667D01*
X52612700Y-67216667D02*
X52679366Y-67183333D01*
X52679366Y-67183333D02*
X52746033Y-67183333D01*
X52746033Y-67183333D02*
X52846033Y-67216667D01*
X52846033Y-67216667D02*
X53246033Y-67616667D01*
X53246033Y-67616667D02*
X53246033Y-67183333D01*
X52779366Y-66583333D02*
X53246033Y-66583333D01*
X52512700Y-66750000D02*
X53012700Y-66916666D01*
X53012700Y-66916666D02*
X53012700Y-66483333D01*
X46271033Y-58916666D02*
X45937700Y-59149999D01*
X46271033Y-59316666D02*
X45571033Y-59316666D01*
X45571033Y-59316666D02*
X45571033Y-59049999D01*
X45571033Y-59049999D02*
X45604366Y-58983333D01*
X45604366Y-58983333D02*
X45637700Y-58949999D01*
X45637700Y-58949999D02*
X45704366Y-58916666D01*
X45704366Y-58916666D02*
X45804366Y-58916666D01*
X45804366Y-58916666D02*
X45871033Y-58949999D01*
X45871033Y-58949999D02*
X45904366Y-58983333D01*
X45904366Y-58983333D02*
X45937700Y-59049999D01*
X45937700Y-59049999D02*
X45937700Y-59316666D01*
X45571033Y-58283333D02*
X45571033Y-58616666D01*
X45571033Y-58616666D02*
X45904366Y-58649999D01*
X45904366Y-58649999D02*
X45871033Y-58616666D01*
X45871033Y-58616666D02*
X45837700Y-58549999D01*
X45837700Y-58549999D02*
X45837700Y-58383333D01*
X45837700Y-58383333D02*
X45871033Y-58316666D01*
X45871033Y-58316666D02*
X45904366Y-58283333D01*
X45904366Y-58283333D02*
X45971033Y-58249999D01*
X45971033Y-58249999D02*
X46137700Y-58249999D01*
X46137700Y-58249999D02*
X46204366Y-58283333D01*
X46204366Y-58283333D02*
X46237700Y-58316666D01*
X46237700Y-58316666D02*
X46271033Y-58383333D01*
X46271033Y-58383333D02*
X46271033Y-58549999D01*
X46271033Y-58549999D02*
X46237700Y-58616666D01*
X46237700Y-58616666D02*
X46204366Y-58649999D01*
X65049999Y-78316033D02*
X64816666Y-77982700D01*
X64649999Y-78316033D02*
X64649999Y-77616033D01*
X64649999Y-77616033D02*
X64916666Y-77616033D01*
X64916666Y-77616033D02*
X64983333Y-77649366D01*
X64983333Y-77649366D02*
X65016666Y-77682700D01*
X65016666Y-77682700D02*
X65049999Y-77749366D01*
X65049999Y-77749366D02*
X65049999Y-77849366D01*
X65049999Y-77849366D02*
X65016666Y-77916033D01*
X65016666Y-77916033D02*
X64983333Y-77949366D01*
X64983333Y-77949366D02*
X64916666Y-77982700D01*
X64916666Y-77982700D02*
X64649999Y-77982700D01*
X65716666Y-78316033D02*
X65316666Y-78316033D01*
X65516666Y-78316033D02*
X65516666Y-77616033D01*
X65516666Y-77616033D02*
X65449999Y-77716033D01*
X65449999Y-77716033D02*
X65383333Y-77782700D01*
X65383333Y-77782700D02*
X65316666Y-77816033D01*
X66050000Y-78316033D02*
X66183333Y-78316033D01*
X66183333Y-78316033D02*
X66250000Y-78282700D01*
X66250000Y-78282700D02*
X66283333Y-78249366D01*
X66283333Y-78249366D02*
X66350000Y-78149366D01*
X66350000Y-78149366D02*
X66383333Y-78016033D01*
X66383333Y-78016033D02*
X66383333Y-77749366D01*
X66383333Y-77749366D02*
X66350000Y-77682700D01*
X66350000Y-77682700D02*
X66316666Y-77649366D01*
X66316666Y-77649366D02*
X66250000Y-77616033D01*
X66250000Y-77616033D02*
X66116666Y-77616033D01*
X66116666Y-77616033D02*
X66050000Y-77649366D01*
X66050000Y-77649366D02*
X66016666Y-77682700D01*
X66016666Y-77682700D02*
X65983333Y-77749366D01*
X65983333Y-77749366D02*
X65983333Y-77916033D01*
X65983333Y-77916033D02*
X66016666Y-77982700D01*
X66016666Y-77982700D02*
X66050000Y-78016033D01*
X66050000Y-78016033D02*
X66116666Y-78049366D01*
X66116666Y-78049366D02*
X66250000Y-78049366D01*
X66250000Y-78049366D02*
X66316666Y-78016033D01*
X66316666Y-78016033D02*
X66350000Y-77982700D01*
X66350000Y-77982700D02*
X66383333Y-77916033D01*
X38016033Y-52033333D02*
X38582700Y-52033333D01*
X38582700Y-52033333D02*
X38649366Y-52000000D01*
X38649366Y-52000000D02*
X38682700Y-51966666D01*
X38682700Y-51966666D02*
X38716033Y-51900000D01*
X38716033Y-51900000D02*
X38716033Y-51766666D01*
X38716033Y-51766666D02*
X38682700Y-51700000D01*
X38682700Y-51700000D02*
X38649366Y-51666666D01*
X38649366Y-51666666D02*
X38582700Y-51633333D01*
X38582700Y-51633333D02*
X38016033Y-51633333D01*
X38016033Y-51366667D02*
X38016033Y-50933333D01*
X38016033Y-50933333D02*
X38282700Y-51166667D01*
X38282700Y-51166667D02*
X38282700Y-51066667D01*
X38282700Y-51066667D02*
X38316033Y-51000000D01*
X38316033Y-51000000D02*
X38349366Y-50966667D01*
X38349366Y-50966667D02*
X38416033Y-50933333D01*
X38416033Y-50933333D02*
X38582700Y-50933333D01*
X38582700Y-50933333D02*
X38649366Y-50966667D01*
X38649366Y-50966667D02*
X38682700Y-51000000D01*
X38682700Y-51000000D02*
X38716033Y-51066667D01*
X38716033Y-51066667D02*
X38716033Y-51266667D01*
X38716033Y-51266667D02*
X38682700Y-51333333D01*
X38682700Y-51333333D02*
X38649366Y-51366667D01*
X36746033Y-79250000D02*
X36412700Y-79483333D01*
X36746033Y-79650000D02*
X36046033Y-79650000D01*
X36046033Y-79650000D02*
X36046033Y-79383333D01*
X36046033Y-79383333D02*
X36079366Y-79316667D01*
X36079366Y-79316667D02*
X36112700Y-79283333D01*
X36112700Y-79283333D02*
X36179366Y-79250000D01*
X36179366Y-79250000D02*
X36279366Y-79250000D01*
X36279366Y-79250000D02*
X36346033Y-79283333D01*
X36346033Y-79283333D02*
X36379366Y-79316667D01*
X36379366Y-79316667D02*
X36412700Y-79383333D01*
X36412700Y-79383333D02*
X36412700Y-79650000D01*
X36746033Y-78583333D02*
X36746033Y-78983333D01*
X36746033Y-78783333D02*
X36046033Y-78783333D01*
X36046033Y-78783333D02*
X36146033Y-78850000D01*
X36146033Y-78850000D02*
X36212700Y-78916667D01*
X36212700Y-78916667D02*
X36246033Y-78983333D01*
X36746033Y-77916666D02*
X36746033Y-78316666D01*
X36746033Y-78116666D02*
X36046033Y-78116666D01*
X36046033Y-78116666D02*
X36146033Y-78183333D01*
X36146033Y-78183333D02*
X36212700Y-78250000D01*
X36212700Y-78250000D02*
X36246033Y-78316666D01*
X43979366Y-70850000D02*
X44012700Y-70883333D01*
X44012700Y-70883333D02*
X44046033Y-70983333D01*
X44046033Y-70983333D02*
X44046033Y-71050000D01*
X44046033Y-71050000D02*
X44012700Y-71150000D01*
X44012700Y-71150000D02*
X43946033Y-71216667D01*
X43946033Y-71216667D02*
X43879366Y-71250000D01*
X43879366Y-71250000D02*
X43746033Y-71283333D01*
X43746033Y-71283333D02*
X43646033Y-71283333D01*
X43646033Y-71283333D02*
X43512700Y-71250000D01*
X43512700Y-71250000D02*
X43446033Y-71216667D01*
X43446033Y-71216667D02*
X43379366Y-71150000D01*
X43379366Y-71150000D02*
X43346033Y-71050000D01*
X43346033Y-71050000D02*
X43346033Y-70983333D01*
X43346033Y-70983333D02*
X43379366Y-70883333D01*
X43379366Y-70883333D02*
X43412700Y-70850000D01*
X44046033Y-70183333D02*
X44046033Y-70583333D01*
X44046033Y-70383333D02*
X43346033Y-70383333D01*
X43346033Y-70383333D02*
X43446033Y-70450000D01*
X43446033Y-70450000D02*
X43512700Y-70516667D01*
X43512700Y-70516667D02*
X43546033Y-70583333D01*
X43346033Y-69950000D02*
X43346033Y-69516666D01*
X43346033Y-69516666D02*
X43612700Y-69750000D01*
X43612700Y-69750000D02*
X43612700Y-69650000D01*
X43612700Y-69650000D02*
X43646033Y-69583333D01*
X43646033Y-69583333D02*
X43679366Y-69550000D01*
X43679366Y-69550000D02*
X43746033Y-69516666D01*
X43746033Y-69516666D02*
X43912700Y-69516666D01*
X43912700Y-69516666D02*
X43979366Y-69550000D01*
X43979366Y-69550000D02*
X44012700Y-69583333D01*
X44012700Y-69583333D02*
X44046033Y-69650000D01*
X44046033Y-69650000D02*
X44046033Y-69850000D01*
X44046033Y-69850000D02*
X44012700Y-69916666D01*
X44012700Y-69916666D02*
X43979366Y-69950000D01*
X41983333Y-76216033D02*
X41983333Y-75516033D01*
X41983333Y-75516033D02*
X42150000Y-75516033D01*
X42150000Y-75516033D02*
X42250000Y-75549366D01*
X42250000Y-75549366D02*
X42316667Y-75616033D01*
X42316667Y-75616033D02*
X42350000Y-75682700D01*
X42350000Y-75682700D02*
X42383333Y-75816033D01*
X42383333Y-75816033D02*
X42383333Y-75916033D01*
X42383333Y-75916033D02*
X42350000Y-76049366D01*
X42350000Y-76049366D02*
X42316667Y-76116033D01*
X42316667Y-76116033D02*
X42250000Y-76182700D01*
X42250000Y-76182700D02*
X42150000Y-76216033D01*
X42150000Y-76216033D02*
X41983333Y-76216033D01*
X43016667Y-75516033D02*
X42683333Y-75516033D01*
X42683333Y-75516033D02*
X42650000Y-75849366D01*
X42650000Y-75849366D02*
X42683333Y-75816033D01*
X42683333Y-75816033D02*
X42750000Y-75782700D01*
X42750000Y-75782700D02*
X42916667Y-75782700D01*
X42916667Y-75782700D02*
X42983333Y-75816033D01*
X42983333Y-75816033D02*
X43016667Y-75849366D01*
X43016667Y-75849366D02*
X43050000Y-75916033D01*
X43050000Y-75916033D02*
X43050000Y-76082700D01*
X43050000Y-76082700D02*
X43016667Y-76149366D01*
X43016667Y-76149366D02*
X42983333Y-76182700D01*
X42983333Y-76182700D02*
X42916667Y-76216033D01*
X42916667Y-76216033D02*
X42750000Y-76216033D01*
X42750000Y-76216033D02*
X42683333Y-76182700D01*
X42683333Y-76182700D02*
X42650000Y-76149366D01*
X49729366Y-67850000D02*
X49762700Y-67883333D01*
X49762700Y-67883333D02*
X49796033Y-67983333D01*
X49796033Y-67983333D02*
X49796033Y-68050000D01*
X49796033Y-68050000D02*
X49762700Y-68150000D01*
X49762700Y-68150000D02*
X49696033Y-68216667D01*
X49696033Y-68216667D02*
X49629366Y-68250000D01*
X49629366Y-68250000D02*
X49496033Y-68283333D01*
X49496033Y-68283333D02*
X49396033Y-68283333D01*
X49396033Y-68283333D02*
X49262700Y-68250000D01*
X49262700Y-68250000D02*
X49196033Y-68216667D01*
X49196033Y-68216667D02*
X49129366Y-68150000D01*
X49129366Y-68150000D02*
X49096033Y-68050000D01*
X49096033Y-68050000D02*
X49096033Y-67983333D01*
X49096033Y-67983333D02*
X49129366Y-67883333D01*
X49129366Y-67883333D02*
X49162700Y-67850000D01*
X49796033Y-67183333D02*
X49796033Y-67583333D01*
X49796033Y-67383333D02*
X49096033Y-67383333D01*
X49096033Y-67383333D02*
X49196033Y-67450000D01*
X49196033Y-67450000D02*
X49262700Y-67516667D01*
X49262700Y-67516667D02*
X49296033Y-67583333D01*
X49096033Y-66950000D02*
X49096033Y-66483333D01*
X49096033Y-66483333D02*
X49796033Y-66783333D01*
X48916033Y-71150000D02*
X48582700Y-71383333D01*
X48916033Y-71550000D02*
X48216033Y-71550000D01*
X48216033Y-71550000D02*
X48216033Y-71283333D01*
X48216033Y-71283333D02*
X48249366Y-71216667D01*
X48249366Y-71216667D02*
X48282700Y-71183333D01*
X48282700Y-71183333D02*
X48349366Y-71150000D01*
X48349366Y-71150000D02*
X48449366Y-71150000D01*
X48449366Y-71150000D02*
X48516033Y-71183333D01*
X48516033Y-71183333D02*
X48549366Y-71216667D01*
X48549366Y-71216667D02*
X48582700Y-71283333D01*
X48582700Y-71283333D02*
X48582700Y-71550000D01*
X48282700Y-70883333D02*
X48249366Y-70850000D01*
X48249366Y-70850000D02*
X48216033Y-70783333D01*
X48216033Y-70783333D02*
X48216033Y-70616667D01*
X48216033Y-70616667D02*
X48249366Y-70550000D01*
X48249366Y-70550000D02*
X48282700Y-70516667D01*
X48282700Y-70516667D02*
X48349366Y-70483333D01*
X48349366Y-70483333D02*
X48416033Y-70483333D01*
X48416033Y-70483333D02*
X48516033Y-70516667D01*
X48516033Y-70516667D02*
X48916033Y-70916667D01*
X48916033Y-70916667D02*
X48916033Y-70483333D01*
X48916033Y-69816666D02*
X48916033Y-70216666D01*
X48916033Y-70016666D02*
X48216033Y-70016666D01*
X48216033Y-70016666D02*
X48316033Y-70083333D01*
X48316033Y-70083333D02*
X48382700Y-70150000D01*
X48382700Y-70150000D02*
X48416033Y-70216666D01*
D12*
X57566666Y-72617333D02*
X57566666Y-73184000D01*
X57566666Y-73184000D02*
X57600000Y-73250666D01*
X57600000Y-73250666D02*
X57633333Y-73284000D01*
X57633333Y-73284000D02*
X57700000Y-73317333D01*
X57700000Y-73317333D02*
X57833333Y-73317333D01*
X57833333Y-73317333D02*
X57900000Y-73284000D01*
X57900000Y-73284000D02*
X57933333Y-73250666D01*
X57933333Y-73250666D02*
X57966666Y-73184000D01*
X57966666Y-73184000D02*
X57966666Y-72617333D01*
X58599999Y-72617333D02*
X58466666Y-72617333D01*
X58466666Y-72617333D02*
X58399999Y-72650666D01*
X58399999Y-72650666D02*
X58366666Y-72684000D01*
X58366666Y-72684000D02*
X58299999Y-72784000D01*
X58299999Y-72784000D02*
X58266666Y-72917333D01*
X58266666Y-72917333D02*
X58266666Y-73184000D01*
X58266666Y-73184000D02*
X58299999Y-73250666D01*
X58299999Y-73250666D02*
X58333333Y-73284000D01*
X58333333Y-73284000D02*
X58399999Y-73317333D01*
X58399999Y-73317333D02*
X58533333Y-73317333D01*
X58533333Y-73317333D02*
X58599999Y-73284000D01*
X58599999Y-73284000D02*
X58633333Y-73250666D01*
X58633333Y-73250666D02*
X58666666Y-73184000D01*
X58666666Y-73184000D02*
X58666666Y-73017333D01*
X58666666Y-73017333D02*
X58633333Y-72950666D01*
X58633333Y-72950666D02*
X58599999Y-72917333D01*
X58599999Y-72917333D02*
X58533333Y-72884000D01*
X58533333Y-72884000D02*
X58399999Y-72884000D01*
X58399999Y-72884000D02*
X58333333Y-72917333D01*
X58333333Y-72917333D02*
X58299999Y-72950666D01*
X58299999Y-72950666D02*
X58266666Y-73017333D01*
D11*
X35516033Y-75416666D02*
X35182700Y-75649999D01*
X35516033Y-75816666D02*
X34816033Y-75816666D01*
X34816033Y-75816666D02*
X34816033Y-75549999D01*
X34816033Y-75549999D02*
X34849366Y-75483333D01*
X34849366Y-75483333D02*
X34882700Y-75449999D01*
X34882700Y-75449999D02*
X34949366Y-75416666D01*
X34949366Y-75416666D02*
X35049366Y-75416666D01*
X35049366Y-75416666D02*
X35116033Y-75449999D01*
X35116033Y-75449999D02*
X35149366Y-75483333D01*
X35149366Y-75483333D02*
X35182700Y-75549999D01*
X35182700Y-75549999D02*
X35182700Y-75816666D01*
X34882700Y-75149999D02*
X34849366Y-75116666D01*
X34849366Y-75116666D02*
X34816033Y-75049999D01*
X34816033Y-75049999D02*
X34816033Y-74883333D01*
X34816033Y-74883333D02*
X34849366Y-74816666D01*
X34849366Y-74816666D02*
X34882700Y-74783333D01*
X34882700Y-74783333D02*
X34949366Y-74749999D01*
X34949366Y-74749999D02*
X35016033Y-74749999D01*
X35016033Y-74749999D02*
X35116033Y-74783333D01*
X35116033Y-74783333D02*
X35516033Y-75183333D01*
X35516033Y-75183333D02*
X35516033Y-74749999D01*
X25349366Y-44016666D02*
X25382700Y-44049999D01*
X25382700Y-44049999D02*
X25416033Y-44149999D01*
X25416033Y-44149999D02*
X25416033Y-44216666D01*
X25416033Y-44216666D02*
X25382700Y-44316666D01*
X25382700Y-44316666D02*
X25316033Y-44383333D01*
X25316033Y-44383333D02*
X25249366Y-44416666D01*
X25249366Y-44416666D02*
X25116033Y-44449999D01*
X25116033Y-44449999D02*
X25016033Y-44449999D01*
X25016033Y-44449999D02*
X24882700Y-44416666D01*
X24882700Y-44416666D02*
X24816033Y-44383333D01*
X24816033Y-44383333D02*
X24749366Y-44316666D01*
X24749366Y-44316666D02*
X24716033Y-44216666D01*
X24716033Y-44216666D02*
X24716033Y-44149999D01*
X24716033Y-44149999D02*
X24749366Y-44049999D01*
X24749366Y-44049999D02*
X24782700Y-44016666D01*
X25016033Y-43616666D02*
X24982700Y-43683333D01*
X24982700Y-43683333D02*
X24949366Y-43716666D01*
X24949366Y-43716666D02*
X24882700Y-43749999D01*
X24882700Y-43749999D02*
X24849366Y-43749999D01*
X24849366Y-43749999D02*
X24782700Y-43716666D01*
X24782700Y-43716666D02*
X24749366Y-43683333D01*
X24749366Y-43683333D02*
X24716033Y-43616666D01*
X24716033Y-43616666D02*
X24716033Y-43483333D01*
X24716033Y-43483333D02*
X24749366Y-43416666D01*
X24749366Y-43416666D02*
X24782700Y-43383333D01*
X24782700Y-43383333D02*
X24849366Y-43349999D01*
X24849366Y-43349999D02*
X24882700Y-43349999D01*
X24882700Y-43349999D02*
X24949366Y-43383333D01*
X24949366Y-43383333D02*
X24982700Y-43416666D01*
X24982700Y-43416666D02*
X25016033Y-43483333D01*
X25016033Y-43483333D02*
X25016033Y-43616666D01*
X25016033Y-43616666D02*
X25049366Y-43683333D01*
X25049366Y-43683333D02*
X25082700Y-43716666D01*
X25082700Y-43716666D02*
X25149366Y-43749999D01*
X25149366Y-43749999D02*
X25282700Y-43749999D01*
X25282700Y-43749999D02*
X25349366Y-43716666D01*
X25349366Y-43716666D02*
X25382700Y-43683333D01*
X25382700Y-43683333D02*
X25416033Y-43616666D01*
X25416033Y-43616666D02*
X25416033Y-43483333D01*
X25416033Y-43483333D02*
X25382700Y-43416666D01*
X25382700Y-43416666D02*
X25349366Y-43383333D01*
X25349366Y-43383333D02*
X25282700Y-43349999D01*
X25282700Y-43349999D02*
X25149366Y-43349999D01*
X25149366Y-43349999D02*
X25082700Y-43383333D01*
X25082700Y-43383333D02*
X25049366Y-43416666D01*
X25049366Y-43416666D02*
X25016033Y-43483333D01*
X32849999Y-82649366D02*
X32816666Y-82682700D01*
X32816666Y-82682700D02*
X32716666Y-82716033D01*
X32716666Y-82716033D02*
X32649999Y-82716033D01*
X32649999Y-82716033D02*
X32549999Y-82682700D01*
X32549999Y-82682700D02*
X32483333Y-82616033D01*
X32483333Y-82616033D02*
X32449999Y-82549366D01*
X32449999Y-82549366D02*
X32416666Y-82416033D01*
X32416666Y-82416033D02*
X32416666Y-82316033D01*
X32416666Y-82316033D02*
X32449999Y-82182700D01*
X32449999Y-82182700D02*
X32483333Y-82116033D01*
X32483333Y-82116033D02*
X32549999Y-82049366D01*
X32549999Y-82049366D02*
X32649999Y-82016033D01*
X32649999Y-82016033D02*
X32716666Y-82016033D01*
X32716666Y-82016033D02*
X32816666Y-82049366D01*
X32816666Y-82049366D02*
X32849999Y-82082700D01*
X33516666Y-82716033D02*
X33116666Y-82716033D01*
X33316666Y-82716033D02*
X33316666Y-82016033D01*
X33316666Y-82016033D02*
X33249999Y-82116033D01*
X33249999Y-82116033D02*
X33183333Y-82182700D01*
X33183333Y-82182700D02*
X33116666Y-82216033D01*
X33783333Y-82082700D02*
X33816666Y-82049366D01*
X33816666Y-82049366D02*
X33883333Y-82016033D01*
X33883333Y-82016033D02*
X34050000Y-82016033D01*
X34050000Y-82016033D02*
X34116666Y-82049366D01*
X34116666Y-82049366D02*
X34150000Y-82082700D01*
X34150000Y-82082700D02*
X34183333Y-82149366D01*
X34183333Y-82149366D02*
X34183333Y-82216033D01*
X34183333Y-82216033D02*
X34150000Y-82316033D01*
X34150000Y-82316033D02*
X33750000Y-82716033D01*
X33750000Y-82716033D02*
X34183333Y-82716033D01*
X54483333Y-84316033D02*
X54483333Y-83616033D01*
X54483333Y-83616033D02*
X54750000Y-83616033D01*
X54750000Y-83616033D02*
X54816667Y-83649366D01*
X54816667Y-83649366D02*
X54850000Y-83682700D01*
X54850000Y-83682700D02*
X54883333Y-83749366D01*
X54883333Y-83749366D02*
X54883333Y-83849366D01*
X54883333Y-83849366D02*
X54850000Y-83916033D01*
X54850000Y-83916033D02*
X54816667Y-83949366D01*
X54816667Y-83949366D02*
X54750000Y-83982700D01*
X54750000Y-83982700D02*
X54483333Y-83982700D01*
X55550000Y-84316033D02*
X55150000Y-84316033D01*
X55350000Y-84316033D02*
X55350000Y-83616033D01*
X55350000Y-83616033D02*
X55283333Y-83716033D01*
X55283333Y-83716033D02*
X55216667Y-83782700D01*
X55216667Y-83782700D02*
X55150000Y-83816033D01*
X58533333Y-68724366D02*
X58500000Y-68757700D01*
X58500000Y-68757700D02*
X58400000Y-68791033D01*
X58400000Y-68791033D02*
X58333333Y-68791033D01*
X58333333Y-68791033D02*
X58233333Y-68757700D01*
X58233333Y-68757700D02*
X58166667Y-68691033D01*
X58166667Y-68691033D02*
X58133333Y-68624366D01*
X58133333Y-68624366D02*
X58100000Y-68491033D01*
X58100000Y-68491033D02*
X58100000Y-68391033D01*
X58100000Y-68391033D02*
X58133333Y-68257700D01*
X58133333Y-68257700D02*
X58166667Y-68191033D01*
X58166667Y-68191033D02*
X58233333Y-68124366D01*
X58233333Y-68124366D02*
X58333333Y-68091033D01*
X58333333Y-68091033D02*
X58400000Y-68091033D01*
X58400000Y-68091033D02*
X58500000Y-68124366D01*
X58500000Y-68124366D02*
X58533333Y-68157700D01*
X59166667Y-68091033D02*
X58833333Y-68091033D01*
X58833333Y-68091033D02*
X58800000Y-68424366D01*
X58800000Y-68424366D02*
X58833333Y-68391033D01*
X58833333Y-68391033D02*
X58900000Y-68357700D01*
X58900000Y-68357700D02*
X59066667Y-68357700D01*
X59066667Y-68357700D02*
X59133333Y-68391033D01*
X59133333Y-68391033D02*
X59166667Y-68424366D01*
X59166667Y-68424366D02*
X59200000Y-68491033D01*
X59200000Y-68491033D02*
X59200000Y-68657700D01*
X59200000Y-68657700D02*
X59166667Y-68724366D01*
X59166667Y-68724366D02*
X59133333Y-68757700D01*
X59133333Y-68757700D02*
X59066667Y-68791033D01*
X59066667Y-68791033D02*
X58900000Y-68791033D01*
X58900000Y-68791033D02*
X58833333Y-68757700D01*
X58833333Y-68757700D02*
X58800000Y-68724366D01*
X41916033Y-58916666D02*
X41582700Y-59149999D01*
X41916033Y-59316666D02*
X41216033Y-59316666D01*
X41216033Y-59316666D02*
X41216033Y-59049999D01*
X41216033Y-59049999D02*
X41249366Y-58983333D01*
X41249366Y-58983333D02*
X41282700Y-58949999D01*
X41282700Y-58949999D02*
X41349366Y-58916666D01*
X41349366Y-58916666D02*
X41449366Y-58916666D01*
X41449366Y-58916666D02*
X41516033Y-58949999D01*
X41516033Y-58949999D02*
X41549366Y-58983333D01*
X41549366Y-58983333D02*
X41582700Y-59049999D01*
X41582700Y-59049999D02*
X41582700Y-59316666D01*
X41449366Y-58316666D02*
X41916033Y-58316666D01*
X41182700Y-58483333D02*
X41682700Y-58649999D01*
X41682700Y-58649999D02*
X41682700Y-58216666D01*
X27683333Y-42149366D02*
X27650000Y-42182700D01*
X27650000Y-42182700D02*
X27550000Y-42216033D01*
X27550000Y-42216033D02*
X27483333Y-42216033D01*
X27483333Y-42216033D02*
X27383333Y-42182700D01*
X27383333Y-42182700D02*
X27316667Y-42116033D01*
X27316667Y-42116033D02*
X27283333Y-42049366D01*
X27283333Y-42049366D02*
X27250000Y-41916033D01*
X27250000Y-41916033D02*
X27250000Y-41816033D01*
X27250000Y-41816033D02*
X27283333Y-41682700D01*
X27283333Y-41682700D02*
X27316667Y-41616033D01*
X27316667Y-41616033D02*
X27383333Y-41549366D01*
X27383333Y-41549366D02*
X27483333Y-41516033D01*
X27483333Y-41516033D02*
X27550000Y-41516033D01*
X27550000Y-41516033D02*
X27650000Y-41549366D01*
X27650000Y-41549366D02*
X27683333Y-41582700D01*
X28283333Y-41749366D02*
X28283333Y-42216033D01*
X28116667Y-41482700D02*
X27950000Y-41982700D01*
X27950000Y-41982700D02*
X28383333Y-41982700D01*
X42978533Y-78147500D02*
X42645200Y-78380833D01*
X42978533Y-78547500D02*
X42278533Y-78547500D01*
X42278533Y-78547500D02*
X42278533Y-78280833D01*
X42278533Y-78280833D02*
X42311866Y-78214167D01*
X42311866Y-78214167D02*
X42345200Y-78180833D01*
X42345200Y-78180833D02*
X42411866Y-78147500D01*
X42411866Y-78147500D02*
X42511866Y-78147500D01*
X42511866Y-78147500D02*
X42578533Y-78180833D01*
X42578533Y-78180833D02*
X42611866Y-78214167D01*
X42611866Y-78214167D02*
X42645200Y-78280833D01*
X42645200Y-78280833D02*
X42645200Y-78547500D01*
X42978533Y-77480833D02*
X42978533Y-77880833D01*
X42978533Y-77680833D02*
X42278533Y-77680833D01*
X42278533Y-77680833D02*
X42378533Y-77747500D01*
X42378533Y-77747500D02*
X42445200Y-77814167D01*
X42445200Y-77814167D02*
X42478533Y-77880833D01*
X42278533Y-76880833D02*
X42278533Y-77014166D01*
X42278533Y-77014166D02*
X42311866Y-77080833D01*
X42311866Y-77080833D02*
X42345200Y-77114166D01*
X42345200Y-77114166D02*
X42445200Y-77180833D01*
X42445200Y-77180833D02*
X42578533Y-77214166D01*
X42578533Y-77214166D02*
X42845200Y-77214166D01*
X42845200Y-77214166D02*
X42911866Y-77180833D01*
X42911866Y-77180833D02*
X42945200Y-77147500D01*
X42945200Y-77147500D02*
X42978533Y-77080833D01*
X42978533Y-77080833D02*
X42978533Y-76947500D01*
X42978533Y-76947500D02*
X42945200Y-76880833D01*
X42945200Y-76880833D02*
X42911866Y-76847500D01*
X42911866Y-76847500D02*
X42845200Y-76814166D01*
X42845200Y-76814166D02*
X42678533Y-76814166D01*
X42678533Y-76814166D02*
X42611866Y-76847500D01*
X42611866Y-76847500D02*
X42578533Y-76880833D01*
X42578533Y-76880833D02*
X42545200Y-76947500D01*
X42545200Y-76947500D02*
X42545200Y-77080833D01*
X42545200Y-77080833D02*
X42578533Y-77147500D01*
X42578533Y-77147500D02*
X42611866Y-77180833D01*
X42611866Y-77180833D02*
X42678533Y-77214166D01*
X58508333Y-60219366D02*
X58475000Y-60252700D01*
X58475000Y-60252700D02*
X58375000Y-60286033D01*
X58375000Y-60286033D02*
X58308333Y-60286033D01*
X58308333Y-60286033D02*
X58208333Y-60252700D01*
X58208333Y-60252700D02*
X58141667Y-60186033D01*
X58141667Y-60186033D02*
X58108333Y-60119366D01*
X58108333Y-60119366D02*
X58075000Y-59986033D01*
X58075000Y-59986033D02*
X58075000Y-59886033D01*
X58075000Y-59886033D02*
X58108333Y-59752700D01*
X58108333Y-59752700D02*
X58141667Y-59686033D01*
X58141667Y-59686033D02*
X58208333Y-59619366D01*
X58208333Y-59619366D02*
X58308333Y-59586033D01*
X58308333Y-59586033D02*
X58375000Y-59586033D01*
X58375000Y-59586033D02*
X58475000Y-59619366D01*
X58475000Y-59619366D02*
X58508333Y-59652700D01*
X59108333Y-59586033D02*
X58975000Y-59586033D01*
X58975000Y-59586033D02*
X58908333Y-59619366D01*
X58908333Y-59619366D02*
X58875000Y-59652700D01*
X58875000Y-59652700D02*
X58808333Y-59752700D01*
X58808333Y-59752700D02*
X58775000Y-59886033D01*
X58775000Y-59886033D02*
X58775000Y-60152700D01*
X58775000Y-60152700D02*
X58808333Y-60219366D01*
X58808333Y-60219366D02*
X58841667Y-60252700D01*
X58841667Y-60252700D02*
X58908333Y-60286033D01*
X58908333Y-60286033D02*
X59041667Y-60286033D01*
X59041667Y-60286033D02*
X59108333Y-60252700D01*
X59108333Y-60252700D02*
X59141667Y-60219366D01*
X59141667Y-60219366D02*
X59175000Y-60152700D01*
X59175000Y-60152700D02*
X59175000Y-59986033D01*
X59175000Y-59986033D02*
X59141667Y-59919366D01*
X59141667Y-59919366D02*
X59108333Y-59886033D01*
X59108333Y-59886033D02*
X59041667Y-59852700D01*
X59041667Y-59852700D02*
X58908333Y-59852700D01*
X58908333Y-59852700D02*
X58841667Y-59886033D01*
X58841667Y-59886033D02*
X58808333Y-59919366D01*
X58808333Y-59919366D02*
X58775000Y-59986033D01*
X46179366Y-67850000D02*
X46212700Y-67883333D01*
X46212700Y-67883333D02*
X46246033Y-67983333D01*
X46246033Y-67983333D02*
X46246033Y-68050000D01*
X46246033Y-68050000D02*
X46212700Y-68150000D01*
X46212700Y-68150000D02*
X46146033Y-68216667D01*
X46146033Y-68216667D02*
X46079366Y-68250000D01*
X46079366Y-68250000D02*
X45946033Y-68283333D01*
X45946033Y-68283333D02*
X45846033Y-68283333D01*
X45846033Y-68283333D02*
X45712700Y-68250000D01*
X45712700Y-68250000D02*
X45646033Y-68216667D01*
X45646033Y-68216667D02*
X45579366Y-68150000D01*
X45579366Y-68150000D02*
X45546033Y-68050000D01*
X45546033Y-68050000D02*
X45546033Y-67983333D01*
X45546033Y-67983333D02*
X45579366Y-67883333D01*
X45579366Y-67883333D02*
X45612700Y-67850000D01*
X46246033Y-67183333D02*
X46246033Y-67583333D01*
X46246033Y-67383333D02*
X45546033Y-67383333D01*
X45546033Y-67383333D02*
X45646033Y-67450000D01*
X45646033Y-67450000D02*
X45712700Y-67516667D01*
X45712700Y-67516667D02*
X45746033Y-67583333D01*
X45546033Y-66583333D02*
X45546033Y-66716666D01*
X45546033Y-66716666D02*
X45579366Y-66783333D01*
X45579366Y-66783333D02*
X45612700Y-66816666D01*
X45612700Y-66816666D02*
X45712700Y-66883333D01*
X45712700Y-66883333D02*
X45846033Y-66916666D01*
X45846033Y-66916666D02*
X46112700Y-66916666D01*
X46112700Y-66916666D02*
X46179366Y-66883333D01*
X46179366Y-66883333D02*
X46212700Y-66850000D01*
X46212700Y-66850000D02*
X46246033Y-66783333D01*
X46246033Y-66783333D02*
X46246033Y-66650000D01*
X46246033Y-66650000D02*
X46212700Y-66583333D01*
X46212700Y-66583333D02*
X46179366Y-66550000D01*
X46179366Y-66550000D02*
X46112700Y-66516666D01*
X46112700Y-66516666D02*
X45946033Y-66516666D01*
X45946033Y-66516666D02*
X45879366Y-66550000D01*
X45879366Y-66550000D02*
X45846033Y-66583333D01*
X45846033Y-66583333D02*
X45812700Y-66650000D01*
X45812700Y-66650000D02*
X45812700Y-66783333D01*
X45812700Y-66783333D02*
X45846033Y-66850000D01*
X45846033Y-66850000D02*
X45879366Y-66883333D01*
X45879366Y-66883333D02*
X45946033Y-66916666D01*
X26049999Y-51049366D02*
X26016666Y-51082700D01*
X26016666Y-51082700D02*
X25916666Y-51116033D01*
X25916666Y-51116033D02*
X25849999Y-51116033D01*
X25849999Y-51116033D02*
X25749999Y-51082700D01*
X25749999Y-51082700D02*
X25683333Y-51016033D01*
X25683333Y-51016033D02*
X25649999Y-50949366D01*
X25649999Y-50949366D02*
X25616666Y-50816033D01*
X25616666Y-50816033D02*
X25616666Y-50716033D01*
X25616666Y-50716033D02*
X25649999Y-50582700D01*
X25649999Y-50582700D02*
X25683333Y-50516033D01*
X25683333Y-50516033D02*
X25749999Y-50449366D01*
X25749999Y-50449366D02*
X25849999Y-50416033D01*
X25849999Y-50416033D02*
X25916666Y-50416033D01*
X25916666Y-50416033D02*
X26016666Y-50449366D01*
X26016666Y-50449366D02*
X26049999Y-50482700D01*
X26283333Y-50416033D02*
X26716666Y-50416033D01*
X26716666Y-50416033D02*
X26483333Y-50682700D01*
X26483333Y-50682700D02*
X26583333Y-50682700D01*
X26583333Y-50682700D02*
X26649999Y-50716033D01*
X26649999Y-50716033D02*
X26683333Y-50749366D01*
X26683333Y-50749366D02*
X26716666Y-50816033D01*
X26716666Y-50816033D02*
X26716666Y-50982700D01*
X26716666Y-50982700D02*
X26683333Y-51049366D01*
X26683333Y-51049366D02*
X26649999Y-51082700D01*
X26649999Y-51082700D02*
X26583333Y-51116033D01*
X26583333Y-51116033D02*
X26383333Y-51116033D01*
X26383333Y-51116033D02*
X26316666Y-51082700D01*
X26316666Y-51082700D02*
X26283333Y-51049366D01*
X26983333Y-50482700D02*
X27016666Y-50449366D01*
X27016666Y-50449366D02*
X27083333Y-50416033D01*
X27083333Y-50416033D02*
X27250000Y-50416033D01*
X27250000Y-50416033D02*
X27316666Y-50449366D01*
X27316666Y-50449366D02*
X27350000Y-50482700D01*
X27350000Y-50482700D02*
X27383333Y-50549366D01*
X27383333Y-50549366D02*
X27383333Y-50616033D01*
X27383333Y-50616033D02*
X27350000Y-50716033D01*
X27350000Y-50716033D02*
X26950000Y-51116033D01*
X26950000Y-51116033D02*
X27383333Y-51116033D01*
X62849999Y-78249366D02*
X62816666Y-78282700D01*
X62816666Y-78282700D02*
X62716666Y-78316033D01*
X62716666Y-78316033D02*
X62649999Y-78316033D01*
X62649999Y-78316033D02*
X62549999Y-78282700D01*
X62549999Y-78282700D02*
X62483333Y-78216033D01*
X62483333Y-78216033D02*
X62449999Y-78149366D01*
X62449999Y-78149366D02*
X62416666Y-78016033D01*
X62416666Y-78016033D02*
X62416666Y-77916033D01*
X62416666Y-77916033D02*
X62449999Y-77782700D01*
X62449999Y-77782700D02*
X62483333Y-77716033D01*
X62483333Y-77716033D02*
X62549999Y-77649366D01*
X62549999Y-77649366D02*
X62649999Y-77616033D01*
X62649999Y-77616033D02*
X62716666Y-77616033D01*
X62716666Y-77616033D02*
X62816666Y-77649366D01*
X62816666Y-77649366D02*
X62849999Y-77682700D01*
X63116666Y-77682700D02*
X63149999Y-77649366D01*
X63149999Y-77649366D02*
X63216666Y-77616033D01*
X63216666Y-77616033D02*
X63383333Y-77616033D01*
X63383333Y-77616033D02*
X63449999Y-77649366D01*
X63449999Y-77649366D02*
X63483333Y-77682700D01*
X63483333Y-77682700D02*
X63516666Y-77749366D01*
X63516666Y-77749366D02*
X63516666Y-77816033D01*
X63516666Y-77816033D02*
X63483333Y-77916033D01*
X63483333Y-77916033D02*
X63083333Y-78316033D01*
X63083333Y-78316033D02*
X63516666Y-78316033D01*
X63750000Y-77616033D02*
X64216666Y-77616033D01*
X64216666Y-77616033D02*
X63916666Y-78316033D01*
X60616033Y-80450000D02*
X60282700Y-80683333D01*
X60616033Y-80850000D02*
X59916033Y-80850000D01*
X59916033Y-80850000D02*
X59916033Y-80583333D01*
X59916033Y-80583333D02*
X59949366Y-80516667D01*
X59949366Y-80516667D02*
X59982700Y-80483333D01*
X59982700Y-80483333D02*
X60049366Y-80450000D01*
X60049366Y-80450000D02*
X60149366Y-80450000D01*
X60149366Y-80450000D02*
X60216033Y-80483333D01*
X60216033Y-80483333D02*
X60249366Y-80516667D01*
X60249366Y-80516667D02*
X60282700Y-80583333D01*
X60282700Y-80583333D02*
X60282700Y-80850000D01*
X59982700Y-80183333D02*
X59949366Y-80150000D01*
X59949366Y-80150000D02*
X59916033Y-80083333D01*
X59916033Y-80083333D02*
X59916033Y-79916667D01*
X59916033Y-79916667D02*
X59949366Y-79850000D01*
X59949366Y-79850000D02*
X59982700Y-79816667D01*
X59982700Y-79816667D02*
X60049366Y-79783333D01*
X60049366Y-79783333D02*
X60116033Y-79783333D01*
X60116033Y-79783333D02*
X60216033Y-79816667D01*
X60216033Y-79816667D02*
X60616033Y-80216667D01*
X60616033Y-80216667D02*
X60616033Y-79783333D01*
X59916033Y-79350000D02*
X59916033Y-79283333D01*
X59916033Y-79283333D02*
X59949366Y-79216666D01*
X59949366Y-79216666D02*
X59982700Y-79183333D01*
X59982700Y-79183333D02*
X60049366Y-79150000D01*
X60049366Y-79150000D02*
X60182700Y-79116666D01*
X60182700Y-79116666D02*
X60349366Y-79116666D01*
X60349366Y-79116666D02*
X60482700Y-79150000D01*
X60482700Y-79150000D02*
X60549366Y-79183333D01*
X60549366Y-79183333D02*
X60582700Y-79216666D01*
X60582700Y-79216666D02*
X60616033Y-79283333D01*
X60616033Y-79283333D02*
X60616033Y-79350000D01*
X60616033Y-79350000D02*
X60582700Y-79416666D01*
X60582700Y-79416666D02*
X60549366Y-79450000D01*
X60549366Y-79450000D02*
X60482700Y-79483333D01*
X60482700Y-79483333D02*
X60349366Y-79516666D01*
X60349366Y-79516666D02*
X60182700Y-79516666D01*
X60182700Y-79516666D02*
X60049366Y-79483333D01*
X60049366Y-79483333D02*
X59982700Y-79450000D01*
X59982700Y-79450000D02*
X59949366Y-79416666D01*
X59949366Y-79416666D02*
X59916033Y-79350000D01*
D12*
X56272333Y-64708333D02*
X56839000Y-64708333D01*
X56839000Y-64708333D02*
X56905666Y-64675000D01*
X56905666Y-64675000D02*
X56939000Y-64641666D01*
X56939000Y-64641666D02*
X56972333Y-64575000D01*
X56972333Y-64575000D02*
X56972333Y-64441666D01*
X56972333Y-64441666D02*
X56939000Y-64375000D01*
X56939000Y-64375000D02*
X56905666Y-64341666D01*
X56905666Y-64341666D02*
X56839000Y-64308333D01*
X56839000Y-64308333D02*
X56272333Y-64308333D01*
X56505666Y-63675000D02*
X56972333Y-63675000D01*
X56239000Y-63841667D02*
X56739000Y-64008333D01*
X56739000Y-64008333D02*
X56739000Y-63575000D01*
D11*
X41849999Y-67216033D02*
X41616666Y-66882700D01*
X41449999Y-67216033D02*
X41449999Y-66516033D01*
X41449999Y-66516033D02*
X41716666Y-66516033D01*
X41716666Y-66516033D02*
X41783333Y-66549366D01*
X41783333Y-66549366D02*
X41816666Y-66582700D01*
X41816666Y-66582700D02*
X41849999Y-66649366D01*
X41849999Y-66649366D02*
X41849999Y-66749366D01*
X41849999Y-66749366D02*
X41816666Y-66816033D01*
X41816666Y-66816033D02*
X41783333Y-66849366D01*
X41783333Y-66849366D02*
X41716666Y-66882700D01*
X41716666Y-66882700D02*
X41449999Y-66882700D01*
X42516666Y-67216033D02*
X42116666Y-67216033D01*
X42316666Y-67216033D02*
X42316666Y-66516033D01*
X42316666Y-66516033D02*
X42249999Y-66616033D01*
X42249999Y-66616033D02*
X42183333Y-66682700D01*
X42183333Y-66682700D02*
X42116666Y-66716033D01*
X42783333Y-66582700D02*
X42816666Y-66549366D01*
X42816666Y-66549366D02*
X42883333Y-66516033D01*
X42883333Y-66516033D02*
X43050000Y-66516033D01*
X43050000Y-66516033D02*
X43116666Y-66549366D01*
X43116666Y-66549366D02*
X43150000Y-66582700D01*
X43150000Y-66582700D02*
X43183333Y-66649366D01*
X43183333Y-66649366D02*
X43183333Y-66716033D01*
X43183333Y-66716033D02*
X43150000Y-66816033D01*
X43150000Y-66816033D02*
X42750000Y-67216033D01*
X42750000Y-67216033D02*
X43183333Y-67216033D01*
X60649999Y-73149366D02*
X60616666Y-73182700D01*
X60616666Y-73182700D02*
X60516666Y-73216033D01*
X60516666Y-73216033D02*
X60449999Y-73216033D01*
X60449999Y-73216033D02*
X60349999Y-73182700D01*
X60349999Y-73182700D02*
X60283333Y-73116033D01*
X60283333Y-73116033D02*
X60249999Y-73049366D01*
X60249999Y-73049366D02*
X60216666Y-72916033D01*
X60216666Y-72916033D02*
X60216666Y-72816033D01*
X60216666Y-72816033D02*
X60249999Y-72682700D01*
X60249999Y-72682700D02*
X60283333Y-72616033D01*
X60283333Y-72616033D02*
X60349999Y-72549366D01*
X60349999Y-72549366D02*
X60449999Y-72516033D01*
X60449999Y-72516033D02*
X60516666Y-72516033D01*
X60516666Y-72516033D02*
X60616666Y-72549366D01*
X60616666Y-72549366D02*
X60649999Y-72582700D01*
X60916666Y-72582700D02*
X60949999Y-72549366D01*
X60949999Y-72549366D02*
X61016666Y-72516033D01*
X61016666Y-72516033D02*
X61183333Y-72516033D01*
X61183333Y-72516033D02*
X61249999Y-72549366D01*
X61249999Y-72549366D02*
X61283333Y-72582700D01*
X61283333Y-72582700D02*
X61316666Y-72649366D01*
X61316666Y-72649366D02*
X61316666Y-72716033D01*
X61316666Y-72716033D02*
X61283333Y-72816033D01*
X61283333Y-72816033D02*
X60883333Y-73216033D01*
X60883333Y-73216033D02*
X61316666Y-73216033D01*
X61583333Y-72582700D02*
X61616666Y-72549366D01*
X61616666Y-72549366D02*
X61683333Y-72516033D01*
X61683333Y-72516033D02*
X61850000Y-72516033D01*
X61850000Y-72516033D02*
X61916666Y-72549366D01*
X61916666Y-72549366D02*
X61950000Y-72582700D01*
X61950000Y-72582700D02*
X61983333Y-72649366D01*
X61983333Y-72649366D02*
X61983333Y-72716033D01*
X61983333Y-72716033D02*
X61950000Y-72816033D01*
X61950000Y-72816033D02*
X61550000Y-73216033D01*
X61550000Y-73216033D02*
X61983333Y-73216033D01*
X35453533Y-58191666D02*
X35120200Y-58424999D01*
X35453533Y-58591666D02*
X34753533Y-58591666D01*
X34753533Y-58591666D02*
X34753533Y-58324999D01*
X34753533Y-58324999D02*
X34786866Y-58258333D01*
X34786866Y-58258333D02*
X34820200Y-58224999D01*
X34820200Y-58224999D02*
X34886866Y-58191666D01*
X34886866Y-58191666D02*
X34986866Y-58191666D01*
X34986866Y-58191666D02*
X35053533Y-58224999D01*
X35053533Y-58224999D02*
X35086866Y-58258333D01*
X35086866Y-58258333D02*
X35120200Y-58324999D01*
X35120200Y-58324999D02*
X35120200Y-58591666D01*
X35453533Y-57524999D02*
X35453533Y-57924999D01*
X35453533Y-57724999D02*
X34753533Y-57724999D01*
X34753533Y-57724999D02*
X34853533Y-57791666D01*
X34853533Y-57791666D02*
X34920200Y-57858333D01*
X34920200Y-57858333D02*
X34953533Y-57924999D01*
X58766666Y-41816033D02*
X58766666Y-42382700D01*
X58766666Y-42382700D02*
X58800000Y-42449366D01*
X58800000Y-42449366D02*
X58833333Y-42482700D01*
X58833333Y-42482700D02*
X58900000Y-42516033D01*
X58900000Y-42516033D02*
X59033333Y-42516033D01*
X59033333Y-42516033D02*
X59100000Y-42482700D01*
X59100000Y-42482700D02*
X59133333Y-42449366D01*
X59133333Y-42449366D02*
X59166666Y-42382700D01*
X59166666Y-42382700D02*
X59166666Y-41816033D01*
X59466666Y-41882700D02*
X59499999Y-41849366D01*
X59499999Y-41849366D02*
X59566666Y-41816033D01*
X59566666Y-41816033D02*
X59733333Y-41816033D01*
X59733333Y-41816033D02*
X59799999Y-41849366D01*
X59799999Y-41849366D02*
X59833333Y-41882700D01*
X59833333Y-41882700D02*
X59866666Y-41949366D01*
X59866666Y-41949366D02*
X59866666Y-42016033D01*
X59866666Y-42016033D02*
X59833333Y-42116033D01*
X59833333Y-42116033D02*
X59433333Y-42516033D01*
X59433333Y-42516033D02*
X59866666Y-42516033D01*
D13*
X55741666Y-81581400D02*
X55841666Y-81614733D01*
X55841666Y-81614733D02*
X56008333Y-81614733D01*
X56008333Y-81614733D02*
X56074999Y-81581400D01*
X56074999Y-81581400D02*
X56108333Y-81548066D01*
X56108333Y-81548066D02*
X56141666Y-81481400D01*
X56141666Y-81481400D02*
X56141666Y-81414733D01*
X56141666Y-81414733D02*
X56108333Y-81348066D01*
X56108333Y-81348066D02*
X56074999Y-81314733D01*
X56074999Y-81314733D02*
X56008333Y-81281400D01*
X56008333Y-81281400D02*
X55874999Y-81248066D01*
X55874999Y-81248066D02*
X55808333Y-81214733D01*
X55808333Y-81214733D02*
X55774999Y-81181400D01*
X55774999Y-81181400D02*
X55741666Y-81114733D01*
X55741666Y-81114733D02*
X55741666Y-81048066D01*
X55741666Y-81048066D02*
X55774999Y-80981400D01*
X55774999Y-80981400D02*
X55808333Y-80948066D01*
X55808333Y-80948066D02*
X55874999Y-80914733D01*
X55874999Y-80914733D02*
X56041666Y-80914733D01*
X56041666Y-80914733D02*
X56141666Y-80948066D01*
X56375000Y-80914733D02*
X56808333Y-80914733D01*
X56808333Y-80914733D02*
X56575000Y-81181400D01*
X56575000Y-81181400D02*
X56675000Y-81181400D01*
X56675000Y-81181400D02*
X56741666Y-81214733D01*
X56741666Y-81214733D02*
X56775000Y-81248066D01*
X56775000Y-81248066D02*
X56808333Y-81314733D01*
X56808333Y-81314733D02*
X56808333Y-81481400D01*
X56808333Y-81481400D02*
X56775000Y-81548066D01*
X56775000Y-81548066D02*
X56741666Y-81581400D01*
X56741666Y-81581400D02*
X56675000Y-81614733D01*
X56675000Y-81614733D02*
X56475000Y-81614733D01*
X56475000Y-81614733D02*
X56408333Y-81581400D01*
X56408333Y-81581400D02*
X56375000Y-81548066D01*
D11*
X52316033Y-71250000D02*
X51982700Y-71483333D01*
X52316033Y-71650000D02*
X51616033Y-71650000D01*
X51616033Y-71650000D02*
X51616033Y-71383333D01*
X51616033Y-71383333D02*
X51649366Y-71316667D01*
X51649366Y-71316667D02*
X51682700Y-71283333D01*
X51682700Y-71283333D02*
X51749366Y-71250000D01*
X51749366Y-71250000D02*
X51849366Y-71250000D01*
X51849366Y-71250000D02*
X51916033Y-71283333D01*
X51916033Y-71283333D02*
X51949366Y-71316667D01*
X51949366Y-71316667D02*
X51982700Y-71383333D01*
X51982700Y-71383333D02*
X51982700Y-71650000D01*
X52316033Y-70583333D02*
X52316033Y-70983333D01*
X52316033Y-70783333D02*
X51616033Y-70783333D01*
X51616033Y-70783333D02*
X51716033Y-70850000D01*
X51716033Y-70850000D02*
X51782700Y-70916667D01*
X51782700Y-70916667D02*
X51816033Y-70983333D01*
X51616033Y-70350000D02*
X51616033Y-69883333D01*
X51616033Y-69883333D02*
X52316033Y-70183333D01*
X30749999Y-82649366D02*
X30716666Y-82682700D01*
X30716666Y-82682700D02*
X30616666Y-82716033D01*
X30616666Y-82716033D02*
X30549999Y-82716033D01*
X30549999Y-82716033D02*
X30449999Y-82682700D01*
X30449999Y-82682700D02*
X30383333Y-82616033D01*
X30383333Y-82616033D02*
X30349999Y-82549366D01*
X30349999Y-82549366D02*
X30316666Y-82416033D01*
X30316666Y-82416033D02*
X30316666Y-82316033D01*
X30316666Y-82316033D02*
X30349999Y-82182700D01*
X30349999Y-82182700D02*
X30383333Y-82116033D01*
X30383333Y-82116033D02*
X30449999Y-82049366D01*
X30449999Y-82049366D02*
X30549999Y-82016033D01*
X30549999Y-82016033D02*
X30616666Y-82016033D01*
X30616666Y-82016033D02*
X30716666Y-82049366D01*
X30716666Y-82049366D02*
X30749999Y-82082700D01*
X31416666Y-82716033D02*
X31016666Y-82716033D01*
X31216666Y-82716033D02*
X31216666Y-82016033D01*
X31216666Y-82016033D02*
X31149999Y-82116033D01*
X31149999Y-82116033D02*
X31083333Y-82182700D01*
X31083333Y-82182700D02*
X31016666Y-82216033D01*
X31850000Y-82016033D02*
X31916666Y-82016033D01*
X31916666Y-82016033D02*
X31983333Y-82049366D01*
X31983333Y-82049366D02*
X32016666Y-82082700D01*
X32016666Y-82082700D02*
X32050000Y-82149366D01*
X32050000Y-82149366D02*
X32083333Y-82282700D01*
X32083333Y-82282700D02*
X32083333Y-82449366D01*
X32083333Y-82449366D02*
X32050000Y-82582700D01*
X32050000Y-82582700D02*
X32016666Y-82649366D01*
X32016666Y-82649366D02*
X31983333Y-82682700D01*
X31983333Y-82682700D02*
X31916666Y-82716033D01*
X31916666Y-82716033D02*
X31850000Y-82716033D01*
X31850000Y-82716033D02*
X31783333Y-82682700D01*
X31783333Y-82682700D02*
X31750000Y-82649366D01*
X31750000Y-82649366D02*
X31716666Y-82582700D01*
X31716666Y-82582700D02*
X31683333Y-82449366D01*
X31683333Y-82449366D02*
X31683333Y-82282700D01*
X31683333Y-82282700D02*
X31716666Y-82149366D01*
X31716666Y-82149366D02*
X31750000Y-82082700D01*
X31750000Y-82082700D02*
X31783333Y-82049366D01*
X31783333Y-82049366D02*
X31850000Y-82016033D01*
X54549999Y-73049366D02*
X54516666Y-73082700D01*
X54516666Y-73082700D02*
X54416666Y-73116033D01*
X54416666Y-73116033D02*
X54349999Y-73116033D01*
X54349999Y-73116033D02*
X54249999Y-73082700D01*
X54249999Y-73082700D02*
X54183333Y-73016033D01*
X54183333Y-73016033D02*
X54149999Y-72949366D01*
X54149999Y-72949366D02*
X54116666Y-72816033D01*
X54116666Y-72816033D02*
X54116666Y-72716033D01*
X54116666Y-72716033D02*
X54149999Y-72582700D01*
X54149999Y-72582700D02*
X54183333Y-72516033D01*
X54183333Y-72516033D02*
X54249999Y-72449366D01*
X54249999Y-72449366D02*
X54349999Y-72416033D01*
X54349999Y-72416033D02*
X54416666Y-72416033D01*
X54416666Y-72416033D02*
X54516666Y-72449366D01*
X54516666Y-72449366D02*
X54549999Y-72482700D01*
X54816666Y-72482700D02*
X54849999Y-72449366D01*
X54849999Y-72449366D02*
X54916666Y-72416033D01*
X54916666Y-72416033D02*
X55083333Y-72416033D01*
X55083333Y-72416033D02*
X55149999Y-72449366D01*
X55149999Y-72449366D02*
X55183333Y-72482700D01*
X55183333Y-72482700D02*
X55216666Y-72549366D01*
X55216666Y-72549366D02*
X55216666Y-72616033D01*
X55216666Y-72616033D02*
X55183333Y-72716033D01*
X55183333Y-72716033D02*
X54783333Y-73116033D01*
X54783333Y-73116033D02*
X55216666Y-73116033D01*
X55883333Y-73116033D02*
X55483333Y-73116033D01*
X55683333Y-73116033D02*
X55683333Y-72416033D01*
X55683333Y-72416033D02*
X55616666Y-72516033D01*
X55616666Y-72516033D02*
X55550000Y-72582700D01*
X55550000Y-72582700D02*
X55483333Y-72616033D01*
X40833333Y-56982700D02*
X40766666Y-56949366D01*
X40766666Y-56949366D02*
X40700000Y-56882700D01*
X40700000Y-56882700D02*
X40600000Y-56782700D01*
X40600000Y-56782700D02*
X40533333Y-56749366D01*
X40533333Y-56749366D02*
X40466666Y-56749366D01*
X40500000Y-56916033D02*
X40433333Y-56882700D01*
X40433333Y-56882700D02*
X40366666Y-56816033D01*
X40366666Y-56816033D02*
X40333333Y-56682700D01*
X40333333Y-56682700D02*
X40333333Y-56449366D01*
X40333333Y-56449366D02*
X40366666Y-56316033D01*
X40366666Y-56316033D02*
X40433333Y-56249366D01*
X40433333Y-56249366D02*
X40500000Y-56216033D01*
X40500000Y-56216033D02*
X40633333Y-56216033D01*
X40633333Y-56216033D02*
X40700000Y-56249366D01*
X40700000Y-56249366D02*
X40766666Y-56316033D01*
X40766666Y-56316033D02*
X40800000Y-56449366D01*
X40800000Y-56449366D02*
X40800000Y-56682700D01*
X40800000Y-56682700D02*
X40766666Y-56816033D01*
X40766666Y-56816033D02*
X40700000Y-56882700D01*
X40700000Y-56882700D02*
X40633333Y-56916033D01*
X40633333Y-56916033D02*
X40500000Y-56916033D01*
X41466666Y-56916033D02*
X41066666Y-56916033D01*
X41266666Y-56916033D02*
X41266666Y-56216033D01*
X41266666Y-56216033D02*
X41199999Y-56316033D01*
X41199999Y-56316033D02*
X41133333Y-56382700D01*
X41133333Y-56382700D02*
X41066666Y-56416033D01*
X32133333Y-74999366D02*
X32100000Y-75032700D01*
X32100000Y-75032700D02*
X32000000Y-75066033D01*
X32000000Y-75066033D02*
X31933333Y-75066033D01*
X31933333Y-75066033D02*
X31833333Y-75032700D01*
X31833333Y-75032700D02*
X31766667Y-74966033D01*
X31766667Y-74966033D02*
X31733333Y-74899366D01*
X31733333Y-74899366D02*
X31700000Y-74766033D01*
X31700000Y-74766033D02*
X31700000Y-74666033D01*
X31700000Y-74666033D02*
X31733333Y-74532700D01*
X31733333Y-74532700D02*
X31766667Y-74466033D01*
X31766667Y-74466033D02*
X31833333Y-74399366D01*
X31833333Y-74399366D02*
X31933333Y-74366033D01*
X31933333Y-74366033D02*
X32000000Y-74366033D01*
X32000000Y-74366033D02*
X32100000Y-74399366D01*
X32100000Y-74399366D02*
X32133333Y-74432700D01*
X32466667Y-75066033D02*
X32600000Y-75066033D01*
X32600000Y-75066033D02*
X32666667Y-75032700D01*
X32666667Y-75032700D02*
X32700000Y-74999366D01*
X32700000Y-74999366D02*
X32766667Y-74899366D01*
X32766667Y-74899366D02*
X32800000Y-74766033D01*
X32800000Y-74766033D02*
X32800000Y-74499366D01*
X32800000Y-74499366D02*
X32766667Y-74432700D01*
X32766667Y-74432700D02*
X32733333Y-74399366D01*
X32733333Y-74399366D02*
X32666667Y-74366033D01*
X32666667Y-74366033D02*
X32533333Y-74366033D01*
X32533333Y-74366033D02*
X32466667Y-74399366D01*
X32466667Y-74399366D02*
X32433333Y-74432700D01*
X32433333Y-74432700D02*
X32400000Y-74499366D01*
X32400000Y-74499366D02*
X32400000Y-74666033D01*
X32400000Y-74666033D02*
X32433333Y-74732700D01*
X32433333Y-74732700D02*
X32466667Y-74766033D01*
X32466667Y-74766033D02*
X32533333Y-74799366D01*
X32533333Y-74799366D02*
X32666667Y-74799366D01*
X32666667Y-74799366D02*
X32733333Y-74766033D01*
X32733333Y-74766033D02*
X32766667Y-74732700D01*
X32766667Y-74732700D02*
X32800000Y-74666033D01*
X50516033Y-71150000D02*
X50182700Y-71383333D01*
X50516033Y-71550000D02*
X49816033Y-71550000D01*
X49816033Y-71550000D02*
X49816033Y-71283333D01*
X49816033Y-71283333D02*
X49849366Y-71216667D01*
X49849366Y-71216667D02*
X49882700Y-71183333D01*
X49882700Y-71183333D02*
X49949366Y-71150000D01*
X49949366Y-71150000D02*
X50049366Y-71150000D01*
X50049366Y-71150000D02*
X50116033Y-71183333D01*
X50116033Y-71183333D02*
X50149366Y-71216667D01*
X50149366Y-71216667D02*
X50182700Y-71283333D01*
X50182700Y-71283333D02*
X50182700Y-71550000D01*
X49882700Y-70883333D02*
X49849366Y-70850000D01*
X49849366Y-70850000D02*
X49816033Y-70783333D01*
X49816033Y-70783333D02*
X49816033Y-70616667D01*
X49816033Y-70616667D02*
X49849366Y-70550000D01*
X49849366Y-70550000D02*
X49882700Y-70516667D01*
X49882700Y-70516667D02*
X49949366Y-70483333D01*
X49949366Y-70483333D02*
X50016033Y-70483333D01*
X50016033Y-70483333D02*
X50116033Y-70516667D01*
X50116033Y-70516667D02*
X50516033Y-70916667D01*
X50516033Y-70916667D02*
X50516033Y-70483333D01*
X49882700Y-70216666D02*
X49849366Y-70183333D01*
X49849366Y-70183333D02*
X49816033Y-70116666D01*
X49816033Y-70116666D02*
X49816033Y-69950000D01*
X49816033Y-69950000D02*
X49849366Y-69883333D01*
X49849366Y-69883333D02*
X49882700Y-69850000D01*
X49882700Y-69850000D02*
X49949366Y-69816666D01*
X49949366Y-69816666D02*
X50016033Y-69816666D01*
X50016033Y-69816666D02*
X50116033Y-69850000D01*
X50116033Y-69850000D02*
X50516033Y-70250000D01*
X50516033Y-70250000D02*
X50516033Y-69816666D01*
X31549999Y-78749366D02*
X31516666Y-78782700D01*
X31516666Y-78782700D02*
X31416666Y-78816033D01*
X31416666Y-78816033D02*
X31349999Y-78816033D01*
X31349999Y-78816033D02*
X31249999Y-78782700D01*
X31249999Y-78782700D02*
X31183333Y-78716033D01*
X31183333Y-78716033D02*
X31149999Y-78649366D01*
X31149999Y-78649366D02*
X31116666Y-78516033D01*
X31116666Y-78516033D02*
X31116666Y-78416033D01*
X31116666Y-78416033D02*
X31149999Y-78282700D01*
X31149999Y-78282700D02*
X31183333Y-78216033D01*
X31183333Y-78216033D02*
X31249999Y-78149366D01*
X31249999Y-78149366D02*
X31349999Y-78116033D01*
X31349999Y-78116033D02*
X31416666Y-78116033D01*
X31416666Y-78116033D02*
X31516666Y-78149366D01*
X31516666Y-78149366D02*
X31549999Y-78182700D01*
X32216666Y-78816033D02*
X31816666Y-78816033D01*
X32016666Y-78816033D02*
X32016666Y-78116033D01*
X32016666Y-78116033D02*
X31949999Y-78216033D01*
X31949999Y-78216033D02*
X31883333Y-78282700D01*
X31883333Y-78282700D02*
X31816666Y-78316033D01*
X32883333Y-78816033D02*
X32483333Y-78816033D01*
X32683333Y-78816033D02*
X32683333Y-78116033D01*
X32683333Y-78116033D02*
X32616666Y-78216033D01*
X32616666Y-78216033D02*
X32550000Y-78282700D01*
X32550000Y-78282700D02*
X32483333Y-78316033D01*
X39683333Y-75316033D02*
X39450000Y-74982700D01*
X39283333Y-75316033D02*
X39283333Y-74616033D01*
X39283333Y-74616033D02*
X39550000Y-74616033D01*
X39550000Y-74616033D02*
X39616667Y-74649366D01*
X39616667Y-74649366D02*
X39650000Y-74682700D01*
X39650000Y-74682700D02*
X39683333Y-74749366D01*
X39683333Y-74749366D02*
X39683333Y-74849366D01*
X39683333Y-74849366D02*
X39650000Y-74916033D01*
X39650000Y-74916033D02*
X39616667Y-74949366D01*
X39616667Y-74949366D02*
X39550000Y-74982700D01*
X39550000Y-74982700D02*
X39283333Y-74982700D01*
X40016667Y-75316033D02*
X40150000Y-75316033D01*
X40150000Y-75316033D02*
X40216667Y-75282700D01*
X40216667Y-75282700D02*
X40250000Y-75249366D01*
X40250000Y-75249366D02*
X40316667Y-75149366D01*
X40316667Y-75149366D02*
X40350000Y-75016033D01*
X40350000Y-75016033D02*
X40350000Y-74749366D01*
X40350000Y-74749366D02*
X40316667Y-74682700D01*
X40316667Y-74682700D02*
X40283333Y-74649366D01*
X40283333Y-74649366D02*
X40216667Y-74616033D01*
X40216667Y-74616033D02*
X40083333Y-74616033D01*
X40083333Y-74616033D02*
X40016667Y-74649366D01*
X40016667Y-74649366D02*
X39983333Y-74682700D01*
X39983333Y-74682700D02*
X39950000Y-74749366D01*
X39950000Y-74749366D02*
X39950000Y-74916033D01*
X39950000Y-74916033D02*
X39983333Y-74982700D01*
X39983333Y-74982700D02*
X40016667Y-75016033D01*
X40016667Y-75016033D02*
X40083333Y-75049366D01*
X40083333Y-75049366D02*
X40216667Y-75049366D01*
X40216667Y-75049366D02*
X40283333Y-75016033D01*
X40283333Y-75016033D02*
X40316667Y-74982700D01*
X40316667Y-74982700D02*
X40350000Y-74916033D01*
D14*
%TO.C,LED1*%
X44141421Y-63225020D02*
G75*
G02*
X43858579Y-63225020I-141421J0D01*
G01*
X43858579Y-63225020D02*
G75*
G02*
X44141421Y-63225020I141421J0D01*
G01*
%TO.C,LED2*%
X47666421Y-63200000D02*
G75*
G02*
X47383579Y-63200000I-141421J0D01*
G01*
X47383579Y-63200000D02*
G75*
G02*
X47666421Y-63200000I141421J0D01*
G01*
%TO.C,LED3*%
X51141421Y-63174980D02*
G75*
G02*
X50858579Y-63174980I-141421J0D01*
G01*
X50858579Y-63174980D02*
G75*
G02*
X51141421Y-63174980I141421J0D01*
G01*
%TO.C,R3*%
X63077500Y-46437742D02*
X63077500Y-46912258D01*
X64122500Y-46437742D02*
X64122500Y-46912258D01*
%TO.C,C1*%
X63090000Y-43790580D02*
X63090000Y-43509420D01*
X64110000Y-43790580D02*
X64110000Y-43509420D01*
%TO.C,C2*%
X65959420Y-48440000D02*
X66240580Y-48440000D01*
X65959420Y-49460000D02*
X66240580Y-49460000D01*
D15*
%TO.C,U1*%
X64243000Y-43237500D02*
G75*
G02*
X64143000Y-43237500I-50000J0D01*
G01*
X64143000Y-43237500D02*
G75*
G02*
X64243000Y-43237500I50000J0D01*
G01*
D14*
%TO.C,R10*%
X37677500Y-77237258D02*
X37677500Y-76762742D01*
X38722500Y-77237258D02*
X38722500Y-76762742D01*
%TO.C,C15*%
X60065580Y-46890000D02*
X59784420Y-46890000D01*
X60065580Y-47910000D02*
X59784420Y-47910000D01*
D15*
%TO.C,U7*%
X29600000Y-73850000D02*
X40850000Y-73850000D01*
X40850000Y-60550000D02*
X29600000Y-60550000D01*
X40850000Y-73850000D02*
X40850000Y-60550000D01*
D16*
X31300000Y-74550000D02*
G75*
G02*
X31100000Y-74550000I-100000J0D01*
G01*
X31100000Y-74550000D02*
G75*
G02*
X31300000Y-74550000I100000J0D01*
G01*
D14*
%TO.C,C3*%
X39990000Y-43740580D02*
X39990000Y-43459420D01*
X41010000Y-43740580D02*
X41010000Y-43459420D01*
%TO.C,U10*%
X27661803Y-48575000D02*
G75*
G02*
X27438197Y-48575000I-111803J0D01*
G01*
X27438197Y-48575000D02*
G75*
G02*
X27661803Y-48575000I111803J0D01*
G01*
%TO.C,R18*%
X46377500Y-73737258D02*
X46377500Y-73262742D01*
X47422500Y-73737258D02*
X47422500Y-73262742D01*
%TO.C,C14*%
X60065580Y-48490000D02*
X59784420Y-48490000D01*
X60065580Y-49510000D02*
X59784420Y-49510000D01*
%TO.C,C7*%
X39990000Y-46759420D02*
X39990000Y-47040580D01*
X41010000Y-46759420D02*
X41010000Y-47040580D01*
%TO.C,C24*%
X50990000Y-67259420D02*
X50990000Y-67540580D01*
X52010000Y-67259420D02*
X52010000Y-67540580D01*
%TO.C,R5*%
X44002500Y-58562742D02*
X44002500Y-59037258D01*
X45047500Y-58562742D02*
X45047500Y-59037258D01*
%TO.C,R19*%
X64677500Y-79862742D02*
X64677500Y-80337258D01*
X65722500Y-79862742D02*
X65722500Y-80337258D01*
%TO.C,U3*%
X29040000Y-42190000D02*
X31015000Y-42190000D01*
X29040000Y-44165000D02*
X29040000Y-42190000D01*
X29040000Y-52510000D02*
X29040000Y-50535000D01*
X31015000Y-52510000D02*
X29040000Y-52510000D01*
X37385000Y-42190000D02*
X39360000Y-42190000D01*
X39360000Y-42190000D02*
X39360000Y-44165000D01*
X39360000Y-50535000D02*
X39360000Y-52510000D01*
X39360000Y-52510000D02*
X37385000Y-52510000D01*
X36700000Y-41990000D02*
X36460000Y-41660000D01*
X36940000Y-41660000D01*
X36700000Y-41990000D01*
G36*
X36700000Y-41990000D02*
G01*
X36460000Y-41660000D01*
X36940000Y-41660000D01*
X36700000Y-41990000D01*
G37*
%TO.C,R11*%
X34477500Y-78562742D02*
X34477500Y-79037258D01*
X35522500Y-78562742D02*
X35522500Y-79037258D01*
%TO.C,C13*%
X41790000Y-70259420D02*
X41790000Y-70540580D01*
X42810000Y-70259420D02*
X42810000Y-70540580D01*
%TO.C,D5*%
X43800000Y-75300000D02*
X45760000Y-75300000D01*
X43800000Y-76500000D02*
X45760000Y-76500000D01*
X45760000Y-76500000D02*
X45760000Y-75300000D01*
%TO.C,C17*%
X47540000Y-67259420D02*
X47540000Y-67540580D01*
X48560000Y-67259420D02*
X48560000Y-67540580D01*
%TO.C,R21*%
X48077500Y-73262742D02*
X48077500Y-73737258D01*
X49122500Y-73262742D02*
X49122500Y-73737258D01*
D17*
%TO.C,U6*%
X57500000Y-73700000D02*
X57500000Y-76600000D01*
X57500000Y-76600000D02*
X58600000Y-76600000D01*
X58600000Y-73700000D02*
X57500000Y-73700000D01*
X58600000Y-76600000D02*
X58600000Y-73700000D01*
D14*
%TO.C,R2*%
X33477500Y-75937258D02*
X33477500Y-75462742D01*
X34522500Y-75937258D02*
X34522500Y-75462742D01*
%TO.C,C8*%
X25790000Y-44040580D02*
X25790000Y-43759420D01*
X26810000Y-44040580D02*
X26810000Y-43759420D01*
%TO.C,C12*%
X32890000Y-80259420D02*
X32890000Y-80540580D01*
X33910000Y-80259420D02*
X33910000Y-80540580D01*
D16*
%TO.C,P1*%
X44727500Y-82150000D02*
X44727500Y-83400000D01*
X44727500Y-86120000D02*
X44727500Y-87400000D01*
X53667500Y-82150000D02*
X53667500Y-83400000D01*
X53667500Y-87400000D02*
X53667500Y-86120000D01*
X46047500Y-78800000D02*
G75*
G02*
X45847500Y-78800000I-100000J0D01*
G01*
X45847500Y-78800000D02*
G75*
G02*
X46047500Y-78800000I100000J0D01*
G01*
D14*
%TO.C,C5*%
X58559420Y-66565000D02*
X58840580Y-66565000D01*
X58559420Y-67585000D02*
X58840580Y-67585000D01*
D18*
%TO.C,REF\u002A\u002A*%
X51352600Y-52558752D02*
X51369948Y-52566334D01*
X51411356Y-52599128D01*
X51446765Y-52646547D01*
X51468664Y-52697151D01*
X51472229Y-52722098D01*
X51460279Y-52756927D01*
X51434067Y-52775357D01*
X51405964Y-52786516D01*
X51393095Y-52788572D01*
X51386829Y-52773649D01*
X51374456Y-52741175D01*
X51369028Y-52726502D01*
X51338590Y-52675744D01*
X51294520Y-52650427D01*
X51238010Y-52651206D01*
X51233825Y-52652203D01*
X51203655Y-52666507D01*
X51181476Y-52694393D01*
X51166327Y-52739287D01*
X51157250Y-52804615D01*
X51153286Y-52893804D01*
X51152914Y-52941261D01*
X51152730Y-53016071D01*
X51151522Y-53067069D01*
X51148309Y-53099471D01*
X51142109Y-53118495D01*
X51131940Y-53129356D01*
X51116819Y-53137272D01*
X51115946Y-53137670D01*
X51086828Y-53149981D01*
X51072403Y-53154514D01*
X51070186Y-53140809D01*
X51068289Y-53102925D01*
X51066847Y-53045715D01*
X51065998Y-52974027D01*
X51065829Y-52921565D01*
X51066692Y-52820047D01*
X51070070Y-52743032D01*
X51077142Y-52686023D01*
X51089088Y-52644526D01*
X51107090Y-52614043D01*
X51132327Y-52590080D01*
X51157247Y-52573355D01*
X51217171Y-52551097D01*
X51286911Y-52546076D01*
X51352600Y-52558752D01*
G36*
X51352600Y-52558752D02*
G01*
X51369948Y-52566334D01*
X51411356Y-52599128D01*
X51446765Y-52646547D01*
X51468664Y-52697151D01*
X51472229Y-52722098D01*
X51460279Y-52756927D01*
X51434067Y-52775357D01*
X51405964Y-52786516D01*
X51393095Y-52788572D01*
X51386829Y-52773649D01*
X51374456Y-52741175D01*
X51369028Y-52726502D01*
X51338590Y-52675744D01*
X51294520Y-52650427D01*
X51238010Y-52651206D01*
X51233825Y-52652203D01*
X51203655Y-52666507D01*
X51181476Y-52694393D01*
X51166327Y-52739287D01*
X51157250Y-52804615D01*
X51153286Y-52893804D01*
X51152914Y-52941261D01*
X51152730Y-53016071D01*
X51151522Y-53067069D01*
X51148309Y-53099471D01*
X51142109Y-53118495D01*
X51131940Y-53129356D01*
X51116819Y-53137272D01*
X51115946Y-53137670D01*
X51086828Y-53149981D01*
X51072403Y-53154514D01*
X51070186Y-53140809D01*
X51068289Y-53102925D01*
X51066847Y-53045715D01*
X51065998Y-52974027D01*
X51065829Y-52921565D01*
X51066692Y-52820047D01*
X51070070Y-52743032D01*
X51077142Y-52686023D01*
X51089088Y-52644526D01*
X51107090Y-52614043D01*
X51132327Y-52590080D01*
X51157247Y-52573355D01*
X51217171Y-52551097D01*
X51286911Y-52546076D01*
X51352600Y-52558752D01*
G37*
X47416093Y-52527780D02*
X47462672Y-52554723D01*
X47495057Y-52581466D01*
X47518742Y-52609484D01*
X47535059Y-52643748D01*
X47545339Y-52689227D01*
X47550914Y-52750892D01*
X47553116Y-52833711D01*
X47553371Y-52893246D01*
X47553371Y-53112391D01*
X47491686Y-53140044D01*
X47430000Y-53167697D01*
X47422743Y-52927670D01*
X47419744Y-52838028D01*
X47416598Y-52772962D01*
X47412701Y-52728026D01*
X47407447Y-52698770D01*
X47400231Y-52680748D01*
X47390450Y-52669511D01*
X47387312Y-52667079D01*
X47339761Y-52648083D01*
X47291697Y-52655600D01*
X47263086Y-52675543D01*
X47251447Y-52689675D01*
X47243391Y-52708220D01*
X47238271Y-52736334D01*
X47235441Y-52779173D01*
X47234256Y-52841895D01*
X47234057Y-52907261D01*
X47234018Y-52989268D01*
X47232614Y-53047316D01*
X47227914Y-53086465D01*
X47217987Y-53111780D01*
X47200903Y-53128323D01*
X47174732Y-53141156D01*
X47139775Y-53154491D01*
X47101596Y-53169007D01*
X47106141Y-52911389D01*
X47107971Y-52818519D01*
X47110112Y-52749889D01*
X47113181Y-52700711D01*
X47117794Y-52666198D01*
X47124568Y-52641562D01*
X47134119Y-52622016D01*
X47145634Y-52604770D01*
X47201190Y-52549680D01*
X47268980Y-52517822D01*
X47342713Y-52510191D01*
X47416093Y-52527780D01*
G36*
X47416093Y-52527780D02*
G01*
X47462672Y-52554723D01*
X47495057Y-52581466D01*
X47518742Y-52609484D01*
X47535059Y-52643748D01*
X47545339Y-52689227D01*
X47550914Y-52750892D01*
X47553116Y-52833711D01*
X47553371Y-52893246D01*
X47553371Y-53112391D01*
X47491686Y-53140044D01*
X47430000Y-53167697D01*
X47422743Y-52927670D01*
X47419744Y-52838028D01*
X47416598Y-52772962D01*
X47412701Y-52728026D01*
X47407447Y-52698770D01*
X47400231Y-52680748D01*
X47390450Y-52669511D01*
X47387312Y-52667079D01*
X47339761Y-52648083D01*
X47291697Y-52655600D01*
X47263086Y-52675543D01*
X47251447Y-52689675D01*
X47243391Y-52708220D01*
X47238271Y-52736334D01*
X47235441Y-52779173D01*
X47234256Y-52841895D01*
X47234057Y-52907261D01*
X47234018Y-52989268D01*
X47232614Y-53047316D01*
X47227914Y-53086465D01*
X47217987Y-53111780D01*
X47200903Y-53128323D01*
X47174732Y-53141156D01*
X47139775Y-53154491D01*
X47101596Y-53169007D01*
X47106141Y-52911389D01*
X47107971Y-52818519D01*
X47110112Y-52749889D01*
X47113181Y-52700711D01*
X47117794Y-52666198D01*
X47124568Y-52641562D01*
X47134119Y-52622016D01*
X47145634Y-52604770D01*
X47201190Y-52549680D01*
X47268980Y-52517822D01*
X47342713Y-52510191D01*
X47416093Y-52527780D01*
G37*
X49229926Y-52549755D02*
X49295858Y-52574084D01*
X49349273Y-52617117D01*
X49370164Y-52647409D01*
X49392939Y-52702994D01*
X49392466Y-52743186D01*
X49368562Y-52770217D01*
X49359717Y-52774813D01*
X49321530Y-52789144D01*
X49302028Y-52785472D01*
X49295422Y-52761407D01*
X49295086Y-52748114D01*
X49282992Y-52699210D01*
X49251471Y-52664999D01*
X49207659Y-52648476D01*
X49158695Y-52652634D01*
X49118894Y-52674227D01*
X49105450Y-52686544D01*
X49095921Y-52701487D01*
X49089485Y-52724075D01*
X49085317Y-52759328D01*
X49082597Y-52812266D01*
X49080502Y-52887907D01*
X49079960Y-52911857D01*
X49077981Y-52993790D01*
X49075731Y-53051455D01*
X49072357Y-53089608D01*
X49067006Y-53113004D01*
X49058824Y-53126398D01*
X49046959Y-53134545D01*
X49039362Y-53138144D01*
X49007102Y-53150452D01*
X48988111Y-53154514D01*
X48981836Y-53140948D01*
X48978006Y-53099934D01*
X48976600Y-53030999D01*
X48977598Y-52933669D01*
X48977908Y-52918657D01*
X48980101Y-52829859D01*
X48982693Y-52765019D01*
X48986382Y-52719067D01*
X48991864Y-52686935D01*
X48999835Y-52663553D01*
X49010993Y-52643852D01*
X49016830Y-52635410D01*
X49050296Y-52598057D01*
X49087727Y-52569003D01*
X49092309Y-52566467D01*
X49159426Y-52546443D01*
X49229926Y-52549755D01*
G36*
X49229926Y-52549755D02*
G01*
X49295858Y-52574084D01*
X49349273Y-52617117D01*
X49370164Y-52647409D01*
X49392939Y-52702994D01*
X49392466Y-52743186D01*
X49368562Y-52770217D01*
X49359717Y-52774813D01*
X49321530Y-52789144D01*
X49302028Y-52785472D01*
X49295422Y-52761407D01*
X49295086Y-52748114D01*
X49282992Y-52699210D01*
X49251471Y-52664999D01*
X49207659Y-52648476D01*
X49158695Y-52652634D01*
X49118894Y-52674227D01*
X49105450Y-52686544D01*
X49095921Y-52701487D01*
X49089485Y-52724075D01*
X49085317Y-52759328D01*
X49082597Y-52812266D01*
X49080502Y-52887907D01*
X49079960Y-52911857D01*
X49077981Y-52993790D01*
X49075731Y-53051455D01*
X49072357Y-53089608D01*
X49067006Y-53113004D01*
X49058824Y-53126398D01*
X49046959Y-53134545D01*
X49039362Y-53138144D01*
X49007102Y-53150452D01*
X48988111Y-53154514D01*
X48981836Y-53140948D01*
X48978006Y-53099934D01*
X48976600Y-53030999D01*
X48977598Y-52933669D01*
X48977908Y-52918657D01*
X48980101Y-52829859D01*
X48982693Y-52765019D01*
X48986382Y-52719067D01*
X48991864Y-52686935D01*
X48999835Y-52663553D01*
X49010993Y-52643852D01*
X49016830Y-52635410D01*
X49050296Y-52598057D01*
X49087727Y-52569003D01*
X49092309Y-52566467D01*
X49159426Y-52546443D01*
X49229926Y-52549755D01*
G37*
X48075886Y-52451289D02*
X48080139Y-52510613D01*
X48085025Y-52545572D01*
X48091795Y-52560820D01*
X48101702Y-52561015D01*
X48104914Y-52559195D01*
X48147644Y-52546015D01*
X48203227Y-52546785D01*
X48259737Y-52560333D01*
X48295082Y-52577861D01*
X48331321Y-52605861D01*
X48357813Y-52637549D01*
X48375999Y-52677813D01*
X48387322Y-52731543D01*
X48393222Y-52803626D01*
X48395143Y-52898951D01*
X48395177Y-52917237D01*
X48395200Y-53122646D01*
X48349491Y-53138580D01*
X48317027Y-53149420D01*
X48299215Y-53154468D01*
X48298691Y-53154514D01*
X48296937Y-53140828D01*
X48295444Y-53103076D01*
X48294326Y-53046224D01*
X48293697Y-52975234D01*
X48293600Y-52932073D01*
X48293398Y-52846973D01*
X48292358Y-52785981D01*
X48289831Y-52744177D01*
X48285164Y-52716642D01*
X48277707Y-52698456D01*
X48266811Y-52684698D01*
X48260007Y-52678073D01*
X48213272Y-52651375D01*
X48162272Y-52649375D01*
X48116001Y-52671955D01*
X48107444Y-52680107D01*
X48094893Y-52695436D01*
X48086188Y-52713618D01*
X48080631Y-52739909D01*
X48077526Y-52779562D01*
X48076176Y-52837832D01*
X48075886Y-52918173D01*
X48075886Y-53122646D01*
X48030177Y-53138580D01*
X47997713Y-53149420D01*
X47979901Y-53154468D01*
X47979377Y-53154514D01*
X47978037Y-53140623D01*
X47976828Y-53101439D01*
X47975801Y-53040700D01*
X47975002Y-52962141D01*
X47974481Y-52869498D01*
X47974286Y-52766509D01*
X47974286Y-52369342D01*
X48021457Y-52349444D01*
X48068629Y-52329547D01*
X48075886Y-52451289D01*
G36*
X48075886Y-52451289D02*
G01*
X48080139Y-52510613D01*
X48085025Y-52545572D01*
X48091795Y-52560820D01*
X48101702Y-52561015D01*
X48104914Y-52559195D01*
X48147644Y-52546015D01*
X48203227Y-52546785D01*
X48259737Y-52560333D01*
X48295082Y-52577861D01*
X48331321Y-52605861D01*
X48357813Y-52637549D01*
X48375999Y-52677813D01*
X48387322Y-52731543D01*
X48393222Y-52803626D01*
X48395143Y-52898951D01*
X48395177Y-52917237D01*
X48395200Y-53122646D01*
X48349491Y-53138580D01*
X48317027Y-53149420D01*
X48299215Y-53154468D01*
X48298691Y-53154514D01*
X48296937Y-53140828D01*
X48295444Y-53103076D01*
X48294326Y-53046224D01*
X48293697Y-52975234D01*
X48293600Y-52932073D01*
X48293398Y-52846973D01*
X48292358Y-52785981D01*
X48289831Y-52744177D01*
X48285164Y-52716642D01*
X48277707Y-52698456D01*
X48266811Y-52684698D01*
X48260007Y-52678073D01*
X48213272Y-52651375D01*
X48162272Y-52649375D01*
X48116001Y-52671955D01*
X48107444Y-52680107D01*
X48094893Y-52695436D01*
X48086188Y-52713618D01*
X48080631Y-52739909D01*
X48077526Y-52779562D01*
X48076176Y-52837832D01*
X48075886Y-52918173D01*
X48075886Y-53122646D01*
X48030177Y-53138580D01*
X47997713Y-53149420D01*
X47979901Y-53154468D01*
X47979377Y-53154514D01*
X47978037Y-53140623D01*
X47976828Y-53101439D01*
X47975801Y-53040700D01*
X47975002Y-52962141D01*
X47974481Y-52869498D01*
X47974286Y-52766509D01*
X47974286Y-52369342D01*
X48021457Y-52349444D01*
X48068629Y-52329547D01*
X48075886Y-52451289D01*
G37*
X50479833Y-52558663D02*
X50482048Y-52596850D01*
X50483784Y-52654886D01*
X50484899Y-52728180D01*
X50485257Y-52805055D01*
X50485257Y-53065196D01*
X50439326Y-53111127D01*
X50407675Y-53139429D01*
X50379890Y-53150893D01*
X50341915Y-53150168D01*
X50326840Y-53148321D01*
X50279726Y-53142948D01*
X50240756Y-53139869D01*
X50231257Y-53139585D01*
X50199233Y-53141445D01*
X50153432Y-53146114D01*
X50135674Y-53148321D01*
X50092057Y-53151735D01*
X50062745Y-53144320D01*
X50033680Y-53121427D01*
X50023188Y-53111127D01*
X49977257Y-53065196D01*
X49977257Y-52578602D01*
X50014226Y-52561758D01*
X50046059Y-52549282D01*
X50064683Y-52544914D01*
X50069458Y-52558718D01*
X50073921Y-52597286D01*
X50077775Y-52656356D01*
X50080722Y-52731663D01*
X50082143Y-52795286D01*
X50086114Y-53045657D01*
X50120759Y-53050556D01*
X50152268Y-53047131D01*
X50167708Y-53036041D01*
X50172023Y-53015308D01*
X50175708Y-52971145D01*
X50178469Y-52909146D01*
X50180012Y-52834909D01*
X50180235Y-52796706D01*
X50180457Y-52576783D01*
X50226166Y-52560849D01*
X50258518Y-52550015D01*
X50276115Y-52544962D01*
X50276623Y-52544914D01*
X50278388Y-52558648D01*
X50280329Y-52596730D01*
X50282282Y-52654482D01*
X50284084Y-52727227D01*
X50285343Y-52795286D01*
X50289314Y-53045657D01*
X50376400Y-53045657D01*
X50380396Y-52817240D01*
X50384392Y-52588822D01*
X50426847Y-52566868D01*
X50458192Y-52551793D01*
X50476744Y-52544951D01*
X50477279Y-52544914D01*
X50479833Y-52558663D01*
G36*
X50479833Y-52558663D02*
G01*
X50482048Y-52596850D01*
X50483784Y-52654886D01*
X50484899Y-52728180D01*
X50485257Y-52805055D01*
X50485257Y-53065196D01*
X50439326Y-53111127D01*
X50407675Y-53139429D01*
X50379890Y-53150893D01*
X50341915Y-53150168D01*
X50326840Y-53148321D01*
X50279726Y-53142948D01*
X50240756Y-53139869D01*
X50231257Y-53139585D01*
X50199233Y-53141445D01*
X50153432Y-53146114D01*
X50135674Y-53148321D01*
X50092057Y-53151735D01*
X50062745Y-53144320D01*
X50033680Y-53121427D01*
X50023188Y-53111127D01*
X49977257Y-53065196D01*
X49977257Y-52578602D01*
X50014226Y-52561758D01*
X50046059Y-52549282D01*
X50064683Y-52544914D01*
X50069458Y-52558718D01*
X50073921Y-52597286D01*
X50077775Y-52656356D01*
X50080722Y-52731663D01*
X50082143Y-52795286D01*
X50086114Y-53045657D01*
X50120759Y-53050556D01*
X50152268Y-53047131D01*
X50167708Y-53036041D01*
X50172023Y-53015308D01*
X50175708Y-52971145D01*
X50178469Y-52909146D01*
X50180012Y-52834909D01*
X50180235Y-52796706D01*
X50180457Y-52576783D01*
X50226166Y-52560849D01*
X50258518Y-52550015D01*
X50276115Y-52544962D01*
X50276623Y-52544914D01*
X50278388Y-52558648D01*
X50280329Y-52596730D01*
X50282282Y-52654482D01*
X50284084Y-52727227D01*
X50285343Y-52795286D01*
X50289314Y-53045657D01*
X50376400Y-53045657D01*
X50380396Y-52817240D01*
X50384392Y-52588822D01*
X50426847Y-52566868D01*
X50458192Y-52551793D01*
X50476744Y-52544951D01*
X50477279Y-52544914D01*
X50479833Y-52558663D01*
G37*
X45741115Y-52521962D02*
X45809145Y-52557733D01*
X45859351Y-52615301D01*
X45877185Y-52652312D01*
X45891063Y-52707882D01*
X45898167Y-52778096D01*
X45898840Y-52854727D01*
X45893427Y-52929552D01*
X45882270Y-52994342D01*
X45865714Y-53040873D01*
X45860626Y-53048887D01*
X45800355Y-53108707D01*
X45728769Y-53144535D01*
X45651092Y-53155020D01*
X45572548Y-53138810D01*
X45550689Y-53129092D01*
X45508122Y-53099143D01*
X45470763Y-53059433D01*
X45467232Y-53054397D01*
X45452881Y-53030124D01*
X45443394Y-53004178D01*
X45437790Y-52970022D01*
X45435086Y-52921119D01*
X45434299Y-52850935D01*
X45434286Y-52835200D01*
X45434322Y-52830192D01*
X45579429Y-52830192D01*
X45580273Y-52896430D01*
X45583596Y-52940386D01*
X45590583Y-52968779D01*
X45602416Y-52988325D01*
X45608457Y-52994857D01*
X45643186Y-53019680D01*
X45676903Y-53018548D01*
X45710995Y-52997016D01*
X45731329Y-52974029D01*
X45743371Y-52940478D01*
X45750134Y-52887569D01*
X45750598Y-52881399D01*
X45751752Y-52785513D01*
X45739688Y-52714299D01*
X45714570Y-52668194D01*
X45676560Y-52647635D01*
X45662992Y-52646514D01*
X45627364Y-52652152D01*
X45602994Y-52671686D01*
X45588093Y-52709042D01*
X45580875Y-52768150D01*
X45579429Y-52830192D01*
X45434322Y-52830192D01*
X45434826Y-52760413D01*
X45437096Y-52708159D01*
X45442068Y-52671949D01*
X45450713Y-52645299D01*
X45464005Y-52621722D01*
X45466943Y-52617338D01*
X45516313Y-52558249D01*
X45570109Y-52523947D01*
X45635602Y-52510331D01*
X45657842Y-52509665D01*
X45741115Y-52521962D01*
G36*
X45741115Y-52521962D02*
G01*
X45809145Y-52557733D01*
X45859351Y-52615301D01*
X45877185Y-52652312D01*
X45891063Y-52707882D01*
X45898167Y-52778096D01*
X45898840Y-52854727D01*
X45893427Y-52929552D01*
X45882270Y-52994342D01*
X45865714Y-53040873D01*
X45860626Y-53048887D01*
X45800355Y-53108707D01*
X45728769Y-53144535D01*
X45651092Y-53155020D01*
X45572548Y-53138810D01*
X45550689Y-53129092D01*
X45508122Y-53099143D01*
X45470763Y-53059433D01*
X45467232Y-53054397D01*
X45452881Y-53030124D01*
X45443394Y-53004178D01*
X45437790Y-52970022D01*
X45435086Y-52921119D01*
X45434299Y-52850935D01*
X45434286Y-52835200D01*
X45434322Y-52830192D01*
X45579429Y-52830192D01*
X45580273Y-52896430D01*
X45583596Y-52940386D01*
X45590583Y-52968779D01*
X45602416Y-52988325D01*
X45608457Y-52994857D01*
X45643186Y-53019680D01*
X45676903Y-53018548D01*
X45710995Y-52997016D01*
X45731329Y-52974029D01*
X45743371Y-52940478D01*
X45750134Y-52887569D01*
X45750598Y-52881399D01*
X45751752Y-52785513D01*
X45739688Y-52714299D01*
X45714570Y-52668194D01*
X45676560Y-52647635D01*
X45662992Y-52646514D01*
X45627364Y-52652152D01*
X45602994Y-52671686D01*
X45588093Y-52709042D01*
X45580875Y-52768150D01*
X45579429Y-52830192D01*
X45434322Y-52830192D01*
X45434826Y-52760413D01*
X45437096Y-52708159D01*
X45442068Y-52671949D01*
X45450713Y-52645299D01*
X45464005Y-52621722D01*
X45466943Y-52617338D01*
X45516313Y-52558249D01*
X45570109Y-52523947D01*
X45635602Y-52510331D01*
X45657842Y-52509665D01*
X45741115Y-52521962D01*
G37*
X51853595Y-52566966D02*
X51911021Y-52604497D01*
X51938719Y-52638096D01*
X51960662Y-52699064D01*
X51962405Y-52747308D01*
X51958457Y-52811816D01*
X51809686Y-52876934D01*
X51737349Y-52910202D01*
X51690084Y-52936964D01*
X51665507Y-52960144D01*
X51661237Y-52982667D01*
X51674889Y-53007455D01*
X51689943Y-53023886D01*
X51733746Y-53050235D01*
X51781389Y-53052081D01*
X51825145Y-53031546D01*
X51857289Y-52990752D01*
X51863038Y-52976347D01*
X51890576Y-52931356D01*
X51922258Y-52912182D01*
X51965714Y-52895779D01*
X51965714Y-52957966D01*
X51961872Y-53000283D01*
X51946823Y-53035969D01*
X51915280Y-53076943D01*
X51910592Y-53082267D01*
X51875506Y-53118720D01*
X51845347Y-53138283D01*
X51807615Y-53147283D01*
X51776335Y-53150230D01*
X51720385Y-53150965D01*
X51680555Y-53141660D01*
X51655708Y-53127846D01*
X51616656Y-53097467D01*
X51589625Y-53064613D01*
X51572517Y-53023294D01*
X51563238Y-52967521D01*
X51559693Y-52891305D01*
X51559410Y-52852622D01*
X51560372Y-52806247D01*
X51648007Y-52806247D01*
X51649023Y-52831126D01*
X51651556Y-52835200D01*
X51668274Y-52829665D01*
X51704249Y-52815017D01*
X51752331Y-52794190D01*
X51762386Y-52789714D01*
X51823152Y-52758814D01*
X51856632Y-52731657D01*
X51863990Y-52706220D01*
X51846391Y-52680481D01*
X51831856Y-52669109D01*
X51779410Y-52646364D01*
X51730322Y-52650122D01*
X51689227Y-52677884D01*
X51660758Y-52727152D01*
X51651631Y-52766257D01*
X51648007Y-52806247D01*
X51560372Y-52806247D01*
X51561285Y-52762249D01*
X51568196Y-52695384D01*
X51581884Y-52646695D01*
X51604096Y-52610849D01*
X51636574Y-52582513D01*
X51650733Y-52573355D01*
X51715053Y-52549507D01*
X51785473Y-52548006D01*
X51853595Y-52566966D01*
G36*
X51853595Y-52566966D02*
G01*
X51911021Y-52604497D01*
X51938719Y-52638096D01*
X51960662Y-52699064D01*
X51962405Y-52747308D01*
X51958457Y-52811816D01*
X51809686Y-52876934D01*
X51737349Y-52910202D01*
X51690084Y-52936964D01*
X51665507Y-52960144D01*
X51661237Y-52982667D01*
X51674889Y-53007455D01*
X51689943Y-53023886D01*
X51733746Y-53050235D01*
X51781389Y-53052081D01*
X51825145Y-53031546D01*
X51857289Y-52990752D01*
X51863038Y-52976347D01*
X51890576Y-52931356D01*
X51922258Y-52912182D01*
X51965714Y-52895779D01*
X51965714Y-52957966D01*
X51961872Y-53000283D01*
X51946823Y-53035969D01*
X51915280Y-53076943D01*
X51910592Y-53082267D01*
X51875506Y-53118720D01*
X51845347Y-53138283D01*
X51807615Y-53147283D01*
X51776335Y-53150230D01*
X51720385Y-53150965D01*
X51680555Y-53141660D01*
X51655708Y-53127846D01*
X51616656Y-53097467D01*
X51589625Y-53064613D01*
X51572517Y-53023294D01*
X51563238Y-52967521D01*
X51559693Y-52891305D01*
X51559410Y-52852622D01*
X51560372Y-52806247D01*
X51648007Y-52806247D01*
X51649023Y-52831126D01*
X51651556Y-52835200D01*
X51668274Y-52829665D01*
X51704249Y-52815017D01*
X51752331Y-52794190D01*
X51762386Y-52789714D01*
X51823152Y-52758814D01*
X51856632Y-52731657D01*
X51863990Y-52706220D01*
X51846391Y-52680481D01*
X51831856Y-52669109D01*
X51779410Y-52646364D01*
X51730322Y-52650122D01*
X51689227Y-52677884D01*
X51660758Y-52727152D01*
X51651631Y-52766257D01*
X51648007Y-52806247D01*
X51560372Y-52806247D01*
X51561285Y-52762249D01*
X51568196Y-52695384D01*
X51581884Y-52646695D01*
X51604096Y-52610849D01*
X51636574Y-52582513D01*
X51650733Y-52573355D01*
X51715053Y-52549507D01*
X51785473Y-52548006D01*
X51853595Y-52566966D01*
G37*
X49890117Y-52665358D02*
X49889933Y-52773837D01*
X49889219Y-52857287D01*
X49887675Y-52919704D01*
X49885001Y-52965085D01*
X49880894Y-52997429D01*
X49875055Y-53020733D01*
X49867182Y-53038995D01*
X49861221Y-53049418D01*
X49811855Y-53105945D01*
X49749264Y-53141377D01*
X49680013Y-53154090D01*
X49610668Y-53142463D01*
X49569375Y-53121568D01*
X49526025Y-53085422D01*
X49496481Y-53041276D01*
X49478655Y-52983462D01*
X49470463Y-52906313D01*
X49469302Y-52849714D01*
X49469458Y-52845647D01*
X49570857Y-52845647D01*
X49571476Y-52910550D01*
X49574314Y-52953514D01*
X49580840Y-52981622D01*
X49592523Y-53001953D01*
X49606483Y-53017288D01*
X49653365Y-53046890D01*
X49703701Y-53049419D01*
X49751276Y-53024705D01*
X49754979Y-53021356D01*
X49770783Y-53003935D01*
X49780693Y-52983209D01*
X49786058Y-52952362D01*
X49788228Y-52904577D01*
X49788571Y-52851748D01*
X49787827Y-52785381D01*
X49784748Y-52741106D01*
X49778061Y-52712009D01*
X49766496Y-52691173D01*
X49757013Y-52680107D01*
X49712960Y-52652198D01*
X49662224Y-52648843D01*
X49613796Y-52670159D01*
X49604450Y-52678073D01*
X49588540Y-52695647D01*
X49578610Y-52716587D01*
X49573278Y-52747782D01*
X49571163Y-52796122D01*
X49570857Y-52845647D01*
X49469458Y-52845647D01*
X49472810Y-52758568D01*
X49484726Y-52690086D01*
X49507135Y-52638600D01*
X49542124Y-52598443D01*
X49569375Y-52577861D01*
X49618907Y-52555625D01*
X49676316Y-52545304D01*
X49729682Y-52548067D01*
X49759543Y-52559212D01*
X49771261Y-52562383D01*
X49779037Y-52550557D01*
X49784465Y-52518866D01*
X49788571Y-52470593D01*
X49793067Y-52416829D01*
X49799313Y-52384482D01*
X49810676Y-52365985D01*
X49830528Y-52353770D01*
X49843000Y-52348362D01*
X49890171Y-52328601D01*
X49890117Y-52665358D01*
G36*
X49890117Y-52665358D02*
G01*
X49889933Y-52773837D01*
X49889219Y-52857287D01*
X49887675Y-52919704D01*
X49885001Y-52965085D01*
X49880894Y-52997429D01*
X49875055Y-53020733D01*
X49867182Y-53038995D01*
X49861221Y-53049418D01*
X49811855Y-53105945D01*
X49749264Y-53141377D01*
X49680013Y-53154090D01*
X49610668Y-53142463D01*
X49569375Y-53121568D01*
X49526025Y-53085422D01*
X49496481Y-53041276D01*
X49478655Y-52983462D01*
X49470463Y-52906313D01*
X49469302Y-52849714D01*
X49469458Y-52845647D01*
X49570857Y-52845647D01*
X49571476Y-52910550D01*
X49574314Y-52953514D01*
X49580840Y-52981622D01*
X49592523Y-53001953D01*
X49606483Y-53017288D01*
X49653365Y-53046890D01*
X49703701Y-53049419D01*
X49751276Y-53024705D01*
X49754979Y-53021356D01*
X49770783Y-53003935D01*
X49780693Y-52983209D01*
X49786058Y-52952362D01*
X49788228Y-52904577D01*
X49788571Y-52851748D01*
X49787827Y-52785381D01*
X49784748Y-52741106D01*
X49778061Y-52712009D01*
X49766496Y-52691173D01*
X49757013Y-52680107D01*
X49712960Y-52652198D01*
X49662224Y-52648843D01*
X49613796Y-52670159D01*
X49604450Y-52678073D01*
X49588540Y-52695647D01*
X49578610Y-52716587D01*
X49573278Y-52747782D01*
X49571163Y-52796122D01*
X49570857Y-52845647D01*
X49469458Y-52845647D01*
X49472810Y-52758568D01*
X49484726Y-52690086D01*
X49507135Y-52638600D01*
X49542124Y-52598443D01*
X49569375Y-52577861D01*
X49618907Y-52555625D01*
X49676316Y-52545304D01*
X49729682Y-52548067D01*
X49759543Y-52559212D01*
X49771261Y-52562383D01*
X49779037Y-52550557D01*
X49784465Y-52518866D01*
X49788571Y-52470593D01*
X49793067Y-52416829D01*
X49799313Y-52384482D01*
X49810676Y-52365985D01*
X49830528Y-52353770D01*
X49843000Y-52348362D01*
X49890171Y-52328601D01*
X49890117Y-52665358D01*
G37*
X46868303Y-52531239D02*
X46925527Y-52569735D01*
X46969749Y-52625335D01*
X46996167Y-52696086D01*
X47001510Y-52748162D01*
X47000903Y-52769893D01*
X46995822Y-52786531D01*
X46981855Y-52801437D01*
X46954589Y-52817973D01*
X46909612Y-52839498D01*
X46842511Y-52869374D01*
X46842171Y-52869524D01*
X46780407Y-52897813D01*
X46729759Y-52922933D01*
X46695404Y-52942179D01*
X46682518Y-52952848D01*
X46682514Y-52952934D01*
X46693872Y-52976166D01*
X46720431Y-53001774D01*
X46750923Y-53020221D01*
X46766370Y-53023886D01*
X46808515Y-53011212D01*
X46844808Y-52979471D01*
X46862517Y-52944572D01*
X46879552Y-52918845D01*
X46912922Y-52889546D01*
X46952149Y-52864235D01*
X46986756Y-52850471D01*
X46993993Y-52849714D01*
X47002139Y-52862160D01*
X47002630Y-52893972D01*
X46996643Y-52936866D01*
X46985357Y-52982558D01*
X46969950Y-53022761D01*
X46969171Y-53024322D01*
X46922804Y-53089062D01*
X46862711Y-53133097D01*
X46794465Y-53154711D01*
X46723638Y-53152185D01*
X46655804Y-53123804D01*
X46652788Y-53121808D01*
X46599427Y-53073448D01*
X46564340Y-53010352D01*
X46544922Y-52927387D01*
X46542316Y-52904078D01*
X46537701Y-52794055D01*
X46543233Y-52742748D01*
X46682514Y-52742748D01*
X46684324Y-52774753D01*
X46694222Y-52784093D01*
X46718898Y-52777105D01*
X46757795Y-52760587D01*
X46801275Y-52739881D01*
X46802356Y-52739333D01*
X46839209Y-52719949D01*
X46854000Y-52707013D01*
X46850353Y-52693451D01*
X46834995Y-52675632D01*
X46795923Y-52649845D01*
X46753846Y-52647950D01*
X46716103Y-52666717D01*
X46690034Y-52702915D01*
X46682514Y-52742748D01*
X46543233Y-52742748D01*
X46547194Y-52706027D01*
X46571550Y-52636212D01*
X46605456Y-52587302D01*
X46666653Y-52537878D01*
X46734063Y-52513359D01*
X46802880Y-52511797D01*
X46868303Y-52531239D01*
G36*
X46868303Y-52531239D02*
G01*
X46925527Y-52569735D01*
X46969749Y-52625335D01*
X46996167Y-52696086D01*
X47001510Y-52748162D01*
X47000903Y-52769893D01*
X46995822Y-52786531D01*
X46981855Y-52801437D01*
X46954589Y-52817973D01*
X46909612Y-52839498D01*
X46842511Y-52869374D01*
X46842171Y-52869524D01*
X46780407Y-52897813D01*
X46729759Y-52922933D01*
X46695404Y-52942179D01*
X46682518Y-52952848D01*
X46682514Y-52952934D01*
X46693872Y-52976166D01*
X46720431Y-53001774D01*
X46750923Y-53020221D01*
X46766370Y-53023886D01*
X46808515Y-53011212D01*
X46844808Y-52979471D01*
X46862517Y-52944572D01*
X46879552Y-52918845D01*
X46912922Y-52889546D01*
X46952149Y-52864235D01*
X46986756Y-52850471D01*
X46993993Y-52849714D01*
X47002139Y-52862160D01*
X47002630Y-52893972D01*
X46996643Y-52936866D01*
X46985357Y-52982558D01*
X46969950Y-53022761D01*
X46969171Y-53024322D01*
X46922804Y-53089062D01*
X46862711Y-53133097D01*
X46794465Y-53154711D01*
X46723638Y-53152185D01*
X46655804Y-53123804D01*
X46652788Y-53121808D01*
X46599427Y-53073448D01*
X46564340Y-53010352D01*
X46544922Y-52927387D01*
X46542316Y-52904078D01*
X46537701Y-52794055D01*
X46543233Y-52742748D01*
X46682514Y-52742748D01*
X46684324Y-52774753D01*
X46694222Y-52784093D01*
X46718898Y-52777105D01*
X46757795Y-52760587D01*
X46801275Y-52739881D01*
X46802356Y-52739333D01*
X46839209Y-52719949D01*
X46854000Y-52707013D01*
X46850353Y-52693451D01*
X46834995Y-52675632D01*
X46795923Y-52649845D01*
X46753846Y-52647950D01*
X46716103Y-52666717D01*
X46690034Y-52702915D01*
X46682514Y-52742748D01*
X46543233Y-52742748D01*
X46547194Y-52706027D01*
X46571550Y-52636212D01*
X46605456Y-52587302D01*
X46666653Y-52537878D01*
X46734063Y-52513359D01*
X46802880Y-52511797D01*
X46868303Y-52531239D01*
G37*
X48739744Y-52550968D02*
X48796616Y-52572087D01*
X48797267Y-52572493D01*
X48832440Y-52598380D01*
X48858407Y-52628633D01*
X48876670Y-52668058D01*
X48888732Y-52721462D01*
X48896096Y-52793651D01*
X48900264Y-52889432D01*
X48900629Y-52903078D01*
X48905876Y-53108842D01*
X48861716Y-53131678D01*
X48829763Y-53147110D01*
X48810470Y-53154423D01*
X48809578Y-53154514D01*
X48806239Y-53141022D01*
X48803587Y-53104626D01*
X48801956Y-53051452D01*
X48801600Y-53008393D01*
X48801592Y-52938641D01*
X48798403Y-52894837D01*
X48787288Y-52873944D01*
X48763501Y-52872925D01*
X48722296Y-52888741D01*
X48660086Y-52917815D01*
X48614341Y-52941963D01*
X48590813Y-52962913D01*
X48583896Y-52985747D01*
X48583886Y-52986877D01*
X48595299Y-53026212D01*
X48629092Y-53047462D01*
X48680809Y-53050539D01*
X48718061Y-53050006D01*
X48737703Y-53060735D01*
X48749952Y-53086505D01*
X48757002Y-53119337D01*
X48746842Y-53137966D01*
X48743017Y-53140632D01*
X48707001Y-53151340D01*
X48656566Y-53152856D01*
X48604626Y-53145759D01*
X48567822Y-53132788D01*
X48516938Y-53089585D01*
X48488014Y-53029446D01*
X48482286Y-52982462D01*
X48486657Y-52940082D01*
X48502475Y-52905488D01*
X48533797Y-52874763D01*
X48584678Y-52843990D01*
X48659176Y-52809252D01*
X48663714Y-52807288D01*
X48730821Y-52776287D01*
X48772232Y-52750862D01*
X48789981Y-52728014D01*
X48786107Y-52704745D01*
X48762643Y-52678056D01*
X48755627Y-52671914D01*
X48708630Y-52648100D01*
X48659933Y-52649103D01*
X48617522Y-52672451D01*
X48589384Y-52715675D01*
X48586769Y-52724160D01*
X48561308Y-52765308D01*
X48529001Y-52785128D01*
X48482286Y-52804770D01*
X48482286Y-52753950D01*
X48496496Y-52680082D01*
X48538675Y-52612327D01*
X48560624Y-52589661D01*
X48610517Y-52560569D01*
X48673967Y-52547400D01*
X48739744Y-52550968D01*
G36*
X48739744Y-52550968D02*
G01*
X48796616Y-52572087D01*
X48797267Y-52572493D01*
X48832440Y-52598380D01*
X48858407Y-52628633D01*
X48876670Y-52668058D01*
X48888732Y-52721462D01*
X48896096Y-52793651D01*
X48900264Y-52889432D01*
X48900629Y-52903078D01*
X48905876Y-53108842D01*
X48861716Y-53131678D01*
X48829763Y-53147110D01*
X48810470Y-53154423D01*
X48809578Y-53154514D01*
X48806239Y-53141022D01*
X48803587Y-53104626D01*
X48801956Y-53051452D01*
X48801600Y-53008393D01*
X48801592Y-52938641D01*
X48798403Y-52894837D01*
X48787288Y-52873944D01*
X48763501Y-52872925D01*
X48722296Y-52888741D01*
X48660086Y-52917815D01*
X48614341Y-52941963D01*
X48590813Y-52962913D01*
X48583896Y-52985747D01*
X48583886Y-52986877D01*
X48595299Y-53026212D01*
X48629092Y-53047462D01*
X48680809Y-53050539D01*
X48718061Y-53050006D01*
X48737703Y-53060735D01*
X48749952Y-53086505D01*
X48757002Y-53119337D01*
X48746842Y-53137966D01*
X48743017Y-53140632D01*
X48707001Y-53151340D01*
X48656566Y-53152856D01*
X48604626Y-53145759D01*
X48567822Y-53132788D01*
X48516938Y-53089585D01*
X48488014Y-53029446D01*
X48482286Y-52982462D01*
X48486657Y-52940082D01*
X48502475Y-52905488D01*
X48533797Y-52874763D01*
X48584678Y-52843990D01*
X48659176Y-52809252D01*
X48663714Y-52807288D01*
X48730821Y-52776287D01*
X48772232Y-52750862D01*
X48789981Y-52728014D01*
X48786107Y-52704745D01*
X48762643Y-52678056D01*
X48755627Y-52671914D01*
X48708630Y-52648100D01*
X48659933Y-52649103D01*
X48617522Y-52672451D01*
X48589384Y-52715675D01*
X48586769Y-52724160D01*
X48561308Y-52765308D01*
X48529001Y-52785128D01*
X48482286Y-52804770D01*
X48482286Y-52753950D01*
X48496496Y-52680082D01*
X48538675Y-52612327D01*
X48560624Y-52589661D01*
X48610517Y-52560569D01*
X48673967Y-52547400D01*
X48739744Y-52550968D01*
G37*
X46299744Y-52519918D02*
X46355201Y-52547568D01*
X46404148Y-52598480D01*
X46417629Y-52617338D01*
X46432314Y-52642015D01*
X46441842Y-52668816D01*
X46447293Y-52704587D01*
X46449747Y-52756169D01*
X46450286Y-52824267D01*
X46447852Y-52917588D01*
X46439394Y-52987657D01*
X46423174Y-53039931D01*
X46397454Y-53079869D01*
X46360497Y-53112929D01*
X46357782Y-53114886D01*
X46321360Y-53134908D01*
X46277502Y-53144815D01*
X46221724Y-53147257D01*
X46131048Y-53147257D01*
X46131010Y-53235283D01*
X46130166Y-53284308D01*
X46125024Y-53313065D01*
X46111587Y-53330311D01*
X46085858Y-53344808D01*
X46079679Y-53347769D01*
X46050764Y-53361648D01*
X46028376Y-53370414D01*
X46011729Y-53371171D01*
X46000036Y-53361023D01*
X45992510Y-53337073D01*
X45988366Y-53296426D01*
X45986815Y-53236186D01*
X45987071Y-53153455D01*
X45988349Y-53045339D01*
X45988748Y-53013000D01*
X45990185Y-52901524D01*
X45991472Y-52828603D01*
X46130971Y-52828603D01*
X46131755Y-52890499D01*
X46135240Y-52930997D01*
X46143124Y-52957708D01*
X46157105Y-52978244D01*
X46166597Y-52988260D01*
X46205404Y-53017567D01*
X46239763Y-53019952D01*
X46275216Y-52995750D01*
X46276114Y-52994857D01*
X46290539Y-52976153D01*
X46299313Y-52950732D01*
X46303739Y-52911584D01*
X46305118Y-52851697D01*
X46305143Y-52838430D01*
X46301812Y-52755901D01*
X46290969Y-52698691D01*
X46271340Y-52663766D01*
X46241650Y-52648094D01*
X46224491Y-52646514D01*
X46183766Y-52653926D01*
X46155832Y-52678330D01*
X46139017Y-52722980D01*
X46131650Y-52791130D01*
X46130971Y-52828603D01*
X45991472Y-52828603D01*
X45991708Y-52815245D01*
X45993677Y-52750333D01*
X45996450Y-52702958D01*
X46000388Y-52669290D01*
X46005849Y-52645498D01*
X46013192Y-52627753D01*
X46022777Y-52612224D01*
X46026887Y-52606381D01*
X46081405Y-52551185D01*
X46150336Y-52519890D01*
X46230072Y-52511165D01*
X46299744Y-52519918D01*
G36*
X46299744Y-52519918D02*
G01*
X46355201Y-52547568D01*
X46404148Y-52598480D01*
X46417629Y-52617338D01*
X46432314Y-52642015D01*
X46441842Y-52668816D01*
X46447293Y-52704587D01*
X46449747Y-52756169D01*
X46450286Y-52824267D01*
X46447852Y-52917588D01*
X46439394Y-52987657D01*
X46423174Y-53039931D01*
X46397454Y-53079869D01*
X46360497Y-53112929D01*
X46357782Y-53114886D01*
X46321360Y-53134908D01*
X46277502Y-53144815D01*
X46221724Y-53147257D01*
X46131048Y-53147257D01*
X46131010Y-53235283D01*
X46130166Y-53284308D01*
X46125024Y-53313065D01*
X46111587Y-53330311D01*
X46085858Y-53344808D01*
X46079679Y-53347769D01*
X46050764Y-53361648D01*
X46028376Y-53370414D01*
X46011729Y-53371171D01*
X46000036Y-53361023D01*
X45992510Y-53337073D01*
X45988366Y-53296426D01*
X45986815Y-53236186D01*
X45987071Y-53153455D01*
X45988349Y-53045339D01*
X45988748Y-53013000D01*
X45990185Y-52901524D01*
X45991472Y-52828603D01*
X46130971Y-52828603D01*
X46131755Y-52890499D01*
X46135240Y-52930997D01*
X46143124Y-52957708D01*
X46157105Y-52978244D01*
X46166597Y-52988260D01*
X46205404Y-53017567D01*
X46239763Y-53019952D01*
X46275216Y-52995750D01*
X46276114Y-52994857D01*
X46290539Y-52976153D01*
X46299313Y-52950732D01*
X46303739Y-52911584D01*
X46305118Y-52851697D01*
X46305143Y-52838430D01*
X46301812Y-52755901D01*
X46290969Y-52698691D01*
X46271340Y-52663766D01*
X46241650Y-52648094D01*
X46224491Y-52646514D01*
X46183766Y-52653926D01*
X46155832Y-52678330D01*
X46139017Y-52722980D01*
X46131650Y-52791130D01*
X46130971Y-52828603D01*
X45991472Y-52828603D01*
X45991708Y-52815245D01*
X45993677Y-52750333D01*
X45996450Y-52702958D01*
X46000388Y-52669290D01*
X46005849Y-52645498D01*
X46013192Y-52627753D01*
X46022777Y-52612224D01*
X46026887Y-52606381D01*
X46081405Y-52551185D01*
X46150336Y-52519890D01*
X46230072Y-52511165D01*
X46299744Y-52519918D01*
G37*
X50844876Y-52556335D02*
X50886667Y-52575344D01*
X50919469Y-52598378D01*
X50943503Y-52624133D01*
X50960097Y-52657358D01*
X50970577Y-52702800D01*
X50976271Y-52765207D01*
X50978507Y-52849327D01*
X50978743Y-52904721D01*
X50978743Y-53120826D01*
X50941774Y-53137670D01*
X50912656Y-53149981D01*
X50898231Y-53154514D01*
X50895472Y-53141025D01*
X50893282Y-53104653D01*
X50891942Y-53051542D01*
X50891657Y-53009372D01*
X50890434Y-52948447D01*
X50887136Y-52900115D01*
X50882321Y-52870518D01*
X50878496Y-52864229D01*
X50852783Y-52870652D01*
X50812418Y-52887125D01*
X50765679Y-52909458D01*
X50720845Y-52933457D01*
X50686193Y-52954930D01*
X50670002Y-52969685D01*
X50669938Y-52969845D01*
X50671330Y-52997152D01*
X50683818Y-53023219D01*
X50705743Y-53044392D01*
X50737743Y-53051474D01*
X50765092Y-53050649D01*
X50803826Y-53050042D01*
X50824158Y-53059116D01*
X50836369Y-53083092D01*
X50837909Y-53087613D01*
X50843203Y-53121806D01*
X50829047Y-53142568D01*
X50792148Y-53152462D01*
X50752289Y-53154292D01*
X50680562Y-53140727D01*
X50643432Y-53121355D01*
X50597576Y-53075845D01*
X50573256Y-53019983D01*
X50571073Y-52960957D01*
X50591629Y-52905953D01*
X50622549Y-52871486D01*
X50653420Y-52852189D01*
X50701942Y-52827759D01*
X50758485Y-52802985D01*
X50767910Y-52799199D01*
X50830019Y-52771791D01*
X50865822Y-52747634D01*
X50877337Y-52723619D01*
X50866580Y-52696635D01*
X50848114Y-52675543D01*
X50804469Y-52649572D01*
X50756446Y-52647624D01*
X50712406Y-52667637D01*
X50680709Y-52707551D01*
X50676549Y-52717848D01*
X50652327Y-52755724D01*
X50616965Y-52783842D01*
X50572343Y-52806917D01*
X50572343Y-52741485D01*
X50574969Y-52701506D01*
X50586230Y-52669997D01*
X50611199Y-52636378D01*
X50635169Y-52610484D01*
X50672441Y-52573817D01*
X50701401Y-52554121D01*
X50732505Y-52546220D01*
X50767713Y-52544914D01*
X50844876Y-52556335D01*
G36*
X50844876Y-52556335D02*
G01*
X50886667Y-52575344D01*
X50919469Y-52598378D01*
X50943503Y-52624133D01*
X50960097Y-52657358D01*
X50970577Y-52702800D01*
X50976271Y-52765207D01*
X50978507Y-52849327D01*
X50978743Y-52904721D01*
X50978743Y-53120826D01*
X50941774Y-53137670D01*
X50912656Y-53149981D01*
X50898231Y-53154514D01*
X50895472Y-53141025D01*
X50893282Y-53104653D01*
X50891942Y-53051542D01*
X50891657Y-53009372D01*
X50890434Y-52948447D01*
X50887136Y-52900115D01*
X50882321Y-52870518D01*
X50878496Y-52864229D01*
X50852783Y-52870652D01*
X50812418Y-52887125D01*
X50765679Y-52909458D01*
X50720845Y-52933457D01*
X50686193Y-52954930D01*
X50670002Y-52969685D01*
X50669938Y-52969845D01*
X50671330Y-52997152D01*
X50683818Y-53023219D01*
X50705743Y-53044392D01*
X50737743Y-53051474D01*
X50765092Y-53050649D01*
X50803826Y-53050042D01*
X50824158Y-53059116D01*
X50836369Y-53083092D01*
X50837909Y-53087613D01*
X50843203Y-53121806D01*
X50829047Y-53142568D01*
X50792148Y-53152462D01*
X50752289Y-53154292D01*
X50680562Y-53140727D01*
X50643432Y-53121355D01*
X50597576Y-53075845D01*
X50573256Y-53019983D01*
X50571073Y-52960957D01*
X50591629Y-52905953D01*
X50622549Y-52871486D01*
X50653420Y-52852189D01*
X50701942Y-52827759D01*
X50758485Y-52802985D01*
X50767910Y-52799199D01*
X50830019Y-52771791D01*
X50865822Y-52747634D01*
X50877337Y-52723619D01*
X50866580Y-52696635D01*
X50848114Y-52675543D01*
X50804469Y-52649572D01*
X50756446Y-52647624D01*
X50712406Y-52667637D01*
X50680709Y-52707551D01*
X50676549Y-52717848D01*
X50652327Y-52755724D01*
X50616965Y-52783842D01*
X50572343Y-52806917D01*
X50572343Y-52741485D01*
X50574969Y-52701506D01*
X50586230Y-52669997D01*
X50611199Y-52636378D01*
X50635169Y-52610484D01*
X50672441Y-52573817D01*
X50701401Y-52554121D01*
X50732505Y-52546220D01*
X50767713Y-52544914D01*
X50844876Y-52556335D01*
G37*
X48803910Y-47842348D02*
X48882454Y-47842778D01*
X48939298Y-47843942D01*
X48978105Y-47846207D01*
X49002538Y-47849940D01*
X49016262Y-47855506D01*
X49022940Y-47863273D01*
X49026236Y-47873605D01*
X49026556Y-47874943D01*
X49031562Y-47899079D01*
X49040829Y-47946701D01*
X49053392Y-48012741D01*
X49068287Y-48092128D01*
X49084551Y-48179796D01*
X49085119Y-48182875D01*
X49101410Y-48268789D01*
X49116652Y-48344696D01*
X49129861Y-48406045D01*
X49140054Y-48448282D01*
X49146248Y-48466855D01*
X49146543Y-48467184D01*
X49164788Y-48476253D01*
X49202405Y-48491367D01*
X49251271Y-48509262D01*
X49251543Y-48509358D01*
X49313093Y-48532493D01*
X49385657Y-48561965D01*
X49454057Y-48591597D01*
X49457294Y-48593062D01*
X49568702Y-48643626D01*
X49815399Y-48475160D01*
X49891077Y-48423803D01*
X49959631Y-48377889D01*
X50017088Y-48340030D01*
X50059476Y-48312837D01*
X50082825Y-48298921D01*
X50085042Y-48297889D01*
X50102010Y-48302484D01*
X50133701Y-48324655D01*
X50181352Y-48365447D01*
X50246198Y-48425905D01*
X50312397Y-48490227D01*
X50376214Y-48553612D01*
X50433329Y-48611451D01*
X50480305Y-48660175D01*
X50513703Y-48696210D01*
X50530085Y-48715984D01*
X50530694Y-48717002D01*
X50532505Y-48730572D01*
X50525683Y-48752733D01*
X50508540Y-48786478D01*
X50479393Y-48834800D01*
X50436555Y-48900692D01*
X50379448Y-48985517D01*
X50328766Y-49060177D01*
X50283461Y-49127140D01*
X50246150Y-49182516D01*
X50219452Y-49222420D01*
X50205985Y-49242962D01*
X50205137Y-49244356D01*
X50206781Y-49264038D01*
X50219245Y-49302293D01*
X50240048Y-49351889D01*
X50247462Y-49367728D01*
X50279814Y-49438290D01*
X50314328Y-49518353D01*
X50342365Y-49587629D01*
X50362568Y-49639045D01*
X50378615Y-49678119D01*
X50387888Y-49698541D01*
X50389041Y-49700114D01*
X50406096Y-49702721D01*
X50446298Y-49709863D01*
X50504302Y-49720523D01*
X50574763Y-49733685D01*
X50652335Y-49748333D01*
X50731672Y-49763449D01*
X50807431Y-49778018D01*
X50874264Y-49791022D01*
X50926828Y-49801445D01*
X50959776Y-49808270D01*
X50967857Y-49810199D01*
X50976205Y-49814962D01*
X50982506Y-49825718D01*
X50987045Y-49846098D01*
X50990104Y-49879734D01*
X50991967Y-49930255D01*
X50992918Y-50001292D01*
X50993240Y-50096476D01*
X50993257Y-50135492D01*
X50993257Y-50452799D01*
X50917057Y-50467839D01*
X50874663Y-50475995D01*
X50811400Y-50487899D01*
X50734962Y-50502116D01*
X50653043Y-50517210D01*
X50630400Y-50521355D01*
X50554806Y-50536053D01*
X50488953Y-50550505D01*
X50438366Y-50563375D01*
X50408574Y-50573322D01*
X50403612Y-50576287D01*
X50391426Y-50597283D01*
X50373953Y-50637967D01*
X50354577Y-50690322D01*
X50350734Y-50701600D01*
X50325339Y-50771523D01*
X50293817Y-50850418D01*
X50262969Y-50921266D01*
X50262817Y-50921595D01*
X50211447Y-51032733D01*
X50380399Y-51281253D01*
X50549352Y-51529772D01*
X50332429Y-51747058D01*
X50266819Y-51811726D01*
X50206979Y-51868733D01*
X50156267Y-51915033D01*
X50118046Y-51947584D01*
X50095675Y-51963343D01*
X50092466Y-51964343D01*
X50073626Y-51956469D01*
X50035180Y-51934578D01*
X49981330Y-51901267D01*
X49916276Y-51859131D01*
X49845940Y-51811943D01*
X49774555Y-51763810D01*
X49710908Y-51721928D01*
X49659041Y-51688871D01*
X49622995Y-51667218D01*
X49606867Y-51659543D01*
X49587189Y-51666037D01*
X49549875Y-51683150D01*
X49502621Y-51707326D01*
X49497612Y-51710013D01*
X49433977Y-51741927D01*
X49390341Y-51757579D01*
X49363202Y-51757745D01*
X49349057Y-51743204D01*
X49348975Y-51743000D01*
X49341905Y-51725779D01*
X49325042Y-51684899D01*
X49299695Y-51623525D01*
X49267171Y-51544819D01*
X49228778Y-51451947D01*
X49185822Y-51348072D01*
X49144222Y-51247502D01*
X49098504Y-51136516D01*
X49056526Y-51033703D01*
X49019548Y-50942215D01*
X48988827Y-50865201D01*
X48965622Y-50805815D01*
X48951190Y-50767209D01*
X48946743Y-50752800D01*
X48957896Y-50736272D01*
X48987069Y-50709930D01*
X49025971Y-50680887D01*
X49136757Y-50589039D01*
X49223351Y-50483759D01*
X49284716Y-50367266D01*
X49319815Y-50241776D01*
X49327608Y-50109507D01*
X49321943Y-50048457D01*
X49291078Y-49921795D01*
X49237920Y-49809941D01*
X49165767Y-49714001D01*
X49077917Y-49635076D01*
X48977665Y-49574270D01*
X48868310Y-49532687D01*
X48753147Y-49511428D01*
X48635475Y-49511599D01*
X48518590Y-49534301D01*
X48405789Y-49580638D01*
X48300369Y-49651713D01*
X48256368Y-49691911D01*
X48171979Y-49795129D01*
X48113222Y-49907925D01*
X48079704Y-50027010D01*
X48071035Y-50149095D01*
X48086823Y-50270893D01*
X48126678Y-50389116D01*
X48190207Y-50500475D01*
X48277021Y-50601684D01*
X48374029Y-50680887D01*
X48414437Y-50711162D01*
X48442982Y-50737219D01*
X48453257Y-50752825D01*
X48447877Y-50769843D01*
X48432575Y-50810500D01*
X48408612Y-50871642D01*
X48377244Y-50950119D01*
X48339732Y-51042780D01*
X48297333Y-51146472D01*
X48255663Y-51247526D01*
X48209690Y-51358607D01*
X48167107Y-51461541D01*
X48129221Y-51553165D01*
X48097340Y-51630316D01*
X48072771Y-51689831D01*
X48056820Y-51728544D01*
X48050910Y-51743000D01*
X48036948Y-51757685D01*
X48009940Y-51757642D01*
X47966413Y-51742099D01*
X47902890Y-51710284D01*
X47902388Y-51710013D01*
X47854560Y-51685323D01*
X47815897Y-51667338D01*
X47794095Y-51659614D01*
X47793133Y-51659543D01*
X47776721Y-51667378D01*
X47740487Y-51689165D01*
X47688474Y-51722328D01*
X47624725Y-51764291D01*
X47554060Y-51811943D01*
X47482116Y-51860191D01*
X47417274Y-51902151D01*
X47363735Y-51935227D01*
X47325697Y-51956821D01*
X47307533Y-51964343D01*
X47290808Y-51954457D01*
X47257180Y-51926826D01*
X47210010Y-51884495D01*
X47152658Y-51830505D01*
X47088484Y-51767899D01*
X47067497Y-51746983D01*
X46850499Y-51529623D01*
X47015668Y-51287220D01*
X47065864Y-51212781D01*
X47109919Y-51145972D01*
X47145362Y-51090665D01*
X47169719Y-51050729D01*
X47180522Y-51030036D01*
X47180838Y-51028563D01*
X47175143Y-51009058D01*
X47159826Y-50969822D01*
X47137537Y-50917430D01*
X47121893Y-50882355D01*
X47092641Y-50815201D01*
X47065094Y-50747358D01*
X47043737Y-50690034D01*
X47037935Y-50672572D01*
X47021452Y-50625938D01*
X47005340Y-50589905D01*
X46996490Y-50576287D01*
X46976960Y-50567952D01*
X46934334Y-50556137D01*
X46874145Y-50542181D01*
X46801922Y-50527422D01*
X46769600Y-50521355D01*
X46687522Y-50506273D01*
X46608795Y-50491669D01*
X46541109Y-50478980D01*
X46492160Y-50469642D01*
X46482943Y-50467839D01*
X46406743Y-50452799D01*
X46406743Y-50135492D01*
X46406914Y-50031154D01*
X46407616Y-49952213D01*
X46409134Y-49895038D01*
X46411749Y-49855999D01*
X46415746Y-49831465D01*
X46421409Y-49817805D01*
X46429020Y-49811389D01*
X46432143Y-49810199D01*
X46450978Y-49805980D01*
X46492588Y-49797562D01*
X46551630Y-49785961D01*
X46622757Y-49772195D01*
X46700625Y-49757280D01*
X46779887Y-49742232D01*
X46855198Y-49728069D01*
X46921213Y-49715806D01*
X46972587Y-49706461D01*
X47003975Y-49701050D01*
X47010959Y-49700114D01*
X47017285Y-49687596D01*
X47031290Y-49654246D01*
X47050355Y-49606377D01*
X47057634Y-49587629D01*
X47086996Y-49515195D01*
X47121571Y-49435170D01*
X47152537Y-49367728D01*
X47175323Y-49316159D01*
X47190482Y-49273785D01*
X47195542Y-49247834D01*
X47194736Y-49244356D01*
X47184041Y-49227936D01*
X47159620Y-49191417D01*
X47124095Y-49138687D01*
X47080087Y-49073635D01*
X47030217Y-49000151D01*
X47020356Y-48985645D01*
X46962492Y-48899704D01*
X46919956Y-48834261D01*
X46891054Y-48786304D01*
X46874090Y-48752820D01*
X46867367Y-48730795D01*
X46869190Y-48717217D01*
X46869236Y-48717131D01*
X46883586Y-48699297D01*
X46915323Y-48664817D01*
X46961010Y-48617268D01*
X47017204Y-48560222D01*
X47080468Y-48497255D01*
X47087602Y-48490227D01*
X47167330Y-48413020D01*
X47228857Y-48356330D01*
X47273421Y-48319110D01*
X47302257Y-48300315D01*
X47314958Y-48297889D01*
X47333494Y-48308471D01*
X47371961Y-48332916D01*
X47426386Y-48368612D01*
X47492798Y-48412947D01*
X47567225Y-48463311D01*
X47584601Y-48475160D01*
X47831297Y-48643626D01*
X47942706Y-48593062D01*
X48010457Y-48563595D01*
X48083183Y-48533959D01*
X48145703Y-48510330D01*
X48148457Y-48509358D01*
X48197360Y-48491457D01*
X48235057Y-48476320D01*
X48253425Y-48467210D01*
X48253456Y-48467184D01*
X48259285Y-48450717D01*
X48269192Y-48410219D01*
X48282195Y-48350242D01*
X48297309Y-48275340D01*
X48313552Y-48190064D01*
X48314881Y-48182875D01*
X48331175Y-48095014D01*
X48346133Y-48015260D01*
X48358791Y-47948681D01*
X48368186Y-47900347D01*
X48373354Y-47875325D01*
X48373444Y-47874943D01*
X48376589Y-47864299D01*
X48382704Y-47856262D01*
X48395453Y-47850467D01*
X48418500Y-47846547D01*
X48455509Y-47844135D01*
X48510144Y-47842865D01*
X48586067Y-47842371D01*
X48686944Y-47842286D01*
X48700000Y-47842286D01*
X48803910Y-47842348D01*
G36*
X48803910Y-47842348D02*
G01*
X48882454Y-47842778D01*
X48939298Y-47843942D01*
X48978105Y-47846207D01*
X49002538Y-47849940D01*
X49016262Y-47855506D01*
X49022940Y-47863273D01*
X49026236Y-47873605D01*
X49026556Y-47874943D01*
X49031562Y-47899079D01*
X49040829Y-47946701D01*
X49053392Y-48012741D01*
X49068287Y-48092128D01*
X49084551Y-48179796D01*
X49085119Y-48182875D01*
X49101410Y-48268789D01*
X49116652Y-48344696D01*
X49129861Y-48406045D01*
X49140054Y-48448282D01*
X49146248Y-48466855D01*
X49146543Y-48467184D01*
X49164788Y-48476253D01*
X49202405Y-48491367D01*
X49251271Y-48509262D01*
X49251543Y-48509358D01*
X49313093Y-48532493D01*
X49385657Y-48561965D01*
X49454057Y-48591597D01*
X49457294Y-48593062D01*
X49568702Y-48643626D01*
X49815399Y-48475160D01*
X49891077Y-48423803D01*
X49959631Y-48377889D01*
X50017088Y-48340030D01*
X50059476Y-48312837D01*
X50082825Y-48298921D01*
X50085042Y-48297889D01*
X50102010Y-48302484D01*
X50133701Y-48324655D01*
X50181352Y-48365447D01*
X50246198Y-48425905D01*
X50312397Y-48490227D01*
X50376214Y-48553612D01*
X50433329Y-48611451D01*
X50480305Y-48660175D01*
X50513703Y-48696210D01*
X50530085Y-48715984D01*
X50530694Y-48717002D01*
X50532505Y-48730572D01*
X50525683Y-48752733D01*
X50508540Y-48786478D01*
X50479393Y-48834800D01*
X50436555Y-48900692D01*
X50379448Y-48985517D01*
X50328766Y-49060177D01*
X50283461Y-49127140D01*
X50246150Y-49182516D01*
X50219452Y-49222420D01*
X50205985Y-49242962D01*
X50205137Y-49244356D01*
X50206781Y-49264038D01*
X50219245Y-49302293D01*
X50240048Y-49351889D01*
X50247462Y-49367728D01*
X50279814Y-49438290D01*
X50314328Y-49518353D01*
X50342365Y-49587629D01*
X50362568Y-49639045D01*
X50378615Y-49678119D01*
X50387888Y-49698541D01*
X50389041Y-49700114D01*
X50406096Y-49702721D01*
X50446298Y-49709863D01*
X50504302Y-49720523D01*
X50574763Y-49733685D01*
X50652335Y-49748333D01*
X50731672Y-49763449D01*
X50807431Y-49778018D01*
X50874264Y-49791022D01*
X50926828Y-49801445D01*
X50959776Y-49808270D01*
X50967857Y-49810199D01*
X50976205Y-49814962D01*
X50982506Y-49825718D01*
X50987045Y-49846098D01*
X50990104Y-49879734D01*
X50991967Y-49930255D01*
X50992918Y-50001292D01*
X50993240Y-50096476D01*
X50993257Y-50135492D01*
X50993257Y-50452799D01*
X50917057Y-50467839D01*
X50874663Y-50475995D01*
X50811400Y-50487899D01*
X50734962Y-50502116D01*
X50653043Y-50517210D01*
X50630400Y-50521355D01*
X50554806Y-50536053D01*
X50488953Y-50550505D01*
X50438366Y-50563375D01*
X50408574Y-50573322D01*
X50403612Y-50576287D01*
X50391426Y-50597283D01*
X50373953Y-50637967D01*
X50354577Y-50690322D01*
X50350734Y-50701600D01*
X50325339Y-50771523D01*
X50293817Y-50850418D01*
X50262969Y-50921266D01*
X50262817Y-50921595D01*
X50211447Y-51032733D01*
X50380399Y-51281253D01*
X50549352Y-51529772D01*
X50332429Y-51747058D01*
X50266819Y-51811726D01*
X50206979Y-51868733D01*
X50156267Y-51915033D01*
X50118046Y-51947584D01*
X50095675Y-51963343D01*
X50092466Y-51964343D01*
X50073626Y-51956469D01*
X50035180Y-51934578D01*
X49981330Y-51901267D01*
X49916276Y-51859131D01*
X49845940Y-51811943D01*
X49774555Y-51763810D01*
X49710908Y-51721928D01*
X49659041Y-51688871D01*
X49622995Y-51667218D01*
X49606867Y-51659543D01*
X49587189Y-51666037D01*
X49549875Y-51683150D01*
X49502621Y-51707326D01*
X49497612Y-51710013D01*
X49433977Y-51741927D01*
X49390341Y-51757579D01*
X49363202Y-51757745D01*
X49349057Y-51743204D01*
X49348975Y-51743000D01*
X49341905Y-51725779D01*
X49325042Y-51684899D01*
X49299695Y-51623525D01*
X49267171Y-51544819D01*
X49228778Y-51451947D01*
X49185822Y-51348072D01*
X49144222Y-51247502D01*
X49098504Y-51136516D01*
X49056526Y-51033703D01*
X49019548Y-50942215D01*
X48988827Y-50865201D01*
X48965622Y-50805815D01*
X48951190Y-50767209D01*
X48946743Y-50752800D01*
X48957896Y-50736272D01*
X48987069Y-50709930D01*
X49025971Y-50680887D01*
X49136757Y-50589039D01*
X49223351Y-50483759D01*
X49284716Y-50367266D01*
X49319815Y-50241776D01*
X49327608Y-50109507D01*
X49321943Y-50048457D01*
X49291078Y-49921795D01*
X49237920Y-49809941D01*
X49165767Y-49714001D01*
X49077917Y-49635076D01*
X48977665Y-49574270D01*
X48868310Y-49532687D01*
X48753147Y-49511428D01*
X48635475Y-49511599D01*
X48518590Y-49534301D01*
X48405789Y-49580638D01*
X48300369Y-49651713D01*
X48256368Y-49691911D01*
X48171979Y-49795129D01*
X48113222Y-49907925D01*
X48079704Y-50027010D01*
X48071035Y-50149095D01*
X48086823Y-50270893D01*
X48126678Y-50389116D01*
X48190207Y-50500475D01*
X48277021Y-50601684D01*
X48374029Y-50680887D01*
X48414437Y-50711162D01*
X48442982Y-50737219D01*
X48453257Y-50752825D01*
X48447877Y-50769843D01*
X48432575Y-50810500D01*
X48408612Y-50871642D01*
X48377244Y-50950119D01*
X48339732Y-51042780D01*
X48297333Y-51146472D01*
X48255663Y-51247526D01*
X48209690Y-51358607D01*
X48167107Y-51461541D01*
X48129221Y-51553165D01*
X48097340Y-51630316D01*
X48072771Y-51689831D01*
X48056820Y-51728544D01*
X48050910Y-51743000D01*
X48036948Y-51757685D01*
X48009940Y-51757642D01*
X47966413Y-51742099D01*
X47902890Y-51710284D01*
X47902388Y-51710013D01*
X47854560Y-51685323D01*
X47815897Y-51667338D01*
X47794095Y-51659614D01*
X47793133Y-51659543D01*
X47776721Y-51667378D01*
X47740487Y-51689165D01*
X47688474Y-51722328D01*
X47624725Y-51764291D01*
X47554060Y-51811943D01*
X47482116Y-51860191D01*
X47417274Y-51902151D01*
X47363735Y-51935227D01*
X47325697Y-51956821D01*
X47307533Y-51964343D01*
X47290808Y-51954457D01*
X47257180Y-51926826D01*
X47210010Y-51884495D01*
X47152658Y-51830505D01*
X47088484Y-51767899D01*
X47067497Y-51746983D01*
X46850499Y-51529623D01*
X47015668Y-51287220D01*
X47065864Y-51212781D01*
X47109919Y-51145972D01*
X47145362Y-51090665D01*
X47169719Y-51050729D01*
X47180522Y-51030036D01*
X47180838Y-51028563D01*
X47175143Y-51009058D01*
X47159826Y-50969822D01*
X47137537Y-50917430D01*
X47121893Y-50882355D01*
X47092641Y-50815201D01*
X47065094Y-50747358D01*
X47043737Y-50690034D01*
X47037935Y-50672572D01*
X47021452Y-50625938D01*
X47005340Y-50589905D01*
X46996490Y-50576287D01*
X46976960Y-50567952D01*
X46934334Y-50556137D01*
X46874145Y-50542181D01*
X46801922Y-50527422D01*
X46769600Y-50521355D01*
X46687522Y-50506273D01*
X46608795Y-50491669D01*
X46541109Y-50478980D01*
X46492160Y-50469642D01*
X46482943Y-50467839D01*
X46406743Y-50452799D01*
X46406743Y-50135492D01*
X46406914Y-50031154D01*
X46407616Y-49952213D01*
X46409134Y-49895038D01*
X46411749Y-49855999D01*
X46415746Y-49831465D01*
X46421409Y-49817805D01*
X46429020Y-49811389D01*
X46432143Y-49810199D01*
X46450978Y-49805980D01*
X46492588Y-49797562D01*
X46551630Y-49785961D01*
X46622757Y-49772195D01*
X46700625Y-49757280D01*
X46779887Y-49742232D01*
X46855198Y-49728069D01*
X46921213Y-49715806D01*
X46972587Y-49706461D01*
X47003975Y-49701050D01*
X47010959Y-49700114D01*
X47017285Y-49687596D01*
X47031290Y-49654246D01*
X47050355Y-49606377D01*
X47057634Y-49587629D01*
X47086996Y-49515195D01*
X47121571Y-49435170D01*
X47152537Y-49367728D01*
X47175323Y-49316159D01*
X47190482Y-49273785D01*
X47195542Y-49247834D01*
X47194736Y-49244356D01*
X47184041Y-49227936D01*
X47159620Y-49191417D01*
X47124095Y-49138687D01*
X47080087Y-49073635D01*
X47030217Y-49000151D01*
X47020356Y-48985645D01*
X46962492Y-48899704D01*
X46919956Y-48834261D01*
X46891054Y-48786304D01*
X46874090Y-48752820D01*
X46867367Y-48730795D01*
X46869190Y-48717217D01*
X46869236Y-48717131D01*
X46883586Y-48699297D01*
X46915323Y-48664817D01*
X46961010Y-48617268D01*
X47017204Y-48560222D01*
X47080468Y-48497255D01*
X47087602Y-48490227D01*
X47167330Y-48413020D01*
X47228857Y-48356330D01*
X47273421Y-48319110D01*
X47302257Y-48300315D01*
X47314958Y-48297889D01*
X47333494Y-48308471D01*
X47371961Y-48332916D01*
X47426386Y-48368612D01*
X47492798Y-48412947D01*
X47567225Y-48463311D01*
X47584601Y-48475160D01*
X47831297Y-48643626D01*
X47942706Y-48593062D01*
X48010457Y-48563595D01*
X48083183Y-48533959D01*
X48145703Y-48510330D01*
X48148457Y-48509358D01*
X48197360Y-48491457D01*
X48235057Y-48476320D01*
X48253425Y-48467210D01*
X48253456Y-48467184D01*
X48259285Y-48450717D01*
X48269192Y-48410219D01*
X48282195Y-48350242D01*
X48297309Y-48275340D01*
X48313552Y-48190064D01*
X48314881Y-48182875D01*
X48331175Y-48095014D01*
X48346133Y-48015260D01*
X48358791Y-47948681D01*
X48368186Y-47900347D01*
X48373354Y-47875325D01*
X48373444Y-47874943D01*
X48376589Y-47864299D01*
X48382704Y-47856262D01*
X48395453Y-47850467D01*
X48418500Y-47846547D01*
X48455509Y-47844135D01*
X48510144Y-47842865D01*
X48586067Y-47842371D01*
X48686944Y-47842286D01*
X48700000Y-47842286D01*
X48803910Y-47842348D01*
G37*
D14*
%TO.C,R4*%
X42377500Y-58562742D02*
X42377500Y-59037258D01*
X43422500Y-58562742D02*
X43422500Y-59037258D01*
%TO.C,C4*%
X27290000Y-44040580D02*
X27290000Y-43759420D01*
X28310000Y-44040580D02*
X28310000Y-43759420D01*
%TO.C,R16*%
X44462742Y-77277500D02*
X44937258Y-77277500D01*
X44462742Y-78322500D02*
X44937258Y-78322500D01*
%TO.C,C6*%
X58484420Y-60890000D02*
X58765580Y-60890000D01*
X58484420Y-61910000D02*
X58765580Y-61910000D01*
%TO.C,C16*%
X43990000Y-67259420D02*
X43990000Y-67540580D01*
X45010000Y-67259420D02*
X45010000Y-67540580D01*
%TO.C,C32*%
X26640580Y-48990000D02*
X26359420Y-48990000D01*
X26640580Y-50010000D02*
X26359420Y-50010000D01*
%TO.C,C27*%
X62890000Y-79959420D02*
X62890000Y-80240580D01*
X63910000Y-79959420D02*
X63910000Y-80240580D01*
%TO.C,R20*%
X61077500Y-79862742D02*
X61077500Y-80337258D01*
X62122500Y-79862742D02*
X62122500Y-80337258D01*
D17*
%TO.C,U4*%
X57255000Y-63675000D02*
X57255000Y-64775000D01*
X57255000Y-64775000D02*
X60155000Y-64775000D01*
X60155000Y-63675000D02*
X57255000Y-63675000D01*
X60155000Y-64775000D02*
X60155000Y-63675000D01*
D14*
%TO.C,R12*%
X41777500Y-64562742D02*
X41777500Y-65037258D01*
X42822500Y-64562742D02*
X42822500Y-65037258D01*
%TO.C,C22*%
X60690000Y-74959420D02*
X60690000Y-75240580D01*
X61710000Y-74959420D02*
X61710000Y-75240580D01*
%TO.C,R1*%
X35815000Y-58337258D02*
X35815000Y-57862742D01*
X36860000Y-58337258D02*
X36860000Y-57862742D01*
%TO.C,U2*%
X58841421Y-43000000D02*
G75*
G02*
X58558579Y-43000000I-141421J0D01*
G01*
X58558579Y-43000000D02*
G75*
G02*
X58841421Y-43000000I141421J0D01*
G01*
D19*
%TO.C,S3*%
X56675000Y-82525000D02*
X56675000Y-82525000D01*
X56775000Y-82525000D02*
X56775000Y-82525000D01*
D16*
X58925000Y-84650000D02*
X58925000Y-85300000D01*
X58925000Y-85300000D02*
X60625000Y-85300000D01*
X58975000Y-81750000D02*
X60625000Y-81750000D01*
X58975000Y-84650000D02*
X60575000Y-84650000D01*
X60625000Y-85300000D02*
X60625000Y-84650000D01*
D19*
X56675000Y-82525000D02*
G75*
G02*
X56775000Y-82525000I50000J0D01*
G01*
X56775000Y-82525000D02*
G75*
G02*
X56675000Y-82525000I-50000J0D01*
G01*
D14*
%TO.C,R17*%
X51477500Y-73737258D02*
X51477500Y-73262742D01*
X52522500Y-73737258D02*
X52522500Y-73262742D01*
%TO.C,C10*%
X31190000Y-80259420D02*
X31190000Y-80540580D01*
X32210000Y-80259420D02*
X32210000Y-80540580D01*
%TO.C,C21*%
X54490000Y-74959420D02*
X54490000Y-75240580D01*
X55510000Y-74959420D02*
X55510000Y-75240580D01*
%TO.C,Q1*%
X39400000Y-56540000D02*
X38750000Y-56540000D01*
X39400000Y-56540000D02*
X40050000Y-56540000D01*
X39400000Y-59660000D02*
X38750000Y-59660000D01*
X39400000Y-59660000D02*
X40050000Y-59660000D01*
X38237500Y-56590000D02*
X37997500Y-56260000D01*
X38477500Y-56260000D01*
X38237500Y-56590000D01*
G36*
X38237500Y-56590000D02*
G01*
X37997500Y-56260000D01*
X38477500Y-56260000D01*
X38237500Y-56590000D01*
G37*
%TO.C,C9*%
X31840580Y-75390000D02*
X31559420Y-75390000D01*
X31840580Y-76410000D02*
X31559420Y-76410000D01*
%TO.C,R22*%
X49677500Y-73737258D02*
X49677500Y-73262742D01*
X50722500Y-73737258D02*
X50722500Y-73262742D01*
%TO.C,C11*%
X31840580Y-76990000D02*
X31559420Y-76990000D01*
X31840580Y-78010000D02*
X31559420Y-78010000D01*
%TO.C,R9*%
X39277500Y-77237258D02*
X39277500Y-76762742D01*
X40322500Y-77237258D02*
X40322500Y-76762742D01*
%TD*%
M02*
