%TF.GenerationSoftware,KiCad,Pcbnew,9.0.7*%
%TF.CreationDate,2026-07-02T22:34:10-05:00*%
%TF.ProjectId,AirCube,41697243-7562-4652-9e6b-696361645f70,rev?*%
%TF.SameCoordinates,Original*%
%TF.FileFunction,Paste,Top*%
%TF.FilePolarity,Positive*%
%FSLAX46Y46*%
G04 Gerber Fmt 4.6, Leading zero omitted, Abs format (unit mm)*
G04 Created by KiCad (PCBNEW 9.0.7) date 2026-07-02 22:34:10*
%MOMM*%
%LPD*%
G01*
G04 APERTURE LIST*
G04 Aperture macros list*
%AMRoundRect*
0 Rectangle with rounded corners*
0 $1 Rounding radius*
0 $2 $3 $4 $5 $6 $7 $8 $9 X,Y pos of 4 corners*
0 Add a 4 corners polygon primitive as box body*
4,1,4,$2,$3,$4,$5,$6,$7,$8,$9,$2,$3,0*
0 Add four circle primitives for the rounded corners*
1,1,$1+$1,$2,$3*
1,1,$1+$1,$4,$5*
1,1,$1+$1,$6,$7*
1,1,$1+$1,$8,$9*
0 Add four rect primitives between the rounded corners*
20,1,$1+$1,$2,$3,$4,$5,0*
20,1,$1+$1,$4,$5,$6,$7,0*
20,1,$1+$1,$6,$7,$8,$9,0*
20,1,$1+$1,$8,$9,$2,$3,0*%
G04 Aperture macros list end*
%ADD10C,0.010000*%
%ADD11R,0.558800X0.558800*%
%ADD12RoundRect,0.200000X-0.275000X0.200000X-0.275000X-0.200000X0.275000X-0.200000X0.275000X0.200000X0*%
%ADD13RoundRect,0.225000X0.250000X-0.225000X0.250000X0.225000X-0.250000X0.225000X-0.250000X-0.225000X0*%
%ADD14RoundRect,0.225000X-0.225000X-0.250000X0.225000X-0.250000X0.225000X0.250000X-0.225000X0.250000X0*%
%ADD15R,0.700000X0.725000*%
%ADD16RoundRect,0.200000X0.275000X-0.200000X0.275000X0.200000X-0.275000X0.200000X-0.275000X-0.200000X0*%
%ADD17RoundRect,0.225000X0.225000X0.250000X-0.225000X0.250000X-0.225000X-0.250000X0.225000X-0.250000X0*%
%ADD18R,0.320000X0.640000*%
%ADD19R,0.640000X0.320000*%
%ADD20R,1.160000X1.160000*%
%ADD21R,0.560000X0.560000*%
%ADD22RoundRect,0.100000X0.200000X0.100000X-0.200000X0.100000X-0.200000X-0.100000X0.200000X-0.100000X0*%
%ADD23RoundRect,0.097500X0.097500X0.382500X-0.097500X0.382500X-0.097500X-0.382500X0.097500X-0.382500X0*%
%ADD24RoundRect,0.225000X-0.250000X0.225000X-0.250000X-0.225000X0.250000X-0.225000X0.250000X0.225000X0*%
%ADD25RoundRect,0.250001X-0.714999X0.714999X-0.714999X-0.714999X0.714999X-0.714999X0.714999X0.714999X0*%
%ADD26RoundRect,0.212500X-0.212500X0.737500X-0.212500X-0.737500X0.212500X-0.737500X0.212500X0.737500X0*%
%ADD27RoundRect,0.212500X-0.737500X0.212500X-0.737500X-0.212500X0.737500X-0.212500X0.737500X0.212500X0*%
%ADD28RoundRect,0.150000X-0.150000X-0.200000X0.150000X-0.200000X0.150000X0.200000X-0.150000X0.200000X0*%
%ADD29RoundRect,0.175000X-0.325000X0.175000X-0.325000X-0.175000X0.325000X-0.175000X0.325000X0.175000X0*%
%ADD30R,0.480000X0.920000*%
%ADD31R,0.240000X0.920000*%
%ADD32RoundRect,0.200000X-0.200000X-0.275000X0.200000X-0.275000X0.200000X0.275000X-0.200000X0.275000X0*%
%ADD33RoundRect,0.175000X-0.175000X-0.325000X0.175000X-0.325000X0.175000X0.325000X-0.175000X0.325000X0*%
%ADD34RoundRect,0.212500X0.212500X0.212500X-0.212500X0.212500X-0.212500X-0.212500X0.212500X-0.212500X0*%
%ADD35R,1.400000X1.050000*%
%ADD36RoundRect,0.150000X-0.587500X-0.150000X0.587500X-0.150000X0.587500X0.150000X-0.587500X0.150000X0*%
G04 APERTURE END LIST*
D10*
%TO.C,U7*%
X33850000Y-69800000D02*
X33100000Y-69800000D01*
X32600000Y-69300000D01*
X32600000Y-68550000D01*
X33850000Y-68550000D01*
X33850000Y-69800000D01*
G36*
X33850000Y-69800000D02*
G01*
X33100000Y-69800000D01*
X32600000Y-69300000D01*
X32600000Y-68550000D01*
X33850000Y-68550000D01*
X33850000Y-69800000D01*
G37*
%TD*%
D11*
%TO.C,LED1*%
X45475000Y-63650040D03*
X45475000Y-64600000D03*
X44525000Y-64600000D03*
X44525000Y-63650040D03*
%TD*%
%TO.C,LED2*%
X49000000Y-63625020D03*
X49000000Y-64574980D03*
X48050000Y-64574980D03*
X48050000Y-63625020D03*
%TD*%
%TO.C,LED3*%
X52475000Y-63600000D03*
X52475000Y-64549960D03*
X51525000Y-64549960D03*
X51525000Y-63600000D03*
%TD*%
D12*
%TO.C,R3*%
X63600000Y-45850000D03*
X63600000Y-47500000D03*
%TD*%
D13*
%TO.C,C1*%
X63600000Y-44425000D03*
X63600000Y-42875000D03*
%TD*%
D14*
%TO.C,C2*%
X65325000Y-48950000D03*
X66875000Y-48950000D03*
%TD*%
D15*
%TO.C,U1*%
X65400000Y-43675000D03*
X65400000Y-44750000D03*
X65400000Y-45825000D03*
X65400000Y-46900000D03*
X66800000Y-46900000D03*
X66800000Y-45825000D03*
X66800000Y-44750000D03*
X66800000Y-43675000D03*
%TD*%
D16*
%TO.C,R10*%
X38200000Y-77825000D03*
X38200000Y-76175000D03*
%TD*%
D17*
%TO.C,C15*%
X60700000Y-47400000D03*
X59150000Y-47400000D03*
%TD*%
D18*
%TO.C,U7*%
X31200000Y-73100000D03*
X32000000Y-73100000D03*
X32800000Y-73100000D03*
X33600000Y-73100000D03*
X34400000Y-73100000D03*
X35200000Y-73100000D03*
X36000000Y-73100000D03*
X36800000Y-73100000D03*
X37600000Y-73100000D03*
X38400000Y-73100000D03*
X39200000Y-73100000D03*
D19*
X40100000Y-72000000D03*
X40100000Y-71200000D03*
X40100000Y-70400000D03*
X40100000Y-69600000D03*
X40100000Y-68800000D03*
X40100000Y-68000000D03*
X40100000Y-67200000D03*
X40100000Y-66400000D03*
X40100000Y-65600000D03*
X40100000Y-64800000D03*
X40100000Y-64000000D03*
X40100000Y-63200000D03*
X40100000Y-62400000D03*
D18*
X39200000Y-61300000D03*
X38400000Y-61300000D03*
X37600000Y-61300000D03*
X36800000Y-61300000D03*
X36000000Y-61300000D03*
X35200000Y-61300000D03*
X34400000Y-61300000D03*
X33600000Y-61300000D03*
X32800000Y-61300000D03*
X32000000Y-61300000D03*
X31200000Y-61300000D03*
D19*
X30300000Y-62400000D03*
X30300000Y-63200000D03*
X30300000Y-64000000D03*
X30300000Y-64800000D03*
X30300000Y-65600000D03*
X30300000Y-66400000D03*
X30300000Y-67200000D03*
X30300000Y-68000000D03*
X30300000Y-68800000D03*
X30300000Y-69600000D03*
X30300000Y-70400000D03*
X30300000Y-71200000D03*
X30300000Y-72000000D03*
D20*
X35200000Y-69175000D03*
X37175000Y-69175000D03*
X33225000Y-67200000D03*
X35200000Y-67200000D03*
X37175000Y-67200000D03*
X33225000Y-65225000D03*
X35200000Y-65225000D03*
X37175000Y-65225000D03*
D21*
X30250000Y-61250000D03*
X40150000Y-61250000D03*
X40150000Y-73150000D03*
X30250000Y-73150000D03*
%TD*%
D13*
%TO.C,C3*%
X40500000Y-44375000D03*
X40500000Y-42825000D03*
%TD*%
D22*
%TO.C,U10*%
X27300000Y-48000000D03*
X27300000Y-47250000D03*
X25700000Y-47250000D03*
X25700000Y-48000000D03*
D23*
X26500000Y-47625000D03*
%TD*%
D16*
%TO.C,R18*%
X46900000Y-74325000D03*
X46900000Y-72675000D03*
%TD*%
D17*
%TO.C,C14*%
X60700000Y-49000000D03*
X59150000Y-49000000D03*
%TD*%
D24*
%TO.C,C7*%
X40500000Y-46125000D03*
X40500000Y-47675000D03*
%TD*%
%TO.C,C24*%
X51500000Y-66625000D03*
X51500000Y-68175000D03*
%TD*%
D12*
%TO.C,R5*%
X44525000Y-57975000D03*
X44525000Y-59625000D03*
%TD*%
%TO.C,R19*%
X65200000Y-79275000D03*
X65200000Y-80925000D03*
%TD*%
D25*
%TO.C,U3*%
X35400000Y-46150000D03*
X33000000Y-46150000D03*
X35400000Y-48550000D03*
X33000000Y-48550000D03*
D26*
X36700000Y-43200000D03*
X35450000Y-43200000D03*
X34200000Y-43200000D03*
X32950000Y-43200000D03*
X31700000Y-43200000D03*
D27*
X30050000Y-44850000D03*
X30050000Y-46100000D03*
X30050000Y-47350000D03*
X30050000Y-48600000D03*
X30050000Y-49850000D03*
D26*
X31700000Y-51500000D03*
X32950000Y-51500000D03*
X34200000Y-51500000D03*
X35450000Y-51500000D03*
X36700000Y-51500000D03*
D27*
X38350000Y-49850000D03*
X38350000Y-48600000D03*
X38350000Y-47350000D03*
X38350000Y-46100000D03*
X38350000Y-44850000D03*
%TD*%
D12*
%TO.C,R11*%
X35000000Y-77975000D03*
X35000000Y-79625000D03*
%TD*%
D24*
%TO.C,C13*%
X42300000Y-69625000D03*
X42300000Y-71175000D03*
%TD*%
D28*
%TO.C,D5*%
X45200000Y-75900000D03*
X43800000Y-75900000D03*
%TD*%
D24*
%TO.C,C17*%
X48050000Y-66625000D03*
X48050000Y-68175000D03*
%TD*%
D12*
%TO.C,R21*%
X48600000Y-72675000D03*
X48600000Y-74325000D03*
%TD*%
D29*
%TO.C,U6*%
X56800000Y-74200000D03*
X56800000Y-75150000D03*
X56800000Y-76100000D03*
X59400000Y-76100000D03*
X59400000Y-74200000D03*
%TD*%
D16*
%TO.C,R2*%
X34000000Y-76525000D03*
X34000000Y-74875000D03*
%TD*%
D13*
%TO.C,C8*%
X26300000Y-44675000D03*
X26300000Y-43125000D03*
%TD*%
D24*
%TO.C,C12*%
X33400000Y-79625000D03*
X33400000Y-81175000D03*
%TD*%
D30*
%TO.C,P1*%
X45997500Y-80045000D03*
X46797500Y-80045000D03*
D31*
X47947500Y-80045000D03*
X48947500Y-80045000D03*
X49447500Y-80045000D03*
X50447500Y-80045000D03*
D30*
X51597500Y-80045000D03*
X52397500Y-80045000D03*
D31*
X50947500Y-80045000D03*
X49947500Y-80045000D03*
X48447500Y-80045000D03*
X47447500Y-80045000D03*
%TD*%
D14*
%TO.C,C5*%
X57925000Y-67075000D03*
X59475000Y-67075000D03*
%TD*%
D12*
%TO.C,R4*%
X42900000Y-57975000D03*
X42900000Y-59625000D03*
%TD*%
D13*
%TO.C,C4*%
X27800000Y-44675000D03*
X27800000Y-43125000D03*
%TD*%
D32*
%TO.C,R16*%
X43875000Y-77800000D03*
X45525000Y-77800000D03*
%TD*%
D14*
%TO.C,C6*%
X57850000Y-61400000D03*
X59400000Y-61400000D03*
%TD*%
D24*
%TO.C,C16*%
X44500000Y-66625000D03*
X44500000Y-68175000D03*
%TD*%
D17*
%TO.C,C32*%
X27275000Y-49500000D03*
X25725000Y-49500000D03*
%TD*%
D24*
%TO.C,C27*%
X63400000Y-79325000D03*
X63400000Y-80875000D03*
%TD*%
D12*
%TO.C,R20*%
X61600000Y-79275000D03*
X61600000Y-80925000D03*
%TD*%
D33*
%TO.C,U4*%
X57755000Y-65475000D03*
X58705000Y-65475000D03*
X59655000Y-65475000D03*
X59655000Y-62875000D03*
X57755000Y-62875000D03*
%TD*%
D12*
%TO.C,R12*%
X42300000Y-63975000D03*
X42300000Y-65625000D03*
%TD*%
D24*
%TO.C,C22*%
X61200000Y-74325000D03*
X61200000Y-75875000D03*
%TD*%
D16*
%TO.C,R1*%
X36337500Y-58925000D03*
X36337500Y-57275000D03*
%TD*%
D34*
%TO.C,U2*%
X59400000Y-43650000D03*
X59400000Y-44700000D03*
X59400000Y-45750000D03*
X60450000Y-45750000D03*
X61500000Y-45750000D03*
X61500000Y-44700000D03*
X61500000Y-43650000D03*
X60450000Y-43650000D03*
X60450000Y-44700000D03*
%TD*%
D35*
%TO.C,S3*%
X57975000Y-82475000D03*
X61575000Y-82475000D03*
X57975000Y-83925000D03*
X61575000Y-83925000D03*
%TD*%
D16*
%TO.C,R17*%
X52000000Y-74325000D03*
X52000000Y-72675000D03*
%TD*%
D24*
%TO.C,C10*%
X31700000Y-79625000D03*
X31700000Y-81175000D03*
%TD*%
%TO.C,C21*%
X55000000Y-74325000D03*
X55000000Y-75875000D03*
%TD*%
D36*
%TO.C,Q1*%
X38462500Y-57150000D03*
X38462500Y-59050000D03*
X40337500Y-58100000D03*
%TD*%
D17*
%TO.C,C9*%
X32475000Y-75900000D03*
X30925000Y-75900000D03*
%TD*%
D16*
%TO.C,R22*%
X50200000Y-74325000D03*
X50200000Y-72675000D03*
%TD*%
D17*
%TO.C,C11*%
X32475000Y-77500000D03*
X30925000Y-77500000D03*
%TD*%
D16*
%TO.C,R9*%
X39800000Y-77825000D03*
X39800000Y-76175000D03*
%TD*%
M02*
