%TF.GenerationSoftware,KiCad,Pcbnew,9.0.7*%
%TF.CreationDate,2026-07-02T22:34:11-05:00*%
%TF.ProjectId,AirCube,41697243-7562-4652-9e6b-696361645f70,rev?*%
%TF.SameCoordinates,Original*%
%TF.FileFunction,Soldermask,Top*%
%TF.FilePolarity,Negative*%
%FSLAX46Y46*%
G04 Gerber Fmt 4.6, Leading zero omitted, Abs format (unit mm)*
G04 Created by KiCad (PCBNEW 9.0.7) date 2026-07-02 22:34:11*
%MOMM*%
%LPD*%
G01*
G04 APERTURE LIST*
G04 Aperture macros list*
%AMRoundRect*
0 Rectangle with rounded corners*
0 $1 Rounding radius*
0 $2 $3 $4 $5 $6 $7 $8 $9 X,Y pos of 4 corners*
0 Add a 4 corners polygon primitive as box body*
4,1,4,$2,$3,$4,$5,$6,$7,$8,$9,$2,$3,0*
0 Add four circle primitives for the rounded corners*
1,1,$1+$1,$2,$3*
1,1,$1+$1,$4,$5*
1,1,$1+$1,$6,$7*
1,1,$1+$1,$8,$9*
0 Add four rect primitives between the rounded corners*
20,1,$1+$1,$2,$3,$4,$5,0*
20,1,$1+$1,$4,$5,$6,$7,0*
20,1,$1+$1,$6,$7,$8,$9,0*
20,1,$1+$1,$8,$9,$2,$3,0*%
G04 Aperture macros list end*
%ADD10C,0.010000*%
%ADD11C,0.000000*%
%ADD12R,0.558800X0.558800*%
%ADD13RoundRect,0.200000X-0.275000X0.200000X-0.275000X-0.200000X0.275000X-0.200000X0.275000X0.200000X0*%
%ADD14RoundRect,0.225000X0.250000X-0.225000X0.250000X0.225000X-0.250000X0.225000X-0.250000X-0.225000X0*%
%ADD15RoundRect,0.225000X-0.225000X-0.250000X0.225000X-0.250000X0.225000X0.250000X-0.225000X0.250000X0*%
%ADD16RoundRect,0.102000X-0.350000X-0.362500X0.350000X-0.362500X0.350000X0.362500X-0.350000X0.362500X0*%
%ADD17RoundRect,0.200000X0.275000X-0.200000X0.275000X0.200000X-0.275000X0.200000X-0.275000X-0.200000X0*%
%ADD18RoundRect,0.225000X0.225000X0.250000X-0.225000X0.250000X-0.225000X-0.250000X0.225000X-0.250000X0*%
%ADD19RoundRect,0.102000X0.200000X-0.400000X0.200000X0.400000X-0.200000X0.400000X-0.200000X-0.400000X0*%
%ADD20RoundRect,0.102000X0.400000X-0.200000X0.400000X0.200000X-0.400000X0.200000X-0.400000X-0.200000X0*%
%ADD21RoundRect,0.102000X0.725000X-0.725000X0.725000X0.725000X-0.725000X0.725000X-0.725000X-0.725000X0*%
%ADD22RoundRect,0.102000X0.350000X-0.350000X0.350000X0.350000X-0.350000X0.350000X-0.350000X-0.350000X0*%
%ADD23C,1.500000*%
%ADD24RoundRect,0.100000X0.200000X0.100000X-0.200000X0.100000X-0.200000X-0.100000X0.200000X-0.100000X0*%
%ADD25RoundRect,0.162500X0.162500X0.637500X-0.162500X0.637500X-0.162500X-0.637500X0.162500X-0.637500X0*%
%ADD26RoundRect,0.225000X-0.250000X0.225000X-0.250000X-0.225000X0.250000X-0.225000X0.250000X0.225000X0*%
%ADD27C,2.200000*%
%ADD28RoundRect,0.212500X-0.212500X0.737500X-0.212500X-0.737500X0.212500X-0.737500X0.212500X0.737500X0*%
%ADD29RoundRect,0.212500X-0.737500X0.212500X-0.737500X-0.212500X0.737500X-0.212500X0.737500X0.212500X0*%
%ADD30R,4.800000X4.800000*%
%ADD31RoundRect,0.150000X-0.150000X-0.200000X0.150000X-0.200000X0.150000X0.200000X-0.150000X0.200000X0*%
%ADD32RoundRect,0.175000X-0.325000X0.175000X-0.325000X-0.175000X0.325000X-0.175000X0.325000X0.175000X0*%
%ADD33C,0.650000*%
%ADD34RoundRect,0.025400X-0.300000X-0.575000X0.300000X-0.575000X0.300000X0.575000X-0.300000X0.575000X0*%
%ADD35RoundRect,0.025400X-0.150000X-0.575000X0.150000X-0.575000X0.150000X0.575000X-0.150000X0.575000X0*%
%ADD36O,1.204000X2.304000*%
%ADD37RoundRect,0.301000X-0.301000X-0.701000X0.301000X-0.701000X0.301000X0.701000X-0.301000X0.701000X0*%
%ADD38RoundRect,0.200000X-0.200000X-0.275000X0.200000X-0.275000X0.200000X0.275000X-0.200000X0.275000X0*%
%ADD39RoundRect,0.175000X-0.175000X-0.325000X0.175000X-0.325000X0.175000X0.325000X-0.175000X0.325000X0*%
%ADD40RoundRect,0.212500X0.212500X0.212500X-0.212500X0.212500X-0.212500X-0.212500X0.212500X-0.212500X0*%
%ADD41R,1.400000X1.050000*%
%ADD42RoundRect,0.150000X-0.587500X-0.150000X0.587500X-0.150000X0.587500X0.150000X-0.587500X0.150000X0*%
G04 APERTURE END LIST*
D10*
%TO.C,U7*%
X34050000Y-70000000D02*
X33050000Y-70000000D01*
X32400000Y-69350000D01*
X32400000Y-68350000D01*
X34050000Y-68350000D01*
X34050000Y-70000000D01*
G36*
X34050000Y-70000000D02*
G01*
X33050000Y-70000000D01*
X32400000Y-69350000D01*
X32400000Y-68350000D01*
X34050000Y-68350000D01*
X34050000Y-70000000D01*
G37*
D11*
%TO.C,G\u002A\u002A\u002A*%
G36*
X37004666Y-82372475D02*
G01*
X36969034Y-82371770D01*
X36941777Y-82369775D01*
X36908459Y-82365356D01*
X36884643Y-82361102D01*
X36793158Y-82335034D01*
X36708784Y-82296017D01*
X36632413Y-82244754D01*
X36564932Y-82181946D01*
X36507232Y-82108296D01*
X36461251Y-82026741D01*
X36435493Y-81964578D01*
X36418607Y-81904056D01*
X36408896Y-81838476D01*
X36406811Y-81812070D01*
X36408122Y-81718639D01*
X36423703Y-81627946D01*
X36452883Y-81541382D01*
X36494990Y-81460336D01*
X36549353Y-81386198D01*
X36615299Y-81320359D01*
X36661915Y-81284171D01*
X36723754Y-81246814D01*
X36791666Y-81216366D01*
X36861463Y-81194266D01*
X36928953Y-81181957D01*
X36965284Y-81179871D01*
X37004666Y-81179740D01*
X37004666Y-82372475D01*
G37*
G36*
X40322194Y-81179793D02*
G01*
X40358240Y-81182672D01*
X40402430Y-81190374D01*
X40449202Y-81201612D01*
X40492996Y-81215103D01*
X40519108Y-81225289D01*
X40558589Y-81245303D01*
X40602847Y-81271861D01*
X40646024Y-81301175D01*
X40682260Y-81329456D01*
X40687991Y-81334503D01*
X40747102Y-81397690D01*
X40796489Y-81470579D01*
X40835269Y-81550748D01*
X40862556Y-81635778D01*
X40877468Y-81723248D01*
X40879121Y-81810736D01*
X40875499Y-81848023D01*
X40855814Y-81940926D01*
X40823122Y-82027674D01*
X40778417Y-82107192D01*
X40722694Y-82178407D01*
X40656946Y-82240246D01*
X40582168Y-82291635D01*
X40499353Y-82331500D01*
X40409497Y-82358769D01*
X40400804Y-82360629D01*
X40368401Y-82366495D01*
X40337360Y-82370732D01*
X40314115Y-82372469D01*
X40313134Y-82372475D01*
X40282812Y-82372475D01*
X40282812Y-81179740D01*
X40322194Y-81179793D01*
G37*
G36*
X38643739Y-81288985D02*
G01*
X38687013Y-81289390D01*
X38719083Y-81290555D01*
X38743747Y-81292989D01*
X38764804Y-81297200D01*
X38786050Y-81303696D01*
X38804863Y-81310550D01*
X38881955Y-81347091D01*
X38951464Y-81395043D01*
X39011911Y-81452850D01*
X39061811Y-81518953D01*
X39099683Y-81591795D01*
X39115794Y-81637330D01*
X39129601Y-81706678D01*
X39132964Y-81781704D01*
X39126195Y-81857627D01*
X39109606Y-81929665D01*
X39093993Y-81971491D01*
X39053380Y-82045557D01*
X39001966Y-82110309D01*
X38941293Y-82164963D01*
X38872902Y-82208734D01*
X38798336Y-82240839D01*
X38719134Y-82260493D01*
X38636839Y-82266914D01*
X38552991Y-82259317D01*
X38534968Y-82255789D01*
X38461879Y-82232739D01*
X38391938Y-82196627D01*
X38327248Y-82149361D01*
X38269912Y-82092846D01*
X38222035Y-82028988D01*
X38185719Y-81959692D01*
X38174265Y-81928956D01*
X38166536Y-81903274D01*
X38161343Y-81879402D01*
X38158219Y-81853251D01*
X38156695Y-81820728D01*
X38156300Y-81777743D01*
X38156305Y-81772357D01*
X38156670Y-81729280D01*
X38157945Y-81697229D01*
X38160642Y-81672234D01*
X38165271Y-81650322D01*
X38172343Y-81627522D01*
X38176403Y-81616067D01*
X38205601Y-81548392D01*
X38241790Y-81489912D01*
X38288376Y-81435254D01*
X38295577Y-81427945D01*
X38349816Y-81379954D01*
X38407171Y-81342651D01*
X38472998Y-81312640D01*
X38483698Y-81308643D01*
X38507362Y-81300481D01*
X38528196Y-81294898D01*
X38549984Y-81291429D01*
X38576511Y-81289609D01*
X38611561Y-81288972D01*
X38643739Y-81288985D01*
G37*
G36*
X38675381Y-79747987D02*
G01*
X38756061Y-79751393D01*
X38831936Y-79758001D01*
X38898366Y-79767698D01*
X38906291Y-79769224D01*
X39046729Y-79804631D01*
X39181536Y-79853454D01*
X39309844Y-79915035D01*
X39430783Y-79988715D01*
X39543483Y-80073835D01*
X39647076Y-80169737D01*
X39740693Y-80275762D01*
X39823464Y-80391252D01*
X39894520Y-80515547D01*
X39896555Y-80519592D01*
X39945524Y-80626985D01*
X39983228Y-80732055D01*
X40001256Y-80796176D01*
X40008421Y-80824475D01*
X40014749Y-80850110D01*
X40020297Y-80874165D01*
X40025121Y-80897725D01*
X40029278Y-80921874D01*
X40032825Y-80947696D01*
X40035819Y-80976276D01*
X40038317Y-81008698D01*
X40040375Y-81046047D01*
X40042050Y-81089406D01*
X40043399Y-81139860D01*
X40044479Y-81198494D01*
X40045346Y-81266391D01*
X40046058Y-81344636D01*
X40046670Y-81434314D01*
X40047241Y-81536509D01*
X40047826Y-81652304D01*
X40048008Y-81688914D01*
X40048638Y-81826421D01*
X40049042Y-81949932D01*
X40049159Y-82060453D01*
X40048926Y-82158992D01*
X40048283Y-82246554D01*
X40047166Y-82324146D01*
X40045514Y-82392774D01*
X40043266Y-82453444D01*
X40040360Y-82507163D01*
X40036734Y-82554938D01*
X40032325Y-82597773D01*
X40027073Y-82636677D01*
X40020916Y-82672655D01*
X40013791Y-82706714D01*
X40005638Y-82739859D01*
X39996393Y-82773098D01*
X39985996Y-82807436D01*
X39977730Y-82833504D01*
X39929257Y-82960725D01*
X39867369Y-83083879D01*
X39793306Y-83201387D01*
X39708312Y-83311670D01*
X39613629Y-83413148D01*
X39510501Y-83504241D01*
X39400169Y-83583369D01*
X39375953Y-83598469D01*
X39330845Y-83625870D01*
X39360791Y-83664929D01*
X39388621Y-83706414D01*
X39416719Y-83757301D01*
X39442516Y-83812260D01*
X39463444Y-83865958D01*
X39473581Y-83899026D01*
X39484335Y-83955778D01*
X39489907Y-84020916D01*
X39490225Y-84088716D01*
X39485216Y-84153457D01*
X39477354Y-84199085D01*
X39458546Y-84264901D01*
X39432332Y-84334147D01*
X39401665Y-84399397D01*
X39387636Y-84424730D01*
X39365947Y-84460431D01*
X39342587Y-84496033D01*
X39316404Y-84532985D01*
X39286251Y-84572738D01*
X39250977Y-84616743D01*
X39209432Y-84666450D01*
X39160466Y-84723309D01*
X39102931Y-84788771D01*
X39067002Y-84829209D01*
X38998171Y-84907419D01*
X38939053Y-84976875D01*
X38888487Y-85039159D01*
X38845314Y-85095857D01*
X38808375Y-85148553D01*
X38776511Y-85198833D01*
X38748564Y-85248279D01*
X38723373Y-85298478D01*
X38722728Y-85299842D01*
X38686667Y-85376220D01*
X38663302Y-85339377D01*
X38639602Y-85298904D01*
X38623357Y-85262192D01*
X38613313Y-85224576D01*
X38608216Y-85181390D01*
X38606812Y-85129268D01*
X38608209Y-85076894D01*
X38613290Y-85032586D01*
X38623307Y-84992035D01*
X38639509Y-84950935D01*
X38663147Y-84904975D01*
X38680863Y-84874218D01*
X38714350Y-84812005D01*
X38736728Y-84756384D01*
X38748664Y-84704653D01*
X38750827Y-84654110D01*
X38745777Y-84611666D01*
X38726215Y-84544912D01*
X38693880Y-84483352D01*
X38650474Y-84429259D01*
X38597698Y-84384905D01*
X38559047Y-84362311D01*
X38530157Y-84348597D01*
X38507702Y-84340232D01*
X38485879Y-84335905D01*
X38458886Y-84334307D01*
X38434087Y-84334111D01*
X38397860Y-84334835D01*
X38371609Y-84337576D01*
X38350352Y-84343190D01*
X38330327Y-84351922D01*
X38286012Y-84379645D01*
X38245504Y-84415547D01*
X38213129Y-84455453D01*
X38200507Y-84477285D01*
X38183720Y-84526808D01*
X38176966Y-84583370D01*
X38180073Y-84643016D01*
X38192866Y-84701789D01*
X38212486Y-84750603D01*
X38220018Y-84768433D01*
X38221447Y-84779060D01*
X38219719Y-84780449D01*
X38207677Y-84775915D01*
X38186864Y-84763600D01*
X38159942Y-84745434D01*
X38129577Y-84723348D01*
X38098432Y-84699271D01*
X38069173Y-84675134D01*
X38047136Y-84655411D01*
X37974519Y-84576935D01*
X37913983Y-84490494D01*
X37866035Y-84397450D01*
X37831184Y-84299161D01*
X37809937Y-84196988D01*
X37802802Y-84092289D01*
X37807038Y-84012738D01*
X37822679Y-83912280D01*
X37847658Y-83821702D01*
X37882803Y-83738527D01*
X37921235Y-83671882D01*
X37935551Y-83649089D01*
X37945458Y-83631745D01*
X37949141Y-83623064D01*
X37949004Y-83622670D01*
X37941597Y-83617934D01*
X37925104Y-83607633D01*
X37904844Y-83595079D01*
X37786278Y-83513189D01*
X37677754Y-83420565D01*
X37579828Y-83318097D01*
X37493054Y-83206674D01*
X37417989Y-83087188D01*
X37355188Y-82960527D01*
X37305207Y-82827581D01*
X37268601Y-82689239D01*
X37245926Y-82546393D01*
X37245111Y-82538588D01*
X37243726Y-82517082D01*
X37242471Y-82482008D01*
X37241348Y-82434719D01*
X37240357Y-82376563D01*
X37239496Y-82308891D01*
X37238767Y-82233054D01*
X37238169Y-82150402D01*
X37237702Y-82062285D01*
X37237367Y-81970054D01*
X37237162Y-81875059D01*
X37237089Y-81778651D01*
X37237146Y-81682179D01*
X37237335Y-81586994D01*
X37237654Y-81494447D01*
X37237903Y-81445529D01*
X37845339Y-81445529D01*
X37845432Y-81539180D01*
X37845698Y-81645447D01*
X37846093Y-81765325D01*
X37846278Y-81817366D01*
X37848786Y-82518754D01*
X37869284Y-82593769D01*
X37905429Y-82699310D01*
X37953710Y-82797162D01*
X38013325Y-82886442D01*
X38083473Y-82966267D01*
X38163354Y-83035755D01*
X38252166Y-83094025D01*
X38349109Y-83140194D01*
X38373862Y-83149506D01*
X38477472Y-83179125D01*
X38582744Y-83194870D01*
X38687637Y-83196554D01*
X38775908Y-83186627D01*
X38881140Y-83160678D01*
X38981386Y-83120860D01*
X39075359Y-83067844D01*
X39161771Y-83002300D01*
X39202442Y-82964340D01*
X39275526Y-82880988D01*
X39335613Y-82790319D01*
X39382396Y-82692972D01*
X39415566Y-82589589D01*
X39434627Y-82482489D01*
X39436098Y-82461383D01*
X39437422Y-82426693D01*
X39438601Y-82379836D01*
X39439634Y-82322231D01*
X39440521Y-82255294D01*
X39441262Y-82180444D01*
X39441857Y-82099098D01*
X39442307Y-82012675D01*
X39442610Y-81922591D01*
X39442768Y-81830266D01*
X39442780Y-81737115D01*
X39442646Y-81644559D01*
X39442366Y-81554013D01*
X39441941Y-81466896D01*
X39441369Y-81384626D01*
X39440652Y-81308620D01*
X39439788Y-81240297D01*
X39438779Y-81181073D01*
X39437624Y-81132368D01*
X39436324Y-81095598D01*
X39434877Y-81072181D01*
X39434627Y-81069726D01*
X39415576Y-80962726D01*
X39383503Y-80861526D01*
X39339367Y-80766996D01*
X39284122Y-80680001D01*
X39218726Y-80601412D01*
X39144136Y-80532094D01*
X39061307Y-80472916D01*
X38971196Y-80424745D01*
X38874759Y-80388450D01*
X38772953Y-80364897D01*
X38666735Y-80354955D01*
X38646443Y-80354676D01*
X38535442Y-80361410D01*
X38430375Y-80381915D01*
X38331062Y-80416264D01*
X38237323Y-80464529D01*
X38148978Y-80526781D01*
X38095189Y-80573991D01*
X38023911Y-80649996D01*
X37965777Y-80730827D01*
X37919078Y-80819176D01*
X37887104Y-80902186D01*
X37880109Y-80923631D01*
X37873909Y-80943770D01*
X37868459Y-80963598D01*
X37863716Y-80984108D01*
X37859633Y-81006295D01*
X37856168Y-81031154D01*
X37853275Y-81059678D01*
X37850911Y-81092863D01*
X37849031Y-81131703D01*
X37847591Y-81177192D01*
X37846546Y-81230325D01*
X37845852Y-81292095D01*
X37845464Y-81363499D01*
X37845339Y-81445529D01*
X37237903Y-81445529D01*
X37238105Y-81405887D01*
X37238686Y-81322666D01*
X37239398Y-81246133D01*
X37240241Y-81177639D01*
X37241215Y-81118535D01*
X37242320Y-81070169D01*
X37243555Y-81033894D01*
X37244921Y-81011059D01*
X37245147Y-81008786D01*
X37267208Y-80866779D01*
X37301854Y-80732005D01*
X37349539Y-80602869D01*
X37379174Y-80538364D01*
X37449939Y-80410688D01*
X37531996Y-80292388D01*
X37624565Y-80184034D01*
X37726862Y-80086195D01*
X37838107Y-79999441D01*
X37957515Y-79924340D01*
X38084306Y-79861463D01*
X38217698Y-79811378D01*
X38356907Y-79774656D01*
X38450918Y-79758111D01*
X38518168Y-79751233D01*
X38594536Y-79747896D01*
X38675381Y-79747987D01*
G37*
%TD*%
D12*
%TO.C,LED1*%
X45475000Y-63650040D03*
X45475000Y-64600000D03*
X44525000Y-64600000D03*
X44525000Y-63650040D03*
%TD*%
%TO.C,LED2*%
X49000000Y-63625020D03*
X49000000Y-64574980D03*
X48050000Y-64574980D03*
X48050000Y-63625020D03*
%TD*%
%TO.C,LED3*%
X52475000Y-63600000D03*
X52475000Y-64549960D03*
X51525000Y-64549960D03*
X51525000Y-63600000D03*
%TD*%
D13*
%TO.C,R3*%
X63600000Y-45850000D03*
X63600000Y-47500000D03*
%TD*%
D14*
%TO.C,C1*%
X63600000Y-44425000D03*
X63600000Y-42875000D03*
%TD*%
D15*
%TO.C,C2*%
X65325000Y-48950000D03*
X66875000Y-48950000D03*
%TD*%
D16*
%TO.C,U1*%
X65400000Y-43675000D03*
X65400000Y-44750000D03*
X65400000Y-45825000D03*
X65400000Y-46900000D03*
X66800000Y-46900000D03*
X66800000Y-45825000D03*
X66800000Y-44750000D03*
X66800000Y-43675000D03*
%TD*%
D17*
%TO.C,R10*%
X38200000Y-77825000D03*
X38200000Y-76175000D03*
%TD*%
D18*
%TO.C,C15*%
X60700000Y-47400000D03*
X59150000Y-47400000D03*
%TD*%
D19*
%TO.C,U7*%
X31200000Y-73100000D03*
X32000000Y-73100000D03*
X32800000Y-73100000D03*
X33600000Y-73100000D03*
X34400000Y-73100000D03*
X35200000Y-73100000D03*
X36000000Y-73100000D03*
X36800000Y-73100000D03*
X37600000Y-73100000D03*
X38400000Y-73100000D03*
X39200000Y-73100000D03*
D20*
X40100000Y-72000000D03*
X40100000Y-71200000D03*
X40100000Y-70400000D03*
X40100000Y-69600000D03*
X40100000Y-68800000D03*
X40100000Y-68000000D03*
X40100000Y-67200000D03*
X40100000Y-66400000D03*
X40100000Y-65600000D03*
X40100000Y-64800000D03*
X40100000Y-64000000D03*
X40100000Y-63200000D03*
X40100000Y-62400000D03*
D19*
X39200000Y-61300000D03*
X38400000Y-61300000D03*
X37600000Y-61300000D03*
X36800000Y-61300000D03*
X36000000Y-61300000D03*
X35200000Y-61300000D03*
X34400000Y-61300000D03*
X33600000Y-61300000D03*
X32800000Y-61300000D03*
X32000000Y-61300000D03*
X31200000Y-61300000D03*
D20*
X30300000Y-62400000D03*
X30300000Y-63200000D03*
X30300000Y-64000000D03*
X30300000Y-64800000D03*
X30300000Y-65600000D03*
X30300000Y-66400000D03*
X30300000Y-67200000D03*
X30300000Y-68000000D03*
X30300000Y-68800000D03*
X30300000Y-69600000D03*
X30300000Y-70400000D03*
X30300000Y-71200000D03*
X30300000Y-72000000D03*
D21*
X35200000Y-69175000D03*
X37175000Y-69175000D03*
X33225000Y-67200000D03*
X35200000Y-67200000D03*
X37175000Y-67200000D03*
X33225000Y-65225000D03*
X35200000Y-65225000D03*
X37175000Y-65225000D03*
D22*
X30250000Y-61250000D03*
X40150000Y-61250000D03*
X40150000Y-73150000D03*
X30250000Y-73150000D03*
%TD*%
D14*
%TO.C,C3*%
X40500000Y-44375000D03*
X40500000Y-42825000D03*
%TD*%
D23*
%TO.C,REF\u002A\u002A*%
X66500000Y-84000000D03*
%TD*%
D24*
%TO.C,U10*%
X27300000Y-48000000D03*
X27300000Y-47250000D03*
X25700000Y-47250000D03*
X25700000Y-48000000D03*
D25*
X26500000Y-47625000D03*
%TD*%
D17*
%TO.C,R18*%
X46900000Y-74325000D03*
X46900000Y-72675000D03*
%TD*%
D18*
%TO.C,C14*%
X60700000Y-49000000D03*
X59150000Y-49000000D03*
%TD*%
D26*
%TO.C,C7*%
X40500000Y-46125000D03*
X40500000Y-47675000D03*
%TD*%
%TO.C,C24*%
X51500000Y-66625000D03*
X51500000Y-68175000D03*
%TD*%
D13*
%TO.C,R5*%
X44525000Y-57975000D03*
X44525000Y-59625000D03*
%TD*%
%TO.C,R19*%
X65200000Y-79275000D03*
X65200000Y-80925000D03*
%TD*%
D27*
%TO.C,REF\u002A\u002A*%
X46500000Y-45000000D03*
%TD*%
D28*
%TO.C,U3*%
X36700000Y-43200000D03*
X35450000Y-43200000D03*
X34200000Y-43200000D03*
X32950000Y-43200000D03*
X31700000Y-43200000D03*
D29*
X30050000Y-44850000D03*
X30050000Y-46100000D03*
X30050000Y-47350000D03*
X30050000Y-48600000D03*
X30050000Y-49850000D03*
D28*
X31700000Y-51500000D03*
X32950000Y-51500000D03*
X34200000Y-51500000D03*
X35450000Y-51500000D03*
X36700000Y-51500000D03*
D29*
X38350000Y-49850000D03*
X38350000Y-48600000D03*
X38350000Y-47350000D03*
X38350000Y-46100000D03*
X38350000Y-44850000D03*
D30*
X34200000Y-47350000D03*
%TD*%
D13*
%TO.C,R11*%
X35000000Y-77975000D03*
X35000000Y-79625000D03*
%TD*%
D26*
%TO.C,C13*%
X42300000Y-69625000D03*
X42300000Y-71175000D03*
%TD*%
D31*
%TO.C,D5*%
X45200000Y-75900000D03*
X43800000Y-75900000D03*
%TD*%
D26*
%TO.C,C17*%
X48050000Y-66625000D03*
X48050000Y-68175000D03*
%TD*%
D13*
%TO.C,R21*%
X48600000Y-72675000D03*
X48600000Y-74325000D03*
%TD*%
D32*
%TO.C,U6*%
X56800000Y-74200000D03*
X56800000Y-75150000D03*
X56800000Y-76100000D03*
X59400000Y-76100000D03*
X59400000Y-74200000D03*
%TD*%
D17*
%TO.C,R2*%
X34000000Y-76525000D03*
X34000000Y-74875000D03*
%TD*%
D14*
%TO.C,C8*%
X26300000Y-44675000D03*
X26300000Y-43125000D03*
%TD*%
D26*
%TO.C,C12*%
X33400000Y-79625000D03*
X33400000Y-81175000D03*
%TD*%
D33*
%TO.C,P1*%
X46307500Y-81120000D03*
X52087500Y-81120000D03*
D34*
X45997500Y-80045000D03*
X46797500Y-80045000D03*
D35*
X47947500Y-80045000D03*
X48947500Y-80045000D03*
X49447500Y-80045000D03*
X50447500Y-80045000D03*
D34*
X51597500Y-80045000D03*
X52397500Y-80045000D03*
D35*
X50947500Y-80045000D03*
X49947500Y-80045000D03*
X48447500Y-80045000D03*
X47447500Y-80045000D03*
D36*
X44877500Y-80620000D03*
X53517500Y-80620000D03*
D37*
X44877500Y-84800000D03*
X53517500Y-84800000D03*
%TD*%
D27*
%TO.C,REF\u002A\u002A*%
X28000000Y-82000000D03*
%TD*%
D15*
%TO.C,C5*%
X57925000Y-67075000D03*
X59475000Y-67075000D03*
%TD*%
D27*
%TO.C,REF\u002A\u002A*%
X65000000Y-63500000D03*
%TD*%
D13*
%TO.C,R4*%
X42900000Y-57975000D03*
X42900000Y-59625000D03*
%TD*%
D14*
%TO.C,C4*%
X27800000Y-44675000D03*
X27800000Y-43125000D03*
%TD*%
D38*
%TO.C,R16*%
X43875000Y-77800000D03*
X45525000Y-77800000D03*
%TD*%
D15*
%TO.C,C6*%
X57850000Y-61400000D03*
X59400000Y-61400000D03*
%TD*%
D26*
%TO.C,C16*%
X44500000Y-66625000D03*
X44500000Y-68175000D03*
%TD*%
D23*
%TO.C,REF\u002A\u002A*%
X32000000Y-84500000D03*
%TD*%
D18*
%TO.C,C32*%
X27275000Y-49500000D03*
X25725000Y-49500000D03*
%TD*%
D26*
%TO.C,C27*%
X63400000Y-79325000D03*
X63400000Y-80875000D03*
%TD*%
D13*
%TO.C,R20*%
X61600000Y-79275000D03*
X61600000Y-80925000D03*
%TD*%
D39*
%TO.C,U4*%
X57755000Y-65475000D03*
X58705000Y-65475000D03*
X59655000Y-65475000D03*
X59655000Y-62875000D03*
X57755000Y-62875000D03*
%TD*%
D13*
%TO.C,R12*%
X42300000Y-63975000D03*
X42300000Y-65625000D03*
%TD*%
D26*
%TO.C,C22*%
X61200000Y-74325000D03*
X61200000Y-75875000D03*
%TD*%
D17*
%TO.C,R1*%
X36337500Y-58925000D03*
X36337500Y-57275000D03*
%TD*%
D23*
%TO.C,REF\u002A\u002A*%
X57300000Y-45600000D03*
%TD*%
D40*
%TO.C,U2*%
X59400000Y-43650000D03*
X59400000Y-44700000D03*
X59400000Y-45750000D03*
X60450000Y-45750000D03*
X61500000Y-45750000D03*
X61500000Y-44700000D03*
X61500000Y-43650000D03*
X60450000Y-43650000D03*
X60450000Y-44700000D03*
%TD*%
D41*
%TO.C,S3*%
X57975000Y-82475000D03*
X61575000Y-82475000D03*
X57975000Y-83925000D03*
X61575000Y-83925000D03*
%TD*%
D17*
%TO.C,R17*%
X52000000Y-74325000D03*
X52000000Y-72675000D03*
%TD*%
D26*
%TO.C,C10*%
X31700000Y-79625000D03*
X31700000Y-81175000D03*
%TD*%
%TO.C,C21*%
X55000000Y-74325000D03*
X55000000Y-75875000D03*
%TD*%
D42*
%TO.C,Q1*%
X38462500Y-57150000D03*
X38462500Y-59050000D03*
X40337500Y-58100000D03*
%TD*%
D18*
%TO.C,C9*%
X32475000Y-75900000D03*
X30925000Y-75900000D03*
%TD*%
D17*
%TO.C,R22*%
X50200000Y-74325000D03*
X50200000Y-72675000D03*
%TD*%
D18*
%TO.C,C11*%
X32475000Y-77500000D03*
X30925000Y-77500000D03*
%TD*%
D17*
%TO.C,R9*%
X39800000Y-77825000D03*
X39800000Y-76175000D03*
%TD*%
M02*
