%TF.GenerationSoftware,KiCad,Pcbnew,9.0.1*%
%TF.CreationDate,2025-11-13T12:09:59-06:00*%
%TF.ProjectId,AirCube,41697243-7562-4652-9e6b-696361645f70,rev?*%
%TF.SameCoordinates,Original*%
%TF.FileFunction,Profile,NP*%
%FSLAX46Y46*%
G04 Gerber Fmt 4.6, Leading zero omitted, Abs format (unit mm)*
G04 Created by KiCad (PCBNEW 9.0.1) date 2025-11-13 12:09:59*
%MOMM*%
%LPD*%
G01*
G04 APERTURE LIST*
%TA.AperFunction,Profile*%
%ADD10C,0.100000*%
%TD*%
G04 APERTURE END LIST*
D10*
X61000000Y-51000000D02*
X67000000Y-51000000D01*
X25400000Y-48000000D02*
X25400000Y-50200000D01*
X32000000Y-48000000D02*
X25400000Y-48000000D01*
X61000000Y-42200000D02*
X61000000Y-51000000D01*
X69000000Y-45000000D02*
X69000000Y-82000000D01*
X67000000Y-53100000D02*
X58800000Y-53100000D01*
X67000000Y-51000000D02*
X67000000Y-53100000D01*
X34000000Y-42250000D02*
X32000000Y-42250000D01*
X65000000Y-41000000D02*
G75*
G02*
X69000000Y-45000000I0J-4000000D01*
G01*
X24000000Y-82000000D02*
X24000000Y-45000000D01*
X32000000Y-42250000D02*
X32000000Y-48000000D01*
X25400000Y-50200000D02*
X34000000Y-50200000D01*
X28000000Y-41000000D02*
X65000000Y-41000000D01*
X28000000Y-86000000D02*
G75*
G02*
X24000000Y-82000000I0J4000000D01*
G01*
X58800000Y-42200000D02*
X61000000Y-42200000D01*
X69000000Y-82000000D02*
G75*
G02*
X65000000Y-86000000I-4000000J0D01*
G01*
X58800000Y-53100000D02*
X58800000Y-42200000D01*
X24000000Y-45000000D02*
G75*
G02*
X28000000Y-41000000I4000000J0D01*
G01*
X65000000Y-86000000D02*
X28000000Y-86000000D01*
X34000000Y-50200000D02*
X34000000Y-42250000D01*
M02*
