%TF.GenerationSoftware,KiCad,Pcbnew,9.0.1*%
%TF.CreationDate,2025-11-13T12:09:59-06:00*%
%TF.ProjectId,AirCube,41697243-7562-4652-9e6b-696361645f70,rev?*%
%TF.SameCoordinates,Original*%
%TF.FileFunction,Soldermask,Top*%
%TF.FilePolarity,Negative*%
%FSLAX46Y46*%
G04 Gerber Fmt 4.6, Leading zero omitted, Abs format (unit mm)*
G04 Created by KiCad (PCBNEW 9.0.1) date 2025-11-13 12:09:59*
%MOMM*%
%LPD*%
G01*
G04 APERTURE LIST*
G04 Aperture macros list*
%AMRoundRect*
0 Rectangle with rounded corners*
0 $1 Rounding radius*
0 $2 $3 $4 $5 $6 $7 $8 $9 X,Y pos of 4 corners*
0 Add a 4 corners polygon primitive as box body*
4,1,4,$2,$3,$4,$5,$6,$7,$8,$9,$2,$3,0*
0 Add four circle primitives for the rounded corners*
1,1,$1+$1,$2,$3*
1,1,$1+$1,$4,$5*
1,1,$1+$1,$6,$7*
1,1,$1+$1,$8,$9*
0 Add four rect primitives between the rounded corners*
20,1,$1+$1,$2,$3,$4,$5,0*
20,1,$1+$1,$4,$5,$6,$7,0*
20,1,$1+$1,$6,$7,$8,$9,0*
20,1,$1+$1,$8,$9,$2,$3,0*%
G04 Aperture macros list end*
%ADD10C,0.010000*%
%ADD11C,0.000000*%
%ADD12RoundRect,0.200000X0.275000X-0.200000X0.275000X0.200000X-0.275000X0.200000X-0.275000X-0.200000X0*%
%ADD13RoundRect,0.225000X0.225000X0.250000X-0.225000X0.250000X-0.225000X-0.250000X0.225000X-0.250000X0*%
%ADD14RoundRect,0.102000X0.200000X-0.400000X0.200000X0.400000X-0.200000X0.400000X-0.200000X-0.400000X0*%
%ADD15RoundRect,0.102000X0.400000X-0.200000X0.400000X0.200000X-0.400000X0.200000X-0.400000X-0.200000X0*%
%ADD16RoundRect,0.102000X0.725000X-0.725000X0.725000X0.725000X-0.725000X0.725000X-0.725000X-0.725000X0*%
%ADD17RoundRect,0.102000X0.350000X-0.350000X0.350000X0.350000X-0.350000X0.350000X-0.350000X-0.350000X0*%
%ADD18C,1.500000*%
%ADD19R,0.558800X0.558800*%
%ADD20RoundRect,0.100000X0.200000X0.100000X-0.200000X0.100000X-0.200000X-0.100000X0.200000X-0.100000X0*%
%ADD21RoundRect,0.162500X0.162500X0.637500X-0.162500X0.637500X-0.162500X-0.637500X0.162500X-0.637500X0*%
%ADD22RoundRect,0.225000X-0.250000X0.225000X-0.250000X-0.225000X0.250000X-0.225000X0.250000X0.225000X0*%
%ADD23RoundRect,0.200000X-0.275000X0.200000X-0.275000X-0.200000X0.275000X-0.200000X0.275000X0.200000X0*%
%ADD24C,2.200000*%
%ADD25RoundRect,0.225000X-0.225000X-0.250000X0.225000X-0.250000X0.225000X0.250000X-0.225000X0.250000X0*%
%ADD26RoundRect,0.150000X-0.150000X0.587500X-0.150000X-0.587500X0.150000X-0.587500X0.150000X0.587500X0*%
%ADD27RoundRect,0.150000X-0.150000X-0.200000X0.150000X-0.200000X0.150000X0.200000X-0.150000X0.200000X0*%
%ADD28RoundRect,0.175000X-0.325000X0.175000X-0.325000X-0.175000X0.325000X-0.175000X0.325000X0.175000X0*%
%ADD29C,0.650000*%
%ADD30RoundRect,0.025400X-0.300000X-0.575000X0.300000X-0.575000X0.300000X0.575000X-0.300000X0.575000X0*%
%ADD31RoundRect,0.025400X-0.150000X-0.575000X0.150000X-0.575000X0.150000X0.575000X-0.150000X0.575000X0*%
%ADD32O,1.204000X2.304000*%
%ADD33RoundRect,0.301000X-0.301000X-0.701000X0.301000X-0.701000X0.301000X0.701000X-0.301000X0.701000X0*%
%ADD34R,0.812800X1.422400*%
%ADD35RoundRect,0.212500X0.212500X0.212500X-0.212500X0.212500X-0.212500X-0.212500X0.212500X-0.212500X0*%
%ADD36R,1.400000X1.050000*%
%ADD37RoundRect,0.150000X-0.587500X-0.150000X0.587500X-0.150000X0.587500X0.150000X-0.587500X0.150000X0*%
%ADD38R,1.500000X1.500000*%
G04 APERTURE END LIST*
D10*
%TO.C,U7*%
X34050000Y-70000000D02*
X33050000Y-70000000D01*
X32400000Y-69350000D01*
X32400000Y-68350000D01*
X34050000Y-68350000D01*
X34050000Y-70000000D01*
G36*
X34050000Y-70000000D02*
G01*
X33050000Y-70000000D01*
X32400000Y-69350000D01*
X32400000Y-68350000D01*
X34050000Y-68350000D01*
X34050000Y-70000000D01*
G37*
D11*
%TO.C,G\u002A\u002A\u002A*%
G36*
X62804666Y-69872475D02*
G01*
X62769034Y-69871770D01*
X62741777Y-69869775D01*
X62708459Y-69865356D01*
X62684643Y-69861102D01*
X62593158Y-69835034D01*
X62508784Y-69796017D01*
X62432413Y-69744754D01*
X62364932Y-69681946D01*
X62307232Y-69608296D01*
X62261251Y-69526741D01*
X62235493Y-69464578D01*
X62218607Y-69404056D01*
X62208896Y-69338476D01*
X62206811Y-69312070D01*
X62208122Y-69218639D01*
X62223703Y-69127946D01*
X62252883Y-69041382D01*
X62294990Y-68960336D01*
X62349353Y-68886198D01*
X62415299Y-68820359D01*
X62461915Y-68784171D01*
X62523754Y-68746814D01*
X62591666Y-68716366D01*
X62661463Y-68694266D01*
X62728953Y-68681957D01*
X62765284Y-68679871D01*
X62804666Y-68679740D01*
X62804666Y-69872475D01*
G37*
G36*
X66122194Y-68679793D02*
G01*
X66158240Y-68682672D01*
X66202430Y-68690374D01*
X66249202Y-68701612D01*
X66292996Y-68715103D01*
X66319108Y-68725289D01*
X66358589Y-68745303D01*
X66402847Y-68771861D01*
X66446024Y-68801175D01*
X66482260Y-68829456D01*
X66487991Y-68834503D01*
X66547102Y-68897690D01*
X66596489Y-68970579D01*
X66635269Y-69050748D01*
X66662556Y-69135778D01*
X66677468Y-69223248D01*
X66679121Y-69310736D01*
X66675499Y-69348023D01*
X66655814Y-69440926D01*
X66623122Y-69527674D01*
X66578417Y-69607192D01*
X66522694Y-69678407D01*
X66456946Y-69740246D01*
X66382168Y-69791635D01*
X66299353Y-69831500D01*
X66209497Y-69858769D01*
X66200804Y-69860629D01*
X66168401Y-69866495D01*
X66137360Y-69870732D01*
X66114115Y-69872469D01*
X66113134Y-69872475D01*
X66082812Y-69872475D01*
X66082812Y-68679740D01*
X66122194Y-68679793D01*
G37*
G36*
X64443739Y-68788985D02*
G01*
X64487013Y-68789390D01*
X64519083Y-68790555D01*
X64543747Y-68792989D01*
X64564804Y-68797200D01*
X64586050Y-68803696D01*
X64604863Y-68810550D01*
X64681955Y-68847091D01*
X64751464Y-68895043D01*
X64811911Y-68952850D01*
X64861811Y-69018953D01*
X64899683Y-69091795D01*
X64915794Y-69137330D01*
X64929601Y-69206678D01*
X64932964Y-69281704D01*
X64926195Y-69357627D01*
X64909606Y-69429665D01*
X64893993Y-69471491D01*
X64853380Y-69545557D01*
X64801966Y-69610309D01*
X64741293Y-69664963D01*
X64672902Y-69708734D01*
X64598336Y-69740839D01*
X64519134Y-69760493D01*
X64436839Y-69766914D01*
X64352991Y-69759317D01*
X64334968Y-69755789D01*
X64261879Y-69732739D01*
X64191938Y-69696627D01*
X64127248Y-69649361D01*
X64069912Y-69592846D01*
X64022035Y-69528988D01*
X63985719Y-69459692D01*
X63974265Y-69428956D01*
X63966536Y-69403274D01*
X63961343Y-69379402D01*
X63958219Y-69353251D01*
X63956695Y-69320728D01*
X63956300Y-69277743D01*
X63956305Y-69272357D01*
X63956670Y-69229280D01*
X63957945Y-69197229D01*
X63960642Y-69172234D01*
X63965271Y-69150322D01*
X63972343Y-69127522D01*
X63976403Y-69116067D01*
X64005601Y-69048392D01*
X64041790Y-68989912D01*
X64088376Y-68935254D01*
X64095577Y-68927945D01*
X64149816Y-68879954D01*
X64207171Y-68842651D01*
X64272998Y-68812640D01*
X64283698Y-68808643D01*
X64307362Y-68800481D01*
X64328196Y-68794898D01*
X64349984Y-68791429D01*
X64376511Y-68789609D01*
X64411561Y-68788972D01*
X64443739Y-68788985D01*
G37*
G36*
X64475381Y-67247987D02*
G01*
X64556061Y-67251393D01*
X64631936Y-67258001D01*
X64698366Y-67267698D01*
X64706291Y-67269224D01*
X64846729Y-67304631D01*
X64981536Y-67353454D01*
X65109844Y-67415035D01*
X65230783Y-67488715D01*
X65343483Y-67573835D01*
X65447076Y-67669737D01*
X65540693Y-67775762D01*
X65623464Y-67891252D01*
X65694520Y-68015547D01*
X65696555Y-68019592D01*
X65745524Y-68126985D01*
X65783228Y-68232055D01*
X65801256Y-68296176D01*
X65808421Y-68324475D01*
X65814749Y-68350110D01*
X65820297Y-68374165D01*
X65825121Y-68397725D01*
X65829278Y-68421874D01*
X65832825Y-68447696D01*
X65835819Y-68476276D01*
X65838317Y-68508698D01*
X65840375Y-68546047D01*
X65842050Y-68589406D01*
X65843399Y-68639860D01*
X65844479Y-68698494D01*
X65845346Y-68766391D01*
X65846058Y-68844636D01*
X65846670Y-68934314D01*
X65847241Y-69036509D01*
X65847826Y-69152304D01*
X65848008Y-69188914D01*
X65848638Y-69326421D01*
X65849042Y-69449932D01*
X65849159Y-69560453D01*
X65848926Y-69658992D01*
X65848283Y-69746554D01*
X65847166Y-69824146D01*
X65845514Y-69892774D01*
X65843266Y-69953444D01*
X65840360Y-70007163D01*
X65836734Y-70054938D01*
X65832325Y-70097773D01*
X65827073Y-70136677D01*
X65820916Y-70172655D01*
X65813791Y-70206714D01*
X65805638Y-70239859D01*
X65796393Y-70273098D01*
X65785996Y-70307436D01*
X65777730Y-70333504D01*
X65729257Y-70460725D01*
X65667369Y-70583879D01*
X65593306Y-70701387D01*
X65508312Y-70811670D01*
X65413629Y-70913148D01*
X65310501Y-71004241D01*
X65200169Y-71083369D01*
X65175953Y-71098469D01*
X65130845Y-71125870D01*
X65160791Y-71164929D01*
X65188621Y-71206414D01*
X65216719Y-71257301D01*
X65242516Y-71312260D01*
X65263444Y-71365958D01*
X65273581Y-71399026D01*
X65284335Y-71455778D01*
X65289907Y-71520916D01*
X65290225Y-71588716D01*
X65285216Y-71653457D01*
X65277354Y-71699085D01*
X65258546Y-71764901D01*
X65232332Y-71834147D01*
X65201665Y-71899397D01*
X65187636Y-71924730D01*
X65165947Y-71960431D01*
X65142587Y-71996033D01*
X65116404Y-72032985D01*
X65086251Y-72072738D01*
X65050977Y-72116743D01*
X65009432Y-72166450D01*
X64960466Y-72223309D01*
X64902931Y-72288771D01*
X64867002Y-72329209D01*
X64798171Y-72407419D01*
X64739053Y-72476875D01*
X64688487Y-72539159D01*
X64645314Y-72595857D01*
X64608375Y-72648553D01*
X64576511Y-72698833D01*
X64548564Y-72748279D01*
X64523373Y-72798478D01*
X64522728Y-72799842D01*
X64486667Y-72876220D01*
X64463302Y-72839377D01*
X64439602Y-72798904D01*
X64423357Y-72762192D01*
X64413313Y-72724576D01*
X64408216Y-72681390D01*
X64406812Y-72629268D01*
X64408209Y-72576894D01*
X64413290Y-72532586D01*
X64423307Y-72492035D01*
X64439509Y-72450935D01*
X64463147Y-72404975D01*
X64480863Y-72374218D01*
X64514350Y-72312005D01*
X64536728Y-72256384D01*
X64548664Y-72204653D01*
X64550827Y-72154110D01*
X64545777Y-72111666D01*
X64526215Y-72044912D01*
X64493880Y-71983352D01*
X64450474Y-71929259D01*
X64397698Y-71884905D01*
X64359047Y-71862311D01*
X64330157Y-71848597D01*
X64307702Y-71840232D01*
X64285879Y-71835905D01*
X64258886Y-71834307D01*
X64234087Y-71834111D01*
X64197860Y-71834835D01*
X64171609Y-71837576D01*
X64150352Y-71843190D01*
X64130327Y-71851922D01*
X64086012Y-71879645D01*
X64045504Y-71915547D01*
X64013129Y-71955453D01*
X64000507Y-71977285D01*
X63983720Y-72026808D01*
X63976966Y-72083370D01*
X63980073Y-72143016D01*
X63992866Y-72201789D01*
X64012486Y-72250603D01*
X64020018Y-72268433D01*
X64021447Y-72279060D01*
X64019719Y-72280449D01*
X64007677Y-72275915D01*
X63986864Y-72263600D01*
X63959942Y-72245434D01*
X63929577Y-72223348D01*
X63898432Y-72199271D01*
X63869173Y-72175134D01*
X63847136Y-72155411D01*
X63774519Y-72076935D01*
X63713983Y-71990494D01*
X63666035Y-71897450D01*
X63631184Y-71799161D01*
X63609937Y-71696988D01*
X63602802Y-71592289D01*
X63607038Y-71512738D01*
X63622679Y-71412280D01*
X63647658Y-71321702D01*
X63682803Y-71238527D01*
X63721235Y-71171882D01*
X63735551Y-71149089D01*
X63745458Y-71131745D01*
X63749141Y-71123064D01*
X63749004Y-71122670D01*
X63741597Y-71117934D01*
X63725104Y-71107633D01*
X63704844Y-71095079D01*
X63586278Y-71013189D01*
X63477754Y-70920565D01*
X63379828Y-70818097D01*
X63293054Y-70706674D01*
X63217989Y-70587188D01*
X63155188Y-70460527D01*
X63105207Y-70327581D01*
X63068601Y-70189239D01*
X63045926Y-70046393D01*
X63045111Y-70038588D01*
X63043726Y-70017082D01*
X63042471Y-69982008D01*
X63041348Y-69934719D01*
X63040357Y-69876563D01*
X63039496Y-69808891D01*
X63038767Y-69733054D01*
X63038169Y-69650402D01*
X63037702Y-69562285D01*
X63037367Y-69470054D01*
X63037162Y-69375059D01*
X63037089Y-69278651D01*
X63037146Y-69182179D01*
X63037335Y-69086994D01*
X63037654Y-68994447D01*
X63037903Y-68945529D01*
X63645339Y-68945529D01*
X63645432Y-69039180D01*
X63645698Y-69145447D01*
X63646093Y-69265325D01*
X63646278Y-69317366D01*
X63648786Y-70018754D01*
X63669284Y-70093769D01*
X63705429Y-70199310D01*
X63753710Y-70297162D01*
X63813325Y-70386442D01*
X63883473Y-70466267D01*
X63963354Y-70535755D01*
X64052166Y-70594025D01*
X64149109Y-70640194D01*
X64173862Y-70649506D01*
X64277472Y-70679125D01*
X64382744Y-70694870D01*
X64487637Y-70696554D01*
X64575908Y-70686627D01*
X64681140Y-70660678D01*
X64781386Y-70620860D01*
X64875359Y-70567844D01*
X64961771Y-70502300D01*
X65002442Y-70464340D01*
X65075526Y-70380988D01*
X65135613Y-70290319D01*
X65182396Y-70192972D01*
X65215566Y-70089589D01*
X65234627Y-69982489D01*
X65236098Y-69961383D01*
X65237422Y-69926693D01*
X65238601Y-69879836D01*
X65239634Y-69822231D01*
X65240521Y-69755294D01*
X65241262Y-69680444D01*
X65241857Y-69599098D01*
X65242307Y-69512675D01*
X65242610Y-69422591D01*
X65242768Y-69330266D01*
X65242780Y-69237115D01*
X65242646Y-69144559D01*
X65242366Y-69054013D01*
X65241941Y-68966896D01*
X65241369Y-68884626D01*
X65240652Y-68808620D01*
X65239788Y-68740297D01*
X65238779Y-68681073D01*
X65237624Y-68632368D01*
X65236324Y-68595598D01*
X65234877Y-68572181D01*
X65234627Y-68569726D01*
X65215576Y-68462726D01*
X65183503Y-68361526D01*
X65139367Y-68266996D01*
X65084122Y-68180001D01*
X65018726Y-68101412D01*
X64944136Y-68032094D01*
X64861307Y-67972916D01*
X64771196Y-67924745D01*
X64674759Y-67888450D01*
X64572953Y-67864897D01*
X64466735Y-67854955D01*
X64446443Y-67854676D01*
X64335442Y-67861410D01*
X64230375Y-67881915D01*
X64131062Y-67916264D01*
X64037323Y-67964529D01*
X63948978Y-68026781D01*
X63895189Y-68073991D01*
X63823911Y-68149996D01*
X63765777Y-68230827D01*
X63719078Y-68319176D01*
X63687104Y-68402186D01*
X63680109Y-68423631D01*
X63673909Y-68443770D01*
X63668459Y-68463598D01*
X63663716Y-68484108D01*
X63659633Y-68506295D01*
X63656168Y-68531154D01*
X63653275Y-68559678D01*
X63650911Y-68592863D01*
X63649031Y-68631703D01*
X63647591Y-68677192D01*
X63646546Y-68730325D01*
X63645852Y-68792095D01*
X63645464Y-68863499D01*
X63645339Y-68945529D01*
X63037903Y-68945529D01*
X63038105Y-68905887D01*
X63038686Y-68822666D01*
X63039398Y-68746133D01*
X63040241Y-68677639D01*
X63041215Y-68618535D01*
X63042320Y-68570169D01*
X63043555Y-68533894D01*
X63044921Y-68511059D01*
X63045147Y-68508786D01*
X63067208Y-68366779D01*
X63101854Y-68232005D01*
X63149539Y-68102869D01*
X63179174Y-68038364D01*
X63249939Y-67910688D01*
X63331996Y-67792388D01*
X63424565Y-67684034D01*
X63526862Y-67586195D01*
X63638107Y-67499441D01*
X63757515Y-67424340D01*
X63884306Y-67361463D01*
X64017698Y-67311378D01*
X64156907Y-67274656D01*
X64250918Y-67258111D01*
X64318168Y-67251233D01*
X64394536Y-67247896D01*
X64475381Y-67247987D01*
G37*
%TD*%
D12*
%TO.C,R10*%
X38200000Y-77825000D03*
X38200000Y-76175000D03*
%TD*%
D13*
%TO.C,C15*%
X64800000Y-47900000D03*
X63250000Y-47900000D03*
%TD*%
D14*
%TO.C,U7*%
X31200000Y-73100000D03*
X32000000Y-73100000D03*
X32800000Y-73100000D03*
X33600000Y-73100000D03*
X34400000Y-73100000D03*
X35200000Y-73100000D03*
X36000000Y-73100000D03*
X36800000Y-73100000D03*
X37600000Y-73100000D03*
X38400000Y-73100000D03*
X39200000Y-73100000D03*
D15*
X40100000Y-72000000D03*
X40100000Y-71200000D03*
X40100000Y-70400000D03*
X40100000Y-69600000D03*
X40100000Y-68800000D03*
X40100000Y-68000000D03*
X40100000Y-67200000D03*
X40100000Y-66400000D03*
X40100000Y-65600000D03*
X40100000Y-64800000D03*
X40100000Y-64000000D03*
X40100000Y-63200000D03*
X40100000Y-62400000D03*
D14*
X39200000Y-61300000D03*
X38400000Y-61300000D03*
X37600000Y-61300000D03*
X36800000Y-61300000D03*
X36000000Y-61300000D03*
X35200000Y-61300000D03*
X34400000Y-61300000D03*
X33600000Y-61300000D03*
X32800000Y-61300000D03*
X32000000Y-61300000D03*
X31200000Y-61300000D03*
D15*
X30300000Y-62400000D03*
X30300000Y-63200000D03*
X30300000Y-64000000D03*
X30300000Y-64800000D03*
X30300000Y-65600000D03*
X30300000Y-66400000D03*
X30300000Y-67200000D03*
X30300000Y-68000000D03*
X30300000Y-68800000D03*
X30300000Y-69600000D03*
X30300000Y-70400000D03*
X30300000Y-71200000D03*
X30300000Y-72000000D03*
D16*
X35200000Y-69175000D03*
X37175000Y-69175000D03*
X33225000Y-67200000D03*
X35200000Y-67200000D03*
X37175000Y-67200000D03*
X33225000Y-65225000D03*
X35200000Y-65225000D03*
X37175000Y-65225000D03*
D17*
X30250000Y-61250000D03*
X40150000Y-61250000D03*
X40150000Y-73150000D03*
X30250000Y-73150000D03*
%TD*%
D18*
%TO.C,REF\u002A\u002A*%
X66500000Y-84000000D03*
%TD*%
D19*
%TO.C,LED1*%
X44525000Y-62050040D03*
X44525000Y-63000000D03*
X45475000Y-63000000D03*
X45475000Y-62050040D03*
%TD*%
D20*
%TO.C,U10*%
X28000000Y-45000000D03*
X28000000Y-44250000D03*
X26400000Y-44250000D03*
X26400000Y-45000000D03*
D21*
X27200000Y-44625000D03*
%TD*%
D12*
%TO.C,R18*%
X46900000Y-74325000D03*
X46900000Y-72675000D03*
%TD*%
D13*
%TO.C,C14*%
X64800000Y-49500000D03*
X63250000Y-49500000D03*
%TD*%
D22*
%TO.C,C24*%
X51500000Y-64625000D03*
X51500000Y-66175000D03*
%TD*%
D23*
%TO.C,R5*%
X44325000Y-57975000D03*
X44325000Y-59625000D03*
%TD*%
%TO.C,R19*%
X65200000Y-80175000D03*
X65200000Y-81825000D03*
%TD*%
D24*
%TO.C,REF\u002A\u002A*%
X46500000Y-45000000D03*
%TD*%
D23*
%TO.C,R11*%
X35300000Y-76175000D03*
X35300000Y-77825000D03*
%TD*%
D22*
%TO.C,C13*%
X42300000Y-69625000D03*
X42300000Y-71175000D03*
%TD*%
D25*
%TO.C,C23*%
X57675000Y-62062500D03*
X59225000Y-62062500D03*
%TD*%
D26*
%TO.C,U5*%
X59350000Y-64062500D03*
X57450000Y-64062500D03*
X58400000Y-65937500D03*
%TD*%
D27*
%TO.C,D5*%
X45200000Y-75900000D03*
X43800000Y-75900000D03*
%TD*%
D22*
%TO.C,C17*%
X48050000Y-64599980D03*
X48050000Y-66149980D03*
%TD*%
D23*
%TO.C,R21*%
X48600000Y-72675000D03*
X48600000Y-74325000D03*
%TD*%
D28*
%TO.C,U6*%
X56800000Y-74200000D03*
X56800000Y-75150000D03*
X56800000Y-76100000D03*
X59400000Y-76100000D03*
X59400000Y-74200000D03*
%TD*%
D22*
%TO.C,C12*%
X35300000Y-79425000D03*
X35300000Y-80975000D03*
%TD*%
D29*
%TO.C,P1*%
X46307500Y-81120000D03*
X52087500Y-81120000D03*
D30*
X45997500Y-80045000D03*
X46797500Y-80045000D03*
D31*
X47947500Y-80045000D03*
X48947500Y-80045000D03*
X49447500Y-80045000D03*
X50447500Y-80045000D03*
D30*
X51597500Y-80045000D03*
X52397500Y-80045000D03*
D31*
X50947500Y-80045000D03*
X49947500Y-80045000D03*
X48447500Y-80045000D03*
X47447500Y-80045000D03*
D32*
X44877500Y-80620000D03*
X53517500Y-80620000D03*
D33*
X44877500Y-84800000D03*
X53517500Y-84800000D03*
%TD*%
D24*
%TO.C,REF\u002A\u002A*%
X28000000Y-82000000D03*
%TD*%
D25*
%TO.C,C5*%
X58425000Y-67962500D03*
X59975000Y-67962500D03*
%TD*%
D24*
%TO.C,REF\u002A\u002A*%
X65000000Y-63500000D03*
%TD*%
D23*
%TO.C,R4*%
X42700000Y-57975000D03*
X42700000Y-59625000D03*
%TD*%
%TO.C,R16*%
X42797500Y-79112500D03*
X42797500Y-80762500D03*
%TD*%
D22*
%TO.C,C16*%
X44500000Y-64599980D03*
X44500000Y-66149980D03*
%TD*%
D18*
%TO.C,REF\u002A\u002A*%
X32000000Y-84500000D03*
%TD*%
D34*
%TO.C,S2*%
X31075000Y-58200200D03*
X32725000Y-58200200D03*
X32725000Y-54999800D03*
X31075000Y-54999800D03*
%TD*%
D22*
%TO.C,C32*%
X29590000Y-44995000D03*
X29590000Y-46545000D03*
%TD*%
%TO.C,C27*%
X63400000Y-80225000D03*
X63400000Y-81775000D03*
%TD*%
D23*
%TO.C,R20*%
X61600000Y-80175000D03*
X61600000Y-81825000D03*
%TD*%
%TO.C,R12*%
X42300000Y-63975000D03*
X42300000Y-65625000D03*
%TD*%
D22*
%TO.C,C22*%
X61200000Y-74325000D03*
X61200000Y-75875000D03*
%TD*%
D12*
%TO.C,R1*%
X40300000Y-55950000D03*
X40300000Y-54300000D03*
%TD*%
D18*
%TO.C,REF\u002A\u002A*%
X66000000Y-42500000D03*
%TD*%
D35*
%TO.C,U2*%
X63500000Y-44150000D03*
X63500000Y-45200000D03*
X63500000Y-46250000D03*
X64550000Y-46250000D03*
X65600000Y-46250000D03*
X65600000Y-45200000D03*
X65600000Y-44150000D03*
X64550000Y-44150000D03*
X64550000Y-45200000D03*
%TD*%
D36*
%TO.C,S3*%
X57975000Y-83775000D03*
X61575000Y-83775000D03*
X57975000Y-85225000D03*
X61575000Y-85225000D03*
%TD*%
D12*
%TO.C,R17*%
X52000000Y-74325000D03*
X52000000Y-72675000D03*
%TD*%
D22*
%TO.C,C10*%
X33600000Y-79425000D03*
X33600000Y-80975000D03*
%TD*%
%TO.C,C21*%
X55000000Y-74325000D03*
X55000000Y-75875000D03*
%TD*%
D37*
%TO.C,Q1*%
X42425000Y-54175000D03*
X42425000Y-56075000D03*
X44300000Y-55125000D03*
%TD*%
D13*
%TO.C,C9*%
X32475000Y-75900000D03*
X30925000Y-75900000D03*
%TD*%
D19*
%TO.C,LED2*%
X48050000Y-62025020D03*
X48050000Y-62974980D03*
X49000000Y-62974980D03*
X49000000Y-62025020D03*
%TD*%
D38*
%TO.C,TP2*%
X38200000Y-82000000D03*
%TD*%
D19*
%TO.C,LED3*%
X51525000Y-62000000D03*
X51525000Y-62949960D03*
X52475000Y-62949960D03*
X52475000Y-62000000D03*
%TD*%
D12*
%TO.C,R22*%
X50200000Y-74325000D03*
X50200000Y-72675000D03*
%TD*%
D13*
%TO.C,C11*%
X32475000Y-77500000D03*
X30925000Y-77500000D03*
%TD*%
D12*
%TO.C,R9*%
X39800000Y-77825000D03*
X39800000Y-76175000D03*
%TD*%
M02*
