%TF.GenerationSoftware,KiCad,Pcbnew,9.0.1*%
%TF.CreationDate,2025-11-13T12:09:59-06:00*%
%TF.ProjectId,AirCube,41697243-7562-4652-9e6b-696361645f70,rev?*%
%TF.SameCoordinates,Original*%
%TF.FileFunction,Copper,L2,Bot*%
%TF.FilePolarity,Positive*%
%FSLAX46Y46*%
G04 Gerber Fmt 4.6, Leading zero omitted, Abs format (unit mm)*
G04 Created by KiCad (PCBNEW 9.0.1) date 2025-11-13 12:09:59*
%MOMM*%
%LPD*%
G01*
G04 APERTURE LIST*
G04 Aperture macros list*
%AMRoundRect*
0 Rectangle with rounded corners*
0 $1 Rounding radius*
0 $2 $3 $4 $5 $6 $7 $8 $9 X,Y pos of 4 corners*
0 Add a 4 corners polygon primitive as box body*
4,1,4,$2,$3,$4,$5,$6,$7,$8,$9,$2,$3,0*
0 Add four circle primitives for the rounded corners*
1,1,$1+$1,$2,$3*
1,1,$1+$1,$4,$5*
1,1,$1+$1,$6,$7*
1,1,$1+$1,$8,$9*
0 Add four rect primitives between the rounded corners*
20,1,$1+$1,$2,$3,$4,$5,0*
20,1,$1+$1,$4,$5,$6,$7,0*
20,1,$1+$1,$6,$7,$8,$9,0*
20,1,$1+$1,$8,$9,$2,$3,0*%
G04 Aperture macros list end*
%TA.AperFunction,ComponentPad*%
%ADD10C,0.508000*%
%TD*%
%TA.AperFunction,ComponentPad*%
%ADD11O,1.000000X2.100000*%
%TD*%
%TA.AperFunction,ComponentPad*%
%ADD12RoundRect,0.250000X-0.250000X-0.650000X0.250000X-0.650000X0.250000X0.650000X-0.250000X0.650000X0*%
%TD*%
%TA.AperFunction,ViaPad*%
%ADD13C,0.508000*%
%TD*%
%TA.AperFunction,Conductor*%
%ADD14C,0.152400*%
%TD*%
%TA.AperFunction,Conductor*%
%ADD15C,0.203200*%
%TD*%
%TA.AperFunction,Conductor*%
%ADD16C,0.304800*%
%TD*%
%TA.AperFunction,Conductor*%
%ADD17C,0.508000*%
%TD*%
%TA.AperFunction,Conductor*%
%ADD18C,0.457200*%
%TD*%
G04 APERTURE END LIST*
D10*
%TO.P,U7,49,EPAD*%
%TO.N,GND*%
X34212500Y-69175000D03*
X36187500Y-69175000D03*
X33225000Y-68187500D03*
X35200000Y-68187500D03*
X37175000Y-68187500D03*
X34212500Y-67200000D03*
X36187500Y-67200000D03*
X33225000Y-66212500D03*
X35200000Y-66212500D03*
X37175000Y-66212500D03*
X34212500Y-65225000D03*
X36187500Y-65225000D03*
%TD*%
D11*
%TO.P,P1,S1,SHIELD*%
%TO.N,Net-(P1-SHIELD)*%
X44877500Y-80620000D03*
%TO.P,P1,SH2*%
%TO.N,N/C*%
X53517500Y-80620000D03*
D12*
%TO.P,P1,SH3*%
X44877500Y-84800000D03*
%TO.P,P1,SH4*%
X53517500Y-84800000D03*
%TD*%
D13*
%TO.N,GND*%
X57600000Y-77350000D03*
X56700000Y-72700000D03*
X51700000Y-67600000D03*
X30200000Y-74500000D03*
X30300000Y-59900000D03*
X35300000Y-82400000D03*
X64500000Y-42800000D03*
X45800000Y-60700000D03*
X52400000Y-60600000D03*
X60000000Y-75250000D03*
X61800000Y-77300000D03*
X55800000Y-75150000D03*
X45200000Y-77200000D03*
X53200000Y-77300000D03*
X30900000Y-78900000D03*
X44500000Y-67600000D03*
X66500000Y-81800000D03*
X40200000Y-60000000D03*
X56200000Y-62200000D03*
X59500000Y-77350000D03*
X49200000Y-60600000D03*
X59450000Y-72800000D03*
X67140000Y-60920000D03*
X60700000Y-66200000D03*
X53300000Y-72600000D03*
X61600000Y-68000000D03*
X42800000Y-82100000D03*
X60600000Y-62000000D03*
X55000000Y-77300000D03*
X43800000Y-77200000D03*
X62090000Y-49490000D03*
X56100000Y-66150000D03*
X47800000Y-67700000D03*
%TO.N,+3V3*%
X40300000Y-52900000D03*
X61200000Y-73000000D03*
X33900000Y-76200000D03*
X54800000Y-69300000D03*
X63200000Y-85200000D03*
X41900000Y-76200000D03*
%TO.N,+5VD*%
X53800000Y-71300000D03*
X53000000Y-64500000D03*
%TO.N,Net-(U7-IO11)*%
X61600000Y-79000000D03*
X41100000Y-64800000D03*
%TO.N,/USB_D-*%
X50200000Y-71600000D03*
X38400000Y-62292000D03*
%TO.N,/USB_D+*%
X37600000Y-62800000D03*
X48600000Y-71600000D03*
%TO.N,/SDA*%
X26400000Y-43200000D03*
X33200000Y-71192000D03*
%TO.N,/SCL*%
X28000000Y-43200000D03*
X32300000Y-71700000D03*
%TO.N,Net-(U7-IO9)*%
X32700000Y-59700000D03*
X38400000Y-63400000D03*
%TD*%
D14*
%TO.N,/SCL*%
X31500000Y-52900000D02*
X31500000Y-70900000D01*
X31456600Y-52856600D02*
X31500000Y-52900000D01*
X25543400Y-51143400D02*
X29747708Y-51143400D01*
X24805800Y-50405800D02*
X25543400Y-51143400D01*
X24805800Y-45298508D02*
X24805800Y-50405800D01*
X26204308Y-43900000D02*
X24805800Y-45298508D01*
X27300000Y-43900000D02*
X26204308Y-43900000D01*
X28000000Y-43200000D02*
X27300000Y-43900000D01*
X31500000Y-70900000D02*
X32300000Y-71700000D01*
X31456600Y-52852292D02*
X31456600Y-52856600D01*
X29747708Y-51143400D02*
X31456600Y-52852292D01*
%TO.N,/SDA*%
X24500000Y-45100000D02*
X26400000Y-43200000D01*
X24500000Y-50625000D02*
X24500000Y-45100000D01*
X25375000Y-51500000D02*
X24500000Y-50625000D01*
X32009000Y-72209000D02*
X31100000Y-71300000D01*
X31100000Y-71300000D02*
X31100000Y-53000000D01*
X31100000Y-53000000D02*
X29600000Y-51500000D01*
X33200000Y-71900000D02*
X32891000Y-72209000D01*
X32891000Y-72209000D02*
X32009000Y-72209000D01*
X33200000Y-71192000D02*
X33200000Y-71900000D01*
X29600000Y-51500000D02*
X25375000Y-51500000D01*
D15*
%TO.N,GND*%
X64500000Y-42800000D02*
X63230000Y-42800000D01*
D14*
X68180000Y-50430000D02*
X68180000Y-56300000D01*
X68180000Y-56300000D02*
X67160000Y-57320000D01*
X60600000Y-59600000D02*
X60600000Y-62000000D01*
X62090000Y-49490000D02*
X67240000Y-49490000D01*
D15*
X63230000Y-42800000D02*
X62090000Y-43940000D01*
X62090000Y-43940000D02*
X62090000Y-49490000D01*
D14*
X62880000Y-57320000D02*
X60600000Y-59600000D01*
X67160000Y-57320000D02*
X62880000Y-57320000D01*
X67240000Y-49490000D02*
X68180000Y-50430000D01*
D16*
%TO.N,+3V3*%
X54800000Y-55700000D02*
X54800000Y-69300000D01*
D15*
X62300000Y-73000000D02*
X61200000Y-73000000D01*
X62800000Y-73500000D02*
X62300000Y-73000000D01*
D16*
X52000000Y-52900000D02*
X54800000Y-55700000D01*
D15*
X62800000Y-84800000D02*
X62800000Y-73500000D01*
D17*
X41900000Y-76200000D02*
X33900000Y-76200000D01*
D16*
X40300000Y-52900000D02*
X52000000Y-52900000D01*
D15*
X63200000Y-85200000D02*
X62800000Y-84800000D01*
D18*
%TO.N,+5VD*%
X53100000Y-64500000D02*
X53000000Y-64500000D01*
X53800000Y-65200000D02*
X53100000Y-64500000D01*
X53800000Y-71300000D02*
X53800000Y-65200000D01*
D15*
%TO.N,Net-(U7-IO11)*%
X46800000Y-67000000D02*
X46800000Y-71500000D01*
X46800000Y-73600000D02*
X48600000Y-75400000D01*
X61600000Y-78300000D02*
X61600000Y-79000000D01*
X48600000Y-75400000D02*
X49500000Y-76300000D01*
X46100000Y-66300000D02*
X46800000Y-67000000D01*
X46800000Y-71500000D02*
X46800000Y-73600000D01*
X44600000Y-64800000D02*
X46100000Y-66300000D01*
X41100000Y-64800000D02*
X44600000Y-64800000D01*
X56800000Y-76300000D02*
X59600000Y-76300000D01*
X49500000Y-76300000D02*
X56800000Y-76300000D01*
X61500000Y-78200000D02*
X61600000Y-78300000D01*
X59600000Y-76300000D02*
X61500000Y-78200000D01*
%TO.N,/USB_D-*%
X45800000Y-63600000D02*
X49100000Y-66900000D01*
X38400000Y-62292000D02*
X44492000Y-62292000D01*
X49100000Y-66900000D02*
X49100000Y-70200000D01*
X49100000Y-70200000D02*
X49100000Y-70500000D01*
X49100000Y-70500000D02*
X50200000Y-71600000D01*
X44492000Y-62292000D02*
X45800000Y-63600000D01*
%TO.N,/USB_D+*%
X46100000Y-64500000D02*
X44400000Y-62800000D01*
X48600000Y-67000000D02*
X46100000Y-64500000D01*
X44400000Y-62800000D02*
X37600000Y-62800000D01*
X48600000Y-71600000D02*
X48600000Y-67000000D01*
%TO.N,Net-(U7-IO9)*%
X34000000Y-63400000D02*
X32700000Y-62100000D01*
X32700000Y-62100000D02*
X32700000Y-59700000D01*
X38400000Y-63400000D02*
X34000000Y-63400000D01*
%TD*%
%TA.AperFunction,Conductor*%
%TO.N,GND*%
G36*
X30778631Y-60019213D02*
G01*
X30815176Y-60069513D01*
X30820100Y-60100600D01*
X30820100Y-71263150D01*
X30820100Y-71336850D01*
X30839175Y-71408037D01*
X30876024Y-71471862D01*
X31837138Y-72432976D01*
X31900962Y-72469825D01*
X31972150Y-72488900D01*
X31972152Y-72488900D01*
X32927850Y-72488900D01*
X32999037Y-72469825D01*
X33062862Y-72432976D01*
X33423976Y-72071862D01*
X33460825Y-72008037D01*
X33479900Y-71936850D01*
X33479900Y-71863150D01*
X33479900Y-71601054D01*
X33499113Y-71541923D01*
X33509359Y-71529925D01*
X33566251Y-71473034D01*
X33626508Y-71368665D01*
X33657700Y-71252257D01*
X33657700Y-71131743D01*
X33626508Y-71015335D01*
X33606066Y-70979929D01*
X33566252Y-70910968D01*
X33566251Y-70910966D01*
X33481034Y-70825749D01*
X33459865Y-70813527D01*
X33376668Y-70765493D01*
X33376665Y-70765492D01*
X33345478Y-70757135D01*
X33260259Y-70734300D01*
X33260257Y-70734300D01*
X33139743Y-70734300D01*
X33139740Y-70734300D01*
X33023331Y-70765493D01*
X32918968Y-70825747D01*
X32918967Y-70825748D01*
X32918966Y-70825749D01*
X32833749Y-70910966D01*
X32833748Y-70910967D01*
X32833747Y-70910968D01*
X32773493Y-71015331D01*
X32742300Y-71131740D01*
X32742300Y-71253496D01*
X32723087Y-71312627D01*
X32672787Y-71349172D01*
X32610613Y-71349172D01*
X32586934Y-71336715D01*
X32586744Y-71337046D01*
X32581034Y-71333749D01*
X32544449Y-71312627D01*
X32476668Y-71273493D01*
X32476665Y-71273492D01*
X32438069Y-71263150D01*
X32360259Y-71242300D01*
X32360257Y-71242300D01*
X32279808Y-71242300D01*
X32220677Y-71223087D01*
X32208673Y-71212835D01*
X31809365Y-70813527D01*
X31781139Y-70758129D01*
X31779900Y-70742392D01*
X31779900Y-69562285D01*
X33968897Y-69562285D01*
X34036024Y-69601041D01*
X34152305Y-69632199D01*
X34152308Y-69632200D01*
X34272692Y-69632200D01*
X34272694Y-69632199D01*
X34388973Y-69601041D01*
X34456098Y-69562285D01*
X35943897Y-69562285D01*
X36011024Y-69601041D01*
X36127305Y-69632199D01*
X36127308Y-69632200D01*
X36247692Y-69632200D01*
X36247694Y-69632199D01*
X36363973Y-69601041D01*
X36431100Y-69562284D01*
X36187500Y-69318684D01*
X35943897Y-69562285D01*
X34456098Y-69562285D01*
X34456100Y-69562284D01*
X34212500Y-69318684D01*
X33968897Y-69562285D01*
X31779900Y-69562285D01*
X31779900Y-69114804D01*
X33755300Y-69114804D01*
X33755300Y-69235194D01*
X33786459Y-69351476D01*
X33825213Y-69418600D01*
X34068815Y-69174999D01*
X34043554Y-69149738D01*
X34085500Y-69149738D01*
X34085500Y-69200262D01*
X34104835Y-69246940D01*
X34140560Y-69282665D01*
X34187238Y-69302000D01*
X34237762Y-69302000D01*
X34284440Y-69282665D01*
X34320165Y-69246940D01*
X34339500Y-69200262D01*
X34339500Y-69174999D01*
X34356184Y-69174999D01*
X34356184Y-69175000D01*
X34599784Y-69418600D01*
X34638541Y-69351473D01*
X34669699Y-69235194D01*
X34669700Y-69235191D01*
X34669700Y-69114808D01*
X34669699Y-69114805D01*
X34669699Y-69114804D01*
X35730300Y-69114804D01*
X35730300Y-69235194D01*
X35761459Y-69351476D01*
X35800213Y-69418600D01*
X36043815Y-69174999D01*
X36018554Y-69149738D01*
X36060500Y-69149738D01*
X36060500Y-69200262D01*
X36079835Y-69246940D01*
X36115560Y-69282665D01*
X36162238Y-69302000D01*
X36212762Y-69302000D01*
X36259440Y-69282665D01*
X36295165Y-69246940D01*
X36314500Y-69200262D01*
X36314500Y-69174999D01*
X36331184Y-69174999D01*
X36331184Y-69175000D01*
X36574784Y-69418600D01*
X36613541Y-69351473D01*
X36644699Y-69235194D01*
X36644700Y-69235191D01*
X36644700Y-69114808D01*
X36644699Y-69114805D01*
X36613541Y-68998524D01*
X36574785Y-68931397D01*
X36331184Y-69174999D01*
X36314500Y-69174999D01*
X36314500Y-69149738D01*
X36295165Y-69103060D01*
X36259440Y-69067335D01*
X36212762Y-69048000D01*
X36162238Y-69048000D01*
X36115560Y-69067335D01*
X36079835Y-69103060D01*
X36060500Y-69149738D01*
X36018554Y-69149738D01*
X35800214Y-68931398D01*
X35761457Y-68998528D01*
X35761456Y-68998531D01*
X35730300Y-69114804D01*
X34669699Y-69114804D01*
X34638541Y-68998524D01*
X34599785Y-68931397D01*
X34356184Y-69174999D01*
X34339500Y-69174999D01*
X34339500Y-69149738D01*
X34320165Y-69103060D01*
X34284440Y-69067335D01*
X34237762Y-69048000D01*
X34187238Y-69048000D01*
X34140560Y-69067335D01*
X34104835Y-69103060D01*
X34085500Y-69149738D01*
X34043554Y-69149738D01*
X33825214Y-68931398D01*
X33786457Y-68998528D01*
X33786456Y-68998531D01*
X33755300Y-69114804D01*
X31779900Y-69114804D01*
X31779900Y-68787714D01*
X33968898Y-68787714D01*
X34212499Y-69031315D01*
X34456100Y-68787714D01*
X35943898Y-68787714D01*
X36187499Y-69031315D01*
X36431101Y-68787713D01*
X36363976Y-68748959D01*
X36247694Y-68717800D01*
X36127304Y-68717800D01*
X36011031Y-68748956D01*
X36011028Y-68748957D01*
X35943898Y-68787714D01*
X34456100Y-68787714D01*
X34456101Y-68787713D01*
X34388976Y-68748959D01*
X34272694Y-68717800D01*
X34152304Y-68717800D01*
X34036031Y-68748956D01*
X34036028Y-68748957D01*
X33968898Y-68787714D01*
X31779900Y-68787714D01*
X31779900Y-68574785D01*
X32981397Y-68574785D01*
X33048524Y-68613541D01*
X33164805Y-68644699D01*
X33164808Y-68644700D01*
X33285192Y-68644700D01*
X33285194Y-68644699D01*
X33401473Y-68613541D01*
X33468598Y-68574785D01*
X34956397Y-68574785D01*
X35023524Y-68613541D01*
X35139805Y-68644699D01*
X35139808Y-68644700D01*
X35260192Y-68644700D01*
X35260194Y-68644699D01*
X35376473Y-68613541D01*
X35443598Y-68574785D01*
X36931397Y-68574785D01*
X36998524Y-68613541D01*
X37114805Y-68644699D01*
X37114808Y-68644700D01*
X37235192Y-68644700D01*
X37235194Y-68644699D01*
X37351473Y-68613541D01*
X37418600Y-68574784D01*
X37175000Y-68331184D01*
X36931397Y-68574785D01*
X35443598Y-68574785D01*
X35443600Y-68574784D01*
X35200000Y-68331184D01*
X34956397Y-68574785D01*
X33468598Y-68574785D01*
X33468600Y-68574784D01*
X33225000Y-68331184D01*
X32981397Y-68574785D01*
X31779900Y-68574785D01*
X31779900Y-68127304D01*
X32767800Y-68127304D01*
X32767800Y-68247694D01*
X32798959Y-68363976D01*
X32837713Y-68431100D01*
X33081315Y-68187499D01*
X33056054Y-68162238D01*
X33098000Y-68162238D01*
X33098000Y-68212762D01*
X33117335Y-68259440D01*
X33153060Y-68295165D01*
X33199738Y-68314500D01*
X33250262Y-68314500D01*
X33296940Y-68295165D01*
X33332665Y-68259440D01*
X33352000Y-68212762D01*
X33352000Y-68187499D01*
X33368684Y-68187499D01*
X33368684Y-68187500D01*
X33612284Y-68431100D01*
X33651041Y-68363973D01*
X33682199Y-68247694D01*
X33682200Y-68247691D01*
X33682200Y-68127308D01*
X33682199Y-68127305D01*
X33682199Y-68127304D01*
X34742800Y-68127304D01*
X34742800Y-68247694D01*
X34773959Y-68363976D01*
X34812713Y-68431100D01*
X35056315Y-68187499D01*
X35031054Y-68162238D01*
X35073000Y-68162238D01*
X35073000Y-68212762D01*
X35092335Y-68259440D01*
X35128060Y-68295165D01*
X35174738Y-68314500D01*
X35225262Y-68314500D01*
X35271940Y-68295165D01*
X35307665Y-68259440D01*
X35327000Y-68212762D01*
X35327000Y-68187499D01*
X35343684Y-68187499D01*
X35343684Y-68187500D01*
X35587284Y-68431100D01*
X35626041Y-68363973D01*
X35657199Y-68247694D01*
X35657200Y-68247691D01*
X35657200Y-68127308D01*
X35657199Y-68127305D01*
X35657199Y-68127304D01*
X36717800Y-68127304D01*
X36717800Y-68247694D01*
X36748959Y-68363976D01*
X36787713Y-68431100D01*
X37031315Y-68187499D01*
X37006054Y-68162238D01*
X37048000Y-68162238D01*
X37048000Y-68212762D01*
X37067335Y-68259440D01*
X37103060Y-68295165D01*
X37149738Y-68314500D01*
X37200262Y-68314500D01*
X37246940Y-68295165D01*
X37282665Y-68259440D01*
X37302000Y-68212762D01*
X37302000Y-68187499D01*
X37318684Y-68187499D01*
X37318684Y-68187500D01*
X37562284Y-68431100D01*
X37601041Y-68363973D01*
X37632199Y-68247694D01*
X37632200Y-68247691D01*
X37632200Y-68127308D01*
X37632199Y-68127305D01*
X37601041Y-68011024D01*
X37562285Y-67943897D01*
X37318684Y-68187499D01*
X37302000Y-68187499D01*
X37302000Y-68162238D01*
X37282665Y-68115560D01*
X37246940Y-68079835D01*
X37200262Y-68060500D01*
X37149738Y-68060500D01*
X37103060Y-68079835D01*
X37067335Y-68115560D01*
X37048000Y-68162238D01*
X37006054Y-68162238D01*
X36787714Y-67943898D01*
X36748957Y-68011028D01*
X36748956Y-68011031D01*
X36717800Y-68127304D01*
X35657199Y-68127304D01*
X35626041Y-68011024D01*
X35587285Y-67943897D01*
X35343684Y-68187499D01*
X35327000Y-68187499D01*
X35327000Y-68162238D01*
X35307665Y-68115560D01*
X35271940Y-68079835D01*
X35225262Y-68060500D01*
X35174738Y-68060500D01*
X35128060Y-68079835D01*
X35092335Y-68115560D01*
X35073000Y-68162238D01*
X35031054Y-68162238D01*
X34812714Y-67943898D01*
X34773957Y-68011028D01*
X34773956Y-68011031D01*
X34742800Y-68127304D01*
X33682199Y-68127304D01*
X33651041Y-68011024D01*
X33612285Y-67943897D01*
X33368684Y-68187499D01*
X33352000Y-68187499D01*
X33352000Y-68162238D01*
X33332665Y-68115560D01*
X33296940Y-68079835D01*
X33250262Y-68060500D01*
X33199738Y-68060500D01*
X33153060Y-68079835D01*
X33117335Y-68115560D01*
X33098000Y-68162238D01*
X33056054Y-68162238D01*
X32837714Y-67943898D01*
X32798957Y-68011028D01*
X32798956Y-68011031D01*
X32767800Y-68127304D01*
X31779900Y-68127304D01*
X31779900Y-67800214D01*
X32981398Y-67800214D01*
X33224999Y-68043815D01*
X33468600Y-67800214D01*
X34956398Y-67800214D01*
X35199999Y-68043815D01*
X35443600Y-67800214D01*
X36931398Y-67800214D01*
X37174999Y-68043815D01*
X37418601Y-67800213D01*
X37351476Y-67761459D01*
X37235194Y-67730300D01*
X37114804Y-67730300D01*
X36998531Y-67761456D01*
X36998528Y-67761457D01*
X36931398Y-67800214D01*
X35443600Y-67800214D01*
X35443601Y-67800213D01*
X35376476Y-67761459D01*
X35260194Y-67730300D01*
X35139804Y-67730300D01*
X35023531Y-67761456D01*
X35023528Y-67761457D01*
X34956398Y-67800214D01*
X33468600Y-67800214D01*
X33468601Y-67800213D01*
X33401476Y-67761459D01*
X33285194Y-67730300D01*
X33164804Y-67730300D01*
X33048531Y-67761456D01*
X33048528Y-67761457D01*
X32981398Y-67800214D01*
X31779900Y-67800214D01*
X31779900Y-67587285D01*
X33968897Y-67587285D01*
X34036024Y-67626041D01*
X34152305Y-67657199D01*
X34152308Y-67657200D01*
X34272692Y-67657200D01*
X34272694Y-67657199D01*
X34388973Y-67626041D01*
X34456098Y-67587285D01*
X35943897Y-67587285D01*
X36011024Y-67626041D01*
X36127305Y-67657199D01*
X36127308Y-67657200D01*
X36247692Y-67657200D01*
X36247694Y-67657199D01*
X36363973Y-67626041D01*
X36431100Y-67587284D01*
X36187500Y-67343684D01*
X35943897Y-67587285D01*
X34456098Y-67587285D01*
X34456100Y-67587284D01*
X34212500Y-67343684D01*
X33968897Y-67587285D01*
X31779900Y-67587285D01*
X31779900Y-67139804D01*
X33755300Y-67139804D01*
X33755300Y-67260194D01*
X33786459Y-67376476D01*
X33825213Y-67443600D01*
X34068815Y-67199999D01*
X34043554Y-67174738D01*
X34085500Y-67174738D01*
X34085500Y-67225262D01*
X34104835Y-67271940D01*
X34140560Y-67307665D01*
X34187238Y-67327000D01*
X34237762Y-67327000D01*
X34284440Y-67307665D01*
X34320165Y-67271940D01*
X34339500Y-67225262D01*
X34339500Y-67199999D01*
X34356184Y-67199999D01*
X34356184Y-67200000D01*
X34599784Y-67443600D01*
X34638541Y-67376473D01*
X34669699Y-67260194D01*
X34669700Y-67260191D01*
X34669700Y-67139808D01*
X34669699Y-67139805D01*
X34669699Y-67139804D01*
X35730300Y-67139804D01*
X35730300Y-67260194D01*
X35761459Y-67376476D01*
X35800213Y-67443600D01*
X36043815Y-67199999D01*
X36018554Y-67174738D01*
X36060500Y-67174738D01*
X36060500Y-67225262D01*
X36079835Y-67271940D01*
X36115560Y-67307665D01*
X36162238Y-67327000D01*
X36212762Y-67327000D01*
X36259440Y-67307665D01*
X36295165Y-67271940D01*
X36314500Y-67225262D01*
X36314500Y-67199999D01*
X36331184Y-67199999D01*
X36331184Y-67200000D01*
X36574784Y-67443600D01*
X36613541Y-67376473D01*
X36644699Y-67260194D01*
X36644700Y-67260191D01*
X36644700Y-67139808D01*
X36644699Y-67139805D01*
X36613541Y-67023524D01*
X36574785Y-66956397D01*
X36331184Y-67199999D01*
X36314500Y-67199999D01*
X36314500Y-67174738D01*
X36295165Y-67128060D01*
X36259440Y-67092335D01*
X36212762Y-67073000D01*
X36162238Y-67073000D01*
X36115560Y-67092335D01*
X36079835Y-67128060D01*
X36060500Y-67174738D01*
X36018554Y-67174738D01*
X35800214Y-66956398D01*
X35761457Y-67023528D01*
X35761456Y-67023531D01*
X35730300Y-67139804D01*
X34669699Y-67139804D01*
X34638541Y-67023524D01*
X34599785Y-66956397D01*
X34356184Y-67199999D01*
X34339500Y-67199999D01*
X34339500Y-67174738D01*
X34320165Y-67128060D01*
X34284440Y-67092335D01*
X34237762Y-67073000D01*
X34187238Y-67073000D01*
X34140560Y-67092335D01*
X34104835Y-67128060D01*
X34085500Y-67174738D01*
X34043554Y-67174738D01*
X33825214Y-66956398D01*
X33786457Y-67023528D01*
X33786456Y-67023531D01*
X33755300Y-67139804D01*
X31779900Y-67139804D01*
X31779900Y-66812714D01*
X33968898Y-66812714D01*
X34212499Y-67056315D01*
X34456100Y-66812714D01*
X35943898Y-66812714D01*
X36187499Y-67056315D01*
X36431101Y-66812713D01*
X36363976Y-66773959D01*
X36247694Y-66742800D01*
X36127304Y-66742800D01*
X36011031Y-66773956D01*
X36011028Y-66773957D01*
X35943898Y-66812714D01*
X34456100Y-66812714D01*
X34456101Y-66812713D01*
X34388976Y-66773959D01*
X34272694Y-66742800D01*
X34152304Y-66742800D01*
X34036031Y-66773956D01*
X34036028Y-66773957D01*
X33968898Y-66812714D01*
X31779900Y-66812714D01*
X31779900Y-66599785D01*
X32981397Y-66599785D01*
X33048524Y-66638541D01*
X33164805Y-66669699D01*
X33164808Y-66669700D01*
X33285192Y-66669700D01*
X33285194Y-66669699D01*
X33401473Y-66638541D01*
X33468598Y-66599785D01*
X34956397Y-66599785D01*
X35023524Y-66638541D01*
X35139805Y-66669699D01*
X35139808Y-66669700D01*
X35260192Y-66669700D01*
X35260194Y-66669699D01*
X35376473Y-66638541D01*
X35443598Y-66599785D01*
X36931397Y-66599785D01*
X36998524Y-66638541D01*
X37114805Y-66669699D01*
X37114808Y-66669700D01*
X37235192Y-66669700D01*
X37235194Y-66669699D01*
X37351473Y-66638541D01*
X37418600Y-66599784D01*
X37175000Y-66356184D01*
X36931397Y-66599785D01*
X35443598Y-66599785D01*
X35443600Y-66599784D01*
X35200000Y-66356184D01*
X34956397Y-66599785D01*
X33468598Y-66599785D01*
X33468600Y-66599784D01*
X33225000Y-66356184D01*
X32981397Y-66599785D01*
X31779900Y-66599785D01*
X31779900Y-66152304D01*
X32767800Y-66152304D01*
X32767800Y-66272694D01*
X32798959Y-66388976D01*
X32837713Y-66456100D01*
X33081315Y-66212499D01*
X33056054Y-66187238D01*
X33098000Y-66187238D01*
X33098000Y-66237762D01*
X33117335Y-66284440D01*
X33153060Y-66320165D01*
X33199738Y-66339500D01*
X33250262Y-66339500D01*
X33296940Y-66320165D01*
X33332665Y-66284440D01*
X33352000Y-66237762D01*
X33352000Y-66212499D01*
X33368684Y-66212499D01*
X33368684Y-66212500D01*
X33612284Y-66456100D01*
X33651041Y-66388973D01*
X33682199Y-66272694D01*
X33682200Y-66272691D01*
X33682200Y-66152308D01*
X33682199Y-66152305D01*
X33682199Y-66152304D01*
X34742800Y-66152304D01*
X34742800Y-66272694D01*
X34773959Y-66388976D01*
X34812713Y-66456100D01*
X35056315Y-66212499D01*
X35031054Y-66187238D01*
X35073000Y-66187238D01*
X35073000Y-66237762D01*
X35092335Y-66284440D01*
X35128060Y-66320165D01*
X35174738Y-66339500D01*
X35225262Y-66339500D01*
X35271940Y-66320165D01*
X35307665Y-66284440D01*
X35327000Y-66237762D01*
X35327000Y-66212499D01*
X35343684Y-66212499D01*
X35343684Y-66212500D01*
X35587284Y-66456100D01*
X35626041Y-66388973D01*
X35657199Y-66272694D01*
X35657200Y-66272691D01*
X35657200Y-66152308D01*
X35657199Y-66152305D01*
X35657199Y-66152304D01*
X36717800Y-66152304D01*
X36717800Y-66272694D01*
X36748959Y-66388976D01*
X36787713Y-66456100D01*
X37031315Y-66212499D01*
X37006054Y-66187238D01*
X37048000Y-66187238D01*
X37048000Y-66237762D01*
X37067335Y-66284440D01*
X37103060Y-66320165D01*
X37149738Y-66339500D01*
X37200262Y-66339500D01*
X37246940Y-66320165D01*
X37282665Y-66284440D01*
X37302000Y-66237762D01*
X37302000Y-66212499D01*
X37318684Y-66212499D01*
X37318684Y-66212500D01*
X37562284Y-66456100D01*
X37601041Y-66388973D01*
X37632199Y-66272694D01*
X37632200Y-66272691D01*
X37632200Y-66152308D01*
X37632199Y-66152305D01*
X37601041Y-66036024D01*
X37562285Y-65968897D01*
X37318684Y-66212499D01*
X37302000Y-66212499D01*
X37302000Y-66187238D01*
X37282665Y-66140560D01*
X37246940Y-66104835D01*
X37200262Y-66085500D01*
X37149738Y-66085500D01*
X37103060Y-66104835D01*
X37067335Y-66140560D01*
X37048000Y-66187238D01*
X37006054Y-66187238D01*
X36787714Y-65968898D01*
X36748957Y-66036028D01*
X36748956Y-66036031D01*
X36717800Y-66152304D01*
X35657199Y-66152304D01*
X35626041Y-66036024D01*
X35587285Y-65968897D01*
X35343684Y-66212499D01*
X35327000Y-66212499D01*
X35327000Y-66187238D01*
X35307665Y-66140560D01*
X35271940Y-66104835D01*
X35225262Y-66085500D01*
X35174738Y-66085500D01*
X35128060Y-66104835D01*
X35092335Y-66140560D01*
X35073000Y-66187238D01*
X35031054Y-66187238D01*
X34812714Y-65968898D01*
X34773957Y-66036028D01*
X34773956Y-66036031D01*
X34742800Y-66152304D01*
X33682199Y-66152304D01*
X33651041Y-66036024D01*
X33612285Y-65968897D01*
X33368684Y-66212499D01*
X33352000Y-66212499D01*
X33352000Y-66187238D01*
X33332665Y-66140560D01*
X33296940Y-66104835D01*
X33250262Y-66085500D01*
X33199738Y-66085500D01*
X33153060Y-66104835D01*
X33117335Y-66140560D01*
X33098000Y-66187238D01*
X33056054Y-66187238D01*
X32837714Y-65968898D01*
X32798957Y-66036028D01*
X32798956Y-66036031D01*
X32767800Y-66152304D01*
X31779900Y-66152304D01*
X31779900Y-65825214D01*
X32981398Y-65825214D01*
X33224999Y-66068815D01*
X33468600Y-65825214D01*
X34956398Y-65825214D01*
X35199999Y-66068815D01*
X35443600Y-65825214D01*
X36931398Y-65825214D01*
X37174999Y-66068815D01*
X37418601Y-65825213D01*
X37351476Y-65786459D01*
X37235194Y-65755300D01*
X37114804Y-65755300D01*
X36998531Y-65786456D01*
X36998528Y-65786457D01*
X36931398Y-65825214D01*
X35443600Y-65825214D01*
X35443601Y-65825213D01*
X35376476Y-65786459D01*
X35260194Y-65755300D01*
X35139804Y-65755300D01*
X35023531Y-65786456D01*
X35023528Y-65786457D01*
X34956398Y-65825214D01*
X33468600Y-65825214D01*
X33468601Y-65825213D01*
X33401476Y-65786459D01*
X33285194Y-65755300D01*
X33164804Y-65755300D01*
X33048531Y-65786456D01*
X33048528Y-65786457D01*
X32981398Y-65825214D01*
X31779900Y-65825214D01*
X31779900Y-65612285D01*
X33968897Y-65612285D01*
X34036024Y-65651041D01*
X34152305Y-65682199D01*
X34152308Y-65682200D01*
X34272692Y-65682200D01*
X34272694Y-65682199D01*
X34388973Y-65651041D01*
X34456098Y-65612285D01*
X35943897Y-65612285D01*
X36011024Y-65651041D01*
X36127305Y-65682199D01*
X36127308Y-65682200D01*
X36247692Y-65682200D01*
X36247694Y-65682199D01*
X36363973Y-65651041D01*
X36431100Y-65612284D01*
X36187500Y-65368684D01*
X35943897Y-65612285D01*
X34456098Y-65612285D01*
X34456100Y-65612284D01*
X34212500Y-65368684D01*
X33968897Y-65612285D01*
X31779900Y-65612285D01*
X31779900Y-65164804D01*
X33755300Y-65164804D01*
X33755300Y-65285194D01*
X33786459Y-65401476D01*
X33825213Y-65468600D01*
X34068815Y-65224999D01*
X34043554Y-65199738D01*
X34085500Y-65199738D01*
X34085500Y-65250262D01*
X34104835Y-65296940D01*
X34140560Y-65332665D01*
X34187238Y-65352000D01*
X34237762Y-65352000D01*
X34284440Y-65332665D01*
X34320165Y-65296940D01*
X34339500Y-65250262D01*
X34339500Y-65224999D01*
X34356184Y-65224999D01*
X34356184Y-65225000D01*
X34599784Y-65468600D01*
X34638541Y-65401473D01*
X34669699Y-65285194D01*
X34669700Y-65285191D01*
X34669700Y-65164808D01*
X34669699Y-65164805D01*
X34669699Y-65164804D01*
X35730300Y-65164804D01*
X35730300Y-65285194D01*
X35761459Y-65401476D01*
X35800213Y-65468600D01*
X36043815Y-65224999D01*
X36018554Y-65199738D01*
X36060500Y-65199738D01*
X36060500Y-65250262D01*
X36079835Y-65296940D01*
X36115560Y-65332665D01*
X36162238Y-65352000D01*
X36212762Y-65352000D01*
X36259440Y-65332665D01*
X36295165Y-65296940D01*
X36314500Y-65250262D01*
X36314500Y-65224999D01*
X36331184Y-65224999D01*
X36331184Y-65225000D01*
X36574784Y-65468600D01*
X36613541Y-65401473D01*
X36644699Y-65285194D01*
X36644700Y-65285191D01*
X36644700Y-65164808D01*
X36644699Y-65164805D01*
X36613541Y-65048524D01*
X36574785Y-64981397D01*
X36331184Y-65224999D01*
X36314500Y-65224999D01*
X36314500Y-65199738D01*
X36295165Y-65153060D01*
X36259440Y-65117335D01*
X36212762Y-65098000D01*
X36162238Y-65098000D01*
X36115560Y-65117335D01*
X36079835Y-65153060D01*
X36060500Y-65199738D01*
X36018554Y-65199738D01*
X35800214Y-64981398D01*
X35761457Y-65048528D01*
X35761456Y-65048531D01*
X35730300Y-65164804D01*
X34669699Y-65164804D01*
X34638541Y-65048524D01*
X34599785Y-64981397D01*
X34356184Y-65224999D01*
X34339500Y-65224999D01*
X34339500Y-65199738D01*
X34320165Y-65153060D01*
X34284440Y-65117335D01*
X34237762Y-65098000D01*
X34187238Y-65098000D01*
X34140560Y-65117335D01*
X34104835Y-65153060D01*
X34085500Y-65199738D01*
X34043554Y-65199738D01*
X33825214Y-64981398D01*
X33786457Y-65048528D01*
X33786456Y-65048531D01*
X33755300Y-65164804D01*
X31779900Y-65164804D01*
X31779900Y-64837714D01*
X33968898Y-64837714D01*
X34212499Y-65081315D01*
X34456100Y-64837714D01*
X35943898Y-64837714D01*
X36187499Y-65081315D01*
X36431101Y-64837713D01*
X36400889Y-64820271D01*
X36363976Y-64798959D01*
X36247694Y-64767800D01*
X36127304Y-64767800D01*
X36011031Y-64798956D01*
X36011028Y-64798957D01*
X35943898Y-64837714D01*
X34456100Y-64837714D01*
X34456101Y-64837713D01*
X34388976Y-64798959D01*
X34272694Y-64767800D01*
X34152304Y-64767800D01*
X34036031Y-64798956D01*
X34036028Y-64798957D01*
X33968898Y-64837714D01*
X31779900Y-64837714D01*
X31779900Y-64739740D01*
X40642300Y-64739740D01*
X40642300Y-64860259D01*
X40673493Y-64976668D01*
X40733747Y-65081031D01*
X40733749Y-65081034D01*
X40818966Y-65166251D01*
X40818968Y-65166252D01*
X40923331Y-65226506D01*
X40923335Y-65226508D01*
X41039743Y-65257700D01*
X41160257Y-65257700D01*
X41276665Y-65226508D01*
X41381034Y-65166251D01*
X41412521Y-65134764D01*
X41467919Y-65106538D01*
X41483655Y-65105300D01*
X44431871Y-65105300D01*
X44491002Y-65124513D01*
X44503006Y-65134765D01*
X46465235Y-67096994D01*
X46493461Y-67152392D01*
X46494700Y-67168129D01*
X46494700Y-73640195D01*
X46502185Y-73668129D01*
X46507365Y-73687459D01*
X46515506Y-73717841D01*
X46555700Y-73787459D01*
X46555702Y-73787461D01*
X49312542Y-76544301D01*
X49341965Y-76561288D01*
X49382158Y-76584494D01*
X49402956Y-76590065D01*
X49402961Y-76590069D01*
X49402962Y-76590068D01*
X49444576Y-76601218D01*
X49459807Y-76605300D01*
X56759807Y-76605300D01*
X59431871Y-76605300D01*
X59491002Y-76624513D01*
X59503006Y-76634765D01*
X61265235Y-78396994D01*
X61268920Y-78404227D01*
X61275487Y-78408998D01*
X61282766Y-78431403D01*
X61293461Y-78452392D01*
X61294700Y-78468129D01*
X61294700Y-78616345D01*
X61275487Y-78675476D01*
X61265236Y-78687479D01*
X61233747Y-78718968D01*
X61173493Y-78823331D01*
X61142300Y-78939740D01*
X61142300Y-79060259D01*
X61173493Y-79176668D01*
X61233747Y-79281031D01*
X61233749Y-79281034D01*
X61318966Y-79366251D01*
X61318968Y-79366252D01*
X61423331Y-79426506D01*
X61423335Y-79426508D01*
X61539743Y-79457700D01*
X61660257Y-79457700D01*
X61776665Y-79426508D01*
X61881034Y-79366251D01*
X61966251Y-79281034D01*
X62026508Y-79176665D01*
X62057700Y-79060257D01*
X62057700Y-78939743D01*
X62026508Y-78823335D01*
X61966251Y-78718966D01*
X61934764Y-78687479D01*
X61906538Y-78632081D01*
X61905300Y-78616345D01*
X61905300Y-78259808D01*
X61905299Y-78259804D01*
X61884494Y-78182159D01*
X61884494Y-78182158D01*
X61844299Y-78112540D01*
X61750037Y-78018278D01*
X61750035Y-78018275D01*
X59787461Y-76055702D01*
X59787459Y-76055700D01*
X59746095Y-76031818D01*
X59717842Y-76015506D01*
X59640195Y-75994700D01*
X59640193Y-75994700D01*
X56840193Y-75994700D01*
X49668129Y-75994700D01*
X49608998Y-75975487D01*
X49596994Y-75965235D01*
X47134765Y-73503006D01*
X47106539Y-73447608D01*
X47105300Y-73431871D01*
X47105300Y-72939740D01*
X60742300Y-72939740D01*
X60742300Y-73060259D01*
X60773493Y-73176668D01*
X60833747Y-73281031D01*
X60833749Y-73281034D01*
X60918966Y-73366251D01*
X60946520Y-73382159D01*
X61023331Y-73426506D01*
X61023335Y-73426508D01*
X61139743Y-73457700D01*
X61260257Y-73457700D01*
X61376665Y-73426508D01*
X61481034Y-73366251D01*
X61512521Y-73334764D01*
X61567919Y-73306538D01*
X61583655Y-73305300D01*
X62131871Y-73305300D01*
X62191002Y-73324513D01*
X62203006Y-73334765D01*
X62465235Y-73596994D01*
X62493461Y-73652392D01*
X62494700Y-73668129D01*
X62494700Y-84840195D01*
X62508538Y-84891836D01*
X62508538Y-84891838D01*
X62515503Y-84917836D01*
X62515504Y-84917838D01*
X62525179Y-84934595D01*
X62555700Y-84987459D01*
X62555702Y-84987461D01*
X62712835Y-85144594D01*
X62741061Y-85199992D01*
X62742300Y-85215729D01*
X62742300Y-85260259D01*
X62773493Y-85376668D01*
X62833747Y-85481031D01*
X62833749Y-85481034D01*
X62918966Y-85566251D01*
X62918968Y-85566252D01*
X63023331Y-85626506D01*
X63023335Y-85626508D01*
X63139743Y-85657700D01*
X63260257Y-85657700D01*
X63376665Y-85626508D01*
X63481034Y-85566251D01*
X63566251Y-85481034D01*
X63626508Y-85376665D01*
X63657700Y-85260257D01*
X63657700Y-85139743D01*
X63626508Y-85023335D01*
X63566251Y-84918966D01*
X63481034Y-84833749D01*
X63477662Y-84831802D01*
X63376668Y-84773493D01*
X63376665Y-84773492D01*
X63345478Y-84765135D01*
X63260259Y-84742300D01*
X63260257Y-84742300D01*
X63215729Y-84742300D01*
X63208008Y-84739791D01*
X63199992Y-84741061D01*
X63179003Y-84730366D01*
X63156598Y-84723087D01*
X63144594Y-84712835D01*
X63134765Y-84703006D01*
X63106539Y-84647608D01*
X63105300Y-84631871D01*
X63105300Y-73459808D01*
X63105299Y-73459802D01*
X63084496Y-73382165D01*
X63084495Y-73382162D01*
X63084494Y-73382159D01*
X63057132Y-73334765D01*
X63044303Y-73312543D01*
X63044302Y-73312542D01*
X62908425Y-73176665D01*
X62487459Y-72755700D01*
X62452650Y-72735603D01*
X62417842Y-72715506D01*
X62340195Y-72694700D01*
X62340193Y-72694700D01*
X61583655Y-72694700D01*
X61524524Y-72675487D01*
X61512521Y-72665236D01*
X61481034Y-72633749D01*
X61481031Y-72633747D01*
X61376668Y-72573493D01*
X61376665Y-72573492D01*
X61345478Y-72565135D01*
X61260259Y-72542300D01*
X61260257Y-72542300D01*
X61139743Y-72542300D01*
X61139740Y-72542300D01*
X61023331Y-72573493D01*
X60918968Y-72633747D01*
X60918967Y-72633748D01*
X60918966Y-72633749D01*
X60833749Y-72718966D01*
X60833748Y-72718967D01*
X60833747Y-72718968D01*
X60773493Y-72823331D01*
X60742300Y-72939740D01*
X47105300Y-72939740D01*
X47105300Y-66959808D01*
X47105299Y-66959804D01*
X47084494Y-66882159D01*
X47067505Y-66852735D01*
X47044300Y-66812541D01*
X46287459Y-66055700D01*
X44787459Y-64555700D01*
X44746095Y-64531818D01*
X44717842Y-64515506D01*
X44640195Y-64494700D01*
X44640193Y-64494700D01*
X41483655Y-64494700D01*
X41424524Y-64475487D01*
X41412521Y-64465236D01*
X41402943Y-64455658D01*
X41381034Y-64433749D01*
X41381031Y-64433747D01*
X41276668Y-64373493D01*
X41276665Y-64373492D01*
X41245478Y-64365135D01*
X41160259Y-64342300D01*
X41160257Y-64342300D01*
X41039743Y-64342300D01*
X41039740Y-64342300D01*
X40923331Y-64373493D01*
X40818968Y-64433747D01*
X40818967Y-64433748D01*
X40818966Y-64433749D01*
X40733749Y-64518966D01*
X40733748Y-64518967D01*
X40733747Y-64518968D01*
X40673493Y-64623331D01*
X40642300Y-64739740D01*
X31779900Y-64739740D01*
X31779900Y-60100600D01*
X31799113Y-60041469D01*
X31849413Y-60004924D01*
X31880500Y-60000000D01*
X32294100Y-60000000D01*
X32353231Y-60019213D01*
X32389776Y-60069513D01*
X32394700Y-60100600D01*
X32394700Y-62140195D01*
X32415506Y-62217842D01*
X32423532Y-62231743D01*
X32455700Y-62287459D01*
X33812541Y-63644301D01*
X33876166Y-63681034D01*
X33882159Y-63684494D01*
X33882162Y-63684494D01*
X33882165Y-63684496D01*
X33959802Y-63705299D01*
X33959804Y-63705299D01*
X33959807Y-63705300D01*
X38016345Y-63705300D01*
X38075476Y-63724513D01*
X38087479Y-63734764D01*
X38118966Y-63766251D01*
X38118968Y-63766252D01*
X38223331Y-63826506D01*
X38223335Y-63826508D01*
X38339743Y-63857700D01*
X38460257Y-63857700D01*
X38576665Y-63826508D01*
X38681034Y-63766251D01*
X38766251Y-63681034D01*
X38826508Y-63576665D01*
X38857700Y-63460257D01*
X38857700Y-63339743D01*
X38828813Y-63231937D01*
X38832066Y-63169849D01*
X38871194Y-63121530D01*
X38925985Y-63105300D01*
X44231871Y-63105300D01*
X44291002Y-63124513D01*
X44303006Y-63134765D01*
X48265235Y-67096994D01*
X48293461Y-67152392D01*
X48294700Y-67168129D01*
X48294700Y-71216345D01*
X48275487Y-71275476D01*
X48265236Y-71287479D01*
X48233747Y-71318968D01*
X48173493Y-71423331D01*
X48142300Y-71539740D01*
X48142300Y-71660259D01*
X48143906Y-71666251D01*
X48169095Y-71760257D01*
X48173493Y-71776668D01*
X48233747Y-71881031D01*
X48233749Y-71881034D01*
X48318966Y-71966251D01*
X48318968Y-71966252D01*
X48423331Y-72026506D01*
X48423335Y-72026508D01*
X48539743Y-72057700D01*
X48660257Y-72057700D01*
X48776665Y-72026508D01*
X48881034Y-71966251D01*
X48966251Y-71881034D01*
X49026508Y-71776665D01*
X49057700Y-71660257D01*
X49057700Y-71539743D01*
X49026508Y-71423335D01*
X49017676Y-71408038D01*
X48966252Y-71318968D01*
X48966251Y-71318966D01*
X48934764Y-71287479D01*
X48906538Y-71232081D01*
X48905300Y-71216345D01*
X48905300Y-70979929D01*
X48924513Y-70920798D01*
X48974813Y-70884253D01*
X49036987Y-70884253D01*
X49077035Y-70908794D01*
X49712835Y-71544594D01*
X49741061Y-71599992D01*
X49742300Y-71615729D01*
X49742300Y-71660259D01*
X49743906Y-71666251D01*
X49769095Y-71760257D01*
X49773493Y-71776668D01*
X49833747Y-71881031D01*
X49833749Y-71881034D01*
X49918966Y-71966251D01*
X49918968Y-71966252D01*
X50023331Y-72026506D01*
X50023335Y-72026508D01*
X50139743Y-72057700D01*
X50260257Y-72057700D01*
X50376665Y-72026508D01*
X50481034Y-71966251D01*
X50566251Y-71881034D01*
X50626508Y-71776665D01*
X50657700Y-71660257D01*
X50657700Y-71539743D01*
X50626508Y-71423335D01*
X50617676Y-71408038D01*
X50566252Y-71318968D01*
X50566251Y-71318966D01*
X50481034Y-71233749D01*
X50462567Y-71223087D01*
X50376668Y-71173493D01*
X50376665Y-71173492D01*
X50317894Y-71157744D01*
X50260259Y-71142300D01*
X50260257Y-71142300D01*
X50215730Y-71142300D01*
X50156599Y-71123087D01*
X50144595Y-71112835D01*
X49434765Y-70403005D01*
X49406539Y-70347607D01*
X49405300Y-70331870D01*
X49405300Y-66859808D01*
X49405299Y-66859802D01*
X49384495Y-66782162D01*
X49384493Y-66782157D01*
X49369218Y-66755700D01*
X49369217Y-66755699D01*
X49361770Y-66742800D01*
X49344301Y-66712541D01*
X45987459Y-63355700D01*
X44679459Y-62047700D01*
X44638095Y-62023818D01*
X44609842Y-62007506D01*
X44532195Y-61986700D01*
X44532193Y-61986700D01*
X38783655Y-61986700D01*
X38724524Y-61967487D01*
X38712521Y-61957236D01*
X38702892Y-61947607D01*
X38681034Y-61925749D01*
X38681031Y-61925747D01*
X38576668Y-61865493D01*
X38576665Y-61865492D01*
X38545478Y-61857135D01*
X38460259Y-61834300D01*
X38460257Y-61834300D01*
X38339743Y-61834300D01*
X38339740Y-61834300D01*
X38223331Y-61865493D01*
X38118968Y-61925747D01*
X38118967Y-61925748D01*
X38118966Y-61925749D01*
X38033749Y-62010966D01*
X38033748Y-62010967D01*
X38033747Y-62010968D01*
X37973493Y-62115331D01*
X37942300Y-62231740D01*
X37942300Y-62294876D01*
X37923087Y-62354007D01*
X37872787Y-62390552D01*
X37810613Y-62390552D01*
X37791403Y-62382000D01*
X37776668Y-62373493D01*
X37776665Y-62373492D01*
X37745478Y-62365135D01*
X37660259Y-62342300D01*
X37660257Y-62342300D01*
X37539743Y-62342300D01*
X37539740Y-62342300D01*
X37423331Y-62373493D01*
X37318968Y-62433747D01*
X37318967Y-62433748D01*
X37318966Y-62433749D01*
X37233749Y-62518966D01*
X37233748Y-62518967D01*
X37233747Y-62518968D01*
X37173493Y-62623331D01*
X37142300Y-62739740D01*
X37142300Y-62860259D01*
X37171187Y-62968062D01*
X37167934Y-63030151D01*
X37128806Y-63078470D01*
X37074015Y-63094700D01*
X34168130Y-63094700D01*
X34108999Y-63075487D01*
X34096995Y-63065235D01*
X33034765Y-62003005D01*
X33006539Y-61947607D01*
X33005300Y-61931870D01*
X33005300Y-60100600D01*
X33024513Y-60041469D01*
X33074813Y-60004924D01*
X33105900Y-60000000D01*
X54343300Y-60000000D01*
X54402431Y-60019213D01*
X54438976Y-60069513D01*
X54443900Y-60100600D01*
X54443900Y-68974429D01*
X54430422Y-69024728D01*
X54420020Y-69042744D01*
X54373817Y-69084345D01*
X54311983Y-69090843D01*
X54258139Y-69059756D01*
X54232851Y-69002957D01*
X54232300Y-68992442D01*
X54232300Y-65143087D01*
X54232299Y-65143084D01*
X54227323Y-65124513D01*
X54202839Y-65033139D01*
X54145926Y-64934562D01*
X54065438Y-64854074D01*
X53365439Y-64154074D01*
X53365436Y-64154072D01*
X53266865Y-64097162D01*
X53266862Y-64097161D01*
X53242959Y-64090756D01*
X53154114Y-64066949D01*
X53146876Y-64065510D01*
X53060259Y-64042300D01*
X53060257Y-64042300D01*
X52939743Y-64042300D01*
X52939740Y-64042300D01*
X52823331Y-64073493D01*
X52718968Y-64133747D01*
X52718967Y-64133748D01*
X52718966Y-64133749D01*
X52633749Y-64218966D01*
X52633748Y-64218967D01*
X52633747Y-64218968D01*
X52573493Y-64323331D01*
X52542300Y-64439740D01*
X52542300Y-64560259D01*
X52545333Y-64571576D01*
X52569323Y-64661108D01*
X52573493Y-64676668D01*
X52617505Y-64752899D01*
X52633749Y-64781034D01*
X52718966Y-64866251D01*
X52718968Y-64866252D01*
X52823331Y-64926506D01*
X52823335Y-64926508D01*
X52922711Y-64953136D01*
X52967808Y-64979173D01*
X53154887Y-65166252D01*
X53338235Y-65349599D01*
X53366461Y-65404997D01*
X53367700Y-65420734D01*
X53367700Y-71131706D01*
X53364272Y-71157744D01*
X53342300Y-71239740D01*
X53342300Y-71360259D01*
X53373493Y-71476668D01*
X53420595Y-71558251D01*
X53433749Y-71581034D01*
X53518966Y-71666251D01*
X53518968Y-71666252D01*
X53623331Y-71726506D01*
X53623335Y-71726508D01*
X53739743Y-71757700D01*
X53860257Y-71757700D01*
X53976665Y-71726508D01*
X54081034Y-71666251D01*
X54166251Y-71581034D01*
X54226508Y-71476665D01*
X54257700Y-71360257D01*
X54257700Y-71239743D01*
X54235727Y-71157742D01*
X54232300Y-71131706D01*
X54232300Y-69607557D01*
X54251513Y-69548426D01*
X54301813Y-69511881D01*
X54363987Y-69511881D01*
X54414287Y-69548426D01*
X54420014Y-69557244D01*
X54433749Y-69581034D01*
X54518966Y-69666251D01*
X54518968Y-69666252D01*
X54623331Y-69726506D01*
X54623335Y-69726508D01*
X54739743Y-69757700D01*
X54860257Y-69757700D01*
X54976665Y-69726508D01*
X55081034Y-69666251D01*
X55166251Y-69581034D01*
X55226508Y-69476665D01*
X55257700Y-69360257D01*
X55257700Y-69239743D01*
X55226508Y-69123335D01*
X55221583Y-69114805D01*
X55183014Y-69048000D01*
X55169577Y-69024728D01*
X55156100Y-68974429D01*
X55156100Y-63401390D01*
X63747100Y-63401390D01*
X63747100Y-63598609D01*
X63777950Y-63793383D01*
X63777953Y-63793397D01*
X63838891Y-63980947D01*
X63928424Y-64156663D01*
X64044340Y-64316207D01*
X64044342Y-64316209D01*
X64183791Y-64455658D01*
X64343337Y-64571576D01*
X64429520Y-64615488D01*
X64519052Y-64661108D01*
X64706602Y-64722046D01*
X64706604Y-64722046D01*
X64706612Y-64722049D01*
X64901390Y-64752899D01*
X64901392Y-64752900D01*
X64901395Y-64752900D01*
X65098608Y-64752900D01*
X65098608Y-64752899D01*
X65293388Y-64722049D01*
X65480947Y-64661108D01*
X65656663Y-64571576D01*
X65816209Y-64455658D01*
X65955658Y-64316209D01*
X66071576Y-64156663D01*
X66161108Y-63980947D01*
X66222049Y-63793388D01*
X66252900Y-63598605D01*
X66252900Y-63401395D01*
X66252900Y-63401391D01*
X66252899Y-63401390D01*
X66222049Y-63206612D01*
X66195374Y-63124513D01*
X66161108Y-63019052D01*
X66071575Y-62843336D01*
X65955659Y-62683792D01*
X65816207Y-62544340D01*
X65656663Y-62428424D01*
X65480947Y-62338891D01*
X65293397Y-62277953D01*
X65293383Y-62277950D01*
X65098609Y-62247100D01*
X65098605Y-62247100D01*
X64901395Y-62247100D01*
X64901391Y-62247100D01*
X64706616Y-62277950D01*
X64706602Y-62277953D01*
X64519052Y-62338891D01*
X64343336Y-62428424D01*
X64183792Y-62544340D01*
X64044340Y-62683792D01*
X63928424Y-62843336D01*
X63838891Y-63019052D01*
X63777953Y-63206602D01*
X63777950Y-63206616D01*
X63747100Y-63401390D01*
X55156100Y-63401390D01*
X55156100Y-60100600D01*
X55175313Y-60041469D01*
X55225613Y-60004924D01*
X55256700Y-60000000D01*
X68898900Y-60000000D01*
X68958031Y-60019213D01*
X68994576Y-60069513D01*
X68999500Y-60100600D01*
X68999500Y-81997668D01*
X68999393Y-82002315D01*
X68984196Y-82330988D01*
X68983819Y-82336201D01*
X68976337Y-82412168D01*
X68975856Y-82416206D01*
X68935732Y-82703848D01*
X68934764Y-82709576D01*
X68920890Y-82779327D01*
X68920151Y-82782734D01*
X68852271Y-83071341D01*
X68850611Y-83077510D01*
X68832838Y-83136101D01*
X68831955Y-83138869D01*
X68734395Y-83429949D01*
X68731953Y-83436476D01*
X68715142Y-83477062D01*
X68714227Y-83479200D01*
X68583036Y-83776317D01*
X68579731Y-83783100D01*
X68573805Y-83794188D01*
X68572968Y-83795722D01*
X68402708Y-84101397D01*
X68397817Y-84109298D01*
X68194296Y-84406403D01*
X68188696Y-84413818D01*
X67958637Y-84690867D01*
X67952377Y-84697734D01*
X67697734Y-84952377D01*
X67690867Y-84958637D01*
X67413818Y-85188696D01*
X67406403Y-85194296D01*
X67109298Y-85397817D01*
X67101397Y-85402708D01*
X66795722Y-85572968D01*
X66794188Y-85573805D01*
X66783100Y-85579731D01*
X66776317Y-85583036D01*
X66479200Y-85714227D01*
X66477062Y-85715142D01*
X66436476Y-85731953D01*
X66429949Y-85734395D01*
X66138869Y-85831955D01*
X66136101Y-85832838D01*
X66077510Y-85850611D01*
X66071341Y-85852271D01*
X65782734Y-85920151D01*
X65779327Y-85920890D01*
X65709576Y-85934764D01*
X65703848Y-85935732D01*
X65416206Y-85975856D01*
X65412168Y-85976337D01*
X65336201Y-85983819D01*
X65330988Y-85984196D01*
X65007849Y-85999137D01*
X65002313Y-85999393D01*
X64997668Y-85999500D01*
X54092710Y-85999500D01*
X54033579Y-85980287D01*
X53997034Y-85929987D01*
X53997034Y-85867813D01*
X54032972Y-85817958D01*
X54091934Y-85774441D01*
X54091934Y-85774440D01*
X54091938Y-85774438D01*
X54173154Y-85664395D01*
X54218326Y-85535301D01*
X54221200Y-85504653D01*
X54221199Y-84095348D01*
X54218326Y-84064699D01*
X54173154Y-83935605D01*
X54091938Y-83825562D01*
X54034404Y-83783100D01*
X53981895Y-83744346D01*
X53852801Y-83699174D01*
X53822153Y-83696300D01*
X53822147Y-83696300D01*
X53212855Y-83696300D01*
X53212844Y-83696301D01*
X53182201Y-83699173D01*
X53053104Y-83744346D01*
X52943062Y-83825561D01*
X52943061Y-83825562D01*
X52861846Y-83935604D01*
X52861846Y-83935605D01*
X52816674Y-84064699D01*
X52813801Y-84095344D01*
X52813800Y-84095352D01*
X52813800Y-85504644D01*
X52813801Y-85504655D01*
X52816673Y-85535298D01*
X52861846Y-85664395D01*
X52943061Y-85774437D01*
X52943065Y-85774441D01*
X53002028Y-85817958D01*
X53038196Y-85868530D01*
X53037731Y-85930702D01*
X53000811Y-85980727D01*
X52942290Y-85999500D01*
X45452710Y-85999500D01*
X45393579Y-85980287D01*
X45357034Y-85929987D01*
X45357034Y-85867813D01*
X45392972Y-85817958D01*
X45451934Y-85774441D01*
X45451934Y-85774440D01*
X45451938Y-85774438D01*
X45533154Y-85664395D01*
X45578326Y-85535301D01*
X45581200Y-85504653D01*
X45581199Y-84095348D01*
X45578326Y-84064699D01*
X45533154Y-83935605D01*
X45451938Y-83825562D01*
X45394404Y-83783100D01*
X45341895Y-83744346D01*
X45212801Y-83699174D01*
X45182153Y-83696300D01*
X45182147Y-83696300D01*
X44572855Y-83696300D01*
X44572844Y-83696301D01*
X44542201Y-83699173D01*
X44413104Y-83744346D01*
X44303062Y-83825561D01*
X44303061Y-83825562D01*
X44221846Y-83935604D01*
X44221846Y-83935605D01*
X44176674Y-84064699D01*
X44173801Y-84095344D01*
X44173800Y-84095352D01*
X44173800Y-85504644D01*
X44173801Y-85504655D01*
X44176673Y-85535298D01*
X44221846Y-85664395D01*
X44303061Y-85774437D01*
X44303065Y-85774441D01*
X44362028Y-85817958D01*
X44398196Y-85868530D01*
X44397731Y-85930702D01*
X44360811Y-85980727D01*
X44302290Y-85999500D01*
X30100600Y-85999500D01*
X30041469Y-85980287D01*
X30004924Y-85929987D01*
X30000000Y-85898900D01*
X30000000Y-80000692D01*
X44173800Y-80000692D01*
X44173800Y-81239307D01*
X44200843Y-81375264D01*
X44253887Y-81503323D01*
X44253888Y-81503326D01*
X44253889Y-81503327D01*
X44330900Y-81618583D01*
X44428917Y-81716600D01*
X44544173Y-81793611D01*
X44608205Y-81820134D01*
X44672235Y-81846656D01*
X44672236Y-81846656D01*
X44672238Y-81846657D01*
X44808192Y-81873700D01*
X44808193Y-81873700D01*
X44946807Y-81873700D01*
X44946808Y-81873700D01*
X45082762Y-81846657D01*
X45210827Y-81793611D01*
X45326083Y-81716600D01*
X45424100Y-81618583D01*
X45501111Y-81503327D01*
X45554157Y-81375262D01*
X45581200Y-81239308D01*
X45581200Y-81057077D01*
X45829600Y-81057077D01*
X45829600Y-81182922D01*
X45862166Y-81304459D01*
X45862168Y-81304464D01*
X45925085Y-81413438D01*
X46014061Y-81502414D01*
X46014060Y-81502414D01*
X46015642Y-81503327D01*
X46123037Y-81565332D01*
X46123038Y-81565332D01*
X46123040Y-81565333D01*
X46244577Y-81597899D01*
X46244581Y-81597899D01*
X46244583Y-81597900D01*
X46244585Y-81597900D01*
X46370415Y-81597900D01*
X46370417Y-81597900D01*
X46370419Y-81597899D01*
X46370422Y-81597899D01*
X46491959Y-81565333D01*
X46491958Y-81565333D01*
X46491963Y-81565332D01*
X46600938Y-81502415D01*
X46689915Y-81413438D01*
X46752832Y-81304463D01*
X46770290Y-81239308D01*
X46785399Y-81182922D01*
X46785400Y-81182915D01*
X46785400Y-81057084D01*
X46785399Y-81057077D01*
X51609600Y-81057077D01*
X51609600Y-81182922D01*
X51642166Y-81304459D01*
X51642168Y-81304464D01*
X51705085Y-81413438D01*
X51794061Y-81502414D01*
X51794060Y-81502414D01*
X51795642Y-81503327D01*
X51903037Y-81565332D01*
X51903038Y-81565332D01*
X51903040Y-81565333D01*
X52024577Y-81597899D01*
X52024581Y-81597899D01*
X52024583Y-81597900D01*
X52024585Y-81597900D01*
X52150415Y-81597900D01*
X52150417Y-81597900D01*
X52150419Y-81597899D01*
X52150422Y-81597899D01*
X52271959Y-81565333D01*
X52271958Y-81565333D01*
X52271963Y-81565332D01*
X52380938Y-81502415D01*
X52469915Y-81413438D01*
X52532832Y-81304463D01*
X52550290Y-81239308D01*
X52565399Y-81182922D01*
X52565400Y-81182915D01*
X52565400Y-81057084D01*
X52565399Y-81057077D01*
X52532833Y-80935540D01*
X52532831Y-80935535D01*
X52469914Y-80826561D01*
X52380938Y-80737585D01*
X52380939Y-80737585D01*
X52271964Y-80674668D01*
X52271959Y-80674666D01*
X52150422Y-80642100D01*
X52150417Y-80642100D01*
X52024583Y-80642100D01*
X52024577Y-80642100D01*
X51903040Y-80674666D01*
X51903035Y-80674668D01*
X51794061Y-80737585D01*
X51705085Y-80826561D01*
X51642168Y-80935535D01*
X51642166Y-80935540D01*
X51609600Y-81057077D01*
X46785399Y-81057077D01*
X46752833Y-80935540D01*
X46752831Y-80935535D01*
X46689914Y-80826561D01*
X46600938Y-80737585D01*
X46600939Y-80737585D01*
X46491964Y-80674668D01*
X46491959Y-80674666D01*
X46370422Y-80642100D01*
X46370417Y-80642100D01*
X46244583Y-80642100D01*
X46244577Y-80642100D01*
X46123040Y-80674666D01*
X46123035Y-80674668D01*
X46014061Y-80737585D01*
X45925085Y-80826561D01*
X45862168Y-80935535D01*
X45862166Y-80935540D01*
X45829600Y-81057077D01*
X45581200Y-81057077D01*
X45581200Y-80000692D01*
X52813800Y-80000692D01*
X52813800Y-81239307D01*
X52840843Y-81375264D01*
X52893887Y-81503323D01*
X52893888Y-81503326D01*
X52893889Y-81503327D01*
X52970900Y-81618583D01*
X53068917Y-81716600D01*
X53184173Y-81793611D01*
X53248205Y-81820134D01*
X53312235Y-81846656D01*
X53312236Y-81846656D01*
X53312238Y-81846657D01*
X53448192Y-81873700D01*
X53448193Y-81873700D01*
X53586807Y-81873700D01*
X53586808Y-81873700D01*
X53722762Y-81846657D01*
X53850827Y-81793611D01*
X53966083Y-81716600D01*
X54064100Y-81618583D01*
X54141111Y-81503327D01*
X54194157Y-81375262D01*
X54221200Y-81239308D01*
X54221200Y-80000692D01*
X54194157Y-79864738D01*
X54141111Y-79736673D01*
X54064100Y-79621417D01*
X53966083Y-79523400D01*
X53850827Y-79446389D01*
X53850828Y-79446389D01*
X53850826Y-79446388D01*
X53850823Y-79446387D01*
X53722764Y-79393343D01*
X53632126Y-79375314D01*
X53586808Y-79366300D01*
X53448192Y-79366300D01*
X53414203Y-79373060D01*
X53312235Y-79393343D01*
X53184176Y-79446387D01*
X53184173Y-79446388D01*
X53068913Y-79523403D01*
X52970903Y-79621413D01*
X52893888Y-79736673D01*
X52893887Y-79736676D01*
X52840843Y-79864735D01*
X52813800Y-80000692D01*
X45581200Y-80000692D01*
X45554157Y-79864738D01*
X45501111Y-79736673D01*
X45424100Y-79621417D01*
X45326083Y-79523400D01*
X45210827Y-79446389D01*
X45210828Y-79446389D01*
X45210826Y-79446388D01*
X45210823Y-79446387D01*
X45082764Y-79393343D01*
X44992126Y-79375314D01*
X44946808Y-79366300D01*
X44808192Y-79366300D01*
X44774203Y-79373060D01*
X44672235Y-79393343D01*
X44544176Y-79446387D01*
X44544173Y-79446388D01*
X44428913Y-79523403D01*
X44330903Y-79621413D01*
X44253888Y-79736673D01*
X44253887Y-79736676D01*
X44200843Y-79864735D01*
X44173800Y-80000692D01*
X30000000Y-80000692D01*
X30000000Y-76139740D01*
X33442300Y-76139740D01*
X33442300Y-76260259D01*
X33473493Y-76376668D01*
X33533747Y-76481031D01*
X33533749Y-76481034D01*
X33618966Y-76566251D01*
X33618968Y-76566252D01*
X33723331Y-76626506D01*
X33723335Y-76626508D01*
X33839743Y-76657700D01*
X41960257Y-76657700D01*
X42076665Y-76626508D01*
X42181034Y-76566251D01*
X42266251Y-76481034D01*
X42326508Y-76376665D01*
X42357700Y-76260257D01*
X42357700Y-76139743D01*
X42326508Y-76023335D01*
X42266251Y-75918966D01*
X42181034Y-75833749D01*
X42181031Y-75833747D01*
X42076668Y-75773493D01*
X42076665Y-75773492D01*
X42045478Y-75765135D01*
X41960259Y-75742300D01*
X41960257Y-75742300D01*
X33839743Y-75742300D01*
X33839740Y-75742300D01*
X33723331Y-75773493D01*
X33618968Y-75833747D01*
X33618967Y-75833748D01*
X33618966Y-75833749D01*
X33533749Y-75918966D01*
X33533748Y-75918967D01*
X33533747Y-75918968D01*
X33473493Y-76023331D01*
X33442300Y-76139740D01*
X30000000Y-76139740D01*
X30000000Y-60100600D01*
X30019213Y-60041469D01*
X30069513Y-60004924D01*
X30100600Y-60000000D01*
X30719500Y-60000000D01*
X30778631Y-60019213D01*
G37*
%TD.AperFunction*%
%TD*%
M02*
