M48
; DRILL file {KiCad 9.0.1} date 2025-11-13T12:10:01-0600
; FORMAT={-:-/ absolute / inch / decimal}
; #@! TF.CreationDate,2025-11-13T12:10:01-06:00
; #@! TF.GenerationSoftware,Kicad,Pcbnew,9.0.1
; #@! TF.FileFunction,Plated,1,2,PTH
FMAT,2
INCH
; #@! TA.AperFunction,Plated,PTH,ViaDrill
T1C0.0100
; #@! TA.AperFunction,Plated,PTH,ComponentDrill
T2C0.0100
; #@! TA.AperFunction,Plated,PTH,ComponentDrill
T3C0.0236
%
G90
G05
T1
X1.0394Y-1.7008
X1.1024Y-1.7008
X1.189Y-2.9331
X1.1929Y-2.3583
X1.2165Y-3.1063
X1.2717Y-2.8228
X1.2874Y-2.3504
X1.3071Y-2.8028
X1.3346Y-3.0
X1.3898Y-3.2441
X1.4803Y-2.4724
X1.5118Y-2.4524
X1.5118Y-2.4961
X1.5827Y-2.3622
X1.5866Y-2.0827
X1.6181Y-2.5512
X1.6496Y-3.0
X1.685Y-3.2323
X1.7244Y-3.0394
X1.752Y-2.6614
X1.7795Y-3.0394
X1.8031Y-2.3898
X1.8819Y-2.6654
X1.9134Y-2.8189
X1.937Y-2.3858
X1.9764Y-2.8189
X2.0354Y-2.6614
X2.063Y-2.3858
X2.0866Y-2.5394
X2.0945Y-3.0433
X2.0984Y-2.8583
X2.1181Y-2.8071
X2.1575Y-2.7283
X2.1654Y-3.0433
X2.1969Y-2.9587
X2.2087Y-2.6043
X2.2126Y-2.4488
X2.2323Y-2.8622
X2.2677Y-3.0453
X2.3406Y-2.8661
X2.3425Y-3.0453
X2.3622Y-2.9626
X2.3858Y-2.4409
X2.3898Y-2.6063
X2.4094Y-2.874
X2.4252Y-2.6772
X2.4252Y-3.1102
X2.4331Y-3.0433
X2.4445Y-1.9484
X2.4882Y-3.3543
X2.5394Y-1.685
X2.6181Y-3.2205
X2.6433Y-2.3984
T2
X1.3081Y-2.6068
X1.3081Y-2.6845
X1.3469Y-2.5679
X1.3469Y-2.6457
X1.3469Y-2.7234
X1.3858Y-2.6068
X1.3858Y-2.6845
X1.4247Y-2.5679
X1.4247Y-2.6457
X1.4247Y-2.7234
X1.4636Y-2.6068
X1.4636Y-2.6845
T3
G00X1.7668Y-3.1524
M15
G01X1.7668Y-3.1957
M16
G05
G00X1.7668Y-3.3228
M15
G01X1.7668Y-3.3543
M16
G05
G00X2.107Y-3.1524
M15
G01X2.107Y-3.1957
M16
G05
G00X2.107Y-3.3228
M15
G01X2.107Y-3.3543
M16
G05
M30
