%TF.GenerationSoftware,KiCad,Pcbnew,9.0.1*%
%TF.CreationDate,2025-11-13T12:09:59-06:00*%
%TF.ProjectId,AirCube,41697243-7562-4652-9e6b-696361645f70,rev?*%
%TF.SameCoordinates,Original*%
%TF.FileFunction,Paste,Top*%
%TF.FilePolarity,Positive*%
%FSLAX46Y46*%
G04 Gerber Fmt 4.6, Leading zero omitted, Abs format (unit mm)*
G04 Created by KiCad (PCBNEW 9.0.1) date 2025-11-13 12:09:59*
%MOMM*%
%LPD*%
G01*
G04 APERTURE LIST*
G04 Aperture macros list*
%AMRoundRect*
0 Rectangle with rounded corners*
0 $1 Rounding radius*
0 $2 $3 $4 $5 $6 $7 $8 $9 X,Y pos of 4 corners*
0 Add a 4 corners polygon primitive as box body*
4,1,4,$2,$3,$4,$5,$6,$7,$8,$9,$2,$3,0*
0 Add four circle primitives for the rounded corners*
1,1,$1+$1,$2,$3*
1,1,$1+$1,$4,$5*
1,1,$1+$1,$6,$7*
1,1,$1+$1,$8,$9*
0 Add four rect primitives between the rounded corners*
20,1,$1+$1,$2,$3,$4,$5,0*
20,1,$1+$1,$4,$5,$6,$7,0*
20,1,$1+$1,$6,$7,$8,$9,0*
20,1,$1+$1,$8,$9,$2,$3,0*%
G04 Aperture macros list end*
%ADD10C,0.010000*%
%ADD11RoundRect,0.200000X0.275000X-0.200000X0.275000X0.200000X-0.275000X0.200000X-0.275000X-0.200000X0*%
%ADD12RoundRect,0.225000X0.225000X0.250000X-0.225000X0.250000X-0.225000X-0.250000X0.225000X-0.250000X0*%
%ADD13R,0.320000X0.640000*%
%ADD14R,0.640000X0.320000*%
%ADD15R,1.160000X1.160000*%
%ADD16R,0.560000X0.560000*%
%ADD17R,0.558800X0.558800*%
%ADD18RoundRect,0.100000X0.200000X0.100000X-0.200000X0.100000X-0.200000X-0.100000X0.200000X-0.100000X0*%
%ADD19RoundRect,0.097500X0.097500X0.382500X-0.097500X0.382500X-0.097500X-0.382500X0.097500X-0.382500X0*%
%ADD20RoundRect,0.225000X-0.250000X0.225000X-0.250000X-0.225000X0.250000X-0.225000X0.250000X0.225000X0*%
%ADD21RoundRect,0.200000X-0.275000X0.200000X-0.275000X-0.200000X0.275000X-0.200000X0.275000X0.200000X0*%
%ADD22RoundRect,0.225000X-0.225000X-0.250000X0.225000X-0.250000X0.225000X0.250000X-0.225000X0.250000X0*%
%ADD23RoundRect,0.150000X-0.150000X0.587500X-0.150000X-0.587500X0.150000X-0.587500X0.150000X0.587500X0*%
%ADD24RoundRect,0.150000X-0.150000X-0.200000X0.150000X-0.200000X0.150000X0.200000X-0.150000X0.200000X0*%
%ADD25RoundRect,0.175000X-0.325000X0.175000X-0.325000X-0.175000X0.325000X-0.175000X0.325000X0.175000X0*%
%ADD26R,0.480000X0.920000*%
%ADD27R,0.240000X0.920000*%
%ADD28R,0.812800X1.422400*%
%ADD29RoundRect,0.212500X0.212500X0.212500X-0.212500X0.212500X-0.212500X-0.212500X0.212500X-0.212500X0*%
%ADD30R,1.400000X1.050000*%
%ADD31RoundRect,0.150000X-0.587500X-0.150000X0.587500X-0.150000X0.587500X0.150000X-0.587500X0.150000X0*%
G04 APERTURE END LIST*
D10*
%TO.C,U7*%
X33850000Y-69800000D02*
X33100000Y-69800000D01*
X32600000Y-69300000D01*
X32600000Y-68550000D01*
X33850000Y-68550000D01*
X33850000Y-69800000D01*
G36*
X33850000Y-69800000D02*
G01*
X33100000Y-69800000D01*
X32600000Y-69300000D01*
X32600000Y-68550000D01*
X33850000Y-68550000D01*
X33850000Y-69800000D01*
G37*
%TD*%
D11*
%TO.C,R10*%
X38200000Y-77825000D03*
X38200000Y-76175000D03*
%TD*%
D12*
%TO.C,C15*%
X64800000Y-47900000D03*
X63250000Y-47900000D03*
%TD*%
D13*
%TO.C,U7*%
X31200000Y-73100000D03*
X32000000Y-73100000D03*
X32800000Y-73100000D03*
X33600000Y-73100000D03*
X34400000Y-73100000D03*
X35200000Y-73100000D03*
X36000000Y-73100000D03*
X36800000Y-73100000D03*
X37600000Y-73100000D03*
X38400000Y-73100000D03*
X39200000Y-73100000D03*
D14*
X40100000Y-72000000D03*
X40100000Y-71200000D03*
X40100000Y-70400000D03*
X40100000Y-69600000D03*
X40100000Y-68800000D03*
X40100000Y-68000000D03*
X40100000Y-67200000D03*
X40100000Y-66400000D03*
X40100000Y-65600000D03*
X40100000Y-64800000D03*
X40100000Y-64000000D03*
X40100000Y-63200000D03*
X40100000Y-62400000D03*
D13*
X39200000Y-61300000D03*
X38400000Y-61300000D03*
X37600000Y-61300000D03*
X36800000Y-61300000D03*
X36000000Y-61300000D03*
X35200000Y-61300000D03*
X34400000Y-61300000D03*
X33600000Y-61300000D03*
X32800000Y-61300000D03*
X32000000Y-61300000D03*
X31200000Y-61300000D03*
D14*
X30300000Y-62400000D03*
X30300000Y-63200000D03*
X30300000Y-64000000D03*
X30300000Y-64800000D03*
X30300000Y-65600000D03*
X30300000Y-66400000D03*
X30300000Y-67200000D03*
X30300000Y-68000000D03*
X30300000Y-68800000D03*
X30300000Y-69600000D03*
X30300000Y-70400000D03*
X30300000Y-71200000D03*
X30300000Y-72000000D03*
D15*
X35200000Y-69175000D03*
X37175000Y-69175000D03*
X33225000Y-67200000D03*
X35200000Y-67200000D03*
X37175000Y-67200000D03*
X33225000Y-65225000D03*
X35200000Y-65225000D03*
X37175000Y-65225000D03*
D16*
X30250000Y-61250000D03*
X40150000Y-61250000D03*
X40150000Y-73150000D03*
X30250000Y-73150000D03*
%TD*%
D17*
%TO.C,LED1*%
X44525000Y-62050040D03*
X44525000Y-63000000D03*
X45475000Y-63000000D03*
X45475000Y-62050040D03*
%TD*%
D18*
%TO.C,U10*%
X28000000Y-45000000D03*
X28000000Y-44250000D03*
X26400000Y-44250000D03*
X26400000Y-45000000D03*
D19*
X27200000Y-44625000D03*
%TD*%
D11*
%TO.C,R18*%
X46900000Y-74325000D03*
X46900000Y-72675000D03*
%TD*%
D12*
%TO.C,C14*%
X64800000Y-49500000D03*
X63250000Y-49500000D03*
%TD*%
D20*
%TO.C,C24*%
X51500000Y-64625000D03*
X51500000Y-66175000D03*
%TD*%
D21*
%TO.C,R5*%
X44325000Y-57975000D03*
X44325000Y-59625000D03*
%TD*%
%TO.C,R19*%
X65200000Y-80175000D03*
X65200000Y-81825000D03*
%TD*%
%TO.C,R11*%
X35300000Y-76175000D03*
X35300000Y-77825000D03*
%TD*%
D20*
%TO.C,C13*%
X42300000Y-69625000D03*
X42300000Y-71175000D03*
%TD*%
D22*
%TO.C,C23*%
X57675000Y-62062500D03*
X59225000Y-62062500D03*
%TD*%
D23*
%TO.C,U5*%
X59350000Y-64062500D03*
X57450000Y-64062500D03*
X58400000Y-65937500D03*
%TD*%
D24*
%TO.C,D5*%
X45200000Y-75900000D03*
X43800000Y-75900000D03*
%TD*%
D20*
%TO.C,C17*%
X48050000Y-64599980D03*
X48050000Y-66149980D03*
%TD*%
D21*
%TO.C,R21*%
X48600000Y-72675000D03*
X48600000Y-74325000D03*
%TD*%
D25*
%TO.C,U6*%
X56800000Y-74200000D03*
X56800000Y-75150000D03*
X56800000Y-76100000D03*
X59400000Y-76100000D03*
X59400000Y-74200000D03*
%TD*%
D20*
%TO.C,C12*%
X35300000Y-79425000D03*
X35300000Y-80975000D03*
%TD*%
D26*
%TO.C,P1*%
X45997500Y-80045000D03*
X46797500Y-80045000D03*
D27*
X47947500Y-80045000D03*
X48947500Y-80045000D03*
X49447500Y-80045000D03*
X50447500Y-80045000D03*
D26*
X51597500Y-80045000D03*
X52397500Y-80045000D03*
D27*
X50947500Y-80045000D03*
X49947500Y-80045000D03*
X48447500Y-80045000D03*
X47447500Y-80045000D03*
%TD*%
D22*
%TO.C,C5*%
X58425000Y-67962500D03*
X59975000Y-67962500D03*
%TD*%
D21*
%TO.C,R4*%
X42700000Y-57975000D03*
X42700000Y-59625000D03*
%TD*%
%TO.C,R16*%
X42797500Y-79112500D03*
X42797500Y-80762500D03*
%TD*%
D20*
%TO.C,C16*%
X44500000Y-64599980D03*
X44500000Y-66149980D03*
%TD*%
D28*
%TO.C,S2*%
X31075000Y-58200200D03*
X32725000Y-58200200D03*
X32725000Y-54999800D03*
X31075000Y-54999800D03*
%TD*%
D20*
%TO.C,C32*%
X29590000Y-44995000D03*
X29590000Y-46545000D03*
%TD*%
%TO.C,C27*%
X63400000Y-80225000D03*
X63400000Y-81775000D03*
%TD*%
D21*
%TO.C,R20*%
X61600000Y-80175000D03*
X61600000Y-81825000D03*
%TD*%
%TO.C,R12*%
X42300000Y-63975000D03*
X42300000Y-65625000D03*
%TD*%
D20*
%TO.C,C22*%
X61200000Y-74325000D03*
X61200000Y-75875000D03*
%TD*%
D11*
%TO.C,R1*%
X40300000Y-55950000D03*
X40300000Y-54300000D03*
%TD*%
D29*
%TO.C,U2*%
X63500000Y-44150000D03*
X63500000Y-45200000D03*
X63500000Y-46250000D03*
X64550000Y-46250000D03*
X65600000Y-46250000D03*
X65600000Y-45200000D03*
X65600000Y-44150000D03*
X64550000Y-44150000D03*
X64550000Y-45200000D03*
%TD*%
D30*
%TO.C,S3*%
X57975000Y-83775000D03*
X61575000Y-83775000D03*
X57975000Y-85225000D03*
X61575000Y-85225000D03*
%TD*%
D11*
%TO.C,R17*%
X52000000Y-74325000D03*
X52000000Y-72675000D03*
%TD*%
D20*
%TO.C,C10*%
X33600000Y-79425000D03*
X33600000Y-80975000D03*
%TD*%
%TO.C,C21*%
X55000000Y-74325000D03*
X55000000Y-75875000D03*
%TD*%
D31*
%TO.C,Q1*%
X42425000Y-54175000D03*
X42425000Y-56075000D03*
X44300000Y-55125000D03*
%TD*%
D12*
%TO.C,C9*%
X32475000Y-75900000D03*
X30925000Y-75900000D03*
%TD*%
D17*
%TO.C,LED2*%
X48050000Y-62025020D03*
X48050000Y-62974980D03*
X49000000Y-62974980D03*
X49000000Y-62025020D03*
%TD*%
%TO.C,LED3*%
X51525000Y-62000000D03*
X51525000Y-62949960D03*
X52475000Y-62949960D03*
X52475000Y-62000000D03*
%TD*%
D11*
%TO.C,R22*%
X50200000Y-74325000D03*
X50200000Y-72675000D03*
%TD*%
D12*
%TO.C,C11*%
X32475000Y-77500000D03*
X30925000Y-77500000D03*
%TD*%
D11*
%TO.C,R9*%
X39800000Y-77825000D03*
X39800000Y-76175000D03*
%TD*%
M02*
