ISO-10303-21;
HEADER;
/* Generated by software containing ST-Developer
 * from STEP Tools, Inc. (www.steptools.com) 
 */

FILE_DESCRIPTION(
/* description */ ('KiCad electronic assembly'),
/* implementation_level */ '2;1');

FILE_NAME(
/* name */ 'AirCube_air_wall_8-31-26.step',
/* time_stamp */ '2026-08-31T13:56:25-05:00',
/* author */ (''),
/* organization */ (''),
/* preprocessor_version */ 'ST-DEVELOPER v20.1',
/* originating_system */ 'Autodesk Translation Framework v15.8.0.0',
/* authorisation */ '');

FILE_SCHEMA (('AUTOMOTIVE_DESIGN { 1 0 10303 214 3 1 1 }'));
ENDSEC;

DATA;
#10=MECHANICAL_DESIGN_GEOMETRIC_PRESENTATION_REPRESENTATION('',(#13),#1910);
#11=SHAPE_REPRESENTATION_RELATIONSHIP('SRR','None',#1916,#12);
#12=ADVANCED_BREP_SHAPE_REPRESENTATION('',(#14),#1909);
#13=STYLED_ITEM('',(#1931),#14);
#14=MANIFOLD_SOLID_BREP('air wall pro',#1123);
#15=(
BOUNDED_SURFACE()
B_SPLINE_SURFACE(2,2,((#1843,#1844,#1845),(#1846,#1847,#1848),(#1849,#1850,
#1851)),.UNSPECIFIED.,.F.,.F.,.F.)
B_SPLINE_SURFACE_WITH_KNOTS((3,3),(3,3),(-1.5707963267949,0.),(-1.5707963267949,
0.),.UNSPECIFIED.)
GEOMETRIC_REPRESENTATION_ITEM()
RATIONAL_B_SPLINE_SURFACE(((1.,0.707106781186548,1.),(0.707106781186547,
0.5,0.707106781186547),(1.,0.707106781186548,1.)))
REPRESENTATION_ITEM('')
SURFACE()
);
#16=FACE_BOUND('',#176,.T.);
#17=FACE_BOUND('',#212,.T.);
#18=SPHERICAL_SURFACE('',#1148,2.5);
#19=SPHERICAL_SURFACE('',#1190,0.999999999999996);
#20=B_SPLINE_CURVE_WITH_KNOTS('',3,(#1654,#1655,#1656,#1657,#1658,#1659),
 .UNSPECIFIED.,.F.,.F.,(4,2,4),(0.595038207854641,0.68949997098225,0.847319773390026),
 .UNSPECIFIED.);
#21=B_SPLINE_CURVE_WITH_KNOTS('',3,(#1705,#1706,#1707,#1708,#1709,#1710),
 .UNSPECIFIED.,.F.,.F.,(4,2,4),(0.,0.145688728850531,0.234365297915686),
 .UNSPECIFIED.);
#22=B_SPLINE_CURVE_WITH_KNOTS('',3,(#1786,#1787,#1788,#1789,#1790,#1791),
 .UNSPECIFIED.,.F.,.F.,(4,2,4),(1.38415319206333E-8,0.0411085138525737,
0.0585493887600479),.UNSPECIFIED.);
#23=TOROIDAL_SURFACE('',#1140,3.5,1.);
#24=TOROIDAL_SURFACE('',#1177,2.,1.);
#25=TOROIDAL_SURFACE('',#1183,2.,1.);
#26=TOROIDAL_SURFACE('',#1200,3.,1.);
#27=ELLIPSE('',#1135,1.4142135623731,1.);
#28=CYLINDRICAL_SURFACE('',#1133,1.);
#29=CYLINDRICAL_SURFACE('',#1136,1.);
#30=CYLINDRICAL_SURFACE('',#1144,1.);
#31=CYLINDRICAL_SURFACE('',#1146,2.5);
#32=CYLINDRICAL_SURFACE('',#1151,2.5);
#33=CYLINDRICAL_SURFACE('',#1153,2.5);
#34=CYLINDRICAL_SURFACE('',#1173,1.);
#35=CYLINDRICAL_SURFACE('',#1176,2.80000042591);
#36=CYLINDRICAL_SURFACE('',#1182,1.);
#37=CYLINDRICAL_SURFACE('',#1186,1.);
#38=CYLINDRICAL_SURFACE('',#1194,1.);
#39=CYLINDRICAL_SURFACE('',#1195,1.);
#40=CYLINDRICAL_SURFACE('',#1197,1.);
#41=CYLINDRICAL_SURFACE('',#1198,1.);
#42=CYLINDRICAL_SURFACE('',#1202,2.);
#43=CYLINDRICAL_SURFACE('',#1206,2.);
#44=CYLINDRICAL_SURFACE('',#1209,2.5);
#45=CYLINDRICAL_SURFACE('',#1217,2.79999982707403);
#46=CYLINDRICAL_SURFACE('',#1229,2.25000000000001);
#47=CYLINDRICAL_SURFACE('',#1230,1.25);
#48=CIRCLE('',#1127,1.);
#49=CIRCLE('',#1128,1.);
#50=CIRCLE('',#1129,2.);
#51=CIRCLE('',#1130,1.);
#52=CIRCLE('',#1131,1.);
#53=CIRCLE('',#1132,2.5);
#54=CIRCLE('',#1134,1.);
#55=CIRCLE('',#1137,1.00000000000001);
#56=CIRCLE('',#1139,2.80000042591);
#57=CIRCLE('',#1141,1.00000000000001);
#58=CIRCLE('',#1142,3.5);
#59=CIRCLE('',#1143,2.5);
#60=CIRCLE('',#1147,2.5);
#61=CIRCLE('',#1149,2.5);
#62=CIRCLE('',#1150,2.49999999999999);
#63=CIRCLE('',#1152,2.5);
#64=CIRCLE('',#1154,2.50000000000003);
#65=CIRCLE('',#1156,2.80000042591);
#66=CIRCLE('',#1162,1.);
#67=CIRCLE('',#1163,3.);
#68=CIRCLE('',#1166,2.25000000000001);
#69=CIRCLE('',#1167,1.);
#70=CIRCLE('',#1170,1.25);
#71=CIRCLE('',#1178,1.00000000000001);
#72=CIRCLE('',#1179,2.);
#73=CIRCLE('',#1180,1.);
#74=CIRCLE('',#1181,1.);
#75=CIRCLE('',#1184,1.);
#76=CIRCLE('',#1185,1.);
#77=CIRCLE('',#1187,1.);
#78=CIRCLE('',#1191,1.);
#79=CIRCLE('',#1192,0.999999999999996);
#80=CIRCLE('',#1193,1.);
#81=CIRCLE('',#1196,1.);
#82=CIRCLE('',#1199,0.999999999999996);
#83=CIRCLE('',#1201,2.);
#84=CIRCLE('',#1203,1.99999999999999);
#85=CIRCLE('',#1205,0.5);
#86=CIRCLE('',#1207,2.);
#87=CIRCLE('',#1208,2.5);
#88=CIRCLE('',#1210,2.5);
#89=CIRCLE('',#1211,2.5);
#90=CIRCLE('',#1213,2.79999982707403);
#91=CIRCLE('',#1218,2.79999982707403);
#92=CIRCLE('',#1226,2.25000000000001);
#93=CIRCLE('',#1227,1.25);
#94=FACE_OUTER_BOUND('',#154,.T.);
#95=FACE_OUTER_BOUND('',#155,.T.);
#96=FACE_OUTER_BOUND('',#156,.T.);
#97=FACE_OUTER_BOUND('',#157,.T.);
#98=FACE_OUTER_BOUND('',#158,.T.);
#99=FACE_OUTER_BOUND('',#159,.T.);
#100=FACE_OUTER_BOUND('',#160,.T.);
#101=FACE_OUTER_BOUND('',#161,.T.);
#102=FACE_OUTER_BOUND('',#162,.T.);
#103=FACE_OUTER_BOUND('',#163,.T.);
#104=FACE_OUTER_BOUND('',#164,.T.);
#105=FACE_OUTER_BOUND('',#165,.T.);
#106=FACE_OUTER_BOUND('',#166,.T.);
#107=FACE_OUTER_BOUND('',#167,.T.);
#108=FACE_OUTER_BOUND('',#168,.T.);
#109=FACE_OUTER_BOUND('',#169,.T.);
#110=FACE_OUTER_BOUND('',#170,.T.);
#111=FACE_OUTER_BOUND('',#171,.T.);
#112=FACE_OUTER_BOUND('',#172,.T.);
#113=FACE_OUTER_BOUND('',#173,.T.);
#114=FACE_OUTER_BOUND('',#174,.T.);
#115=FACE_OUTER_BOUND('',#175,.T.);
#116=FACE_OUTER_BOUND('',#177,.T.);
#117=FACE_OUTER_BOUND('',#178,.T.);
#118=FACE_OUTER_BOUND('',#179,.T.);
#119=FACE_OUTER_BOUND('',#180,.T.);
#120=FACE_OUTER_BOUND('',#181,.T.);
#121=FACE_OUTER_BOUND('',#182,.T.);
#122=FACE_OUTER_BOUND('',#183,.T.);
#123=FACE_OUTER_BOUND('',#184,.T.);
#124=FACE_OUTER_BOUND('',#185,.T.);
#125=FACE_OUTER_BOUND('',#186,.T.);
#126=FACE_OUTER_BOUND('',#187,.T.);
#127=FACE_OUTER_BOUND('',#188,.T.);
#128=FACE_OUTER_BOUND('',#189,.T.);
#129=FACE_OUTER_BOUND('',#190,.T.);
#130=FACE_OUTER_BOUND('',#191,.T.);
#131=FACE_OUTER_BOUND('',#192,.T.);
#132=FACE_OUTER_BOUND('',#193,.T.);
#133=FACE_OUTER_BOUND('',#194,.T.);
#134=FACE_OUTER_BOUND('',#195,.T.);
#135=FACE_OUTER_BOUND('',#196,.T.);
#136=FACE_OUTER_BOUND('',#197,.T.);
#137=FACE_OUTER_BOUND('',#198,.T.);
#138=FACE_OUTER_BOUND('',#199,.T.);
#139=FACE_OUTER_BOUND('',#200,.T.);
#140=FACE_OUTER_BOUND('',#201,.T.);
#141=FACE_OUTER_BOUND('',#202,.T.);
#142=FACE_OUTER_BOUND('',#203,.T.);
#143=FACE_OUTER_BOUND('',#204,.T.);
#144=FACE_OUTER_BOUND('',#205,.T.);
#145=FACE_OUTER_BOUND('',#206,.T.);
#146=FACE_OUTER_BOUND('',#207,.T.);
#147=FACE_OUTER_BOUND('',#208,.T.);
#148=FACE_OUTER_BOUND('',#209,.T.);
#149=FACE_OUTER_BOUND('',#210,.T.);
#150=FACE_OUTER_BOUND('',#211,.T.);
#151=FACE_OUTER_BOUND('',#213,.T.);
#152=FACE_OUTER_BOUND('',#214,.T.);
#153=FACE_OUTER_BOUND('',#215,.T.);
#154=EDGE_LOOP('',(#706,#707,#708,#709));
#155=EDGE_LOOP('',(#710,#711,#712,#713,#714,#715,#716,#717,#718,#719,#720,
#721,#722,#723,#724,#725,#726,#727,#728,#729,#730,#731,#732,#733,#734,#735,
#736,#737,#738,#739));
#156=EDGE_LOOP('',(#740,#741,#742,#743));
#157=EDGE_LOOP('',(#744,#745,#746,#747));
#158=EDGE_LOOP('',(#748,#749,#750,#751,#752,#753));
#159=EDGE_LOOP('',(#754,#755,#756,#757));
#160=EDGE_LOOP('',(#758,#759,#760,#761));
#161=EDGE_LOOP('',(#762,#763,#764,#765));
#162=EDGE_LOOP('',(#766,#767,#768,#769));
#163=EDGE_LOOP('',(#770,#771,#772));
#164=EDGE_LOOP('',(#773,#774,#775,#776));
#165=EDGE_LOOP('',(#777,#778,#779,#780,#781));
#166=EDGE_LOOP('',(#782,#783,#784,#785,#786,#787));
#167=EDGE_LOOP('',(#788,#789,#790,#791,#792,#793,#794,#795));
#168=EDGE_LOOP('',(#796,#797,#798,#799,#800,#801,#802,#803,#804,#805,#806));
#169=EDGE_LOOP('',(#807,#808,#809,#810,#811,#812));
#170=EDGE_LOOP('',(#813,#814,#815,#816));
#171=EDGE_LOOP('',(#817,#818,#819,#820,#821,#822,#823,#824,#825,#826,#827));
#172=EDGE_LOOP('',(#828,#829,#830,#831));
#173=EDGE_LOOP('',(#832,#833,#834,#835,#836,#837,#838,#839,#840));
#174=EDGE_LOOP('',(#841,#842,#843,#844));
#175=EDGE_LOOP('',(#845,#846,#847,#848,#849,#850,#851,#852));
#176=EDGE_LOOP('',(#853));
#177=EDGE_LOOP('',(#854,#855,#856,#857));
#178=EDGE_LOOP('',(#858,#859,#860,#861,#862,#863,#864,#865));
#179=EDGE_LOOP('',(#866,#867,#868,#869));
#180=EDGE_LOOP('',(#870,#871,#872,#873));
#181=EDGE_LOOP('',(#874,#875,#876,#877));
#182=EDGE_LOOP('',(#878,#879,#880,#881));
#183=EDGE_LOOP('',(#882,#883,#884,#885));
#184=EDGE_LOOP('',(#886,#887,#888,#889));
#185=EDGE_LOOP('',(#890,#891,#892,#893));
#186=EDGE_LOOP('',(#894,#895,#896,#897));
#187=EDGE_LOOP('',(#898,#899,#900,#901,#902));
#188=EDGE_LOOP('',(#903,#904,#905,#906));
#189=EDGE_LOOP('',(#907,#908,#909));
#190=EDGE_LOOP('',(#910,#911,#912,#913,#914));
#191=EDGE_LOOP('',(#915,#916,#917,#918));
#192=EDGE_LOOP('',(#919,#920,#921,#922));
#193=EDGE_LOOP('',(#923,#924,#925,#926));
#194=EDGE_LOOP('',(#927,#928,#929,#930));
#195=EDGE_LOOP('',(#931,#932,#933,#934));
#196=EDGE_LOOP('',(#935,#936,#937,#938,#939));
#197=EDGE_LOOP('',(#940,#941,#942,#943));
#198=EDGE_LOOP('',(#944,#945,#946,#947));
#199=EDGE_LOOP('',(#948,#949,#950,#951,#952));
#200=EDGE_LOOP('',(#953,#954,#955,#956,#957,#958));
#201=EDGE_LOOP('',(#959,#960,#961,#962,#963,#964,#965,#966,#967));
#202=EDGE_LOOP('',(#968,#969,#970,#971,#972,#973,#974,#975));
#203=EDGE_LOOP('',(#976,#977,#978,#979));
#204=EDGE_LOOP('',(#980,#981,#982,#983));
#205=EDGE_LOOP('',(#984,#985,#986,#987,#988,#989));
#206=EDGE_LOOP('',(#990,#991,#992,#993));
#207=EDGE_LOOP('',(#994,#995,#996,#997,#998,#999));
#208=EDGE_LOOP('',(#1000,#1001,#1002,#1003));
#209=EDGE_LOOP('',(#1004,#1005,#1006,#1007,#1008));
#210=EDGE_LOOP('',(#1009,#1010,#1011,#1012));
#211=EDGE_LOOP('',(#1013,#1014,#1015,#1016));
#212=EDGE_LOOP('',(#1017));
#213=EDGE_LOOP('',(#1018,#1019,#1020,#1021));
#214=EDGE_LOOP('',(#1022,#1023,#1024,#1025));
#215=EDGE_LOOP('',(#1026,#1027,#1028,#1029));
#216=LINE('',#1561,#328);
#217=LINE('',#1563,#329);
#218=LINE('',#1565,#330);
#219=LINE('',#1566,#331);
#220=LINE('',#1569,#332);
#221=LINE('',#1571,#333);
#222=LINE('',#1573,#334);
#223=LINE('',#1575,#335);
#224=LINE('',#1579,#336);
#225=LINE('',#1583,#337);
#226=LINE('',#1585,#338);
#227=LINE('',#1587,#339);
#228=LINE('',#1591,#340);
#229=LINE('',#1595,#341);
#230=LINE('',#1597,#342);
#231=LINE('',#1599,#343);
#232=LINE('',#1601,#344);
#233=LINE('',#1603,#345);
#234=LINE('',#1605,#346);
#235=LINE('',#1607,#347);
#236=LINE('',#1609,#348);
#237=LINE('',#1611,#349);
#238=LINE('',#1615,#350);
#239=LINE('',#1619,#351);
#240=LINE('',#1621,#352);
#241=LINE('',#1623,#353);
#242=LINE('',#1624,#354);
#243=LINE('',#1628,#355);
#244=LINE('',#1632,#356);
#245=LINE('',#1635,#357);
#246=LINE('',#1638,#358);
#247=LINE('',#1641,#359);
#248=LINE('',#1643,#360);
#249=LINE('',#1646,#361);
#250=LINE('',#1662,#362);
#251=LINE('',#1663,#363);
#252=LINE('',#1666,#364);
#253=LINE('',#1667,#365);
#254=LINE('',#1670,#366);
#255=LINE('',#1680,#367);
#256=LINE('',#1681,#368);
#257=LINE('',#1684,#369);
#258=LINE('',#1688,#370);
#259=LINE('',#1692,#371);
#260=LINE('',#1693,#372);
#261=LINE('',#1696,#373);
#262=LINE('',#1698,#374);
#263=LINE('',#1699,#375);
#264=LINE('',#1700,#376);
#265=LINE('',#1703,#377);
#266=LINE('',#1712,#378);
#267=LINE('',#1714,#379);
#268=LINE('',#1716,#380);
#269=LINE('',#1718,#381);
#270=LINE('',#1719,#382);
#271=LINE('',#1722,#383);
#272=LINE('',#1723,#384);
#273=LINE('',#1724,#385);
#274=LINE('',#1728,#386);
#275=LINE('',#1730,#387);
#276=LINE('',#1733,#388);
#277=LINE('',#1735,#389);
#278=LINE('',#1739,#390);
#279=LINE('',#1740,#391);
#280=LINE('',#1743,#392);
#281=LINE('',#1746,#393);
#282=LINE('',#1748,#394);
#283=LINE('',#1751,#395);
#284=LINE('',#1753,#396);
#285=LINE('',#1756,#397);
#286=LINE('',#1758,#398);
#287=LINE('',#1759,#399);
#288=LINE('',#1763,#400);
#289=LINE('',#1765,#401);
#290=LINE('',#1767,#402);
#291=LINE('',#1770,#403);
#292=LINE('',#1782,#404);
#293=LINE('',#1783,#405);
#294=LINE('',#1797,#406);
#295=LINE('',#1800,#407);
#296=LINE('',#1803,#408);
#297=LINE('',#1804,#409);
#298=LINE('',#1807,#410);
#299=LINE('',#1808,#411);
#300=LINE('',#1816,#412);
#301=LINE('',#1821,#413);
#302=LINE('',#1822,#414);
#303=LINE('',#1824,#415);
#304=LINE('',#1828,#416);
#305=LINE('',#1833,#417);
#306=LINE('',#1837,#418);
#307=LINE('',#1841,#419);
#308=LINE('',#1855,#420);
#309=LINE('',#1863,#421);
#310=LINE('',#1864,#422);
#311=LINE('',#1867,#423);
#312=LINE('',#1868,#424);
#313=LINE('',#1870,#425);
#314=LINE('',#1872,#426);
#315=LINE('',#1873,#427);
#316=LINE('',#1874,#428);
#317=LINE('',#1877,#429);
#318=LINE('',#1878,#430);
#319=LINE('',#1881,#431);
#320=LINE('',#1882,#432);
#321=LINE('',#1888,#433);
#322=LINE('',#1889,#434);
#323=LINE('',#1894,#435);
#324=LINE('',#1895,#436);
#325=LINE('',#1899,#437);
#326=LINE('',#1903,#438);
#327=LINE('',#1906,#439);
#328=VECTOR('',#1235,10.);
#329=VECTOR('',#1236,10.);
#330=VECTOR('',#1237,10.);
#331=VECTOR('',#1238,10.);
#332=VECTOR('',#1241,10.);
#333=VECTOR('',#1242,10.);
#334=VECTOR('',#1243,10.);
#335=VECTOR('',#1244,10.);
#336=VECTOR('',#1247,10.);
#337=VECTOR('',#1250,10.);
#338=VECTOR('',#1251,10.);
#339=VECTOR('',#1252,10.);
#340=VECTOR('',#1255,10.);
#341=VECTOR('',#1258,10.);
#342=VECTOR('',#1259,10.);
#343=VECTOR('',#1260,10.);
#344=VECTOR('',#1261,10.);
#345=VECTOR('',#1262,10.);
#346=VECTOR('',#1263,10.);
#347=VECTOR('',#1264,10.);
#348=VECTOR('',#1265,10.);
#349=VECTOR('',#1266,10.);
#350=VECTOR('',#1269,10.);
#351=VECTOR('',#1272,10.);
#352=VECTOR('',#1273,10.);
#353=VECTOR('',#1274,10.);
#354=VECTOR('',#1275,10.);
#355=VECTOR('',#1278,10.);
#356=VECTOR('',#1281,10.);
#357=VECTOR('',#1286,10.);
#358=VECTOR('',#1289,10.);
#359=VECTOR('',#1292,10.);
#360=VECTOR('',#1293,10.);
#361=VECTOR('',#1296,10.);
#362=VECTOR('',#1307,10.);
#363=VECTOR('',#1308,10.);
#364=VECTOR('',#1311,10.);
#365=VECTOR('',#1312,10.);
#366=VECTOR('',#1315,10.);
#367=VECTOR('',#1328,10.);
#368=VECTOR('',#1329,10.);
#369=VECTOR('',#1332,10.);
#370=VECTOR('',#1337,10.);
#371=VECTOR('',#1340,10.);
#372=VECTOR('',#1341,10.);
#373=VECTOR('',#1344,10.);
#374=VECTOR('',#1345,10.);
#375=VECTOR('',#1346,10.);
#376=VECTOR('',#1347,10.);
#377=VECTOR('',#1350,10.);
#378=VECTOR('',#1351,10.);
#379=VECTOR('',#1352,10.);
#380=VECTOR('',#1353,10.);
#381=VECTOR('',#1354,10.);
#382=VECTOR('',#1355,10.);
#383=VECTOR('',#1358,10.);
#384=VECTOR('',#1359,10.);
#385=VECTOR('',#1360,10.);
#386=VECTOR('',#1365,10.);
#387=VECTOR('',#1366,10.);
#388=VECTOR('',#1369,10.);
#389=VECTOR('',#1370,10.);
#390=VECTOR('',#1375,10.);
#391=VECTOR('',#1376,10.);
#392=VECTOR('',#1379,10.);
#393=VECTOR('',#1382,10.);
#394=VECTOR('',#1383,10.);
#395=VECTOR('',#1386,10.);
#396=VECTOR('',#1389,10.);
#397=VECTOR('',#1392,10.);
#398=VECTOR('',#1393,10.);
#399=VECTOR('',#1394,10.);
#400=VECTOR('',#1399,10.);
#401=VECTOR('',#1402,10.);
#402=VECTOR('',#1405,10.);
#403=VECTOR('',#1410,10.);
#404=VECTOR('',#1425,10.);
#405=VECTOR('',#1426,10.);
#406=VECTOR('',#1435,10.);
#407=VECTOR('',#1438,10.);
#408=VECTOR('',#1441,10.);
#409=VECTOR('',#1442,10.);
#410=VECTOR('',#1445,10.);
#411=VECTOR('',#1446,10.);
#412=VECTOR('',#1457,10.);
#413=VECTOR('',#1462,10.);
#414=VECTOR('',#1463,10.);
#415=VECTOR('',#1466,10.);
#416=VECTOR('',#1471,10.);
#417=VECTOR('',#1478,10.);
#418=VECTOR('',#1483,10.);
#419=VECTOR('',#1488,10.);
#420=VECTOR('',#1495,10.);
#421=VECTOR('',#1504,10.);
#422=VECTOR('',#1505,10.);
#423=VECTOR('',#1508,10.);
#424=VECTOR('',#1509,10.);
#425=VECTOR('',#1510,10.);
#426=VECTOR('',#1511,10.);
#427=VECTOR('',#1512,10.);
#428=VECTOR('',#1513,10.);
#429=VECTOR('',#1516,10.);
#430=VECTOR('',#1517,10.);
#431=VECTOR('',#1520,10.);
#432=VECTOR('',#1521,10.);
#433=VECTOR('',#1532,10.);
#434=VECTOR('',#1533,10.);
#435=VECTOR('',#1540,10.);
#436=VECTOR('',#1541,10.);
#437=VECTOR('',#1546,10.);
#438=VECTOR('',#1551,10.);
#439=VECTOR('',#1556,1.25);
#440=VERTEX_POINT('',#1559);
#441=VERTEX_POINT('',#1560);
#442=VERTEX_POINT('',#1562);
#443=VERTEX_POINT('',#1564);
#444=VERTEX_POINT('',#1568);
#445=VERTEX_POINT('',#1570);
#446=VERTEX_POINT('',#1572);
#447=VERTEX_POINT('',#1574);
#448=VERTEX_POINT('',#1576);
#449=VERTEX_POINT('',#1578);
#450=VERTEX_POINT('',#1580);
#451=VERTEX_POINT('',#1582);
#452=VERTEX_POINT('',#1584);
#453=VERTEX_POINT('',#1586);
#454=VERTEX_POINT('',#1588);
#455=VERTEX_POINT('',#1590);
#456=VERTEX_POINT('',#1592);
#457=VERTEX_POINT('',#1594);
#458=VERTEX_POINT('',#1596);
#459=VERTEX_POINT('',#1598);
#460=VERTEX_POINT('',#1600);
#461=VERTEX_POINT('',#1602);
#462=VERTEX_POINT('',#1604);
#463=VERTEX_POINT('',#1606);
#464=VERTEX_POINT('',#1608);
#465=VERTEX_POINT('',#1610);
#466=VERTEX_POINT('',#1612);
#467=VERTEX_POINT('',#1614);
#468=VERTEX_POINT('',#1616);
#469=VERTEX_POINT('',#1618);
#470=VERTEX_POINT('',#1620);
#471=VERTEX_POINT('',#1622);
#472=VERTEX_POINT('',#1626);
#473=VERTEX_POINT('',#1627);
#474=VERTEX_POINT('',#1629);
#475=VERTEX_POINT('',#1631);
#476=VERTEX_POINT('',#1636);
#477=VERTEX_POINT('',#1640);
#478=VERTEX_POINT('',#1642);
#479=VERTEX_POINT('',#1644);
#480=VERTEX_POINT('',#1648);
#481=VERTEX_POINT('',#1649);
#482=VERTEX_POINT('',#1651);
#483=VERTEX_POINT('',#1653);
#484=VERTEX_POINT('',#1665);
#485=VERTEX_POINT('',#1669);
#486=VERTEX_POINT('',#1673);
#487=VERTEX_POINT('',#1677);
#488=VERTEX_POINT('',#1678);
#489=VERTEX_POINT('',#1683);
#490=VERTEX_POINT('',#1687);
#491=VERTEX_POINT('',#1689);
#492=VERTEX_POINT('',#1691);
#493=VERTEX_POINT('',#1695);
#494=VERTEX_POINT('',#1697);
#495=VERTEX_POINT('',#1702);
#496=VERTEX_POINT('',#1704);
#497=VERTEX_POINT('',#1711);
#498=VERTEX_POINT('',#1713);
#499=VERTEX_POINT('',#1715);
#500=VERTEX_POINT('',#1717);
#501=VERTEX_POINT('',#1721);
#502=VERTEX_POINT('',#1727);
#503=VERTEX_POINT('',#1729);
#504=VERTEX_POINT('',#1731);
#505=VERTEX_POINT('',#1734);
#506=VERTEX_POINT('',#1738);
#507=VERTEX_POINT('',#1742);
#508=VERTEX_POINT('',#1744);
#509=VERTEX_POINT('',#1747);
#510=VERTEX_POINT('',#1749);
#511=VERTEX_POINT('',#1755);
#512=VERTEX_POINT('',#1757);
#513=VERTEX_POINT('',#1760);
#514=VERTEX_POINT('',#1773);
#515=VERTEX_POINT('',#1774);
#516=VERTEX_POINT('',#1776);
#517=VERTEX_POINT('',#1778);
#518=VERTEX_POINT('',#1785);
#519=VERTEX_POINT('',#1792);
#520=VERTEX_POINT('',#1796);
#521=VERTEX_POINT('',#1798);
#522=VERTEX_POINT('',#1802);
#523=VERTEX_POINT('',#1806);
#524=VERTEX_POINT('',#1810);
#525=VERTEX_POINT('',#1812);
#526=VERTEX_POINT('',#1818);
#527=VERTEX_POINT('',#1819);
#528=VERTEX_POINT('',#1826);
#529=VERTEX_POINT('',#1832);
#530=VERTEX_POINT('',#1836);
#531=VERTEX_POINT('',#1840);
#532=VERTEX_POINT('',#1854);
#533=VERTEX_POINT('',#1856);
#534=VERTEX_POINT('',#1860);
#535=VERTEX_POINT('',#1862);
#536=VERTEX_POINT('',#1866);
#537=VERTEX_POINT('',#1869);
#538=VERTEX_POINT('',#1871);
#539=VERTEX_POINT('',#1876);
#540=VERTEX_POINT('',#1880);
#541=VERTEX_POINT('',#1893);
#542=VERTEX_POINT('',#1897);
#543=VERTEX_POINT('',#1900);
#544=EDGE_CURVE('',#440,#441,#216,.T.);
#545=EDGE_CURVE('',#441,#442,#217,.T.);
#546=EDGE_CURVE('',#442,#443,#218,.F.);
#547=EDGE_CURVE('',#440,#443,#219,.T.);
#548=EDGE_CURVE('',#440,#444,#220,.T.);
#549=EDGE_CURVE('',#445,#444,#221,.T.);
#550=EDGE_CURVE('',#445,#446,#222,.T.);
#551=EDGE_CURVE('',#447,#446,#223,.T.);
#552=EDGE_CURVE('',#448,#447,#48,.T.);
#553=EDGE_CURVE('',#448,#449,#224,.T.);
#554=EDGE_CURVE('',#450,#449,#49,.T.);
#555=EDGE_CURVE('',#450,#451,#225,.T.);
#556=EDGE_CURVE('',#451,#452,#226,.T.);
#557=EDGE_CURVE('',#453,#452,#227,.T.);
#558=EDGE_CURVE('',#454,#453,#50,.T.);
#559=EDGE_CURVE('',#455,#454,#228,.T.);
#560=EDGE_CURVE('',#456,#455,#51,.T.);
#561=EDGE_CURVE('',#457,#456,#229,.T.);
#562=EDGE_CURVE('',#458,#457,#230,.T.);
#563=EDGE_CURVE('',#459,#458,#231,.T.);
#564=EDGE_CURVE('',#459,#460,#232,.T.);
#565=EDGE_CURVE('',#460,#461,#233,.T.);
#566=EDGE_CURVE('',#461,#462,#234,.T.);
#567=EDGE_CURVE('',#462,#463,#235,.T.);
#568=EDGE_CURVE('',#464,#463,#236,.T.);
#569=EDGE_CURVE('',#465,#464,#237,.T.);
#570=EDGE_CURVE('',#466,#465,#52,.T.);
#571=EDGE_CURVE('',#467,#466,#238,.T.);
#572=EDGE_CURVE('',#468,#467,#53,.T.);
#573=EDGE_CURVE('',#469,#468,#239,.T.);
#574=EDGE_CURVE('',#469,#470,#240,.T.);
#575=EDGE_CURVE('',#470,#471,#241,.T.);
#576=EDGE_CURVE('',#471,#441,#242,.T.);
#577=EDGE_CURVE('',#472,#473,#243,.T.);
#578=EDGE_CURVE('',#473,#474,#54,.T.);
#579=EDGE_CURVE('',#474,#475,#244,.T.);
#580=EDGE_CURVE('',#475,#472,#27,.T.);
#581=EDGE_CURVE('',#475,#471,#245,.T.);
#582=EDGE_CURVE('',#471,#476,#55,.T.);
#583=EDGE_CURVE('',#476,#472,#246,.T.);
#584=EDGE_CURVE('',#476,#477,#247,.T.);
#585=EDGE_CURVE('',#477,#478,#248,.T.);
#586=EDGE_CURVE('',#478,#479,#56,.T.);
#587=EDGE_CURVE('',#479,#473,#249,.T.);
#588=EDGE_CURVE('',#480,#481,#57,.T.);
#589=EDGE_CURVE('',#481,#482,#58,.T.);
#590=EDGE_CURVE('',#482,#483,#20,.T.);
#591=EDGE_CURVE('',#483,#480,#59,.T.);
#592=EDGE_CURVE('',#465,#481,#250,.T.);
#593=EDGE_CURVE('',#480,#466,#251,.T.);
#594=EDGE_CURVE('',#484,#480,#252,.T.);
#595=EDGE_CURVE('',#467,#484,#253,.T.);
#596=EDGE_CURVE('',#483,#485,#254,.T.);
#597=EDGE_CURVE('',#485,#484,#60,.F.);
#598=EDGE_CURVE('',#486,#485,#61,.F.);
#599=EDGE_CURVE('',#484,#486,#62,.F.);
#600=EDGE_CURVE('',#487,#488,#63,.T.);
#601=EDGE_CURVE('',#488,#486,#255,.T.);
#602=EDGE_CURVE('',#485,#487,#256,.T.);
#603=EDGE_CURVE('',#486,#489,#257,.T.);
#604=EDGE_CURVE('',#489,#468,#64,.T.);
#605=EDGE_CURVE('',#488,#490,#258,.T.);
#606=EDGE_CURVE('',#490,#491,#65,.T.);
#607=EDGE_CURVE('',#491,#492,#259,.T.);
#608=EDGE_CURVE('',#492,#489,#260,.T.);
#609=EDGE_CURVE('',#493,#487,#261,.T.);
#610=EDGE_CURVE('',#494,#493,#262,.T.);
#611=EDGE_CURVE('',#474,#494,#263,.T.);
#612=EDGE_CURVE('',#490,#479,#264,.T.);
#613=EDGE_CURVE('',#495,#482,#265,.T.);
#614=EDGE_CURVE('',#496,#495,#21,.T.);
#615=EDGE_CURVE('',#497,#496,#266,.T.);
#616=EDGE_CURVE('',#498,#497,#267,.T.);
#617=EDGE_CURVE('',#498,#499,#268,.T.);
#618=EDGE_CURVE('',#500,#499,#269,.T.);
#619=EDGE_CURVE('',#493,#500,#270,.T.);
#620=EDGE_CURVE('',#501,#494,#271,.T.);
#621=EDGE_CURVE('',#501,#443,#272,.T.);
#622=EDGE_CURVE('',#442,#475,#273,.T.);
#623=EDGE_CURVE('',#502,#464,#274,.T.);
#624=EDGE_CURVE('',#502,#503,#275,.T.);
#625=EDGE_CURVE('',#504,#503,#66,.T.);
#626=EDGE_CURVE('',#504,#457,#276,.T.);
#627=EDGE_CURVE('',#505,#456,#277,.T.);
#628=EDGE_CURVE('',#495,#505,#67,.T.);
#629=EDGE_CURVE('',#506,#463,#278,.T.);
#630=EDGE_CURVE('',#502,#506,#279,.T.);
#631=EDGE_CURVE('',#462,#507,#280,.T.);
#632=EDGE_CURVE('',#507,#508,#68,.T.);
#633=EDGE_CURVE('',#508,#459,#281,.T.);
#634=EDGE_CURVE('',#458,#509,#282,.T.);
#635=EDGE_CURVE('',#509,#510,#69,.T.);
#636=EDGE_CURVE('',#510,#506,#283,.T.);
#637=EDGE_CURVE('',#444,#501,#284,.T.);
#638=EDGE_CURVE('',#500,#511,#285,.T.);
#639=EDGE_CURVE('',#511,#512,#286,.T.);
#640=EDGE_CURVE('',#445,#512,#287,.T.);
#641=EDGE_CURVE('',#513,#513,#70,.T.);
#642=EDGE_CURVE('',#503,#510,#288,.T.);
#643=EDGE_CURVE('',#492,#477,#289,.T.);
#644=EDGE_CURVE('',#509,#504,#290,.T.);
#645=EDGE_CURVE('',#491,#478,#291,.T.);
#646=EDGE_CURVE('',#514,#515,#71,.T.);
#647=EDGE_CURVE('',#515,#516,#72,.T.);
#648=EDGE_CURVE('',#516,#517,#73,.T.);
#649=EDGE_CURVE('',#517,#514,#74,.T.);
#650=EDGE_CURVE('',#447,#515,#292,.T.);
#651=EDGE_CURVE('',#514,#448,#293,.T.);
#652=EDGE_CURVE('',#518,#516,#22,.T.);
#653=EDGE_CURVE('',#518,#519,#75,.T.);
#654=EDGE_CURVE('',#519,#517,#76,.T.);
#655=EDGE_CURVE('',#520,#518,#294,.T.);
#656=EDGE_CURVE('',#520,#521,#77,.T.);
#657=EDGE_CURVE('',#521,#519,#295,.T.);
#658=EDGE_CURVE('',#522,#446,#296,.T.);
#659=EDGE_CURVE('',#516,#522,#297,.T.);
#660=EDGE_CURVE('',#523,#514,#298,.T.);
#661=EDGE_CURVE('',#449,#523,#299,.T.);
#662=EDGE_CURVE('',#523,#524,#78,.F.);
#663=EDGE_CURVE('',#525,#523,#79,.F.);
#664=EDGE_CURVE('',#524,#525,#80,.F.);
#665=EDGE_CURVE('',#519,#525,#300,.T.);
#666=EDGE_CURVE('',#526,#527,#81,.T.);
#667=EDGE_CURVE('',#527,#524,#301,.T.);
#668=EDGE_CURVE('',#525,#526,#302,.T.);
#669=EDGE_CURVE('',#524,#450,#303,.T.);
#670=EDGE_CURVE('',#528,#505,#82,.T.);
#671=EDGE_CURVE('',#455,#528,#304,.T.);
#672=EDGE_CURVE('',#528,#496,#83,.T.);
#673=EDGE_CURVE('',#528,#529,#305,.T.);
#674=EDGE_CURVE('',#497,#529,#84,.T.);
#675=EDGE_CURVE('',#530,#454,#306,.T.);
#676=EDGE_CURVE('',#529,#530,#85,.T.);
#677=EDGE_CURVE('',#453,#531,#307,.T.);
#678=EDGE_CURVE('',#531,#530,#86,.T.);
#679=EDGE_CURVE('',#531,#497,#87,.T.);
#680=EDGE_CURVE('',#531,#532,#308,.T.);
#681=EDGE_CURVE('',#532,#533,#88,.T.);
#682=EDGE_CURVE('',#533,#498,#89,.T.);
#683=EDGE_CURVE('',#452,#534,#90,.T.);
#684=EDGE_CURVE('',#534,#535,#309,.T.);
#685=EDGE_CURVE('',#535,#532,#310,.T.);
#686=EDGE_CURVE('',#520,#536,#311,.T.);
#687=EDGE_CURVE('',#536,#499,#312,.T.);
#688=EDGE_CURVE('',#537,#533,#313,.T.);
#689=EDGE_CURVE('',#538,#537,#314,.T.);
#690=EDGE_CURVE('',#526,#538,#315,.T.);
#691=EDGE_CURVE('',#521,#526,#316,.T.);
#692=EDGE_CURVE('',#539,#535,#317,.T.);
#693=EDGE_CURVE('',#539,#527,#318,.T.);
#694=EDGE_CURVE('',#540,#539,#319,.T.);
#695=EDGE_CURVE('',#540,#534,#320,.T.);
#696=EDGE_CURVE('',#451,#540,#91,.T.);
#697=EDGE_CURVE('',#522,#512,#321,.T.);
#698=EDGE_CURVE('',#511,#520,#322,.T.);
#699=EDGE_CURVE('',#508,#541,#323,.T.);
#700=EDGE_CURVE('',#460,#541,#324,.T.);
#701=EDGE_CURVE('',#542,#541,#92,.T.);
#702=EDGE_CURVE('',#461,#542,#325,.T.);
#703=EDGE_CURVE('',#543,#543,#93,.T.);
#704=EDGE_CURVE('',#507,#542,#326,.T.);
#705=EDGE_CURVE('',#543,#513,#327,.T.);
#706=ORIENTED_EDGE('',*,*,#544,.T.);
#707=ORIENTED_EDGE('',*,*,#545,.T.);
#708=ORIENTED_EDGE('',*,*,#546,.T.);
#709=ORIENTED_EDGE('',*,*,#547,.F.);
#710=ORIENTED_EDGE('',*,*,#544,.F.);
#711=ORIENTED_EDGE('',*,*,#548,.T.);
#712=ORIENTED_EDGE('',*,*,#549,.F.);
#713=ORIENTED_EDGE('',*,*,#550,.T.);
#714=ORIENTED_EDGE('',*,*,#551,.F.);
#715=ORIENTED_EDGE('',*,*,#552,.F.);
#716=ORIENTED_EDGE('',*,*,#553,.T.);
#717=ORIENTED_EDGE('',*,*,#554,.F.);
#718=ORIENTED_EDGE('',*,*,#555,.T.);
#719=ORIENTED_EDGE('',*,*,#556,.T.);
#720=ORIENTED_EDGE('',*,*,#557,.F.);
#721=ORIENTED_EDGE('',*,*,#558,.F.);
#722=ORIENTED_EDGE('',*,*,#559,.F.);
#723=ORIENTED_EDGE('',*,*,#560,.F.);
#724=ORIENTED_EDGE('',*,*,#561,.F.);
#725=ORIENTED_EDGE('',*,*,#562,.F.);
#726=ORIENTED_EDGE('',*,*,#563,.F.);
#727=ORIENTED_EDGE('',*,*,#564,.T.);
#728=ORIENTED_EDGE('',*,*,#565,.T.);
#729=ORIENTED_EDGE('',*,*,#566,.T.);
#730=ORIENTED_EDGE('',*,*,#567,.T.);
#731=ORIENTED_EDGE('',*,*,#568,.F.);
#732=ORIENTED_EDGE('',*,*,#569,.F.);
#733=ORIENTED_EDGE('',*,*,#570,.F.);
#734=ORIENTED_EDGE('',*,*,#571,.F.);
#735=ORIENTED_EDGE('',*,*,#572,.F.);
#736=ORIENTED_EDGE('',*,*,#573,.F.);
#737=ORIENTED_EDGE('',*,*,#574,.T.);
#738=ORIENTED_EDGE('',*,*,#575,.T.);
#739=ORIENTED_EDGE('',*,*,#576,.T.);
#740=ORIENTED_EDGE('',*,*,#577,.T.);
#741=ORIENTED_EDGE('',*,*,#578,.T.);
#742=ORIENTED_EDGE('',*,*,#579,.T.);
#743=ORIENTED_EDGE('',*,*,#580,.T.);
#744=ORIENTED_EDGE('',*,*,#581,.T.);
#745=ORIENTED_EDGE('',*,*,#582,.T.);
#746=ORIENTED_EDGE('',*,*,#583,.T.);
#747=ORIENTED_EDGE('',*,*,#580,.F.);
#748=ORIENTED_EDGE('',*,*,#577,.F.);
#749=ORIENTED_EDGE('',*,*,#583,.F.);
#750=ORIENTED_EDGE('',*,*,#584,.T.);
#751=ORIENTED_EDGE('',*,*,#585,.T.);
#752=ORIENTED_EDGE('',*,*,#586,.T.);
#753=ORIENTED_EDGE('',*,*,#587,.T.);
#754=ORIENTED_EDGE('',*,*,#588,.T.);
#755=ORIENTED_EDGE('',*,*,#589,.T.);
#756=ORIENTED_EDGE('',*,*,#590,.T.);
#757=ORIENTED_EDGE('',*,*,#591,.T.);
#758=ORIENTED_EDGE('',*,*,#570,.T.);
#759=ORIENTED_EDGE('',*,*,#592,.T.);
#760=ORIENTED_EDGE('',*,*,#588,.F.);
#761=ORIENTED_EDGE('',*,*,#593,.T.);
#762=ORIENTED_EDGE('',*,*,#593,.F.);
#763=ORIENTED_EDGE('',*,*,#594,.F.);
#764=ORIENTED_EDGE('',*,*,#595,.F.);
#765=ORIENTED_EDGE('',*,*,#571,.T.);
#766=ORIENTED_EDGE('',*,*,#591,.F.);
#767=ORIENTED_EDGE('',*,*,#596,.T.);
#768=ORIENTED_EDGE('',*,*,#597,.T.);
#769=ORIENTED_EDGE('',*,*,#594,.T.);
#770=ORIENTED_EDGE('',*,*,#597,.F.);
#771=ORIENTED_EDGE('',*,*,#598,.F.);
#772=ORIENTED_EDGE('',*,*,#599,.F.);
#773=ORIENTED_EDGE('',*,*,#600,.T.);
#774=ORIENTED_EDGE('',*,*,#601,.T.);
#775=ORIENTED_EDGE('',*,*,#598,.T.);
#776=ORIENTED_EDGE('',*,*,#602,.T.);
#777=ORIENTED_EDGE('',*,*,#572,.T.);
#778=ORIENTED_EDGE('',*,*,#595,.T.);
#779=ORIENTED_EDGE('',*,*,#599,.T.);
#780=ORIENTED_EDGE('',*,*,#603,.T.);
#781=ORIENTED_EDGE('',*,*,#604,.T.);
#782=ORIENTED_EDGE('',*,*,#603,.F.);
#783=ORIENTED_EDGE('',*,*,#601,.F.);
#784=ORIENTED_EDGE('',*,*,#605,.T.);
#785=ORIENTED_EDGE('',*,*,#606,.T.);
#786=ORIENTED_EDGE('',*,*,#607,.T.);
#787=ORIENTED_EDGE('',*,*,#608,.T.);
#788=ORIENTED_EDGE('',*,*,#600,.F.);
#789=ORIENTED_EDGE('',*,*,#609,.F.);
#790=ORIENTED_EDGE('',*,*,#610,.F.);
#791=ORIENTED_EDGE('',*,*,#611,.F.);
#792=ORIENTED_EDGE('',*,*,#578,.F.);
#793=ORIENTED_EDGE('',*,*,#587,.F.);
#794=ORIENTED_EDGE('',*,*,#612,.F.);
#795=ORIENTED_EDGE('',*,*,#605,.F.);
#796=ORIENTED_EDGE('',*,*,#602,.F.);
#797=ORIENTED_EDGE('',*,*,#596,.F.);
#798=ORIENTED_EDGE('',*,*,#590,.F.);
#799=ORIENTED_EDGE('',*,*,#613,.F.);
#800=ORIENTED_EDGE('',*,*,#614,.F.);
#801=ORIENTED_EDGE('',*,*,#615,.F.);
#802=ORIENTED_EDGE('',*,*,#616,.F.);
#803=ORIENTED_EDGE('',*,*,#617,.T.);
#804=ORIENTED_EDGE('',*,*,#618,.F.);
#805=ORIENTED_EDGE('',*,*,#619,.F.);
#806=ORIENTED_EDGE('',*,*,#609,.T.);
#807=ORIENTED_EDGE('',*,*,#579,.F.);
#808=ORIENTED_EDGE('',*,*,#611,.T.);
#809=ORIENTED_EDGE('',*,*,#620,.F.);
#810=ORIENTED_EDGE('',*,*,#621,.T.);
#811=ORIENTED_EDGE('',*,*,#546,.F.);
#812=ORIENTED_EDGE('',*,*,#622,.T.);
#813=ORIENTED_EDGE('',*,*,#545,.F.);
#814=ORIENTED_EDGE('',*,*,#576,.F.);
#815=ORIENTED_EDGE('',*,*,#581,.F.);
#816=ORIENTED_EDGE('',*,*,#622,.F.);
#817=ORIENTED_EDGE('',*,*,#592,.F.);
#818=ORIENTED_EDGE('',*,*,#569,.T.);
#819=ORIENTED_EDGE('',*,*,#623,.F.);
#820=ORIENTED_EDGE('',*,*,#624,.T.);
#821=ORIENTED_EDGE('',*,*,#625,.F.);
#822=ORIENTED_EDGE('',*,*,#626,.T.);
#823=ORIENTED_EDGE('',*,*,#561,.T.);
#824=ORIENTED_EDGE('',*,*,#627,.F.);
#825=ORIENTED_EDGE('',*,*,#628,.F.);
#826=ORIENTED_EDGE('',*,*,#613,.T.);
#827=ORIENTED_EDGE('',*,*,#589,.F.);
#828=ORIENTED_EDGE('',*,*,#629,.F.);
#829=ORIENTED_EDGE('',*,*,#630,.F.);
#830=ORIENTED_EDGE('',*,*,#623,.T.);
#831=ORIENTED_EDGE('',*,*,#568,.T.);
#832=ORIENTED_EDGE('',*,*,#629,.T.);
#833=ORIENTED_EDGE('',*,*,#567,.F.);
#834=ORIENTED_EDGE('',*,*,#631,.T.);
#835=ORIENTED_EDGE('',*,*,#632,.T.);
#836=ORIENTED_EDGE('',*,*,#633,.T.);
#837=ORIENTED_EDGE('',*,*,#563,.T.);
#838=ORIENTED_EDGE('',*,*,#634,.T.);
#839=ORIENTED_EDGE('',*,*,#635,.T.);
#840=ORIENTED_EDGE('',*,*,#636,.T.);
#841=ORIENTED_EDGE('',*,*,#547,.T.);
#842=ORIENTED_EDGE('',*,*,#621,.F.);
#843=ORIENTED_EDGE('',*,*,#637,.F.);
#844=ORIENTED_EDGE('',*,*,#548,.F.);
#845=ORIENTED_EDGE('',*,*,#637,.T.);
#846=ORIENTED_EDGE('',*,*,#620,.T.);
#847=ORIENTED_EDGE('',*,*,#610,.T.);
#848=ORIENTED_EDGE('',*,*,#619,.T.);
#849=ORIENTED_EDGE('',*,*,#638,.T.);
#850=ORIENTED_EDGE('',*,*,#639,.T.);
#851=ORIENTED_EDGE('',*,*,#640,.F.);
#852=ORIENTED_EDGE('',*,*,#549,.T.);
#853=ORIENTED_EDGE('',*,*,#641,.T.);
#854=ORIENTED_EDGE('',*,*,#630,.T.);
#855=ORIENTED_EDGE('',*,*,#636,.F.);
#856=ORIENTED_EDGE('',*,*,#642,.F.);
#857=ORIENTED_EDGE('',*,*,#624,.F.);
#858=ORIENTED_EDGE('',*,*,#604,.F.);
#859=ORIENTED_EDGE('',*,*,#608,.F.);
#860=ORIENTED_EDGE('',*,*,#643,.T.);
#861=ORIENTED_EDGE('',*,*,#584,.F.);
#862=ORIENTED_EDGE('',*,*,#582,.F.);
#863=ORIENTED_EDGE('',*,*,#575,.F.);
#864=ORIENTED_EDGE('',*,*,#574,.F.);
#865=ORIENTED_EDGE('',*,*,#573,.T.);
#866=ORIENTED_EDGE('',*,*,#635,.F.);
#867=ORIENTED_EDGE('',*,*,#644,.T.);
#868=ORIENTED_EDGE('',*,*,#625,.T.);
#869=ORIENTED_EDGE('',*,*,#642,.T.);
#870=ORIENTED_EDGE('',*,*,#644,.F.);
#871=ORIENTED_EDGE('',*,*,#634,.F.);
#872=ORIENTED_EDGE('',*,*,#562,.T.);
#873=ORIENTED_EDGE('',*,*,#626,.F.);
#874=ORIENTED_EDGE('',*,*,#607,.F.);
#875=ORIENTED_EDGE('',*,*,#645,.T.);
#876=ORIENTED_EDGE('',*,*,#585,.F.);
#877=ORIENTED_EDGE('',*,*,#643,.F.);
#878=ORIENTED_EDGE('',*,*,#606,.F.);
#879=ORIENTED_EDGE('',*,*,#612,.T.);
#880=ORIENTED_EDGE('',*,*,#586,.F.);
#881=ORIENTED_EDGE('',*,*,#645,.F.);
#882=ORIENTED_EDGE('',*,*,#646,.T.);
#883=ORIENTED_EDGE('',*,*,#647,.T.);
#884=ORIENTED_EDGE('',*,*,#648,.T.);
#885=ORIENTED_EDGE('',*,*,#649,.T.);
#886=ORIENTED_EDGE('',*,*,#552,.T.);
#887=ORIENTED_EDGE('',*,*,#650,.T.);
#888=ORIENTED_EDGE('',*,*,#646,.F.);
#889=ORIENTED_EDGE('',*,*,#651,.T.);
#890=ORIENTED_EDGE('',*,*,#652,.F.);
#891=ORIENTED_EDGE('',*,*,#653,.T.);
#892=ORIENTED_EDGE('',*,*,#654,.T.);
#893=ORIENTED_EDGE('',*,*,#648,.F.);
#894=ORIENTED_EDGE('',*,*,#655,.F.);
#895=ORIENTED_EDGE('',*,*,#656,.T.);
#896=ORIENTED_EDGE('',*,*,#657,.T.);
#897=ORIENTED_EDGE('',*,*,#653,.F.);
#898=ORIENTED_EDGE('',*,*,#647,.F.);
#899=ORIENTED_EDGE('',*,*,#650,.F.);
#900=ORIENTED_EDGE('',*,*,#551,.T.);
#901=ORIENTED_EDGE('',*,*,#658,.F.);
#902=ORIENTED_EDGE('',*,*,#659,.F.);
#903=ORIENTED_EDGE('',*,*,#651,.F.);
#904=ORIENTED_EDGE('',*,*,#660,.F.);
#905=ORIENTED_EDGE('',*,*,#661,.F.);
#906=ORIENTED_EDGE('',*,*,#553,.F.);
#907=ORIENTED_EDGE('',*,*,#662,.F.);
#908=ORIENTED_EDGE('',*,*,#663,.F.);
#909=ORIENTED_EDGE('',*,*,#664,.F.);
#910=ORIENTED_EDGE('',*,*,#654,.F.);
#911=ORIENTED_EDGE('',*,*,#665,.T.);
#912=ORIENTED_EDGE('',*,*,#663,.T.);
#913=ORIENTED_EDGE('',*,*,#660,.T.);
#914=ORIENTED_EDGE('',*,*,#649,.F.);
#915=ORIENTED_EDGE('',*,*,#666,.T.);
#916=ORIENTED_EDGE('',*,*,#667,.T.);
#917=ORIENTED_EDGE('',*,*,#664,.T.);
#918=ORIENTED_EDGE('',*,*,#668,.T.);
#919=ORIENTED_EDGE('',*,*,#554,.T.);
#920=ORIENTED_EDGE('',*,*,#661,.T.);
#921=ORIENTED_EDGE('',*,*,#662,.T.);
#922=ORIENTED_EDGE('',*,*,#669,.T.);
#923=ORIENTED_EDGE('',*,*,#670,.T.);
#924=ORIENTED_EDGE('',*,*,#627,.T.);
#925=ORIENTED_EDGE('',*,*,#560,.T.);
#926=ORIENTED_EDGE('',*,*,#671,.T.);
#927=ORIENTED_EDGE('',*,*,#614,.T.);
#928=ORIENTED_EDGE('',*,*,#628,.T.);
#929=ORIENTED_EDGE('',*,*,#670,.F.);
#930=ORIENTED_EDGE('',*,*,#672,.T.);
#931=ORIENTED_EDGE('',*,*,#672,.F.);
#932=ORIENTED_EDGE('',*,*,#673,.T.);
#933=ORIENTED_EDGE('',*,*,#674,.F.);
#934=ORIENTED_EDGE('',*,*,#615,.T.);
#935=ORIENTED_EDGE('',*,*,#671,.F.);
#936=ORIENTED_EDGE('',*,*,#559,.T.);
#937=ORIENTED_EDGE('',*,*,#675,.F.);
#938=ORIENTED_EDGE('',*,*,#676,.F.);
#939=ORIENTED_EDGE('',*,*,#673,.F.);
#940=ORIENTED_EDGE('',*,*,#558,.T.);
#941=ORIENTED_EDGE('',*,*,#677,.T.);
#942=ORIENTED_EDGE('',*,*,#678,.T.);
#943=ORIENTED_EDGE('',*,*,#675,.T.);
#944=ORIENTED_EDGE('',*,*,#674,.T.);
#945=ORIENTED_EDGE('',*,*,#676,.T.);
#946=ORIENTED_EDGE('',*,*,#678,.F.);
#947=ORIENTED_EDGE('',*,*,#679,.T.);
#948=ORIENTED_EDGE('',*,*,#679,.F.);
#949=ORIENTED_EDGE('',*,*,#680,.T.);
#950=ORIENTED_EDGE('',*,*,#681,.T.);
#951=ORIENTED_EDGE('',*,*,#682,.T.);
#952=ORIENTED_EDGE('',*,*,#616,.T.);
#953=ORIENTED_EDGE('',*,*,#677,.F.);
#954=ORIENTED_EDGE('',*,*,#557,.T.);
#955=ORIENTED_EDGE('',*,*,#683,.T.);
#956=ORIENTED_EDGE('',*,*,#684,.T.);
#957=ORIENTED_EDGE('',*,*,#685,.T.);
#958=ORIENTED_EDGE('',*,*,#680,.F.);
#959=ORIENTED_EDGE('',*,*,#656,.F.);
#960=ORIENTED_EDGE('',*,*,#686,.T.);
#961=ORIENTED_EDGE('',*,*,#687,.T.);
#962=ORIENTED_EDGE('',*,*,#617,.F.);
#963=ORIENTED_EDGE('',*,*,#682,.F.);
#964=ORIENTED_EDGE('',*,*,#688,.F.);
#965=ORIENTED_EDGE('',*,*,#689,.F.);
#966=ORIENTED_EDGE('',*,*,#690,.F.);
#967=ORIENTED_EDGE('',*,*,#691,.F.);
#968=ORIENTED_EDGE('',*,*,#681,.F.);
#969=ORIENTED_EDGE('',*,*,#685,.F.);
#970=ORIENTED_EDGE('',*,*,#692,.F.);
#971=ORIENTED_EDGE('',*,*,#693,.T.);
#972=ORIENTED_EDGE('',*,*,#666,.F.);
#973=ORIENTED_EDGE('',*,*,#690,.T.);
#974=ORIENTED_EDGE('',*,*,#689,.T.);
#975=ORIENTED_EDGE('',*,*,#688,.T.);
#976=ORIENTED_EDGE('',*,*,#694,.T.);
#977=ORIENTED_EDGE('',*,*,#692,.T.);
#978=ORIENTED_EDGE('',*,*,#684,.F.);
#979=ORIENTED_EDGE('',*,*,#695,.F.);
#980=ORIENTED_EDGE('',*,*,#696,.T.);
#981=ORIENTED_EDGE('',*,*,#695,.T.);
#982=ORIENTED_EDGE('',*,*,#683,.F.);
#983=ORIENTED_EDGE('',*,*,#556,.F.);
#984=ORIENTED_EDGE('',*,*,#667,.F.);
#985=ORIENTED_EDGE('',*,*,#693,.F.);
#986=ORIENTED_EDGE('',*,*,#694,.F.);
#987=ORIENTED_EDGE('',*,*,#696,.F.);
#988=ORIENTED_EDGE('',*,*,#555,.F.);
#989=ORIENTED_EDGE('',*,*,#669,.F.);
#990=ORIENTED_EDGE('',*,*,#657,.F.);
#991=ORIENTED_EDGE('',*,*,#691,.T.);
#992=ORIENTED_EDGE('',*,*,#668,.F.);
#993=ORIENTED_EDGE('',*,*,#665,.F.);
#994=ORIENTED_EDGE('',*,*,#659,.T.);
#995=ORIENTED_EDGE('',*,*,#697,.T.);
#996=ORIENTED_EDGE('',*,*,#639,.F.);
#997=ORIENTED_EDGE('',*,*,#698,.T.);
#998=ORIENTED_EDGE('',*,*,#655,.T.);
#999=ORIENTED_EDGE('',*,*,#652,.T.);
#1000=ORIENTED_EDGE('',*,*,#658,.T.);
#1001=ORIENTED_EDGE('',*,*,#550,.F.);
#1002=ORIENTED_EDGE('',*,*,#640,.T.);
#1003=ORIENTED_EDGE('',*,*,#697,.F.);
#1004=ORIENTED_EDGE('',*,*,#698,.F.);
#1005=ORIENTED_EDGE('',*,*,#638,.F.);
#1006=ORIENTED_EDGE('',*,*,#618,.T.);
#1007=ORIENTED_EDGE('',*,*,#687,.F.);
#1008=ORIENTED_EDGE('',*,*,#686,.F.);
#1009=ORIENTED_EDGE('',*,*,#699,.T.);
#1010=ORIENTED_EDGE('',*,*,#700,.F.);
#1011=ORIENTED_EDGE('',*,*,#564,.F.);
#1012=ORIENTED_EDGE('',*,*,#633,.F.);
#1013=ORIENTED_EDGE('',*,*,#700,.T.);
#1014=ORIENTED_EDGE('',*,*,#701,.F.);
#1015=ORIENTED_EDGE('',*,*,#702,.F.);
#1016=ORIENTED_EDGE('',*,*,#565,.F.);
#1017=ORIENTED_EDGE('',*,*,#703,.F.);
#1018=ORIENTED_EDGE('',*,*,#704,.F.);
#1019=ORIENTED_EDGE('',*,*,#631,.F.);
#1020=ORIENTED_EDGE('',*,*,#566,.F.);
#1021=ORIENTED_EDGE('',*,*,#702,.T.);
#1022=ORIENTED_EDGE('',*,*,#699,.F.);
#1023=ORIENTED_EDGE('',*,*,#632,.F.);
#1024=ORIENTED_EDGE('',*,*,#704,.T.);
#1025=ORIENTED_EDGE('',*,*,#701,.T.);
#1026=ORIENTED_EDGE('',*,*,#703,.T.);
#1027=ORIENTED_EDGE('',*,*,#705,.T.);
#1028=ORIENTED_EDGE('',*,*,#641,.F.);
#1029=ORIENTED_EDGE('',*,*,#705,.F.);
#1030=PLANE('',#1125);
#1031=PLANE('',#1126);
#1032=PLANE('',#1138);
#1033=PLANE('',#1145);
#1034=PLANE('',#1155);
#1035=PLANE('',#1157);
#1036=PLANE('',#1158);
#1037=PLANE('',#1159);
#1038=PLANE('',#1160);
#1039=PLANE('',#1161);
#1040=PLANE('',#1164);
#1041=PLANE('',#1165);
#1042=PLANE('',#1168);
#1043=PLANE('',#1169);
#1044=PLANE('',#1171);
#1045=PLANE('',#1172);
#1046=PLANE('',#1174);
#1047=PLANE('',#1175);
#1048=PLANE('',#1188);
#1049=PLANE('',#1189);
#1050=PLANE('',#1204);
#1051=PLANE('',#1212);
#1052=PLANE('',#1214);
#1053=PLANE('',#1215);
#1054=PLANE('',#1216);
#1055=PLANE('',#1219);
#1056=PLANE('',#1220);
#1057=PLANE('',#1221);
#1058=PLANE('',#1222);
#1059=PLANE('',#1223);
#1060=PLANE('',#1224);
#1061=PLANE('',#1225);
#1062=PLANE('',#1228);
#1063=ADVANCED_FACE('',(#94),#1030,.T.);
#1064=ADVANCED_FACE('',(#95),#1031,.F.);
#1065=ADVANCED_FACE('',(#96),#28,.F.);
#1066=ADVANCED_FACE('',(#97),#29,.F.);
#1067=ADVANCED_FACE('',(#98),#1032,.F.);
#1068=ADVANCED_FACE('',(#99),#23,.F.);
#1069=ADVANCED_FACE('',(#100),#30,.F.);
#1070=ADVANCED_FACE('',(#101),#1033,.T.);
#1071=ADVANCED_FACE('',(#102),#31,.T.);
#1072=ADVANCED_FACE('',(#103),#18,.T.);
#1073=ADVANCED_FACE('',(#104),#32,.T.);
#1074=ADVANCED_FACE('',(#105),#33,.T.);
#1075=ADVANCED_FACE('',(#106),#1034,.T.);
#1076=ADVANCED_FACE('',(#107),#1035,.T.);
#1077=ADVANCED_FACE('',(#108),#1036,.T.);
#1078=ADVANCED_FACE('',(#109),#1037,.T.);
#1079=ADVANCED_FACE('',(#110),#1038,.F.);
#1080=ADVANCED_FACE('',(#111),#1039,.T.);
#1081=ADVANCED_FACE('',(#112),#1040,.T.);
#1082=ADVANCED_FACE('',(#113),#1041,.T.);
#1083=ADVANCED_FACE('',(#114),#1042,.F.);
#1084=ADVANCED_FACE('',(#115,#16),#1043,.F.);
#1085=ADVANCED_FACE('',(#116),#1044,.T.);
#1086=ADVANCED_FACE('',(#117),#1045,.T.);
#1087=ADVANCED_FACE('',(#118),#34,.F.);
#1088=ADVANCED_FACE('',(#119),#1046,.T.);
#1089=ADVANCED_FACE('',(#120),#1047,.T.);
#1090=ADVANCED_FACE('',(#121),#35,.T.);
#1091=ADVANCED_FACE('',(#122),#24,.T.);
#1092=ADVANCED_FACE('',(#123),#36,.T.);
#1093=ADVANCED_FACE('',(#124),#25,.T.);
#1094=ADVANCED_FACE('',(#125),#37,.T.);
#1095=ADVANCED_FACE('',(#126),#1048,.T.);
#1096=ADVANCED_FACE('',(#127),#1049,.T.);
#1097=ADVANCED_FACE('',(#128),#19,.F.);
#1098=ADVANCED_FACE('',(#129),#38,.F.);
#1099=ADVANCED_FACE('',(#130),#39,.F.);
#1100=ADVANCED_FACE('',(#131),#40,.F.);
#1101=ADVANCED_FACE('',(#132),#41,.F.);
#1102=ADVANCED_FACE('',(#133),#26,.F.);
#1103=ADVANCED_FACE('',(#134),#42,.T.);
#1104=ADVANCED_FACE('',(#135),#1050,.T.);
#1105=ADVANCED_FACE('',(#136),#43,.T.);
#1106=ADVANCED_FACE('',(#137),#15,.F.);
#1107=ADVANCED_FACE('',(#138),#44,.T.);
#1108=ADVANCED_FACE('',(#139),#1051,.T.);
#1109=ADVANCED_FACE('',(#140),#1052,.T.);
#1110=ADVANCED_FACE('',(#141),#1053,.T.);
#1111=ADVANCED_FACE('',(#142),#1054,.T.);
#1112=ADVANCED_FACE('',(#143),#45,.T.);
#1113=ADVANCED_FACE('',(#144),#1055,.F.);
#1114=ADVANCED_FACE('',(#145),#1056,.T.);
#1115=ADVANCED_FACE('',(#146),#1057,.T.);
#1116=ADVANCED_FACE('',(#147),#1058,.T.);
#1117=ADVANCED_FACE('',(#148),#1059,.T.);
#1118=ADVANCED_FACE('',(#149),#1060,.T.);
#1119=ADVANCED_FACE('',(#150,#17),#1061,.T.);
#1120=ADVANCED_FACE('',(#151),#1062,.F.);
#1121=ADVANCED_FACE('',(#152),#46,.F.);
#1122=ADVANCED_FACE('',(#153),#47,.F.);
#1123=CLOSED_SHELL('',(#1063,#1064,#1065,#1066,#1067,#1068,#1069,#1070,
#1071,#1072,#1073,#1074,#1075,#1076,#1077,#1078,#1079,#1080,#1081,#1082,
#1083,#1084,#1085,#1086,#1087,#1088,#1089,#1090,#1091,#1092,#1093,#1094,
#1095,#1096,#1097,#1098,#1099,#1100,#1101,#1102,#1103,#1104,#1105,#1106,
#1107,#1108,#1109,#1110,#1111,#1112,#1113,#1114,#1115,#1116,#1117,#1118,
#1119,#1120,#1121,#1122));
#1124=AXIS2_PLACEMENT_3D('',#1557,#1231,#1232);
#1125=AXIS2_PLACEMENT_3D('',#1558,#1233,#1234);
#1126=AXIS2_PLACEMENT_3D('',#1567,#1239,#1240);
#1127=AXIS2_PLACEMENT_3D('',#1577,#1245,#1246);
#1128=AXIS2_PLACEMENT_3D('',#1581,#1248,#1249);
#1129=AXIS2_PLACEMENT_3D('',#1589,#1253,#1254);
#1130=AXIS2_PLACEMENT_3D('',#1593,#1256,#1257);
#1131=AXIS2_PLACEMENT_3D('',#1613,#1267,#1268);
#1132=AXIS2_PLACEMENT_3D('',#1617,#1270,#1271);
#1133=AXIS2_PLACEMENT_3D('',#1625,#1276,#1277);
#1134=AXIS2_PLACEMENT_3D('',#1630,#1279,#1280);
#1135=AXIS2_PLACEMENT_3D('',#1633,#1282,#1283);
#1136=AXIS2_PLACEMENT_3D('',#1634,#1284,#1285);
#1137=AXIS2_PLACEMENT_3D('',#1637,#1287,#1288);
#1138=AXIS2_PLACEMENT_3D('',#1639,#1290,#1291);
#1139=AXIS2_PLACEMENT_3D('',#1645,#1294,#1295);
#1140=AXIS2_PLACEMENT_3D('',#1647,#1297,#1298);
#1141=AXIS2_PLACEMENT_3D('',#1650,#1299,#1300);
#1142=AXIS2_PLACEMENT_3D('',#1652,#1301,#1302);
#1143=AXIS2_PLACEMENT_3D('',#1660,#1303,#1304);
#1144=AXIS2_PLACEMENT_3D('',#1661,#1305,#1306);
#1145=AXIS2_PLACEMENT_3D('',#1664,#1309,#1310);
#1146=AXIS2_PLACEMENT_3D('',#1668,#1313,#1314);
#1147=AXIS2_PLACEMENT_3D('',#1671,#1316,#1317);
#1148=AXIS2_PLACEMENT_3D('',#1672,#1318,#1319);
#1149=AXIS2_PLACEMENT_3D('',#1674,#1320,#1321);
#1150=AXIS2_PLACEMENT_3D('',#1675,#1322,#1323);
#1151=AXIS2_PLACEMENT_3D('',#1676,#1324,#1325);
#1152=AXIS2_PLACEMENT_3D('',#1679,#1326,#1327);
#1153=AXIS2_PLACEMENT_3D('',#1682,#1330,#1331);
#1154=AXIS2_PLACEMENT_3D('',#1685,#1333,#1334);
#1155=AXIS2_PLACEMENT_3D('',#1686,#1335,#1336);
#1156=AXIS2_PLACEMENT_3D('',#1690,#1338,#1339);
#1157=AXIS2_PLACEMENT_3D('',#1694,#1342,#1343);
#1158=AXIS2_PLACEMENT_3D('',#1701,#1348,#1349);
#1159=AXIS2_PLACEMENT_3D('',#1720,#1356,#1357);
#1160=AXIS2_PLACEMENT_3D('',#1725,#1361,#1362);
#1161=AXIS2_PLACEMENT_3D('',#1726,#1363,#1364);
#1162=AXIS2_PLACEMENT_3D('',#1732,#1367,#1368);
#1163=AXIS2_PLACEMENT_3D('',#1736,#1371,#1372);
#1164=AXIS2_PLACEMENT_3D('',#1737,#1373,#1374);
#1165=AXIS2_PLACEMENT_3D('',#1741,#1377,#1378);
#1166=AXIS2_PLACEMENT_3D('',#1745,#1380,#1381);
#1167=AXIS2_PLACEMENT_3D('',#1750,#1384,#1385);
#1168=AXIS2_PLACEMENT_3D('',#1752,#1387,#1388);
#1169=AXIS2_PLACEMENT_3D('',#1754,#1390,#1391);
#1170=AXIS2_PLACEMENT_3D('',#1761,#1395,#1396);
#1171=AXIS2_PLACEMENT_3D('',#1762,#1397,#1398);
#1172=AXIS2_PLACEMENT_3D('',#1764,#1400,#1401);
#1173=AXIS2_PLACEMENT_3D('',#1766,#1403,#1404);
#1174=AXIS2_PLACEMENT_3D('',#1768,#1406,#1407);
#1175=AXIS2_PLACEMENT_3D('',#1769,#1408,#1409);
#1176=AXIS2_PLACEMENT_3D('',#1771,#1411,#1412);
#1177=AXIS2_PLACEMENT_3D('',#1772,#1413,#1414);
#1178=AXIS2_PLACEMENT_3D('',#1775,#1415,#1416);
#1179=AXIS2_PLACEMENT_3D('',#1777,#1417,#1418);
#1180=AXIS2_PLACEMENT_3D('',#1779,#1419,#1420);
#1181=AXIS2_PLACEMENT_3D('',#1780,#1421,#1422);
#1182=AXIS2_PLACEMENT_3D('',#1781,#1423,#1424);
#1183=AXIS2_PLACEMENT_3D('',#1784,#1427,#1428);
#1184=AXIS2_PLACEMENT_3D('',#1793,#1429,#1430);
#1185=AXIS2_PLACEMENT_3D('',#1794,#1431,#1432);
#1186=AXIS2_PLACEMENT_3D('',#1795,#1433,#1434);
#1187=AXIS2_PLACEMENT_3D('',#1799,#1436,#1437);
#1188=AXIS2_PLACEMENT_3D('',#1801,#1439,#1440);
#1189=AXIS2_PLACEMENT_3D('',#1805,#1443,#1444);
#1190=AXIS2_PLACEMENT_3D('',#1809,#1447,#1448);
#1191=AXIS2_PLACEMENT_3D('',#1811,#1449,#1450);
#1192=AXIS2_PLACEMENT_3D('',#1813,#1451,#1452);
#1193=AXIS2_PLACEMENT_3D('',#1814,#1453,#1454);
#1194=AXIS2_PLACEMENT_3D('',#1815,#1455,#1456);
#1195=AXIS2_PLACEMENT_3D('',#1817,#1458,#1459);
#1196=AXIS2_PLACEMENT_3D('',#1820,#1460,#1461);
#1197=AXIS2_PLACEMENT_3D('',#1823,#1464,#1465);
#1198=AXIS2_PLACEMENT_3D('',#1825,#1467,#1468);
#1199=AXIS2_PLACEMENT_3D('',#1827,#1469,#1470);
#1200=AXIS2_PLACEMENT_3D('',#1829,#1472,#1473);
#1201=AXIS2_PLACEMENT_3D('',#1830,#1474,#1475);
#1202=AXIS2_PLACEMENT_3D('',#1831,#1476,#1477);
#1203=AXIS2_PLACEMENT_3D('',#1834,#1479,#1480);
#1204=AXIS2_PLACEMENT_3D('',#1835,#1481,#1482);
#1205=AXIS2_PLACEMENT_3D('',#1838,#1484,#1485);
#1206=AXIS2_PLACEMENT_3D('',#1839,#1486,#1487);
#1207=AXIS2_PLACEMENT_3D('',#1842,#1489,#1490);
#1208=AXIS2_PLACEMENT_3D('',#1852,#1491,#1492);
#1209=AXIS2_PLACEMENT_3D('',#1853,#1493,#1494);
#1210=AXIS2_PLACEMENT_3D('',#1857,#1496,#1497);
#1211=AXIS2_PLACEMENT_3D('',#1858,#1498,#1499);
#1212=AXIS2_PLACEMENT_3D('',#1859,#1500,#1501);
#1213=AXIS2_PLACEMENT_3D('',#1861,#1502,#1503);
#1214=AXIS2_PLACEMENT_3D('',#1865,#1506,#1507);
#1215=AXIS2_PLACEMENT_3D('',#1875,#1514,#1515);
#1216=AXIS2_PLACEMENT_3D('',#1879,#1518,#1519);
#1217=AXIS2_PLACEMENT_3D('',#1883,#1522,#1523);
#1218=AXIS2_PLACEMENT_3D('',#1884,#1524,#1525);
#1219=AXIS2_PLACEMENT_3D('',#1885,#1526,#1527);
#1220=AXIS2_PLACEMENT_3D('',#1886,#1528,#1529);
#1221=AXIS2_PLACEMENT_3D('',#1887,#1530,#1531);
#1222=AXIS2_PLACEMENT_3D('',#1890,#1534,#1535);
#1223=AXIS2_PLACEMENT_3D('',#1891,#1536,#1537);
#1224=AXIS2_PLACEMENT_3D('',#1892,#1538,#1539);
#1225=AXIS2_PLACEMENT_3D('',#1896,#1542,#1543);
#1226=AXIS2_PLACEMENT_3D('',#1898,#1544,#1545);
#1227=AXIS2_PLACEMENT_3D('',#1901,#1547,#1548);
#1228=AXIS2_PLACEMENT_3D('',#1902,#1549,#1550);
#1229=AXIS2_PLACEMENT_3D('',#1904,#1552,#1553);
#1230=AXIS2_PLACEMENT_3D('',#1905,#1554,#1555);
#1231=DIRECTION('axis',(0.,0.,1.));
#1232=DIRECTION('refdir',(1.,0.,0.));
#1233=DIRECTION('center_axis',(0.707106781186548,0.,-0.707106781186547));
#1234=DIRECTION('ref_axis',(-0.707106781186547,0.,-0.707106781186548));
#1235=DIRECTION('',(0.707106781186547,0.,0.707106781186548));
#1236=DIRECTION('',(0.,-1.,0.));
#1237=DIRECTION('',(0.707106781186547,2.93083942507831E-15,0.707106781186548));
#1238=DIRECTION('',(0.,-1.,0.));
#1239=DIRECTION('center_axis',(0.,-1.,0.));
#1240=DIRECTION('ref_axis',(-1.,0.,0.));
#1241=DIRECTION('',(0.,0.,-1.));
#1242=DIRECTION('',(1.,0.,0.));
#1243=DIRECTION('',(0.,0.,1.));
#1244=DIRECTION('',(1.,0.,0.));
#1245=DIRECTION('center_axis',(0.,-1.,0.));
#1246=DIRECTION('ref_axis',(-0.707106781186546,0.,-0.707106781186549));
#1247=DIRECTION('',(0.,0.,1.));
#1248=DIRECTION('center_axis',(0.,1.,0.));
#1249=DIRECTION('ref_axis',(0.707106781186549,0.,0.707106781186546));
#1250=DIRECTION('',(-1.,0.,0.));
#1251=DIRECTION('',(0.,0.,1.));
#1252=DIRECTION('',(-1.,0.,0.));
#1253=DIRECTION('center_axis',(0.,-1.,0.));
#1254=DIRECTION('ref_axis',(0.707106781186548,0.,0.707106781186547));
#1255=DIRECTION('',(0.,0.,1.));
#1256=DIRECTION('center_axis',(0.,1.,0.));
#1257=DIRECTION('ref_axis',(-0.707106781186546,0.,-0.707106781186549));
#1258=DIRECTION('',(-1.,0.,0.));
#1259=DIRECTION('',(0.,0.,1.));
#1260=DIRECTION('',(-1.,0.,0.));
#1261=DIRECTION('',(0.,0.,-1.));
#1262=DIRECTION('',(1.,0.,0.));
#1263=DIRECTION('',(0.,0.,1.));
#1264=DIRECTION('',(1.,0.,0.));
#1265=DIRECTION('',(0.,0.,-1.));
#1266=DIRECTION('',(-1.,0.,0.));
#1267=DIRECTION('center_axis',(0.,1.,0.));
#1268=DIRECTION('ref_axis',(0.707106781186546,0.,-0.707106781186549));
#1269=DIRECTION('',(0.,0.,-1.));
#1270=DIRECTION('center_axis',(0.,-1.,0.));
#1271=DIRECTION('ref_axis',(-0.707106781186547,0.,0.707106781186547));
#1272=DIRECTION('',(0.,0.,1.));
#1273=DIRECTION('',(-1.,0.,0.));
#1274=DIRECTION('',(0.,0.,-1.));
#1275=DIRECTION('',(0.,0.,-1.));
#1276=DIRECTION('center_axis',(-1.,-4.14483286408351E-15,0.));
#1277=DIRECTION('ref_axis',(0.,-0.707106781186547,0.707106781186548));
#1278=DIRECTION('',(1.,4.14483286408351E-15,0.));
#1279=DIRECTION('center_axis',(1.,4.07051489899279E-15,0.));
#1280=DIRECTION('ref_axis',(0.,-0.707106781186547,0.707106781186548));
#1281=DIRECTION('',(-1.,-4.14483286408351E-15,0.));
#1282=DIRECTION('center_axis',(-0.707106781186548,0.707106781186548,0.));
#1283=DIRECTION('ref_axis',(0.707106781186548,0.707106781186548,0.));
#1284=DIRECTION('center_axis',(0.,1.,0.));
#1285=DIRECTION('ref_axis',(-0.707106781186547,0.,0.707106781186548));
#1286=DIRECTION('',(0.,1.,0.));
#1287=DIRECTION('center_axis',(-2.2199052376519E-7,0.999999999999975,0.));
#1288=DIRECTION('ref_axis',(-0.707106781186538,-1.56971004713521E-7,0.70710678118654));
#1289=DIRECTION('',(0.,-1.,0.));
#1290=DIRECTION('center_axis',(0.,0.,1.));
#1291=DIRECTION('ref_axis',(-1.,0.,0.));
#1292=DIRECTION('',(1.,0.,0.));
#1293=DIRECTION('',(1.,0.,0.));
#1294=DIRECTION('center_axis',(0.,0.,-1.));
#1295=DIRECTION('ref_axis',(1.,0.,0.));
#1296=DIRECTION('',(2.64909528466615E-9,-1.,0.));
#1297=DIRECTION('center_axis',(0.,0.,1.));
#1298=DIRECTION('ref_axis',(1.,0.,0.));
#1299=DIRECTION('center_axis',(0.,1.,0.));
#1300=DIRECTION('ref_axis',(1.,0.,0.));
#1301=DIRECTION('center_axis',(0.,0.,1.));
#1302=DIRECTION('ref_axis',(-0.707106781186548,-0.707106781186548,0.));
#1303=DIRECTION('center_axis',(0.,0.,-1.));
#1304=DIRECTION('ref_axis',(-0.707106781186547,-0.707106781186547,0.));
#1305=DIRECTION('center_axis',(0.,1.,0.));
#1306=DIRECTION('ref_axis',(0.707106781186546,0.,-0.707106781186549));
#1307=DIRECTION('',(0.,-1.,0.));
#1308=DIRECTION('',(0.,1.,0.));
#1309=DIRECTION('center_axis',(-1.,0.,0.));
#1310=DIRECTION('ref_axis',(0.,0.,1.));
#1311=DIRECTION('',(0.,0.,-1.));
#1312=DIRECTION('',(0.,-1.,0.));
#1313=DIRECTION('center_axis',(0.,0.,1.));
#1314=DIRECTION('ref_axis',(-0.707106781186547,-0.707106781186547,0.));
#1315=DIRECTION('',(0.,0.,1.));
#1316=DIRECTION('center_axis',(0.,0.,1.));
#1317=DIRECTION('ref_axis',(0.,-1.,0.));
#1318=DIRECTION('center_axis',(0.408248290463863,-0.816496580927725,-0.408248290463865));
#1319=DIRECTION('ref_axis',(-0.577350269189625,-0.577350269189625,0.577350269189627));
#1320=DIRECTION('center_axis',(-1.,0.,0.));
#1321=DIRECTION('ref_axis',(0.,0.,1.));
#1322=DIRECTION('center_axis',(0.,-1.,0.));
#1323=DIRECTION('ref_axis',(-1.,0.,0.));
#1324=DIRECTION('center_axis',(-1.,0.,0.));
#1325=DIRECTION('ref_axis',(0.,-0.707106781186547,0.707106781186547));
#1326=DIRECTION('center_axis',(-1.,-4.07051489899279E-15,0.));
#1327=DIRECTION('ref_axis',(0.,-0.707106781186547,0.707106781186547));
#1328=DIRECTION('',(-1.,0.,0.));
#1329=DIRECTION('',(1.,0.,0.));
#1330=DIRECTION('center_axis',(0.,1.,0.));
#1331=DIRECTION('ref_axis',(-0.707106781186547,0.,0.707106781186547));
#1332=DIRECTION('',(0.,1.,0.));
#1333=DIRECTION('center_axis',(2.2199052376519E-7,-0.999999999999975,0.));
#1334=DIRECTION('ref_axis',(-0.707106781186539,-1.56971004713521E-7,0.707106781186539));
#1335=DIRECTION('center_axis',(0.,0.,1.));
#1336=DIRECTION('ref_axis',(1.,0.,0.));
#1337=DIRECTION('',(-2.64909528466615E-9,1.,0.));
#1338=DIRECTION('center_axis',(0.,0.,1.));
#1339=DIRECTION('ref_axis',(1.,0.,0.));
#1340=DIRECTION('',(-1.,-3.24708209314293E-9,0.));
#1341=DIRECTION('',(-0.999999999999975,-2.2199052376519E-7,0.));
#1342=DIRECTION('center_axis',(1.,4.07051489899279E-15,0.));
#1343=DIRECTION('ref_axis',(4.07051489899279E-15,-1.,0.));
#1344=DIRECTION('',(0.,0.,1.));
#1345=DIRECTION('',(4.07051489899279E-15,-1.,0.));
#1346=DIRECTION('',(0.,0.,-1.));
#1347=DIRECTION('',(0.,0.,-1.));
#1348=DIRECTION('center_axis',(0.,-1.,0.));
#1349=DIRECTION('ref_axis',(-1.,0.,0.));
#1350=DIRECTION('',(1.,0.,0.));
#1351=DIRECTION('',(0.,0.,-1.));
#1352=DIRECTION('',(1.,0.,0.));
#1353=DIRECTION('',(0.,0.,-1.));
#1354=DIRECTION('',(0.,0.,1.));
#1355=DIRECTION('',(-1.,0.,0.));
#1356=DIRECTION('center_axis',(-4.14483286408351E-15,1.,0.));
#1357=DIRECTION('ref_axis',(1.,4.14483286408351E-15,0.));
#1358=DIRECTION('',(1.,0.,0.));
#1359=DIRECTION('',(0.,0.,1.));
#1360=DIRECTION('',(0.,0.,1.));
#1361=DIRECTION('center_axis',(-1.,0.,0.));
#1362=DIRECTION('ref_axis',(0.,0.,1.));
#1363=DIRECTION('center_axis',(0.,0.,1.));
#1364=DIRECTION('ref_axis',(1.,0.,0.));
#1365=DIRECTION('',(0.,1.,0.));
#1366=DIRECTION('',(-1.,0.,0.));
#1367=DIRECTION('center_axis',(0.,0.,1.));
#1368=DIRECTION('ref_axis',(-0.707106781186554,-0.707106781186541,0.));
#1369=DIRECTION('',(0.,1.,0.));
#1370=DIRECTION('',(0.,1.,0.));
#1371=DIRECTION('center_axis',(0.,0.,1.));
#1372=DIRECTION('ref_axis',(0.707106781186546,-0.707106781186549,0.));
#1373=DIRECTION('center_axis',(-1.,0.,0.));
#1374=DIRECTION('ref_axis',(0.,0.,1.));
#1375=DIRECTION('',(0.,1.,0.));
#1376=DIRECTION('',(0.,0.,-1.));
#1377=DIRECTION('center_axis',(0.,0.,1.));
#1378=DIRECTION('ref_axis',(1.,0.,0.));
#1379=DIRECTION('',(0.,-1.,0.));
#1380=DIRECTION('center_axis',(0.,0.,-1.));
#1381=DIRECTION('ref_axis',(-1.,0.,0.));
#1382=DIRECTION('',(3.1720665611804E-15,1.,0.));
#1383=DIRECTION('',(0.,-1.,0.));
#1384=DIRECTION('center_axis',(0.,0.,1.));
#1385=DIRECTION('ref_axis',(-0.707106781186554,-0.707106781186541,0.));
#1386=DIRECTION('',(1.,0.,0.));
#1387=DIRECTION('center_axis',(-1.,0.,0.));
#1388=DIRECTION('ref_axis',(0.,0.,1.));
#1389=DIRECTION('',(0.,-1.,0.));
#1390=DIRECTION('center_axis',(0.,0.,1.));
#1391=DIRECTION('ref_axis',(1.,0.,0.));
#1392=DIRECTION('',(7.54219416688854E-8,0.999999999999997,0.));
#1393=DIRECTION('',(0.999999999999997,-7.28501318660701E-8,0.));
#1394=DIRECTION('',(0.,-1.,0.));
#1395=DIRECTION('center_axis',(0.,0.,1.));
#1396=DIRECTION('ref_axis',(-1.,0.,0.));
#1397=DIRECTION('center_axis',(0.,1.,0.));
#1398=DIRECTION('ref_axis',(-1.,0.,0.));
#1399=DIRECTION('',(0.,0.,-1.));
#1400=DIRECTION('center_axis',(-2.2199052376519E-7,0.999999999999975,0.));
#1401=DIRECTION('ref_axis',(0.999999999999975,2.2199052376519E-7,0.));
#1402=DIRECTION('',(0.,0.,-1.));
#1403=DIRECTION('center_axis',(0.,0.,1.));
#1404=DIRECTION('ref_axis',(-0.707106781186554,-0.707106781186541,0.));
#1405=DIRECTION('',(0.,0.,1.));
#1406=DIRECTION('center_axis',(1.,0.,0.));
#1407=DIRECTION('ref_axis',(0.,1.,0.));
#1408=DIRECTION('center_axis',(-3.24708209314293E-9,1.,0.));
#1409=DIRECTION('ref_axis',(1.,3.24708209314293E-9,0.));
#1410=DIRECTION('',(0.,0.,-1.));
#1411=DIRECTION('center_axis',(0.,0.,-1.));
#1412=DIRECTION('ref_axis',(1.,0.,0.));
#1413=DIRECTION('center_axis',(0.,0.,-1.));
#1414=DIRECTION('ref_axis',(-1.,0.,0.));
#1415=DIRECTION('center_axis',(0.,-1.,0.));
#1416=DIRECTION('ref_axis',(-1.,0.,0.));
#1417=DIRECTION('center_axis',(0.,0.,-1.));
#1418=DIRECTION('ref_axis',(0.707106781186548,-0.707106781186548,0.));
#1419=DIRECTION('center_axis',(0.950000492630708,0.312248401119064,2.77332291459821E-15));
#1420=DIRECTION('ref_axis',(0.,8.88178419700125E-15,-1.));
#1421=DIRECTION('center_axis',(0.,0.,1.));
#1422=DIRECTION('ref_axis',(0.707106781186548,-0.707106781186548,0.));
#1423=DIRECTION('center_axis',(0.,1.,0.));
#1424=DIRECTION('ref_axis',(-0.707106781186546,0.,-0.707106781186549));
#1425=DIRECTION('',(0.,-1.,0.));
#1426=DIRECTION('',(0.,1.,0.));
#1427=DIRECTION('center_axis',(0.,0.,1.));
#1428=DIRECTION('ref_axis',(1.,0.,0.));
#1429=DIRECTION('center_axis',(1.,0.,0.));
#1430=DIRECTION('ref_axis',(0.,0.,-1.));
#1431=DIRECTION('center_axis',(0.,0.,1.));
#1432=DIRECTION('ref_axis',(0.,-1.,0.));
#1433=DIRECTION('center_axis',(1.,0.,0.));
#1434=DIRECTION('ref_axis',(0.,0.707106781186546,-0.707106781186549));
#1435=DIRECTION('',(0.999999999999997,-7.28501323647741E-8,-7.321678109429E-9));
#1436=DIRECTION('center_axis',(1.,0.,0.));
#1437=DIRECTION('ref_axis',(0.,0.707106781186546,-0.707106781186549));
#1438=DIRECTION('',(1.,0.,0.));
#1439=DIRECTION('center_axis',(0.,0.,-1.));
#1440=DIRECTION('ref_axis',(-1.,0.,0.));
#1441=DIRECTION('',(0.,1.,0.));
#1442=DIRECTION('',(0.999999999999997,-7.28501318660701E-8,0.));
#1443=DIRECTION('center_axis',(-1.,0.,0.));
#1444=DIRECTION('ref_axis',(0.,1.,0.));
#1445=DIRECTION('',(0.,0.,-1.));
#1446=DIRECTION('',(0.,-1.,0.));
#1447=DIRECTION('center_axis',(-0.40824829046386,-0.816496580927727,-0.408248290463864));
#1448=DIRECTION('ref_axis',(0.577350269189625,-0.577350269189625,0.577350269189628));
#1449=DIRECTION('center_axis',(0.,1.,0.));
#1450=DIRECTION('ref_axis',(1.,0.,0.));
#1451=DIRECTION('center_axis',(0.,0.,-1.));
#1452=DIRECTION('ref_axis',(0.,-1.,0.));
#1453=DIRECTION('center_axis',(-1.,-4.44089209850064E-15,0.));
#1454=DIRECTION('ref_axis',(0.,0.,1.));
#1455=DIRECTION('center_axis',(0.,0.,1.));
#1456=DIRECTION('ref_axis',(0.707106781186548,-0.707106781186548,0.));
#1457=DIRECTION('',(0.,0.,1.));
#1458=DIRECTION('center_axis',(-1.,0.,0.));
#1459=DIRECTION('ref_axis',(0.,-0.707106781186546,0.707106781186549));
#1460=DIRECTION('center_axis',(-0.999999999999997,7.3732371231603E-8,0.));
#1461=DIRECTION('ref_axis',(-5.21366596908304E-8,-0.707106781186545,0.707106781186548));
#1462=DIRECTION('',(1.,0.,0.));
#1463=DIRECTION('',(-1.,0.,0.));
#1464=DIRECTION('center_axis',(0.,-1.,0.));
#1465=DIRECTION('ref_axis',(0.707106781186549,0.,0.707106781186546));
#1466=DIRECTION('',(0.,1.,0.));
#1467=DIRECTION('center_axis',(0.,-1.,0.));
#1468=DIRECTION('ref_axis',(-0.707106781186546,0.,-0.707106781186549));
#1469=DIRECTION('center_axis',(0.,-1.,0.));
#1470=DIRECTION('ref_axis',(-1.,0.,0.));
#1471=DIRECTION('',(0.,-1.,0.));
#1472=DIRECTION('center_axis',(0.,0.,1.));
#1473=DIRECTION('ref_axis',(1.,0.,0.));
#1474=DIRECTION('center_axis',(0.,0.,-1.));
#1475=DIRECTION('ref_axis',(0.707106781186546,-0.707106781186549,0.));
#1476=DIRECTION('center_axis',(0.,0.,1.));
#1477=DIRECTION('ref_axis',(0.707106781186546,-0.707106781186549,0.));
#1478=DIRECTION('',(0.,0.,1.));
#1479=DIRECTION('center_axis',(0.,0.,1.));
#1480=DIRECTION('ref_axis',(0.,-1.,0.));
#1481=DIRECTION('center_axis',(1.,0.,0.));
#1482=DIRECTION('ref_axis',(0.,1.,0.));
#1483=DIRECTION('',(0.,1.,0.));
#1484=DIRECTION('center_axis',(-1.,0.,0.));
#1485=DIRECTION('ref_axis',(0.,-0.707106781186547,0.707106781186548));
#1486=DIRECTION('center_axis',(0.,-1.,0.));
#1487=DIRECTION('ref_axis',(0.707106781186548,0.,0.707106781186547));
#1488=DIRECTION('',(0.,-1.,0.));
#1489=DIRECTION('center_axis',(0.,1.,0.));
#1490=DIRECTION('ref_axis',(0.,0.,1.));
#1491=DIRECTION('center_axis',(1.,0.,0.));
#1492=DIRECTION('ref_axis',(0.,-0.707106781186547,0.707106781186548));
#1493=DIRECTION('center_axis',(-1.,0.,0.));
#1494=DIRECTION('ref_axis',(0.,-0.707106781186547,0.707106781186547));
#1495=DIRECTION('',(-1.,0.,0.));
#1496=DIRECTION('center_axis',(0.999999999999997,-7.3732371231603E-8,0.));
#1497=DIRECTION('ref_axis',(-5.21366596908305E-8,-0.707106781186547,0.707106781186547));
#1498=DIRECTION('center_axis',(1.,0.,0.));
#1499=DIRECTION('ref_axis',(0.,-0.707106781186547,0.707106781186547));
#1500=DIRECTION('center_axis',(0.,0.,1.));
#1501=DIRECTION('ref_axis',(-1.,0.,0.));
#1502=DIRECTION('center_axis',(0.,0.,1.));
#1503=DIRECTION('ref_axis',(0.000248736067163326,0.999999969065184,0.));
#1504=DIRECTION('',(-7.53936214856877E-8,-0.999999999999997,0.));
#1505=DIRECTION('',(-7.3732371231603E-8,-0.999999999999997,0.));
#1506=DIRECTION('center_axis',(-1.,0.,0.));
#1507=DIRECTION('ref_axis',(0.,1.,0.));
#1508=DIRECTION('',(0.,0.,1.));
#1509=DIRECTION('',(-7.54219416688854E-8,-0.999999999999997,0.));
#1510=DIRECTION('',(0.,0.,1.));
#1511=DIRECTION('',(0.,-1.,0.));
#1512=DIRECTION('',(0.,0.,1.));
#1513=DIRECTION('',(0.,0.,1.));
#1514=DIRECTION('center_axis',(-0.999999999999997,7.3732371231603E-8,0.));
#1515=DIRECTION('ref_axis',(-7.3732371231603E-8,-0.999999999999997,0.));
#1516=DIRECTION('',(0.,0.,1.));
#1517=DIRECTION('',(-7.3732371231603E-8,-0.999999999999997,0.));
#1518=DIRECTION('center_axis',(-0.999999999999997,7.53936214856877E-8,0.));
#1519=DIRECTION('ref_axis',(-7.53936214856877E-8,-0.999999999999997,0.));
#1520=DIRECTION('',(-7.53936214856877E-8,-0.999999999999997,0.));
#1521=DIRECTION('',(0.,0.,1.));
#1522=DIRECTION('center_axis',(0.,0.,1.));
#1523=DIRECTION('ref_axis',(0.000248736067163326,0.999999969065184,0.));
#1524=DIRECTION('center_axis',(0.,0.,1.));
#1525=DIRECTION('ref_axis',(0.000248736067163326,0.999999969065184,0.));
#1526=DIRECTION('center_axis',(0.,0.,1.));
#1527=DIRECTION('ref_axis',(-1.,0.,0.));
#1528=DIRECTION('center_axis',(0.,1.,0.));
#1529=DIRECTION('ref_axis',(1.,0.,0.));
#1530=DIRECTION('center_axis',(7.28501318660701E-8,0.999999999999997,0.));
#1531=DIRECTION('ref_axis',(0.999999999999997,-7.28501318660701E-8,0.));
#1532=DIRECTION('',(0.,0.,-1.));
#1533=DIRECTION('',(0.,0.,1.));
#1534=DIRECTION('center_axis',(-1.,0.,0.));
#1535=DIRECTION('ref_axis',(0.,0.,1.));
#1536=DIRECTION('center_axis',(-0.999999999999997,7.54219416688854E-8,0.));
#1537=DIRECTION('ref_axis',(7.54219416688854E-8,0.999999999999997,0.));
#1538=DIRECTION('center_axis',(1.,-3.1720665611804E-15,0.));
#1539=DIRECTION('ref_axis',(0.,0.,-1.));
#1540=DIRECTION('',(0.,0.,-1.));
#1541=DIRECTION('',(-3.1720665611804E-15,-1.,0.));
#1542=DIRECTION('center_axis',(0.,0.,1.));
#1543=DIRECTION('ref_axis',(-1.,0.,0.));
#1544=DIRECTION('center_axis',(0.,0.,-1.));
#1545=DIRECTION('ref_axis',(-1.,0.,0.));
#1546=DIRECTION('',(0.,-1.,0.));
#1547=DIRECTION('center_axis',(0.,0.,1.));
#1548=DIRECTION('ref_axis',(-1.,0.,0.));
#1549=DIRECTION('center_axis',(1.,0.,0.));
#1550=DIRECTION('ref_axis',(0.,-1.,0.));
#1551=DIRECTION('',(0.,0.,-1.));
#1552=DIRECTION('center_axis',(0.,0.,-1.));
#1553=DIRECTION('ref_axis',(-1.,0.,0.));
#1554=DIRECTION('center_axis',(0.,0.,-1.));
#1555=DIRECTION('ref_axis',(-1.,0.,0.));
#1556=DIRECTION('',(0.,0.,-1.));
#1557=CARTESIAN_POINT('',(0.,0.,0.));
#1558=CARTESIAN_POINT('Origin',(54.650002861023,-45.1168837924077,3.22000000715263));
#1559=CARTESIAN_POINT('',(53.8000009536743,-37.200000009791,2.37000000715262));
#1560=CARTESIAN_POINT('',(55.5000009536743,-37.200000009791,4.07000000715263));
#1561=CARTESIAN_POINT('',(50.8825022631884,-37.2000006854534,-0.547500590681991));
#1562=CARTESIAN_POINT('',(55.500002861023,-48.0000022475741,4.07000000715263));
#1563=CARTESIAN_POINT('',(55.500002861023,-45.1168837924077,4.07000000715263));
#1564=CARTESIAN_POINT('',(53.8000009536743,-48.0000022475741,2.37000000715262));
#1565=CARTESIAN_POINT('',(54.5750026208163,-48.0000022475741,3.1449997669459));
#1566=CARTESIAN_POINT('',(53.8000009536743,-40.7168837973032,2.37000000715263));
#1567=CARTESIAN_POINT('Origin',(33.8000004768372,-37.2000006854534,9.));
#1568=CARTESIAN_POINT('',(53.8000009536743,-37.200000009791,1.57000000000003));
#1569=CARTESIAN_POINT('',(53.8000009536743,-37.2000006854534,5.28500000000002));
#1570=CARTESIAN_POINT('',(41.5000014305115,-37.2000006854534,1.57000000000003));
#1571=CARTESIAN_POINT('',(55.,-37.200000009791,1.57000000000003));
#1572=CARTESIAN_POINT('',(41.5000006183982,-37.2000010940764,2.67000000000003));
#1573=CARTESIAN_POINT('',(41.4999995231629,-37.2000006854534,2.57000000000003));
#1574=CARTESIAN_POINT('',(40.1000006183982,-37.2000010940764,2.67000000000003));
#1575=CARTESIAN_POINT('',(39.1000006183982,-37.2000010940764,2.67000000000003));
#1576=CARTESIAN_POINT('',(39.1000006183982,-37.2000010940764,3.67000000000003));
#1577=CARTESIAN_POINT('Origin',(40.1000006183982,-37.2000006854534,3.67000000000003));
#1578=CARTESIAN_POINT('',(39.1000006183982,-37.2000010940764,7.57000000000003));
#1579=CARTESIAN_POINT('',(39.1000006183982,-37.2000010940764,3.57000000000003));
#1580=CARTESIAN_POINT('',(38.1000006183982,-37.2000006854534,8.57000000000003));
#1581=CARTESIAN_POINT('Origin',(38.1000006183982,-37.2000006854534,7.57000000000003));
#1582=CARTESIAN_POINT('',(28.000696886855,-37.2000006854534,8.57000000000003));
#1583=CARTESIAN_POINT('',(44.2499995231629,-37.2000006854534,8.57000000000003));
#1584=CARTESIAN_POINT('',(28.000696886855,-37.2000006854534,9.17000000000003));
#1585=CARTESIAN_POINT('',(28.000696886855,-37.2000006854534,8.57000000000003));
#1586=CARTESIAN_POINT('',(38.1000006183982,-37.2000006854534,9.17000000000003));
#1587=CARTESIAN_POINT('',(44.2499995231629,-37.2000006854534,9.17000000000003));
#1588=CARTESIAN_POINT('',(40.1000006183982,-37.2000010940764,7.17000000000003));
#1589=CARTESIAN_POINT('Origin',(38.1000006183982,-37.2000006854534,7.17000000000003));
#1590=CARTESIAN_POINT('',(40.1000006183982,-37.2000010940764,4.57000000000003));
#1591=CARTESIAN_POINT('',(40.1000006183982,-37.2000010940764,3.57000000000003));
#1592=CARTESIAN_POINT('',(41.1000006183982,-37.2000006854534,3.57000000000003));
#1593=CARTESIAN_POINT('Origin',(41.1000006183982,-37.2000006854534,4.57000000000003));
#1594=CARTESIAN_POINT('',(42.4999995231629,-37.2000006854534,3.57000000000003));
#1595=CARTESIAN_POINT('',(41.4999995231629,-37.2000006854534,3.57000000000003));
#1596=CARTESIAN_POINT('',(42.4999995231629,-37.2000006854534,2.57000000000003));
#1597=CARTESIAN_POINT('',(42.4999995231629,-37.2000006854534,2.57000000000003));
#1598=CARTESIAN_POINT('',(44.25,-37.2000006854534,2.57000000000003));
#1599=CARTESIAN_POINT('',(42.4999985694885,-37.2000006854534,2.57000000000003));
#1600=CARTESIAN_POINT('',(44.25,-37.2000006854534,2.17000000000003));
#1601=CARTESIAN_POINT('',(44.25,-37.2000006854534,2.57000000000003));
#1602=CARTESIAN_POINT('',(48.75,-37.2000006854534,2.17000000000003));
#1603=CARTESIAN_POINT('',(39.9000002384186,-37.2000006854534,2.17000000000003));
#1604=CARTESIAN_POINT('',(48.75,-37.2000006854534,2.57000000000003));
#1605=CARTESIAN_POINT('',(48.75,-37.2000006854534,2.57000000000003));
#1606=CARTESIAN_POINT('',(52.8000019073487,-37.2000006854534,2.57000000000003));
#1607=CARTESIAN_POINT('',(55.0000019073487,-37.2000006854534,2.57000000000003));
#1608=CARTESIAN_POINT('',(52.8000019073487,-37.2000006854534,3.57000000000003));
#1609=CARTESIAN_POINT('',(52.8000019073487,-37.2000006854534,2.57000000000003));
#1610=CARTESIAN_POINT('',(53.5000019073487,-37.2000006854534,3.57000000000003));
#1611=CARTESIAN_POINT('',(55.0000019073487,-37.2000006854534,3.57000000000003));
#1612=CARTESIAN_POINT('',(54.5000019073487,-37.2000006854534,4.57000000000003));
#1613=CARTESIAN_POINT('Origin',(53.5000019073487,-37.2000006854534,4.57000000000003));
#1614=CARTESIAN_POINT('',(54.5000019073487,-37.2000006854534,6.67000000000003));
#1615=CARTESIAN_POINT('',(54.5000019073487,-37.2000006854534,2.57000000000003));
#1616=CARTESIAN_POINT('',(56.0000009536743,-37.2000006854534,8.96128743126012));
#1617=CARTESIAN_POINT('Origin',(57.0000019073487,-37.2000006854534,6.67000000000003));
#1618=CARTESIAN_POINT('',(56.000002861023,-37.2000006854534,8.57000000000003));
#1619=CARTESIAN_POINT('',(56.0000009536743,-37.2000006854534,5.28500000000002));
#1620=CARTESIAN_POINT('',(55.500002861023,-37.2000006854534,8.57000000000003));
#1621=CARTESIAN_POINT('',(44.9000016689301,-37.2000006854534,8.57000000000003));
#1622=CARTESIAN_POINT('',(55.5000009536743,-37.200000009791,7.57000000000003));
#1623=CARTESIAN_POINT('',(55.5000009536743,-37.200000009791,2.57000000000003));
#1624=CARTESIAN_POINT('',(55.5000009536743,-37.200000009791,2.57000000000003));
#1625=CARTESIAN_POINT('Origin',(58.2000014358097,-47.0000022475741,7.57000000000003));
#1626=CARTESIAN_POINT('',(56.500002861023,-47.0000022475741,8.57000000000003));
#1627=CARTESIAN_POINT('',(67.8000000185437,-47.0000022475741,8.57000000000003));
#1628=CARTESIAN_POINT('',(58.2000014358097,-47.0000022475741,8.57000000000003));
#1629=CARTESIAN_POINT('',(67.8,-48.0000022475741,7.57000000000003));
#1630=CARTESIAN_POINT('Origin',(67.8,-47.0000022475741,7.57000000000003));
#1631=CARTESIAN_POINT('',(55.500002861023,-48.0000022475741,7.57000000000003));
#1632=CARTESIAN_POINT('',(58.2000014358097,-48.0000022475741,7.57000000000003));
#1633=CARTESIAN_POINT('Origin',(56.500002861023,-47.0000022475741,7.57000000000003));
#1634=CARTESIAN_POINT('Origin',(56.500002861023,-44.5500001825392,7.57000000000003));
#1635=CARTESIAN_POINT('',(55.500002861023,-44.5500001825392,7.57000000000003));
#1636=CARTESIAN_POINT('',(56.500002861023,-37.2000006854534,8.57000000000003));
#1637=CARTESIAN_POINT('Origin',(56.500002861023,-37.2000005744582,7.57000000000003));
#1638=CARTESIAN_POINT('',(56.500002861023,-44.5500001825392,8.57000000000003));
#1639=CARTESIAN_POINT('Origin',(61.4000009642707,-43.1000003650784,8.57000000000003));
#1640=CARTESIAN_POINT('',(59.,-37.2000000194825,8.57000000000003));
#1641=CARTESIAN_POINT('',(47.6000007205539,-37.2000006854534,8.57000000000003));
#1642=CARTESIAN_POINT('',(64.99999957409,-37.2,8.57000000000003));
#1643=CARTESIAN_POINT('',(47.6000007205539,-37.2000006854534,8.57000000000003));
#1644=CARTESIAN_POINT('',(67.8,-40.00000042591,8.57000000000003));
#1645=CARTESIAN_POINT('Origin',(64.99999957409,-40.00000042591,8.57000000000003));
#1646=CARTESIAN_POINT('',(67.8000000211928,-48.0000007364485,8.57000000000003));
#1647=CARTESIAN_POINT('Origin',(57.0000019073487,-46.5000007301569,4.57000000000003));
#1648=CARTESIAN_POINT('',(54.5000019073487,-46.5000007301569,4.57000000000003));
#1649=CARTESIAN_POINT('',(53.5000019073487,-46.5000007301569,3.57000000000003));
#1650=CARTESIAN_POINT('Origin',(53.5000019073487,-46.5000007301569,4.57000000000003));
#1651=CARTESIAN_POINT('',(54.5505121645655,-49.0000007301569,3.57000000000003));
#1652=CARTESIAN_POINT('Origin',(57.0000019073487,-46.5000007301569,3.57000000000003));
#1653=CARTESIAN_POINT('',(57.0000019073487,-49.0000007301569,4.57000000000003));
#1654=CARTESIAN_POINT('Ctrl Pts',(54.5505121645655,-49.0000007301569,3.57000000000003));
#1655=CARTESIAN_POINT('Ctrl Pts',(54.8653847083242,-49.0000007301569,3.57000000000003));
#1656=CARTESIAN_POINT('Ctrl Pts',(55.2330166113409,-49.0000007301569,3.65726499283866));
#1657=CARTESIAN_POINT('Ctrl Pts',(56.0193201357599,-49.0000007301569,3.95543342739194));
#1658=CARTESIAN_POINT('Ctrl Pts',(56.5553949823975,-49.0000007301569,4.2888058907342));
#1659=CARTESIAN_POINT('Ctrl Pts',(57.0000019073487,-49.0000007301569,4.57000000000003));
#1660=CARTESIAN_POINT('Origin',(57.0000019073487,-46.5000007301569,4.57000000000003));
#1661=CARTESIAN_POINT('Origin',(53.5000019073487,-40.1500005252659,4.57000000000003));
#1662=CARTESIAN_POINT('',(53.5000019073487,-40.1500005252659,3.57000000000003));
#1663=CARTESIAN_POINT('',(54.5000019073487,-40.1500005252659,4.57000000000003));
#1664=CARTESIAN_POINT('Origin',(54.5000019073487,-37.2000006854534,2.57000000000003));
#1665=CARTESIAN_POINT('',(54.5000019073487,-46.5000007301569,6.67000000000003));
#1666=CARTESIAN_POINT('',(54.5000019073487,-46.5000007301569,2.57000000000003));
#1667=CARTESIAN_POINT('',(54.5000019073487,-40.1500006966293,6.67000000000003));
#1668=CARTESIAN_POINT('Origin',(57.0000019073487,-46.5000007301569,2.57000000000003));
#1669=CARTESIAN_POINT('',(57.0000019073487,-49.0000007301569,6.67000000000003));
#1670=CARTESIAN_POINT('',(57.0000019073487,-49.0000007301569,2.57000000000003));
#1671=CARTESIAN_POINT('Origin',(57.0000019073487,-46.5000007301569,6.67000000000003));
#1672=CARTESIAN_POINT('Origin',(57.0000019073487,-46.5000007301569,6.67000000000003));
#1673=CARTESIAN_POINT('',(57.0000019073487,-46.5000007301569,9.17000000000003));
#1674=CARTESIAN_POINT('Origin',(57.0000019073487,-46.5000007301569,6.67000000000003));
#1675=CARTESIAN_POINT('Origin',(57.0000019073487,-46.5000007301569,6.67000000000003));
#1676=CARTESIAN_POINT('Origin',(60.9340171489745,-46.5000007301569,6.67000000000003));
#1677=CARTESIAN_POINT('',(67.8,-49.0000007301569,6.67000000000003));
#1678=CARTESIAN_POINT('',(67.8000000172191,-46.5000007301569,9.17000000000003));
#1679=CARTESIAN_POINT('Origin',(67.8,-46.5000007301569,6.67000000000003));
#1680=CARTESIAN_POINT('',(60.9340171489745,-46.5000007301569,9.17000000000003));
#1681=CARTESIAN_POINT('',(60.9340171489745,-49.0000007301569,6.67000000000003));
#1682=CARTESIAN_POINT('Origin',(57.0000019073487,-40.1500006966293,6.67000000000003));
#1683=CARTESIAN_POINT('',(57.0000019073487,-37.2000004634631,9.17000000000003));
#1684=CARTESIAN_POINT('',(57.0000019073487,-40.1500006966293,9.17000000000003));
#1685=CARTESIAN_POINT('Origin',(57.0000019073487,-37.2000004634631,6.67000000000003));
#1686=CARTESIAN_POINT('Origin',(54.068034297949,-43.1000007078051,9.17000000000003));
#1687=CARTESIAN_POINT('',(67.8,-40.00000042591,9.17000000000003));
#1688=CARTESIAN_POINT('',(67.8000000211928,-48.0000007364485,9.17000000000003));
#1689=CARTESIAN_POINT('',(64.99999957409,-37.2,9.17000000000003));
#1690=CARTESIAN_POINT('Origin',(64.99999957409,-40.00000042591,9.17000000000003));
#1691=CARTESIAN_POINT('',(59.,-37.2000000194825,9.17000000000003));
#1692=CARTESIAN_POINT('',(64.99999957409,-37.2,9.17000000000003));
#1693=CARTESIAN_POINT('',(59.,-37.2000000194825,9.17000000000003));
#1694=CARTESIAN_POINT('Origin',(67.8,-48.0000022475741,2.57000000000003));
#1695=CARTESIAN_POINT('',(67.8,-49.0000007301569,1.57000000000003));
#1696=CARTESIAN_POINT('',(67.8,-49.0000007301569,2.57000000000003));
#1697=CARTESIAN_POINT('',(67.8,-48.0000022475741,1.57000000000003));
#1698=CARTESIAN_POINT('',(67.8,-49.0000007301569,1.57000000000003));
#1699=CARTESIAN_POINT('',(67.8,-48.0000022475741,2.57000000000003));
#1700=CARTESIAN_POINT('',(67.8,-40.00000042591,9.17000000000003));
#1701=CARTESIAN_POINT('Origin',(67.8,-49.0000007301569,2.57000000000003));
#1702=CARTESIAN_POINT('',(40.336068595898,-49.0000007301569,3.57000000000003));
#1703=CARTESIAN_POINT('',(25.1999999201414,-49.0000007301569,3.57000000000003));
#1704=CARTESIAN_POINT('',(38.1000006183982,-49.0000007301569,4.57000000000003));
#1705=CARTESIAN_POINT('Ctrl Pts',(38.1000006183982,-49.0000007301569,4.57000000000003));
#1706=CARTESIAN_POINT('Ctrl Pts',(38.4965151150187,-49.0000007301569,4.28962191060087));
#1707=CARTESIAN_POINT('Ctrl Pts',(38.9754051393385,-49.0000007301569,3.95755620018754));
#1708=CARTESIAN_POINT('Ctrl Pts',(39.6967906317279,-49.0000007301569,3.65771623749579));
#1709=CARTESIAN_POINT('Ctrl Pts',(40.0404800323475,-49.0000007301569,3.57000000000003));
#1710=CARTESIAN_POINT('Ctrl Pts',(40.336068595898,-49.0000007301569,3.57000000000003));
#1711=CARTESIAN_POINT('',(38.1000006183982,-49.0000007301569,6.67000000000003));
#1712=CARTESIAN_POINT('',(38.1000006183982,-49.0000007301569,3.07000000000003));
#1713=CARTESIAN_POINT('',(25.1999999955633,-48.9999976280663,6.67000000000003));
#1714=CARTESIAN_POINT('',(51.2624999988908,-49.0000007301569,6.67000000000003));
#1715=CARTESIAN_POINT('',(25.1999999201414,-49.0000007301569,3.57000000000003));
#1716=CARTESIAN_POINT('',(25.1999999955633,-48.9999976280663,8.57000000000003));
#1717=CARTESIAN_POINT('',(25.1999999201414,-49.0000007301569,1.57000000000003));
#1718=CARTESIAN_POINT('',(25.1999999201414,-49.0000007301569,2.57000000000003));
#1719=CARTESIAN_POINT('',(25.1999999201414,-49.0000007301569,1.57000000000003));
#1720=CARTESIAN_POINT('Origin',(55.0000019073487,-48.0000022475741,2.57000000000003));
#1721=CARTESIAN_POINT('',(53.8000009536743,-48.0000022475741,1.57000000000003));
#1722=CARTESIAN_POINT('',(50.7500004768372,-48.0000022475741,1.57000000000003));
#1723=CARTESIAN_POINT('',(53.8000009536743,-48.0000022475741,1.57000000000003));
#1724=CARTESIAN_POINT('',(55.500002861023,-48.0000022475741,2.07000000000003));
#1725=CARTESIAN_POINT('Origin',(55.500002861023,-46.,1.57000000000003));
#1726=CARTESIAN_POINT('Origin',(46.4999999600707,-43.1000003650784,3.57000000000003));
#1727=CARTESIAN_POINT('',(52.8000019073487,-48.0000023543837,3.57000000000003));
#1728=CARTESIAN_POINT('',(52.8000019073487,-37.2000006854534,3.57000000000003));
#1729=CARTESIAN_POINT('',(43.4999995231629,-48.0000023543837,3.57000000000003));
#1730=CARTESIAN_POINT('',(44.25,-48.0000023543837,3.57000000000003));
#1731=CARTESIAN_POINT('',(42.4999995231629,-47.0000023543837,3.57000000000003));
#1732=CARTESIAN_POINT('Origin',(43.4999995231629,-47.0000023543837,3.57000000000003));
#1733=CARTESIAN_POINT('',(42.4999995231629,-37.2000006854534,3.57000000000003));
#1734=CARTESIAN_POINT('',(41.1000006183982,-47.0000007301569,3.57000000000003));
#1735=CARTESIAN_POINT('',(41.1000006183982,-45.6000007295774,3.57000000000003));
#1736=CARTESIAN_POINT('Origin',(38.1000006183982,-47.0000007301569,3.57000000000003));
#1737=CARTESIAN_POINT('Origin',(52.8000019073487,-37.2000006854534,2.57000000000003));
#1738=CARTESIAN_POINT('',(52.8000019073487,-48.0000023543837,2.57000000000003));
#1739=CARTESIAN_POINT('',(52.8000019073487,-42.600000718567,2.57000000000003));
#1740=CARTESIAN_POINT('',(52.8000019073487,-48.0000023543837,2.57000000000003));
#1741=CARTESIAN_POINT('Origin',(34.0000004768372,-48.0000007516807,2.57000000000003));
#1742=CARTESIAN_POINT('',(48.75,-40.,2.57000000000003));
#1743=CARTESIAN_POINT('',(48.75,-42.7500003758403,2.57000000000003));
#1744=CARTESIAN_POINT('',(44.25,-40.,2.57000000000003));
#1745=CARTESIAN_POINT('Origin',(46.5,-40.,2.57000000000003));
#1746=CARTESIAN_POINT('',(44.25,-40.,2.57000000000003));
#1747=CARTESIAN_POINT('',(42.4999995231629,-47.0000023543837,2.57000000000003));
#1748=CARTESIAN_POINT('',(42.4999995231629,-48.0000007334682,2.57000000000003));
#1749=CARTESIAN_POINT('',(43.4999995231629,-48.0000023543837,2.57000000000003));
#1750=CARTESIAN_POINT('Origin',(43.4999995231629,-47.0000023543837,2.57000000000003));
#1751=CARTESIAN_POINT('',(43.6250002384186,-48.0000023543837,2.57000000000003));
#1752=CARTESIAN_POINT('Origin',(53.8000009536743,-37.200000009791,1.57000000000003));
#1753=CARTESIAN_POINT('',(53.8000009536743,-47.8500000048955,1.57000000000003));
#1754=CARTESIAN_POINT('Origin',(47.5,-58.5,1.57000000000003));
#1755=CARTESIAN_POINT('',(25.1999999955633,-48.0000010940764,1.57000000000003));
#1756=CARTESIAN_POINT('',(25.2000000847106,-46.8180202148174,1.57000000000003));
#1757=CARTESIAN_POINT('',(41.5000014305115,-48.,1.57000000000003));
#1758=CARTESIAN_POINT('',(42.5000004768372,-48.0000023543837,1.57000000000003));
#1759=CARTESIAN_POINT('',(41.5000014305115,-47.7500003427267,1.57000000000003));
#1760=CARTESIAN_POINT('',(47.75,-40.,1.57000000000003));
#1761=CARTESIAN_POINT('Origin',(46.5,-40.,1.57000000000003));
#1762=CARTESIAN_POINT('Origin',(53.25,-48.0000023543837,2.57000000000003));
#1763=CARTESIAN_POINT('',(43.4999995231629,-48.0000023543837,2.57000000000003));
#1764=CARTESIAN_POINT('Origin',(56.000002861023,-37.2000006854534,9.17000000000003));
#1765=CARTESIAN_POINT('',(59.,-37.2000000194825,9.17000000000003));
#1766=CARTESIAN_POINT('Origin',(43.4999995231629,-47.0000023543837,2.57000000000003));
#1767=CARTESIAN_POINT('',(42.4999995231629,-47.0000023543837,2.57000000000003));
#1768=CARTESIAN_POINT('Origin',(42.4999995231629,-48.0000007152557,2.57000000000003));
#1769=CARTESIAN_POINT('Origin',(59.,-37.2000000194825,9.17000000000003));
#1770=CARTESIAN_POINT('',(64.99999957409,-37.2,9.17000000000003));
#1771=CARTESIAN_POINT('Origin',(64.99999957409,-40.00000042591,9.17000000000003));
#1772=CARTESIAN_POINT('Origin',(38.1000006183982,-46.1000010940764,3.67000000000003));
#1773=CARTESIAN_POINT('',(39.1000006183982,-46.1000010940764,3.67000000000003));
#1774=CARTESIAN_POINT('',(40.1000006183982,-46.1000010940764,2.67000000000003));
#1775=CARTESIAN_POINT('Origin',(40.1000006183982,-46.1000010940764,3.67000000000003));
#1776=CARTESIAN_POINT('',(38.7244974206363,-48.0000020793378,2.67000000000003));
#1777=CARTESIAN_POINT('Origin',(38.1000006183982,-46.1000010940764,2.67000000000003));
#1778=CARTESIAN_POINT('',(38.4122490195173,-47.0500015867071,3.67000000000003));
#1779=CARTESIAN_POINT('Origin',(38.7244974206363,-48.0000020793378,3.67000000000003));
#1780=CARTESIAN_POINT('Origin',(38.1000006183982,-46.1000010940764,3.67000000000003));
#1781=CARTESIAN_POINT('Origin',(40.1000006183982,-45.1000009009408,3.67000000000003));
#1782=CARTESIAN_POINT('',(40.1000006183982,-45.1000009009408,2.67000000000003));
#1783=CARTESIAN_POINT('',(39.1000006183982,-45.1000009009408,3.67000000000003));
#1784=CARTESIAN_POINT('Origin',(38.1000006183982,-46.1000010940764,3.67000000000003));
#1785=CARTESIAN_POINT('',(38.1000006183982,-48.0000020338431,2.67501246844375));
#1786=CARTESIAN_POINT('Ctrl Pts',(38.1000006183982,-48.0000020338432,2.67501246844375));
#1787=CARTESIAN_POINT('Ctrl Pts',(38.2370289841629,-48.0000020438257,2.67501246744048));
#1788=CARTESIAN_POINT('Ctrl Pts',(38.4014479764811,-48.0000020558036,2.67279828606644));
#1789=CARTESIAN_POINT('Ctrl Pts',(38.5966002099009,-48.0000020700205,2.67059867652945));
#1790=CARTESIAN_POINT('Ctrl Pts',(38.6663611572009,-48.0000020751026,2.67000000000003));
#1791=CARTESIAN_POINT('Ctrl Pts',(38.7244974206363,-48.0000020793378,2.67000000000003));
#1792=CARTESIAN_POINT('',(38.1000006183982,-47.1000010940764,3.67000000000003));
#1793=CARTESIAN_POINT('Origin',(38.1000006183982,-48.1000010940764,3.67000000000003));
#1794=CARTESIAN_POINT('Origin',(38.1000006183982,-46.1000010940764,3.67000000000003));
#1795=CARTESIAN_POINT('Origin',(35.849999977817,-48.1000010940764,3.67000000000003));
#1796=CARTESIAN_POINT('',(25.1999999955633,-48.0000010940764,2.67501256289341));
#1797=CARTESIAN_POINT('',(31.8208287452326,-48.0000015764046,2.67501251441812));
#1798=CARTESIAN_POINT('',(25.1999999955633,-47.1000010940764,3.67000000000003));
#1799=CARTESIAN_POINT('Origin',(25.1999999955633,-48.1000010940764,3.67000000000003));
#1800=CARTESIAN_POINT('',(35.849999977817,-47.1000010940764,3.67000000000003));
#1801=CARTESIAN_POINT('Origin',(46.4999999600707,-43.1000007078051,2.67000000000003));
#1802=CARTESIAN_POINT('',(41.5000006183982,-48.0000010940764,2.67000000000003));
#1803=CARTESIAN_POINT('',(41.4999995231628,-40.0500006966293,2.67000000000003));
#1804=CARTESIAN_POINT('',(35.8499997993341,-48.0000018699303,2.67000000000003));
#1805=CARTESIAN_POINT('Origin',(39.1000006183982,-47.1000010940764,3.57000000000003));
#1806=CARTESIAN_POINT('',(39.1000006183982,-46.1000010940764,7.57000000000003));
#1807=CARTESIAN_POINT('',(39.1000006183982,-46.1000010940764,3.57000000000003));
#1808=CARTESIAN_POINT('',(39.1000006183982,-44.8750009702663,7.57000000000003));
#1809=CARTESIAN_POINT('Origin',(38.1000006183982,-46.1000010940764,7.57000000000003));
#1810=CARTESIAN_POINT('',(38.1000006183982,-46.1000010940764,8.57000000000003));
#1811=CARTESIAN_POINT('Origin',(38.1000006183982,-46.1000010940764,7.57000000000003));
#1812=CARTESIAN_POINT('',(38.1000006183982,-47.1000010940764,7.57000000000003));
#1813=CARTESIAN_POINT('Origin',(38.1000006183982,-46.1000010940764,7.57000000000003));
#1814=CARTESIAN_POINT('Origin',(38.1000006183982,-46.1000010940764,7.57000000000003));
#1815=CARTESIAN_POINT('Origin',(38.1000006183982,-46.1000010940764,3.57000000000003));
#1816=CARTESIAN_POINT('',(38.1000006183982,-47.1000010940764,3.57000000000003));
#1817=CARTESIAN_POINT('Origin',(29.9624999966725,-46.1000010940764,7.57000000000003));
#1818=CARTESIAN_POINT('',(25.1999999955633,-47.1000010940764,7.57000000000003));
#1819=CARTESIAN_POINT('',(25.2000001430281,-46.1000010940764,8.57000000000003));
#1820=CARTESIAN_POINT('Origin',(25.2000001430281,-46.1000010940764,7.57000000000003));
#1821=CARTESIAN_POINT('',(29.9624999966725,-46.1000010940764,8.57000000000003));
#1822=CARTESIAN_POINT('',(29.9624999966725,-47.1000010940764,7.57000000000003));
#1823=CARTESIAN_POINT('Origin',(38.1000006183982,-44.8750009702663,7.57000000000003));
#1824=CARTESIAN_POINT('',(38.1000006183982,-44.8750009702663,8.57000000000003));
#1825=CARTESIAN_POINT('Origin',(41.1000006183982,-45.6000007295774,4.57000000000003));
#1826=CARTESIAN_POINT('',(40.1000006183982,-47.0000007301569,4.57000000000003));
#1827=CARTESIAN_POINT('Origin',(41.1000006183982,-47.0000007301569,4.57000000000003));
#1828=CARTESIAN_POINT('',(40.1000006183982,-45.6000007295774,4.57000000000003));
#1829=CARTESIAN_POINT('Origin',(38.1000006183982,-47.0000007301569,4.57000000000003));
#1830=CARTESIAN_POINT('Origin',(38.1000006183982,-47.0000007301569,4.57000000000003));
#1831=CARTESIAN_POINT('Origin',(38.1000006183982,-47.0000007301569,3.07000000000003));
#1832=CARTESIAN_POINT('',(40.1000006183982,-47.0000007301569,6.67000000000003));
#1833=CARTESIAN_POINT('',(40.1000006183982,-47.0000007301569,3.07000000000003));
#1834=CARTESIAN_POINT('Origin',(38.1000006183982,-47.0000007301569,6.67000000000003));
#1835=CARTESIAN_POINT('Origin',(40.1000006183982,-48.1000010940764,3.57000000000003));
#1836=CARTESIAN_POINT('',(40.1000006183982,-46.5000007301569,7.17000000000003));
#1837=CARTESIAN_POINT('',(40.1000006183982,-45.3750009702663,7.17000000000003));
#1838=CARTESIAN_POINT('Origin',(40.1000006183982,-46.5000007301569,6.67000000000003));
#1839=CARTESIAN_POINT('Origin',(38.1000006183982,-45.3750009702663,7.17000000000003));
#1840=CARTESIAN_POINT('',(38.1000006183982,-46.5000007301569,9.17000000000003));
#1841=CARTESIAN_POINT('',(38.1000006183982,-45.3750009702663,9.17000000000003));
#1842=CARTESIAN_POINT('Origin',(38.1000006183982,-46.5000007301569,7.17000000000003));
#1843=CARTESIAN_POINT('Ctrl Pts',(40.1000006183982,-47.0000007301569,6.67000000000003));
#1844=CARTESIAN_POINT('Ctrl Pts',(40.1000006183982,-47.0000007301569,7.17000000000003));
#1845=CARTESIAN_POINT('Ctrl Pts',(40.1000006183982,-46.5000007301569,7.17000000000003));
#1846=CARTESIAN_POINT('Ctrl Pts',(40.1000006183982,-49.0000007301569,6.67000000000003));
#1847=CARTESIAN_POINT('Ctrl Pts',(40.1000006183982,-49.0000007301569,9.17000000000003));
#1848=CARTESIAN_POINT('Ctrl Pts',(40.1000006183982,-46.5000007301569,9.17000000000003));
#1849=CARTESIAN_POINT('Ctrl Pts',(38.1000006183982,-49.0000007301569,6.67000000000003));
#1850=CARTESIAN_POINT('Ctrl Pts',(38.1000006183982,-49.0000007301569,9.17000000000003));
#1851=CARTESIAN_POINT('Ctrl Pts',(38.1000006183982,-46.5000007301569,9.17000000000003));
#1852=CARTESIAN_POINT('Origin',(38.1000006183982,-46.5000007301569,6.67000000000003));
#1853=CARTESIAN_POINT('Origin',(51.2624999988908,-46.5000007301569,6.67000000000003));
#1854=CARTESIAN_POINT('',(25.2000001135352,-46.5000007301569,9.17000000000003));
#1855=CARTESIAN_POINT('',(51.2624999988908,-46.5000007301569,9.17000000000003));
#1856=CARTESIAN_POINT('',(25.1999999955633,-48.1000010940764,8.59093696811155));
#1857=CARTESIAN_POINT('Origin',(25.2000001135352,-46.5000007301569,6.67000000000003));
#1858=CARTESIAN_POINT('Origin',(25.1999999955633,-46.5000007301569,6.67000000000003));
#1859=CARTESIAN_POINT('Origin',(34.7249999977817,-42.6500008464562,9.17000000000003));
#1860=CARTESIAN_POINT('',(25.200000598836,-40.00000042591,9.17000000000003));
#1861=CARTESIAN_POINT('Origin',(28.00000042591,-40.00000042591,9.17000000000003));
#1862=CARTESIAN_POINT('',(25.2000003247018,-43.636039699478,9.17000000000003));
#1863=CARTESIAN_POINT('',(25.200000598836,-40.00000042591,9.17000000000003));
#1864=CARTESIAN_POINT('',(25.2000003247018,-43.636039699478,9.17000000000003));
#1865=CARTESIAN_POINT('Origin',(25.1999999955633,-48.0000010940764,3.57000000000003));
#1866=CARTESIAN_POINT('',(25.1999999955633,-48.0000010940764,3.57000000000003));
#1867=CARTESIAN_POINT('',(25.1999999955633,-48.0000010940764,2.57000000000003));
#1868=CARTESIAN_POINT('',(25.2000000847106,-46.8180202148174,3.57000000000003));
#1869=CARTESIAN_POINT('',(25.1999999955633,-48.1000010940764,8.57000000000003));
#1870=CARTESIAN_POINT('',(25.1999999955633,-48.1000010940764,8.57000000000003));
#1871=CARTESIAN_POINT('',(25.1999999955633,-47.1000010940764,8.57000000000003));
#1872=CARTESIAN_POINT('',(25.1999999955633,-48.1000010940764,8.57000000000003));
#1873=CARTESIAN_POINT('',(25.1999999955633,-47.1000010940764,3.57000000000003));
#1874=CARTESIAN_POINT('',(25.1999999955633,-47.1000010940764,3.57000000000003));
#1875=CARTESIAN_POINT('Origin',(25.2000003247018,-43.636039699478,8.57000000000003));
#1876=CARTESIAN_POINT('',(25.2000003247018,-43.636039699478,8.57000000000003));
#1877=CARTESIAN_POINT('',(25.2000003247018,-43.636039699478,8.57000000000003));
#1878=CARTESIAN_POINT('',(25.2000003247018,-43.636039699478,8.57000000000003));
#1879=CARTESIAN_POINT('Origin',(25.200000598836,-40.00000042591,8.57000000000003));
#1880=CARTESIAN_POINT('',(25.200000598836,-40.00000042591,8.57000000000003));
#1881=CARTESIAN_POINT('',(25.200000598836,-40.00000042591,8.57000000000003));
#1882=CARTESIAN_POINT('',(25.200000598836,-40.00000042591,8.57000000000003));
#1883=CARTESIAN_POINT('Origin',(28.00000042591,-40.00000042591,8.57000000000003));
#1884=CARTESIAN_POINT('Origin',(28.00000042591,-40.00000042591,8.57000000000003));
#1885=CARTESIAN_POINT('Origin',(34.7249999977817,-42.6500008464562,8.57000000000003));
#1886=CARTESIAN_POINT('Origin',(25.1999999955633,-47.1000010940764,3.57000000000003));
#1887=CARTESIAN_POINT('Origin',(25.1999999955633,-48.0000010940764,2.57000000000003));
#1888=CARTESIAN_POINT('',(41.4999995231629,-48.0000022815335,2.57000000000003));
#1889=CARTESIAN_POINT('',(25.1999999955633,-48.0000010940764,2.57000000000003));
#1890=CARTESIAN_POINT('Origin',(41.4999995231628,-37.0000006854534,1.57000000000003));
#1891=CARTESIAN_POINT('Origin',(25.1999999201414,-49.0000007301569,2.57000000000003));
#1892=CARTESIAN_POINT('Origin',(44.25,-40.,2.57000000000003));
#1893=CARTESIAN_POINT('',(44.25,-40.,2.17000000000003));
#1894=CARTESIAN_POINT('',(44.25,-40.,2.57000000000003));
#1895=CARTESIAN_POINT('',(44.25,-40.8750001879202,2.17000000000003));
#1896=CARTESIAN_POINT('Origin',(46.,-41.7500003758403,2.17000000000003));
#1897=CARTESIAN_POINT('',(48.75,-40.,2.17000000000003));
#1898=CARTESIAN_POINT('Origin',(46.5,-40.,2.17000000000003));
#1899=CARTESIAN_POINT('',(48.75,-39.6250001879202,2.17000000000003));
#1900=CARTESIAN_POINT('',(47.75,-40.,2.17000000000003));
#1901=CARTESIAN_POINT('Origin',(46.5,-40.,2.17000000000003));
#1902=CARTESIAN_POINT('Origin',(48.75,-37.5,2.57000000000003));
#1903=CARTESIAN_POINT('',(48.75,-40.,2.57000000000003));
#1904=CARTESIAN_POINT('Origin',(46.5,-40.,2.57000000000003));
#1905=CARTESIAN_POINT('Origin',(46.5,-40.,2.07000000000003));
#1906=CARTESIAN_POINT('',(47.75,-40.,2.07000000000003));
#1907=UNCERTAINTY_MEASURE_WITH_UNIT(LENGTH_MEASURE(0.01),#1911,
'DISTANCE_ACCURACY_VALUE',
'Maximum model space distance between geometric entities at asserted c
onnectivities');
#1908=UNCERTAINTY_MEASURE_WITH_UNIT(LENGTH_MEASURE(0.01),#1911,
'DISTANCE_ACCURACY_VALUE',
'Maximum model space distance between geometric entities at asserted c
onnectivities');
#1909=(
GEOMETRIC_REPRESENTATION_CONTEXT(3)
GLOBAL_UNCERTAINTY_ASSIGNED_CONTEXT((#1907))
GLOBAL_UNIT_ASSIGNED_CONTEXT((#1911,#1912,#1913))
REPRESENTATION_CONTEXT('','3D')
);
#1910=(
GEOMETRIC_REPRESENTATION_CONTEXT(3)
GLOBAL_UNCERTAINTY_ASSIGNED_CONTEXT((#1908))
GLOBAL_UNIT_ASSIGNED_CONTEXT((#1911,#1912,#1913))
REPRESENTATION_CONTEXT('','3D')
);
#1911=(
LENGTH_UNIT()
NAMED_UNIT(*)
SI_UNIT(.MILLI.,.METRE.)
);
#1912=(
NAMED_UNIT(*)
PLANE_ANGLE_UNIT()
SI_UNIT($,.RADIAN.)
);
#1913=(
NAMED_UNIT(*)
SI_UNIT($,.STERADIAN.)
SOLID_ANGLE_UNIT()
);
#1914=SHAPE_DEFINITION_REPRESENTATION(#1915,#1916);
#1915=PRODUCT_DEFINITION_SHAPE('',$,#1918);
#1916=SHAPE_REPRESENTATION('',(#1124),#1909);
#1917=PRODUCT_DEFINITION_CONTEXT('part definition',#1922,'design');
#1918=PRODUCT_DEFINITION('AirCube 1','AirCube',#1919,#1917);
#1919=PRODUCT_DEFINITION_FORMATION('',$,#1924);
#1920=PRODUCT_RELATED_PRODUCT_CATEGORY('AirCube','AirCube',(#1924));
#1921=APPLICATION_PROTOCOL_DEFINITION('international standard',
'automotive_design',2009,#1922);
#1922=APPLICATION_CONTEXT(
'Core Data for Automotive Mechanical Design Process');
#1923=PRODUCT_CONTEXT('part definition',#1922,'mechanical');
#1924=PRODUCT('AirCube 1','AirCube','KiCad electronic assembly',(#1923));
#1925=PRESENTATION_STYLE_ASSIGNMENT((#1932));
#1926=PRESENTATION_STYLE_ASSIGNMENT((#1933));
#1927=PRESENTATION_STYLE_ASSIGNMENT((#1934));
#1928=PRESENTATION_STYLE_ASSIGNMENT((#1935));
#1929=PRESENTATION_STYLE_ASSIGNMENT((#1936));
#1930=PRESENTATION_STYLE_ASSIGNMENT((#1937));
#1931=PRESENTATION_STYLE_ASSIGNMENT((#1938));
#1932=SURFACE_STYLE_USAGE(.BOTH.,#1939);
#1933=SURFACE_STYLE_USAGE(.BOTH.,#1940);
#1934=SURFACE_STYLE_USAGE(.BOTH.,#1941);
#1935=SURFACE_STYLE_USAGE(.BOTH.,#1942);
#1936=SURFACE_STYLE_USAGE(.BOTH.,#1943);
#1937=SURFACE_STYLE_USAGE(.BOTH.,#1944);
#1938=SURFACE_STYLE_USAGE(.BOTH.,#1945);
#1939=SURFACE_SIDE_STYLE('',(#1946));
#1940=SURFACE_SIDE_STYLE('',(#1947));
#1941=SURFACE_SIDE_STYLE('',(#1948));
#1942=SURFACE_SIDE_STYLE('',(#1949));
#1943=SURFACE_SIDE_STYLE('',(#1950));
#1944=SURFACE_SIDE_STYLE('',(#1951));
#1945=SURFACE_SIDE_STYLE('',(#1952));
#1946=SURFACE_STYLE_FILL_AREA(#1953);
#1947=SURFACE_STYLE_FILL_AREA(#1954);
#1948=SURFACE_STYLE_FILL_AREA(#1955);
#1949=SURFACE_STYLE_FILL_AREA(#1956);
#1950=SURFACE_STYLE_FILL_AREA(#1957);
#1951=SURFACE_STYLE_FILL_AREA(#1958);
#1952=SURFACE_STYLE_FILL_AREA(#1959);
#1953=FILL_AREA_STYLE('Steel - Satin',(#1960));
#1954=FILL_AREA_STYLE('Paint - Enamel Glossy (Red)',(#1961));
#1955=FILL_AREA_STYLE('Opaque(202,209,238)',(#1962));
#1956=FILL_AREA_STYLE('Opaque(0,128,0)',(#1963));
#1957=FILL_AREA_STYLE('Opaque(192,192,192)',(#1964));
#1958=FILL_AREA_STYLE('Opaque(224,181,50)',(#1965));
#1959=FILL_AREA_STYLE('Opaque(210,209,199)',(#1966));
#1960=FILL_AREA_STYLE_COLOUR('Steel - Satin',#1967);
#1961=FILL_AREA_STYLE_COLOUR('Paint - Enamel Glossy (Red)',#1968);
#1962=FILL_AREA_STYLE_COLOUR('Opaque(202,209,238)',#1969);
#1963=FILL_AREA_STYLE_COLOUR('Opaque(0,128,0)',#1970);
#1964=FILL_AREA_STYLE_COLOUR('Opaque(192,192,192)',#1971);
#1965=FILL_AREA_STYLE_COLOUR('Opaque(224,181,50)',#1972);
#1966=FILL_AREA_STYLE_COLOUR('Opaque(210,209,199)',#1973);
#1967=COLOUR_RGB('Steel - Satin',0.627450980392157,0.627450980392157,0.627450980392157);
#1968=COLOUR_RGB('Paint - Enamel Glossy (Red)',0.768627450980392,0.207843137254902,
0.152941176470588);
#1969=COLOUR_RGB('Opaque(202,209,238)',0.792156862745098,0.819607843137255,
0.933333333333333);
#1970=COLOUR_RGB('Opaque(0,128,0)',0.,0.501960784313725,0.);
#1971=COLOUR_RGB('Opaque(192,192,192)',0.752941176470588,0.752941176470588,
0.752941176470588);
#1972=COLOUR_RGB('Opaque(224,181,50)',0.87843137254902,0.709803921568627,
0.196078431372549);
#1973=COLOUR_RGB('Opaque(210,209,199)',0.823529411764706,0.819607843137255,
0.780392156862745);
ENDSEC;
END-ISO-10303-21;
