ISO-10303-21;
HEADER;
/* Generated by software containing ST-Developer
 * from STEP Tools, Inc. (www.steptools.com) 
 */

FILE_DESCRIPTION(
/* description */ ('KiCad electronic assembly'),
/* implementation_level */ '2;1');

FILE_NAME(
/* name */ 'AirCube_light_wall-8-31-26.step',
/* time_stamp */ '2026-08-31T13:55:42-05:00',
/* author */ (''),
/* organization */ (''),
/* preprocessor_version */ 'ST-DEVELOPER v20.1',
/* originating_system */ 'Autodesk Translation Framework v15.8.0.0',
/* authorisation */ '');

FILE_SCHEMA (('AUTOMOTIVE_DESIGN { 1 0 10303 214 3 1 1 }'));
ENDSEC;

DATA;
#10=MECHANICAL_DESIGN_GEOMETRIC_PRESENTATION_REPRESENTATION('',(#13),#1002);
#11=SHAPE_REPRESENTATION_RELATIONSHIP('SRR','None',#1008,#12);
#12=ADVANCED_BREP_SHAPE_REPRESENTATION('',(#14),#1001);
#13=STYLED_ITEM('',(#1017),#14);
#14=MANIFOLD_SOLID_BREP('light block',#620);
#15=SPHERICAL_SURFACE('',#651,4.);
#16=CIRCLE('',#627,4.00000042591);
#17=CIRCLE('',#628,4.00000042591);
#18=CIRCLE('',#632,4.);
#19=CIRCLE('',#635,4.);
#20=CIRCLE('',#637,4.);
#21=CIRCLE('',#650,4.);
#22=CIRCLE('',#652,4.);
#23=CIRCLE('',#653,4.);
#24=CIRCLE('',#654,4.);
#25=CYLINDRICAL_SURFACE('',#626,4.00000042591);
#26=CYLINDRICAL_SURFACE('',#655,4.);
#27=CYLINDRICAL_SURFACE('',#656,4.);
#28=CYLINDRICAL_SURFACE('',#657,4.);
#29=FACE_OUTER_BOUND('',#61,.T.);
#30=FACE_OUTER_BOUND('',#62,.T.);
#31=FACE_OUTER_BOUND('',#63,.T.);
#32=FACE_OUTER_BOUND('',#64,.T.);
#33=FACE_OUTER_BOUND('',#65,.T.);
#34=FACE_OUTER_BOUND('',#66,.T.);
#35=FACE_OUTER_BOUND('',#67,.T.);
#36=FACE_OUTER_BOUND('',#68,.T.);
#37=FACE_OUTER_BOUND('',#69,.T.);
#38=FACE_OUTER_BOUND('',#70,.T.);
#39=FACE_OUTER_BOUND('',#71,.T.);
#40=FACE_OUTER_BOUND('',#72,.T.);
#41=FACE_OUTER_BOUND('',#73,.T.);
#42=FACE_OUTER_BOUND('',#74,.T.);
#43=FACE_OUTER_BOUND('',#75,.T.);
#44=FACE_OUTER_BOUND('',#76,.T.);
#45=FACE_OUTER_BOUND('',#77,.T.);
#46=FACE_OUTER_BOUND('',#78,.T.);
#47=FACE_OUTER_BOUND('',#79,.T.);
#48=FACE_OUTER_BOUND('',#80,.T.);
#49=FACE_OUTER_BOUND('',#81,.T.);
#50=FACE_OUTER_BOUND('',#82,.T.);
#51=FACE_OUTER_BOUND('',#83,.T.);
#52=FACE_OUTER_BOUND('',#84,.T.);
#53=FACE_OUTER_BOUND('',#85,.T.);
#54=FACE_OUTER_BOUND('',#86,.T.);
#55=FACE_OUTER_BOUND('',#87,.T.);
#56=FACE_OUTER_BOUND('',#88,.T.);
#57=FACE_OUTER_BOUND('',#89,.T.);
#58=FACE_OUTER_BOUND('',#90,.T.);
#59=FACE_OUTER_BOUND('',#91,.T.);
#60=FACE_OUTER_BOUND('',#92,.T.);
#61=EDGE_LOOP('',(#389,#390,#391,#392));
#62=EDGE_LOOP('',(#393,#394,#395,#396));
#63=EDGE_LOOP('',(#397,#398,#399,#400,#401,#402));
#64=EDGE_LOOP('',(#403,#404,#405,#406,#407,#408,#409,#410,#411));
#65=EDGE_LOOP('',(#412,#413,#414,#415));
#66=EDGE_LOOP('',(#416,#417,#418,#419,#420,#421,#422,#423,#424));
#67=EDGE_LOOP('',(#425,#426,#427,#428,#429,#430,#431));
#68=EDGE_LOOP('',(#432,#433,#434,#435,#436));
#69=EDGE_LOOP('',(#437,#438,#439,#440));
#70=EDGE_LOOP('',(#441,#442,#443,#444));
#71=EDGE_LOOP('',(#445,#446,#447,#448,#449,#450,#451,#452,#453,#454,#455,
#456,#457,#458,#459));
#72=EDGE_LOOP('',(#460,#461,#462,#463,#464,#465));
#73=EDGE_LOOP('',(#466,#467,#468,#469));
#74=EDGE_LOOP('',(#470,#471,#472,#473));
#75=EDGE_LOOP('',(#474,#475,#476,#477));
#76=EDGE_LOOP('',(#478,#479,#480,#481,#482,#483,#484,#485,#486));
#77=EDGE_LOOP('',(#487,#488,#489,#490));
#78=EDGE_LOOP('',(#491,#492,#493,#494,#495));
#79=EDGE_LOOP('',(#496,#497,#498,#499,#500,#501));
#80=EDGE_LOOP('',(#502,#503,#504,#505,#506));
#81=EDGE_LOOP('',(#507,#508,#509,#510,#511,#512,#513));
#82=EDGE_LOOP('',(#514,#515,#516,#517));
#83=EDGE_LOOP('',(#518,#519,#520));
#84=EDGE_LOOP('',(#521,#522,#523));
#85=EDGE_LOOP('',(#524,#525,#526,#527));
#86=EDGE_LOOP('',(#528,#529,#530,#531));
#87=EDGE_LOOP('',(#532,#533,#534,#535,#536,#537));
#88=EDGE_LOOP('',(#538,#539,#540,#541));
#89=EDGE_LOOP('',(#542,#543,#544,#545,#546,#547));
#90=EDGE_LOOP('',(#548,#549,#550,#551));
#91=EDGE_LOOP('',(#552,#553,#554,#555));
#92=EDGE_LOOP('',(#556,#557,#558,#559,#560));
#93=LINE('',#828,#170);
#94=LINE('',#830,#171);
#95=LINE('',#832,#172);
#96=LINE('',#833,#173);
#97=LINE('',#836,#174);
#98=LINE('',#838,#175);
#99=LINE('',#839,#176);
#100=LINE('',#842,#177);
#101=LINE('',#844,#178);
#102=LINE('',#846,#179);
#103=LINE('',#847,#180);
#104=LINE('',#850,#181);
#105=LINE('',#852,#182);
#106=LINE('',#854,#183);
#107=LINE('',#856,#184);
#108=LINE('',#858,#185);
#109=LINE('',#860,#186);
#110=LINE('',#861,#187);
#111=LINE('',#867,#188);
#112=LINE('',#870,#189);
#113=LINE('',#873,#190);
#114=LINE('',#875,#191);
#115=LINE('',#877,#192);
#116=LINE('',#879,#193);
#117=LINE('',#881,#194);
#118=LINE('',#883,#195);
#119=LINE('',#885,#196);
#120=LINE('',#886,#197);
#121=LINE('',#889,#198);
#122=LINE('',#890,#199);
#123=LINE('',#892,#200);
#124=LINE('',#893,#201);
#125=LINE('',#896,#202);
#126=LINE('',#900,#203);
#127=LINE('',#901,#204);
#128=LINE('',#904,#205);
#129=LINE('',#905,#206);
#130=LINE('',#909,#207);
#131=LINE('',#911,#208);
#132=LINE('',#913,#209);
#133=LINE('',#917,#210);
#134=LINE('',#920,#211);
#135=LINE('',#921,#212);
#136=LINE('',#923,#213);
#137=LINE('',#925,#214);
#138=LINE('',#927,#215);
#139=LINE('',#928,#216);
#140=LINE('',#931,#217);
#141=LINE('',#932,#218);
#142=LINE('',#935,#219);
#143=LINE('',#936,#220);
#144=LINE('',#939,#221);
#145=LINE('',#941,#222);
#146=LINE('',#942,#223);
#147=LINE('',#945,#224);
#148=LINE('',#947,#225);
#149=LINE('',#948,#226);
#150=LINE('',#951,#227);
#151=LINE('',#953,#228);
#152=LINE('',#954,#229);
#153=LINE('',#956,#230);
#154=LINE('',#957,#231);
#155=LINE('',#961,#232);
#156=LINE('',#962,#233);
#157=LINE('',#964,#234);
#158=LINE('',#965,#235);
#159=LINE('',#967,#236);
#160=LINE('',#969,#237);
#161=LINE('',#972,#238);
#162=LINE('',#974,#239);
#163=LINE('',#975,#240);
#164=LINE('',#976,#241);
#165=LINE('',#978,#242);
#166=LINE('',#988,#243);
#167=LINE('',#989,#244);
#168=LINE('',#991,#245);
#169=LINE('',#993,#246);
#170=VECTOR('',#667,10.);
#171=VECTOR('',#668,10.);
#172=VECTOR('',#669,10.);
#173=VECTOR('',#670,10.);
#174=VECTOR('',#673,10.);
#175=VECTOR('',#674,10.);
#176=VECTOR('',#675,10.);
#177=VECTOR('',#678,10.);
#178=VECTOR('',#679,10.);
#179=VECTOR('',#680,10.);
#180=VECTOR('',#681,10.);
#181=VECTOR('',#684,10.);
#182=VECTOR('',#685,10.);
#183=VECTOR('',#686,10.);
#184=VECTOR('',#687,10.);
#185=VECTOR('',#688,10.);
#186=VECTOR('',#689,10.);
#187=VECTOR('',#690,10.);
#188=VECTOR('',#695,10.);
#189=VECTOR('',#698,10.);
#190=VECTOR('',#701,10.);
#191=VECTOR('',#702,10.);
#192=VECTOR('',#703,10.);
#193=VECTOR('',#704,10.);
#194=VECTOR('',#705,10.);
#195=VECTOR('',#706,10.);
#196=VECTOR('',#707,10.);
#197=VECTOR('',#708,10.);
#198=VECTOR('',#711,10.);
#199=VECTOR('',#712,10.);
#200=VECTOR('',#713,10.);
#201=VECTOR('',#714,10.);
#202=VECTOR('',#717,10.);
#203=VECTOR('',#720,10.);
#204=VECTOR('',#721,10.);
#205=VECTOR('',#724,10.);
#206=VECTOR('',#725,10.);
#207=VECTOR('',#728,10.);
#208=VECTOR('',#729,10.);
#209=VECTOR('',#730,10.);
#210=VECTOR('',#735,10.);
#211=VECTOR('',#738,10.);
#212=VECTOR('',#739,10.);
#213=VECTOR('',#740,10.);
#214=VECTOR('',#741,10.);
#215=VECTOR('',#742,10.);
#216=VECTOR('',#743,10.);
#217=VECTOR('',#746,10.);
#218=VECTOR('',#747,10.);
#219=VECTOR('',#750,10.);
#220=VECTOR('',#751,10.);
#221=VECTOR('',#754,10.);
#222=VECTOR('',#755,10.);
#223=VECTOR('',#756,10.);
#224=VECTOR('',#759,10.);
#225=VECTOR('',#760,10.);
#226=VECTOR('',#761,10.);
#227=VECTOR('',#764,10.);
#228=VECTOR('',#765,10.);
#229=VECTOR('',#766,10.);
#230=VECTOR('',#769,10.);
#231=VECTOR('',#770,10.);
#232=VECTOR('',#773,10.);
#233=VECTOR('',#774,10.);
#234=VECTOR('',#775,10.);
#235=VECTOR('',#776,10.);
#236=VECTOR('',#779,10.);
#237=VECTOR('',#782,10.);
#238=VECTOR('',#785,10.);
#239=VECTOR('',#786,10.);
#240=VECTOR('',#787,10.);
#241=VECTOR('',#788,10.);
#242=VECTOR('',#791,10.);
#243=VECTOR('',#806,10.);
#244=VECTOR('',#807,10.);
#245=VECTOR('',#810,10.);
#246=VECTOR('',#813,10.);
#247=VERTEX_POINT('',#826);
#248=VERTEX_POINT('',#827);
#249=VERTEX_POINT('',#829);
#250=VERTEX_POINT('',#831);
#251=VERTEX_POINT('',#835);
#252=VERTEX_POINT('',#837);
#253=VERTEX_POINT('',#841);
#254=VERTEX_POINT('',#843);
#255=VERTEX_POINT('',#845);
#256=VERTEX_POINT('',#849);
#257=VERTEX_POINT('',#851);
#258=VERTEX_POINT('',#853);
#259=VERTEX_POINT('',#855);
#260=VERTEX_POINT('',#857);
#261=VERTEX_POINT('',#859);
#262=VERTEX_POINT('',#863);
#263=VERTEX_POINT('',#864);
#264=VERTEX_POINT('',#866);
#265=VERTEX_POINT('',#868);
#266=VERTEX_POINT('',#872);
#267=VERTEX_POINT('',#874);
#268=VERTEX_POINT('',#876);
#269=VERTEX_POINT('',#878);
#270=VERTEX_POINT('',#880);
#271=VERTEX_POINT('',#882);
#272=VERTEX_POINT('',#884);
#273=VERTEX_POINT('',#888);
#274=VERTEX_POINT('',#891);
#275=VERTEX_POINT('',#895);
#276=VERTEX_POINT('',#897);
#277=VERTEX_POINT('',#899);
#278=VERTEX_POINT('',#903);
#279=VERTEX_POINT('',#907);
#280=VERTEX_POINT('',#908);
#281=VERTEX_POINT('',#910);
#282=VERTEX_POINT('',#912);
#283=VERTEX_POINT('',#916);
#284=VERTEX_POINT('',#918);
#285=VERTEX_POINT('',#922);
#286=VERTEX_POINT('',#924);
#287=VERTEX_POINT('',#926);
#288=VERTEX_POINT('',#930);
#289=VERTEX_POINT('',#934);
#290=VERTEX_POINT('',#938);
#291=VERTEX_POINT('',#940);
#292=VERTEX_POINT('',#944);
#293=VERTEX_POINT('',#946);
#294=VERTEX_POINT('',#950);
#295=VERTEX_POINT('',#952);
#296=VERTEX_POINT('',#959);
#297=VERTEX_POINT('',#960);
#298=VERTEX_POINT('',#963);
#299=VERTEX_POINT('',#971);
#300=VERTEX_POINT('',#973);
#301=VERTEX_POINT('',#982);
#302=VERTEX_POINT('',#984);
#303=EDGE_CURVE('',#247,#248,#93,.T.);
#304=EDGE_CURVE('',#249,#247,#94,.T.);
#305=EDGE_CURVE('',#250,#249,#95,.T.);
#306=EDGE_CURVE('',#248,#250,#96,.T.);
#307=EDGE_CURVE('',#251,#250,#97,.T.);
#308=EDGE_CURVE('',#252,#251,#98,.T.);
#309=EDGE_CURVE('',#252,#248,#99,.T.);
#310=EDGE_CURVE('',#253,#249,#100,.T.);
#311=EDGE_CURVE('',#253,#254,#101,.T.);
#312=EDGE_CURVE('',#254,#255,#102,.T.);
#313=EDGE_CURVE('',#255,#251,#103,.T.);
#314=EDGE_CURVE('',#247,#256,#104,.T.);
#315=EDGE_CURVE('',#257,#256,#105,.T.);
#316=EDGE_CURVE('',#258,#257,#106,.T.);
#317=EDGE_CURVE('',#259,#258,#107,.T.);
#318=EDGE_CURVE('',#260,#259,#108,.T.);
#319=EDGE_CURVE('',#261,#260,#109,.T.);
#320=EDGE_CURVE('',#261,#253,#110,.T.);
#321=EDGE_CURVE('',#262,#263,#16,.T.);
#322=EDGE_CURVE('',#264,#262,#111,.T.);
#323=EDGE_CURVE('',#265,#264,#17,.T.);
#324=EDGE_CURVE('',#265,#263,#112,.T.);
#325=EDGE_CURVE('',#266,#264,#113,.T.);
#326=EDGE_CURVE('',#266,#267,#114,.T.);
#327=EDGE_CURVE('',#268,#267,#115,.T.);
#328=EDGE_CURVE('',#269,#268,#116,.T.);
#329=EDGE_CURVE('',#269,#270,#117,.T.);
#330=EDGE_CURVE('',#270,#271,#118,.T.);
#331=EDGE_CURVE('',#271,#272,#119,.T.);
#332=EDGE_CURVE('',#265,#272,#120,.T.);
#333=EDGE_CURVE('',#262,#273,#121,.T.);
#334=EDGE_CURVE('',#273,#257,#122,.T.);
#335=EDGE_CURVE('',#256,#274,#123,.T.);
#336=EDGE_CURVE('',#274,#266,#124,.T.);
#337=EDGE_CURVE('',#271,#275,#125,.T.);
#338=EDGE_CURVE('',#276,#270,#18,.T.);
#339=EDGE_CURVE('',#277,#276,#126,.T.);
#340=EDGE_CURVE('',#275,#277,#127,.T.);
#341=EDGE_CURVE('',#275,#278,#128,.T.);
#342=EDGE_CURVE('',#272,#278,#129,.T.);
#343=EDGE_CURVE('',#279,#280,#130,.T.);
#344=EDGE_CURVE('',#281,#279,#131,.T.);
#345=EDGE_CURVE('',#282,#281,#132,.T.);
#346=EDGE_CURVE('',#280,#282,#19,.T.);
#347=EDGE_CURVE('',#283,#277,#133,.T.);
#348=EDGE_CURVE('',#284,#283,#20,.T.);
#349=EDGE_CURVE('',#284,#281,#134,.T.);
#350=EDGE_CURVE('',#279,#274,#135,.T.);
#351=EDGE_CURVE('',#285,#252,#136,.T.);
#352=EDGE_CURVE('',#286,#285,#137,.T.);
#353=EDGE_CURVE('',#286,#287,#138,.T.);
#354=EDGE_CURVE('',#278,#287,#139,.T.);
#355=EDGE_CURVE('',#280,#288,#140,.T.);
#356=EDGE_CURVE('',#267,#288,#141,.T.);
#357=EDGE_CURVE('',#289,#258,#142,.T.);
#358=EDGE_CURVE('',#289,#273,#143,.T.);
#359=EDGE_CURVE('',#286,#290,#144,.T.);
#360=EDGE_CURVE('',#290,#291,#145,.T.);
#361=EDGE_CURVE('',#287,#291,#146,.T.);
#362=EDGE_CURVE('',#292,#290,#147,.T.);
#363=EDGE_CURVE('',#292,#293,#148,.T.);
#364=EDGE_CURVE('',#291,#293,#149,.T.);
#365=EDGE_CURVE('',#293,#294,#150,.T.);
#366=EDGE_CURVE('',#294,#295,#151,.T.);
#367=EDGE_CURVE('',#295,#263,#152,.T.);
#368=EDGE_CURVE('',#285,#255,#153,.T.);
#369=EDGE_CURVE('',#254,#286,#154,.T.);
#370=EDGE_CURVE('',#296,#297,#155,.T.);
#371=EDGE_CURVE('',#297,#295,#156,.T.);
#372=EDGE_CURVE('',#294,#298,#157,.T.);
#373=EDGE_CURVE('',#298,#296,#158,.T.);
#374=EDGE_CURVE('',#297,#289,#159,.T.);
#375=EDGE_CURVE('',#296,#259,#160,.T.);
#376=EDGE_CURVE('',#299,#298,#161,.T.);
#377=EDGE_CURVE('',#300,#299,#162,.T.);
#378=EDGE_CURVE('',#292,#300,#163,.T.);
#379=EDGE_CURVE('',#260,#292,#164,.T.);
#380=EDGE_CURVE('',#290,#261,#165,.T.);
#381=EDGE_CURVE('',#288,#268,#21,.T.);
#382=EDGE_CURVE('',#301,#269,#22,.F.);
#383=EDGE_CURVE('',#302,#301,#23,.F.);
#384=EDGE_CURVE('',#269,#302,#24,.F.);
#385=EDGE_CURVE('',#283,#302,#166,.T.);
#386=EDGE_CURVE('',#301,#284,#167,.T.);
#387=EDGE_CURVE('',#302,#276,#168,.T.);
#388=EDGE_CURVE('',#301,#282,#169,.T.);
#389=ORIENTED_EDGE('',*,*,#303,.F.);
#390=ORIENTED_EDGE('',*,*,#304,.F.);
#391=ORIENTED_EDGE('',*,*,#305,.F.);
#392=ORIENTED_EDGE('',*,*,#306,.F.);
#393=ORIENTED_EDGE('',*,*,#306,.T.);
#394=ORIENTED_EDGE('',*,*,#307,.F.);
#395=ORIENTED_EDGE('',*,*,#308,.F.);
#396=ORIENTED_EDGE('',*,*,#309,.T.);
#397=ORIENTED_EDGE('',*,*,#305,.T.);
#398=ORIENTED_EDGE('',*,*,#310,.F.);
#399=ORIENTED_EDGE('',*,*,#311,.T.);
#400=ORIENTED_EDGE('',*,*,#312,.T.);
#401=ORIENTED_EDGE('',*,*,#313,.T.);
#402=ORIENTED_EDGE('',*,*,#307,.T.);
#403=ORIENTED_EDGE('',*,*,#304,.T.);
#404=ORIENTED_EDGE('',*,*,#314,.T.);
#405=ORIENTED_EDGE('',*,*,#315,.F.);
#406=ORIENTED_EDGE('',*,*,#316,.F.);
#407=ORIENTED_EDGE('',*,*,#317,.F.);
#408=ORIENTED_EDGE('',*,*,#318,.F.);
#409=ORIENTED_EDGE('',*,*,#319,.F.);
#410=ORIENTED_EDGE('',*,*,#320,.T.);
#411=ORIENTED_EDGE('',*,*,#310,.T.);
#412=ORIENTED_EDGE('',*,*,#321,.F.);
#413=ORIENTED_EDGE('',*,*,#322,.F.);
#414=ORIENTED_EDGE('',*,*,#323,.F.);
#415=ORIENTED_EDGE('',*,*,#324,.T.);
#416=ORIENTED_EDGE('',*,*,#323,.T.);
#417=ORIENTED_EDGE('',*,*,#325,.F.);
#418=ORIENTED_EDGE('',*,*,#326,.T.);
#419=ORIENTED_EDGE('',*,*,#327,.F.);
#420=ORIENTED_EDGE('',*,*,#328,.F.);
#421=ORIENTED_EDGE('',*,*,#329,.T.);
#422=ORIENTED_EDGE('',*,*,#330,.T.);
#423=ORIENTED_EDGE('',*,*,#331,.T.);
#424=ORIENTED_EDGE('',*,*,#332,.F.);
#425=ORIENTED_EDGE('',*,*,#322,.T.);
#426=ORIENTED_EDGE('',*,*,#333,.T.);
#427=ORIENTED_EDGE('',*,*,#334,.T.);
#428=ORIENTED_EDGE('',*,*,#315,.T.);
#429=ORIENTED_EDGE('',*,*,#335,.T.);
#430=ORIENTED_EDGE('',*,*,#336,.T.);
#431=ORIENTED_EDGE('',*,*,#325,.T.);
#432=ORIENTED_EDGE('',*,*,#337,.F.);
#433=ORIENTED_EDGE('',*,*,#330,.F.);
#434=ORIENTED_EDGE('',*,*,#338,.F.);
#435=ORIENTED_EDGE('',*,*,#339,.F.);
#436=ORIENTED_EDGE('',*,*,#340,.F.);
#437=ORIENTED_EDGE('',*,*,#337,.T.);
#438=ORIENTED_EDGE('',*,*,#341,.T.);
#439=ORIENTED_EDGE('',*,*,#342,.F.);
#440=ORIENTED_EDGE('',*,*,#331,.F.);
#441=ORIENTED_EDGE('',*,*,#343,.F.);
#442=ORIENTED_EDGE('',*,*,#344,.F.);
#443=ORIENTED_EDGE('',*,*,#345,.F.);
#444=ORIENTED_EDGE('',*,*,#346,.F.);
#445=ORIENTED_EDGE('',*,*,#347,.F.);
#446=ORIENTED_EDGE('',*,*,#348,.F.);
#447=ORIENTED_EDGE('',*,*,#349,.T.);
#448=ORIENTED_EDGE('',*,*,#344,.T.);
#449=ORIENTED_EDGE('',*,*,#350,.T.);
#450=ORIENTED_EDGE('',*,*,#335,.F.);
#451=ORIENTED_EDGE('',*,*,#314,.F.);
#452=ORIENTED_EDGE('',*,*,#303,.T.);
#453=ORIENTED_EDGE('',*,*,#309,.F.);
#454=ORIENTED_EDGE('',*,*,#351,.F.);
#455=ORIENTED_EDGE('',*,*,#352,.F.);
#456=ORIENTED_EDGE('',*,*,#353,.T.);
#457=ORIENTED_EDGE('',*,*,#354,.F.);
#458=ORIENTED_EDGE('',*,*,#341,.F.);
#459=ORIENTED_EDGE('',*,*,#340,.T.);
#460=ORIENTED_EDGE('',*,*,#343,.T.);
#461=ORIENTED_EDGE('',*,*,#355,.T.);
#462=ORIENTED_EDGE('',*,*,#356,.F.);
#463=ORIENTED_EDGE('',*,*,#326,.F.);
#464=ORIENTED_EDGE('',*,*,#336,.F.);
#465=ORIENTED_EDGE('',*,*,#350,.F.);
#466=ORIENTED_EDGE('',*,*,#357,.T.);
#467=ORIENTED_EDGE('',*,*,#316,.T.);
#468=ORIENTED_EDGE('',*,*,#334,.F.);
#469=ORIENTED_EDGE('',*,*,#358,.F.);
#470=ORIENTED_EDGE('',*,*,#359,.T.);
#471=ORIENTED_EDGE('',*,*,#360,.T.);
#472=ORIENTED_EDGE('',*,*,#361,.F.);
#473=ORIENTED_EDGE('',*,*,#353,.F.);
#474=ORIENTED_EDGE('',*,*,#362,.F.);
#475=ORIENTED_EDGE('',*,*,#363,.T.);
#476=ORIENTED_EDGE('',*,*,#364,.F.);
#477=ORIENTED_EDGE('',*,*,#360,.F.);
#478=ORIENTED_EDGE('',*,*,#324,.F.);
#479=ORIENTED_EDGE('',*,*,#332,.T.);
#480=ORIENTED_EDGE('',*,*,#342,.T.);
#481=ORIENTED_EDGE('',*,*,#354,.T.);
#482=ORIENTED_EDGE('',*,*,#361,.T.);
#483=ORIENTED_EDGE('',*,*,#364,.T.);
#484=ORIENTED_EDGE('',*,*,#365,.T.);
#485=ORIENTED_EDGE('',*,*,#366,.T.);
#486=ORIENTED_EDGE('',*,*,#367,.T.);
#487=ORIENTED_EDGE('',*,*,#352,.T.);
#488=ORIENTED_EDGE('',*,*,#368,.T.);
#489=ORIENTED_EDGE('',*,*,#312,.F.);
#490=ORIENTED_EDGE('',*,*,#369,.T.);
#491=ORIENTED_EDGE('',*,*,#370,.T.);
#492=ORIENTED_EDGE('',*,*,#371,.T.);
#493=ORIENTED_EDGE('',*,*,#366,.F.);
#494=ORIENTED_EDGE('',*,*,#372,.T.);
#495=ORIENTED_EDGE('',*,*,#373,.T.);
#496=ORIENTED_EDGE('',*,*,#321,.T.);
#497=ORIENTED_EDGE('',*,*,#367,.F.);
#498=ORIENTED_EDGE('',*,*,#371,.F.);
#499=ORIENTED_EDGE('',*,*,#374,.T.);
#500=ORIENTED_EDGE('',*,*,#358,.T.);
#501=ORIENTED_EDGE('',*,*,#333,.F.);
#502=ORIENTED_EDGE('',*,*,#370,.F.);
#503=ORIENTED_EDGE('',*,*,#375,.T.);
#504=ORIENTED_EDGE('',*,*,#317,.T.);
#505=ORIENTED_EDGE('',*,*,#357,.F.);
#506=ORIENTED_EDGE('',*,*,#374,.F.);
#507=ORIENTED_EDGE('',*,*,#373,.F.);
#508=ORIENTED_EDGE('',*,*,#376,.F.);
#509=ORIENTED_EDGE('',*,*,#377,.F.);
#510=ORIENTED_EDGE('',*,*,#378,.F.);
#511=ORIENTED_EDGE('',*,*,#379,.F.);
#512=ORIENTED_EDGE('',*,*,#318,.T.);
#513=ORIENTED_EDGE('',*,*,#375,.F.);
#514=ORIENTED_EDGE('',*,*,#319,.T.);
#515=ORIENTED_EDGE('',*,*,#379,.T.);
#516=ORIENTED_EDGE('',*,*,#362,.T.);
#517=ORIENTED_EDGE('',*,*,#380,.T.);
#518=ORIENTED_EDGE('',*,*,#381,.T.);
#519=ORIENTED_EDGE('',*,*,#327,.T.);
#520=ORIENTED_EDGE('',*,*,#356,.T.);
#521=ORIENTED_EDGE('',*,*,#382,.F.);
#522=ORIENTED_EDGE('',*,*,#383,.F.);
#523=ORIENTED_EDGE('',*,*,#384,.F.);
#524=ORIENTED_EDGE('',*,*,#348,.T.);
#525=ORIENTED_EDGE('',*,*,#385,.T.);
#526=ORIENTED_EDGE('',*,*,#383,.T.);
#527=ORIENTED_EDGE('',*,*,#386,.T.);
#528=ORIENTED_EDGE('',*,*,#329,.F.);
#529=ORIENTED_EDGE('',*,*,#384,.T.);
#530=ORIENTED_EDGE('',*,*,#387,.T.);
#531=ORIENTED_EDGE('',*,*,#338,.T.);
#532=ORIENTED_EDGE('',*,*,#388,.F.);
#533=ORIENTED_EDGE('',*,*,#382,.T.);
#534=ORIENTED_EDGE('',*,*,#328,.T.);
#535=ORIENTED_EDGE('',*,*,#381,.F.);
#536=ORIENTED_EDGE('',*,*,#355,.F.);
#537=ORIENTED_EDGE('',*,*,#346,.T.);
#538=ORIENTED_EDGE('',*,*,#386,.F.);
#539=ORIENTED_EDGE('',*,*,#388,.T.);
#540=ORIENTED_EDGE('',*,*,#345,.T.);
#541=ORIENTED_EDGE('',*,*,#349,.F.);
#542=ORIENTED_EDGE('',*,*,#372,.F.);
#543=ORIENTED_EDGE('',*,*,#365,.F.);
#544=ORIENTED_EDGE('',*,*,#363,.F.);
#545=ORIENTED_EDGE('',*,*,#378,.T.);
#546=ORIENTED_EDGE('',*,*,#377,.T.);
#547=ORIENTED_EDGE('',*,*,#376,.T.);
#548=ORIENTED_EDGE('',*,*,#385,.F.);
#549=ORIENTED_EDGE('',*,*,#347,.T.);
#550=ORIENTED_EDGE('',*,*,#339,.T.);
#551=ORIENTED_EDGE('',*,*,#387,.F.);
#552=ORIENTED_EDGE('',*,*,#351,.T.);
#553=ORIENTED_EDGE('',*,*,#308,.T.);
#554=ORIENTED_EDGE('',*,*,#313,.F.);
#555=ORIENTED_EDGE('',*,*,#368,.F.);
#556=ORIENTED_EDGE('',*,*,#369,.F.);
#557=ORIENTED_EDGE('',*,*,#311,.F.);
#558=ORIENTED_EDGE('',*,*,#320,.F.);
#559=ORIENTED_EDGE('',*,*,#380,.F.);
#560=ORIENTED_EDGE('',*,*,#359,.F.);
#561=PLANE('',#622);
#562=PLANE('',#623);
#563=PLANE('',#624);
#564=PLANE('',#625);
#565=PLANE('',#629);
#566=PLANE('',#630);
#567=PLANE('',#631);
#568=PLANE('',#633);
#569=PLANE('',#634);
#570=PLANE('',#636);
#571=PLANE('',#638);
#572=PLANE('',#639);
#573=PLANE('',#640);
#574=PLANE('',#641);
#575=PLANE('',#642);
#576=PLANE('',#643);
#577=PLANE('',#644);
#578=PLANE('',#645);
#579=PLANE('',#646);
#580=PLANE('',#647);
#581=PLANE('',#648);
#582=PLANE('',#649);
#583=PLANE('',#658);
#584=PLANE('',#659);
#585=PLANE('',#660);
#586=PLANE('',#661);
#587=PLANE('',#662);
#588=ADVANCED_FACE('',(#29),#561,.F.);
#589=ADVANCED_FACE('',(#30),#562,.T.);
#590=ADVANCED_FACE('',(#31),#563,.T.);
#591=ADVANCED_FACE('',(#32),#564,.T.);
#592=ADVANCED_FACE('',(#33),#25,.T.);
#593=ADVANCED_FACE('',(#34),#565,.F.);
#594=ADVANCED_FACE('',(#35),#566,.T.);
#595=ADVANCED_FACE('',(#36),#567,.T.);
#596=ADVANCED_FACE('',(#37),#568,.F.);
#597=ADVANCED_FACE('',(#38),#569,.T.);
#598=ADVANCED_FACE('',(#39),#570,.F.);
#599=ADVANCED_FACE('',(#40),#571,.F.);
#600=ADVANCED_FACE('',(#41),#572,.T.);
#601=ADVANCED_FACE('',(#42),#573,.T.);
#602=ADVANCED_FACE('',(#43),#574,.T.);
#603=ADVANCED_FACE('',(#44),#575,.T.);
#604=ADVANCED_FACE('',(#45),#576,.T.);
#605=ADVANCED_FACE('',(#46),#577,.T.);
#606=ADVANCED_FACE('',(#47),#578,.T.);
#607=ADVANCED_FACE('',(#48),#579,.T.);
#608=ADVANCED_FACE('',(#49),#580,.T.);
#609=ADVANCED_FACE('',(#50),#581,.T.);
#610=ADVANCED_FACE('',(#51),#582,.F.);
#611=ADVANCED_FACE('',(#52),#15,.F.);
#612=ADVANCED_FACE('',(#53),#26,.F.);
#613=ADVANCED_FACE('',(#54),#27,.F.);
#614=ADVANCED_FACE('',(#55),#28,.F.);
#615=ADVANCED_FACE('',(#56),#583,.T.);
#616=ADVANCED_FACE('',(#57),#584,.T.);
#617=ADVANCED_FACE('',(#58),#585,.T.);
#618=ADVANCED_FACE('',(#59),#586,.T.);
#619=ADVANCED_FACE('',(#60),#587,.T.);
#620=CLOSED_SHELL('',(#588,#589,#590,#591,#592,#593,#594,#595,#596,#597,
#598,#599,#600,#601,#602,#603,#604,#605,#606,#607,#608,#609,#610,#611,#612,
#613,#614,#615,#616,#617,#618,#619));
#621=AXIS2_PLACEMENT_3D('',#824,#663,#664);
#622=AXIS2_PLACEMENT_3D('',#825,#665,#666);
#623=AXIS2_PLACEMENT_3D('',#834,#671,#672);
#624=AXIS2_PLACEMENT_3D('',#840,#676,#677);
#625=AXIS2_PLACEMENT_3D('',#848,#682,#683);
#626=AXIS2_PLACEMENT_3D('',#862,#691,#692);
#627=AXIS2_PLACEMENT_3D('',#865,#693,#694);
#628=AXIS2_PLACEMENT_3D('',#869,#696,#697);
#629=AXIS2_PLACEMENT_3D('',#871,#699,#700);
#630=AXIS2_PLACEMENT_3D('',#887,#709,#710);
#631=AXIS2_PLACEMENT_3D('',#894,#715,#716);
#632=AXIS2_PLACEMENT_3D('',#898,#718,#719);
#633=AXIS2_PLACEMENT_3D('',#902,#722,#723);
#634=AXIS2_PLACEMENT_3D('',#906,#726,#727);
#635=AXIS2_PLACEMENT_3D('',#914,#731,#732);
#636=AXIS2_PLACEMENT_3D('',#915,#733,#734);
#637=AXIS2_PLACEMENT_3D('',#919,#736,#737);
#638=AXIS2_PLACEMENT_3D('',#929,#744,#745);
#639=AXIS2_PLACEMENT_3D('',#933,#748,#749);
#640=AXIS2_PLACEMENT_3D('',#937,#752,#753);
#641=AXIS2_PLACEMENT_3D('',#943,#757,#758);
#642=AXIS2_PLACEMENT_3D('',#949,#762,#763);
#643=AXIS2_PLACEMENT_3D('',#955,#767,#768);
#644=AXIS2_PLACEMENT_3D('',#958,#771,#772);
#645=AXIS2_PLACEMENT_3D('',#966,#777,#778);
#646=AXIS2_PLACEMENT_3D('',#968,#780,#781);
#647=AXIS2_PLACEMENT_3D('',#970,#783,#784);
#648=AXIS2_PLACEMENT_3D('',#977,#789,#790);
#649=AXIS2_PLACEMENT_3D('',#979,#792,#793);
#650=AXIS2_PLACEMENT_3D('',#980,#794,#795);
#651=AXIS2_PLACEMENT_3D('',#981,#796,#797);
#652=AXIS2_PLACEMENT_3D('',#983,#798,#799);
#653=AXIS2_PLACEMENT_3D('',#985,#800,#801);
#654=AXIS2_PLACEMENT_3D('',#986,#802,#803);
#655=AXIS2_PLACEMENT_3D('',#987,#804,#805);
#656=AXIS2_PLACEMENT_3D('',#990,#808,#809);
#657=AXIS2_PLACEMENT_3D('',#992,#811,#812);
#658=AXIS2_PLACEMENT_3D('',#994,#814,#815);
#659=AXIS2_PLACEMENT_3D('',#995,#816,#817);
#660=AXIS2_PLACEMENT_3D('',#996,#818,#819);
#661=AXIS2_PLACEMENT_3D('',#997,#820,#821);
#662=AXIS2_PLACEMENT_3D('',#998,#822,#823);
#663=DIRECTION('axis',(0.,0.,1.));
#664=DIRECTION('refdir',(1.,0.,0.));
#665=DIRECTION('center_axis',(-1.,0.,0.));
#666=DIRECTION('ref_axis',(0.,0.,1.));
#667=DIRECTION('',(0.,1.,0.));
#668=DIRECTION('',(0.,0.,1.));
#669=DIRECTION('',(0.,-1.,0.));
#670=DIRECTION('',(0.,0.,-1.));
#671=DIRECTION('center_axis',(-2.7369110631344E-48,1.,0.));
#672=DIRECTION('ref_axis',(1.,2.7369110631344E-48,1.09476442525376E-47));
#673=DIRECTION('',(1.,2.7369110631344E-48,1.09476442525376E-47));
#674=DIRECTION('',(0.,0.,-1.));
#675=DIRECTION('',(1.,2.7369110631344E-48,1.09476442525376E-47));
#676=DIRECTION('center_axis',(0.,0.,-1.));
#677=DIRECTION('ref_axis',(-1.,0.,0.));
#678=DIRECTION('',(1.,0.,0.));
#679=DIRECTION('',(-2.7369110631344E-48,1.,-7.00172395519268E-32));
#680=DIRECTION('',(1.,2.7369110631344E-48,1.09476442525376E-47));
#681=DIRECTION('',(2.7369110631344E-48,-1.,7.00172395519268E-32));
#682=DIRECTION('center_axis',(2.7369110631344E-48,-1.,0.));
#683=DIRECTION('ref_axis',(-1.,-2.7369110631344E-48,-1.09476442525376E-47));
#684=DIRECTION('',(1.,2.7369110631344E-48,0.));
#685=DIRECTION('',(0.,0.,-1.));
#686=DIRECTION('',(1.,0.,0.));
#687=DIRECTION('',(1.,0.,0.));
#688=DIRECTION('',(0.,0.,1.));
#689=DIRECTION('',(0.707106781186553,1.93528837224683E-48,0.707106781186542));
#690=DIRECTION('',(0.,0.,-1.));
#691=DIRECTION('center_axis',(0.,0.,-1.));
#692=DIRECTION('ref_axis',(0.999999999999994,1.06477488812791E-7,0.));
#693=DIRECTION('center_axis',(0.,0.,1.));
#694=DIRECTION('ref_axis',(0.999999999999994,1.06477488812791E-7,0.));
#695=DIRECTION('',(0.,0.,1.));
#696=DIRECTION('center_axis',(0.,0.,-1.));
#697=DIRECTION('ref_axis',(0.999999999999994,1.06477488812791E-7,0.));
#698=DIRECTION('',(0.,0.,1.));
#699=DIRECTION('center_axis',(0.,0.,1.));
#700=DIRECTION('ref_axis',(-1.,0.,0.));
#701=DIRECTION('',(0.,1.,0.));
#702=DIRECTION('',(-1.,0.,0.));
#703=DIRECTION('',(0.,-1.,0.));
#704=DIRECTION('',(1.,0.,0.));
#705=DIRECTION('',(0.,1.,0.));
#706=DIRECTION('',(1.,0.,0.));
#707=DIRECTION('',(0.,1.,0.));
#708=DIRECTION('',(-1.,-2.02463704645225E-9,0.));
#709=DIRECTION('center_axis',(1.,0.,0.));
#710=DIRECTION('ref_axis',(0.,0.,-1.));
#711=DIRECTION('',(-1.44641575234783E-7,-0.99999999999999,0.));
#712=DIRECTION('',(7.09120492527688E-7,-0.707107020369615,-0.707106542003044));
#713=DIRECTION('',(0.,1.,0.));
#714=DIRECTION('',(0.,0.,1.));
#715=DIRECTION('center_axis',(0.,-1.,0.));
#716=DIRECTION('ref_axis',(0.,0.,-1.));
#717=DIRECTION('',(0.,0.,-1.));
#718=DIRECTION('center_axis',(0.,1.,0.));
#719=DIRECTION('ref_axis',(-0.707106781186548,0.,0.707106781186547));
#720=DIRECTION('',(0.,0.,1.));
#721=DIRECTION('',(-1.,0.,0.));
#722=DIRECTION('center_axis',(-1.,0.,0.));
#723=DIRECTION('ref_axis',(0.,0.,1.));
#724=DIRECTION('',(0.,1.,0.));
#725=DIRECTION('',(0.,2.33119766876587E-9,-1.));
#726=DIRECTION('center_axis',(-1.,0.,0.));
#727=DIRECTION('ref_axis',(0.,0.,1.));
#728=DIRECTION('',(0.,0.,1.));
#729=DIRECTION('',(0.,1.,0.));
#730=DIRECTION('',(0.,0.,-1.));
#731=DIRECTION('center_axis',(1.,0.,0.));
#732=DIRECTION('ref_axis',(0.,-0.707106781186548,0.707106781186547));
#733=DIRECTION('center_axis',(0.,0.,1.));
#734=DIRECTION('ref_axis',(-1.,0.,0.));
#735=DIRECTION('',(0.,1.,0.));
#736=DIRECTION('center_axis',(0.,0.,-1.));
#737=DIRECTION('ref_axis',(-0.707106781186548,-0.707106781186548,0.));
#738=DIRECTION('',(1.,0.,0.));
#739=DIRECTION('',(1.,0.,0.));
#740=DIRECTION('',(2.7369110631344E-48,-1.,7.00172395519268E-32));
#741=DIRECTION('',(1.,2.7369110631344E-48,-5.03657010933777E-16));
#742=DIRECTION('',(0.,1.,0.));
#743=DIRECTION('',(-1.,0.,5.03657010933777E-16));
#744=DIRECTION('center_axis',(0.,-1.,0.));
#745=DIRECTION('ref_axis',(0.,0.,-1.));
#746=DIRECTION('',(-1.,0.,0.));
#747=DIRECTION('',(0.,0.,-1.));
#748=DIRECTION('center_axis',(0.,-0.707106542003222,0.707107020369792));
#749=DIRECTION('ref_axis',(7.09120492527688E-7,-0.707107020369615,-0.707106542003044));
#750=DIRECTION('',(1.93528837224682E-48,-0.707106781186549,-0.707106781186546));
#751=DIRECTION('',(1.,0.,0.));
#752=DIRECTION('center_axis',(-0.999999999999862,0.,-5.24780026197482E-7));
#753=DIRECTION('ref_axis',(-5.24780026197482E-7,0.,0.999999999999862));
#754=DIRECTION('',(0.,0.,1.));
#755=DIRECTION('',(0.,1.,0.));
#756=DIRECTION('',(-5.24780026197482E-7,0.,0.999999999999862));
#757=DIRECTION('center_axis',(-0.707106271912304,0.,0.707107290460424));
#758=DIRECTION('ref_axis',(0.707107290460424,-4.61553257942473E-9,0.707106271912304));
#759=DIRECTION('',(-0.707106781186553,-1.93528837224683E-48,-0.707106781186542));
#760=DIRECTION('',(0.,1.,0.));
#761=DIRECTION('',(0.707107290460424,-4.61553257942473E-9,0.707106271912304));
#762=DIRECTION('center_axis',(0.,1.,0.));
#763=DIRECTION('ref_axis',(0.,0.,1.));
#764=DIRECTION('',(0.,0.,1.));
#765=DIRECTION('',(0.707106781186544,0.,0.707106781186551));
#766=DIRECTION('',(1.,8.36840610845796E-10,0.));
#767=DIRECTION('center_axis',(-2.7369110631344E-48,1.,0.));
#768=DIRECTION('ref_axis',(1.,2.7369110631344E-48,1.09476442525376E-47));
#769=DIRECTION('',(0.,0.,-1.));
#770=DIRECTION('',(0.,0.,1.));
#771=DIRECTION('center_axis',(-0.707106781186551,0.,0.707106781186544));
#772=DIRECTION('ref_axis',(0.707106781186544,0.,0.707106781186551));
#773=DIRECTION('',(0.577350269189622,0.577350269189629,0.577350269189627));
#774=DIRECTION('',(0.,1.,0.));
#775=DIRECTION('',(0.,-1.,0.));
#776=DIRECTION('',(1.76606320106086E-7,-0.999999999999969,1.76606320106088E-7));
#777=DIRECTION('center_axis',(0.,0.,1.));
#778=DIRECTION('ref_axis',(1.,0.,0.));
#779=DIRECTION('',(1.,0.,0.));
#780=DIRECTION('center_axis',(0.,-0.707106781186546,0.707106781186549));
#781=DIRECTION('ref_axis',(1.,0.,0.));
#782=DIRECTION('',(1.24879526547419E-7,-0.707106781186543,-0.707106781186541));
#783=DIRECTION('center_axis',(-0.999999999999984,-1.76606320106089E-7,0.));
#784=DIRECTION('ref_axis',(1.76606320106089E-7,-0.999999999999984,0.));
#785=DIRECTION('',(0.,0.,1.));
#786=DIRECTION('',(1.76606320106089E-7,-0.999999999999984,0.));
#787=DIRECTION('',(0.,0.,1.));
#788=DIRECTION('',(-1.76606320106089E-7,0.999999999999984,0.));
#789=DIRECTION('center_axis',(-0.707106781186537,-1.24879526547418E-7,0.707106781186548));
#790=DIRECTION('ref_axis',(0.707106781186553,0.,0.707106781186542));
#791=DIRECTION('',(0.,-1.,0.));
#792=DIRECTION('center_axis',(-1.,0.,0.));
#793=DIRECTION('ref_axis',(0.,0.,-1.));
#794=DIRECTION('center_axis',(-1.,0.,0.));
#795=DIRECTION('ref_axis',(0.,-0.707106781186548,0.707106781186547));
#796=DIRECTION('center_axis',(-0.816496580927726,0.408248290463863,-0.408248290463863));
#797=DIRECTION('ref_axis',(-0.577350269189626,-0.577350269189626,0.577350269189626));
#798=DIRECTION('center_axis',(1.,0.,0.));
#799=DIRECTION('ref_axis',(0.,-1.,0.));
#800=DIRECTION('center_axis',(0.,0.,-1.));
#801=DIRECTION('ref_axis',(-1.,0.,0.));
#802=DIRECTION('center_axis',(0.,1.,0.));
#803=DIRECTION('ref_axis',(0.,0.,1.));
#804=DIRECTION('center_axis',(0.,0.,1.));
#805=DIRECTION('ref_axis',(-0.707106781186548,-0.707106781186548,0.));
#806=DIRECTION('',(0.,0.,1.));
#807=DIRECTION('',(0.,0.,-1.));
#808=DIRECTION('center_axis',(0.,1.,0.));
#809=DIRECTION('ref_axis',(-0.707106781186548,0.,0.707106781186547));
#810=DIRECTION('',(0.,1.,0.));
#811=DIRECTION('center_axis',(1.,0.,0.));
#812=DIRECTION('ref_axis',(0.,-0.707106781186548,0.707106781186547));
#813=DIRECTION('',(1.,0.,0.));
#814=DIRECTION('center_axis',(0.,1.,0.));
#815=DIRECTION('ref_axis',(-1.,0.,0.));
#816=DIRECTION('center_axis',(-1.,0.,0.));
#817=DIRECTION('ref_axis',(0.,-1.,0.));
#818=DIRECTION('center_axis',(1.,0.,0.));
#819=DIRECTION('ref_axis',(0.,1.,0.));
#820=DIRECTION('center_axis',(1.,2.7369110631344E-48,0.));
#821=DIRECTION('ref_axis',(2.7369110631344E-48,-1.,7.00172395519268E-32));
#822=DIRECTION('center_axis',(-1.,-2.7369110631344E-48,0.));
#823=DIRECTION('ref_axis',(-2.7369110631344E-48,1.,-7.00172395519268E-32));
#824=CARTESIAN_POINT('',(0.,0.,0.));
#825=CARTESIAN_POINT('Origin',(67.3999950528145,-46.2,1.57000000000003));
#826=CARTESIAN_POINT('',(67.3999950528145,-47.9,1.57000000000003));
#827=CARTESIAN_POINT('',(67.3999950528145,-46.2,1.57000000000003));
#828=CARTESIAN_POINT('',(67.3999950528145,-47.05,1.57000000000003));
#829=CARTESIAN_POINT('',(67.3999950528145,-47.9,0.0700000000000336));
#830=CARTESIAN_POINT('',(67.3999950528145,-47.9,1.57000000000003));
#831=CARTESIAN_POINT('',(67.3999950528145,-46.2,0.0700000000000336));
#832=CARTESIAN_POINT('',(67.3999950528145,-52.35,0.0700000000000336));
#833=CARTESIAN_POINT('',(67.3999950528145,-46.2,1.57000000000003));
#834=CARTESIAN_POINT('Origin',(55.8,-46.2,1.57000000000003));
#835=CARTESIAN_POINT('',(55.8,-46.2,0.0700000000000336));
#836=CARTESIAN_POINT('',(55.8,-46.2,0.0700000000000336));
#837=CARTESIAN_POINT('',(55.8,-46.2,1.57000000000003));
#838=CARTESIAN_POINT('',(55.8,-46.2,1.57000000000003));
#839=CARTESIAN_POINT('',(55.8,-46.2,1.57000000000003));
#840=CARTESIAN_POINT('Origin',(46.5,-58.5,0.0700000000000336));
#841=CARTESIAN_POINT('',(54.,-47.9,0.0700000000000336));
#842=CARTESIAN_POINT('',(67.3,-47.9,0.0700000000000336));
#843=CARTESIAN_POINT('',(54.,-37.2,0.0700000000000336));
#844=CARTESIAN_POINT('',(54.,-47.9,0.0700000000000336));
#845=CARTESIAN_POINT('',(55.8,-37.2,0.0700000000000336));
#846=CARTESIAN_POINT('',(54.,-37.2,0.0700000000000336));
#847=CARTESIAN_POINT('',(55.8,-37.2,0.0700000000000336));
#848=CARTESIAN_POINT('Origin',(67.3,-47.9,1.57000000000003));
#849=CARTESIAN_POINT('',(69.,-47.9,1.57000000000003));
#850=CARTESIAN_POINT('',(67.5499975264073,-47.9,1.57000000000003));
#851=CARTESIAN_POINT('',(69.,-47.9,5.77000000000004));
#852=CARTESIAN_POINT('',(69.,-47.9,5.77000000000004));
#853=CARTESIAN_POINT('',(67.7999950528145,-47.9,5.77000000000004));
#854=CARTESIAN_POINT('',(67.7999950528145,-47.9,5.77000000000004));
#855=CARTESIAN_POINT('',(55.500002843362,-47.9,5.77000000000004));
#856=CARTESIAN_POINT('',(53.9999987930059,-47.9,5.77000000000004));
#857=CARTESIAN_POINT('',(55.500002843362,-47.9,3.87000000000003));
#858=CARTESIAN_POINT('',(55.500002843362,-47.9,2.37000000000003));
#859=CARTESIAN_POINT('',(53.9999987930059,-47.9,2.37000000000003));
#860=CARTESIAN_POINT('',(57.5000017782051,-47.9,5.86999893484315));
#861=CARTESIAN_POINT('',(54.,-47.9,1.57000000000003));
#862=CARTESIAN_POINT('Origin',(64.99999957409,-40.00000042591,7.27000000000004));
#863=CARTESIAN_POINT('',(69.,-40.,7.27000000000004));
#864=CARTESIAN_POINT('',(65.,-36.,7.27000000000004));
#865=CARTESIAN_POINT('Origin',(64.99999957409,-40.00000042591,7.27000000000004));
#866=CARTESIAN_POINT('',(69.,-40.,5.77000000000004));
#867=CARTESIAN_POINT('',(69.,-40.00000042591,7.27000000000004));
#868=CARTESIAN_POINT('',(65.,-36.,5.77000000000004));
#869=CARTESIAN_POINT('Origin',(64.99999957409,-40.00000042591,5.77000000000004));
#870=CARTESIAN_POINT('',(64.99999957409,-36.,7.27000000000004));
#871=CARTESIAN_POINT('Origin',(61.3999993797392,-42.55,5.77000000000004));
#872=CARTESIAN_POINT('',(69.,-42.,5.77000000000004));
#873=CARTESIAN_POINT('',(69.,-42.,5.77000000000004));
#874=CARTESIAN_POINT('',(66.7999950528145,-42.,5.77000000000004));
#875=CARTESIAN_POINT('',(64.5999972162768,-42.,5.77000000000004));
#876=CARTESIAN_POINT('',(66.7999950528145,-41.3999989852309,5.77000000000004));
#877=CARTESIAN_POINT('',(66.7999950528145,-41.,5.77000000000004));
#878=CARTESIAN_POINT('',(60.4999987930059,-41.3999989852309,5.77000000000004));
#879=CARTESIAN_POINT('',(64.3499996898696,-41.3999989852309,5.77000000000004));
#880=CARTESIAN_POINT('',(60.4999987930059,-37.,5.77000000000004));
#881=CARTESIAN_POINT('',(60.4999987930059,-38.2,5.77000000000004));
#882=CARTESIAN_POINT('',(62.964051629783,-37.000000009791,5.77000000000004));
#883=CARTESIAN_POINT('',(60.4499981513247,-37.,5.77000000000004));
#884=CARTESIAN_POINT('',(62.964051629783,-36.0000000097911,5.77000000000004));
#885=CARTESIAN_POINT('',(62.964051629783,-37.200000009791,5.77000000000004));
#886=CARTESIAN_POINT('',(67.7999950528145,-36.,5.77000000000004));
#887=CARTESIAN_POINT('Origin',(69.,-41.95,3.67000000000003));
#888=CARTESIAN_POINT('',(68.9999984957278,-46.3999989852309,7.27000000000004));
#889=CARTESIAN_POINT('',(69.,-36.,7.27000000000004));
#890=CARTESIAN_POINT('',(68.9999984957278,-46.3999989852309,7.27000000000004));
#891=CARTESIAN_POINT('',(69.,-42.,1.57000000000003));
#892=CARTESIAN_POINT('',(69.,-46.2,1.57000000000003));
#893=CARTESIAN_POINT('',(69.,-42.,1.57000000000003));
#894=CARTESIAN_POINT('Origin',(59.4999969229102,-37.,3.67000000000003));
#895=CARTESIAN_POINT('',(62.964051629783,-37.,1.57000000000003));
#896=CARTESIAN_POINT('',(62.964051629783,-37.,2.62000000000003));
#897=CARTESIAN_POINT('',(56.4999987930059,-37.,1.77000000000003));
#898=CARTESIAN_POINT('Origin',(60.4999987930059,-37.,1.77000000000003));
#899=CARTESIAN_POINT('',(56.4999987930059,-37.,1.57000000000003));
#900=CARTESIAN_POINT('',(56.4999987930059,-37.,2.62000000000003));
#901=CARTESIAN_POINT('',(60.0749981597066,-37.,1.57000000000003));
#902=CARTESIAN_POINT('Origin',(62.964051629783,-37.2,1.57000000000003));
#903=CARTESIAN_POINT('',(62.964051629783,-36.,1.57000000000003));
#904=CARTESIAN_POINT('',(62.964051629783,-37.2,1.57000000000003));
#905=CARTESIAN_POINT('',(62.964051629783,-36.0000000097911,5.77000000000004));
#906=CARTESIAN_POINT('Origin',(67.9999950528145,-43.95,3.67000000000003));
#907=CARTESIAN_POINT('',(67.9999950528145,-42.,1.57000000000003));
#908=CARTESIAN_POINT('',(67.9999950528145,-42.,5.72474383269971));
#909=CARTESIAN_POINT('',(67.9999950528145,-42.,4.72000000000003));
#910=CARTESIAN_POINT('',(67.9999950528145,-45.3999989852309,1.57000000000003));
#911=CARTESIAN_POINT('',(67.9999950528145,-43.25,1.57000000000003));
#912=CARTESIAN_POINT('',(67.9999950528145,-45.3999989852309,1.77000000000003));
#913=CARTESIAN_POINT('',(67.9999950528145,-45.3999989852309,2.62000000000003));
#914=CARTESIAN_POINT('Origin',(67.9999950528145,-41.3999989852309,1.77000000000003));
#915=CARTESIAN_POINT('Origin',(60.649999396503,-42.55,1.57000000000003));
#916=CARTESIAN_POINT('',(56.4999987930059,-41.3999989852309,1.57000000000003));
#917=CARTESIAN_POINT('',(56.4999987930059,-47.9,1.57000000000003));
#918=CARTESIAN_POINT('',(60.4999987930059,-45.3999989852309,1.57000000000003));
#919=CARTESIAN_POINT('Origin',(60.4999987930059,-41.3999989852309,1.57000000000003));
#920=CARTESIAN_POINT('',(63.7249972246587,-45.3999989852309,1.57000000000003));
#921=CARTESIAN_POINT('',(64.2249972246587,-42.,1.57000000000003));
#922=CARTESIAN_POINT('',(55.8,-37.2,1.57000000000003));
#923=CARTESIAN_POINT('',(55.8,-37.2,1.57000000000003));
#924=CARTESIAN_POINT('',(54.0000008046627,-37.2,1.57000000000003));
#925=CARTESIAN_POINT('',(58.4820258148915,-37.2,1.57000000000003));
#926=CARTESIAN_POINT('',(54.0000008046627,-36.,1.57000000000003));
#927=CARTESIAN_POINT('',(54.0000008046627,-37.2,1.57000000000003));
#928=CARTESIAN_POINT('',(62.964051629783,-36.,1.57000000000003));
#929=CARTESIAN_POINT('Origin',(67.7999950528145,-42.,5.77000000000004));
#930=CARTESIAN_POINT('',(66.7999950528145,-42.,5.72474383269971));
#931=CARTESIAN_POINT('',(66.7999950528145,-42.,5.72474383269971));
#932=CARTESIAN_POINT('',(66.7999950528145,-42.,1.57000000000003));
#933=CARTESIAN_POINT('Origin',(67.7999935485423,-46.3999989852309,7.27000000000004));
#934=CARTESIAN_POINT('',(67.7999935485423,-46.3999989852309,7.27000000000004));
#935=CARTESIAN_POINT('',(67.7999950528145,-48.1499992389232,5.51999974630777));
#936=CARTESIAN_POINT('',(67.7999935485423,-46.3999989852309,7.27000000000004));
#937=CARTESIAN_POINT('Origin',(53.99999921283,-37.2,1.5699999999992));
#938=CARTESIAN_POINT('',(53.9999987930059,-37.2,2.37000000000003));
#939=CARTESIAN_POINT('',(53.9999987930059,-37.2,1.57000000000003));
#940=CARTESIAN_POINT('',(53.9999987930059,-36.,2.37000000000003));
#941=CARTESIAN_POINT('',(53.9999987930059,-37.2,2.37000000000003));
#942=CARTESIAN_POINT('',(54.,-36.,0.0700000000000336));
#943=CARTESIAN_POINT('Origin',(53.9999987930059,-37.2,2.37000000000003));
#944=CARTESIAN_POINT('',(55.5000009536743,-37.200000009791,3.87000000000003));
#945=CARTESIAN_POINT('',(54.1750008333612,-37.2,2.54499987968696));
#946=CARTESIAN_POINT('',(55.5000009536743,-36.0000000097911,3.87000000000003));
#947=CARTESIAN_POINT('',(55.5000009536743,-37.200000009791,3.87000000000003));
#948=CARTESIAN_POINT('',(53.9999987930059,-36.,2.37000000000003));
#949=CARTESIAN_POINT('Origin',(60.8999969229102,-36.,3.67000000000003));
#950=CARTESIAN_POINT('',(55.5000009536743,-36.0000000097911,6.67000000000003));
#951=CARTESIAN_POINT('',(55.5000009536743,-36.0000000097911,3.87000000000003));
#952=CARTESIAN_POINT('',(56.1000009536743,-36.0000000097911,7.27000000000004));
#953=CARTESIAN_POINT('',(55.5000009536743,-36.0000000097911,6.67000000000003));
#954=CARTESIAN_POINT('',(56.1000009536743,-36.0000000097911,7.27000000000004));
#955=CARTESIAN_POINT('Origin',(54.,-37.2,1.57000000000003));
#956=CARTESIAN_POINT('',(55.8,-37.2,1.57000000000003));
#957=CARTESIAN_POINT('',(53.9999987930059,-37.2,1.57000000000003));
#958=CARTESIAN_POINT('Origin',(55.8000009536743,-39.8750000048955,6.97000000000003));
#959=CARTESIAN_POINT('',(55.5000026844158,-46.9999972544895,6.67000173074148));
#960=CARTESIAN_POINT('',(56.1000009536743,-46.3999989852309,7.27000000000004));
#961=CARTESIAN_POINT('',(57.166667137783,-45.3333328011223,8.33666618410866));
#962=CARTESIAN_POINT('',(56.1000009536743,-39.8750000048955,7.27000000000004));
#963=CARTESIAN_POINT('',(55.4999987594783,-46.3999989852309,6.67000000000003));
#964=CARTESIAN_POINT('',(55.5000009536743,-39.8750000048955,6.67000000000003));
#965=CARTESIAN_POINT('',(55.5000011898852,-38.5374996806215,6.67000023621093));
#966=CARTESIAN_POINT('Origin',(61.3999993797392,-42.55,7.27000000000004));
#967=CARTESIAN_POINT('',(56.4999987930059,-46.3999989852309,7.27000000000004));
#968=CARTESIAN_POINT('Origin',(58.0749990779907,-47.1499989852309,6.52000000000004));
#969=CARTESIAN_POINT('',(55.5000024548279,-45.699999355061,7.96999963016991));
#970=CARTESIAN_POINT('Origin',(55.5000009536743,-37.200000009791,2.37000000000003));
#971=CARTESIAN_POINT('',(55.4999987594783,-46.3999989852309,5.77000000000004));
#972=CARTESIAN_POINT('',(55.4999987594783,-46.3999989852309,5.77000000000004));
#973=CARTESIAN_POINT('',(55.5000009536743,-37.200000009791,5.77000000000004));
#974=CARTESIAN_POINT('',(55.5000009536743,-37.200000009791,5.77000000000004));
#975=CARTESIAN_POINT('',(55.5000009536743,-37.200000009791,2.37000000000003));
#976=CARTESIAN_POINT('',(55.5000014260963,-39.8750004596566,3.87000000000003));
#977=CARTESIAN_POINT('Origin',(54.7500014260963,-39.8750005921113,3.12000000000003));
#978=CARTESIAN_POINT('',(53.9999987930059,-37.2,2.37000000000003));
#979=CARTESIAN_POINT('Origin',(66.7999950528145,-41.,5.77000000000004));
#980=CARTESIAN_POINT('Origin',(66.7999950528145,-41.3999989852309,1.77000000000003));
#981=CARTESIAN_POINT('Origin',(60.4999987930059,-41.3999989852309,1.77000000000003));
#982=CARTESIAN_POINT('',(60.4999987930059,-45.3999989852309,1.77000000000003));
#983=CARTESIAN_POINT('Origin',(60.4999987930059,-41.3999989852309,1.77000000000003));
#984=CARTESIAN_POINT('',(56.4999987930059,-41.3999989852309,1.77000000000003));
#985=CARTESIAN_POINT('Origin',(60.4999987930059,-41.3999989852309,1.77000000000003));
#986=CARTESIAN_POINT('Origin',(60.4999987930059,-41.3999989852309,1.77000000000003));
#987=CARTESIAN_POINT('Origin',(60.4999987930059,-41.3999989852309,1.57000000000003));
#988=CARTESIAN_POINT('',(56.4999987930059,-41.3999989852309,1.57000000000003));
#989=CARTESIAN_POINT('',(60.4999987930059,-45.3999989852309,1.57000000000003));
#990=CARTESIAN_POINT('Origin',(60.4999987930059,-43.9749994926155,1.77000000000003));
#991=CARTESIAN_POINT('',(56.4999987930059,-38.2,1.77000000000003));
#992=CARTESIAN_POINT('Origin',(64.3499996898696,-41.3999989852309,1.77000000000003));
#993=CARTESIAN_POINT('',(66.7999950528145,-45.3999989852309,1.77000000000003));
#994=CARTESIAN_POINT('Origin',(67.3,-45.3999989852309,1.57000000000003));
#995=CARTESIAN_POINT('Origin',(55.5000009536743,-37.200000009791,5.77000000000004));
#996=CARTESIAN_POINT('Origin',(56.4999987930059,-45.3999989852309,1.57000000000003));
#997=CARTESIAN_POINT('Origin',(55.8,-37.2,1.57000000000003));
#998=CARTESIAN_POINT('Origin',(54.,-47.9,1.57000000000003));
#999=UNCERTAINTY_MEASURE_WITH_UNIT(LENGTH_MEASURE(0.01),#1003,
'DISTANCE_ACCURACY_VALUE',
'Maximum model space distance between geometric entities at asserted c
onnectivities');
#1000=UNCERTAINTY_MEASURE_WITH_UNIT(LENGTH_MEASURE(0.01),#1003,
'DISTANCE_ACCURACY_VALUE',
'Maximum model space distance between geometric entities at asserted c
onnectivities');
#1001=(
GEOMETRIC_REPRESENTATION_CONTEXT(3)
GLOBAL_UNCERTAINTY_ASSIGNED_CONTEXT((#999))
GLOBAL_UNIT_ASSIGNED_CONTEXT((#1003,#1004,#1005))
REPRESENTATION_CONTEXT('','3D')
);
#1002=(
GEOMETRIC_REPRESENTATION_CONTEXT(3)
GLOBAL_UNCERTAINTY_ASSIGNED_CONTEXT((#1000))
GLOBAL_UNIT_ASSIGNED_CONTEXT((#1003,#1004,#1005))
REPRESENTATION_CONTEXT('','3D')
);
#1003=(
LENGTH_UNIT()
NAMED_UNIT(*)
SI_UNIT(.MILLI.,.METRE.)
);
#1004=(
NAMED_UNIT(*)
PLANE_ANGLE_UNIT()
SI_UNIT($,.RADIAN.)
);
#1005=(
NAMED_UNIT(*)
SI_UNIT($,.STERADIAN.)
SOLID_ANGLE_UNIT()
);
#1006=SHAPE_DEFINITION_REPRESENTATION(#1007,#1008);
#1007=PRODUCT_DEFINITION_SHAPE('',$,#1010);
#1008=SHAPE_REPRESENTATION('',(#621),#1001);
#1009=PRODUCT_DEFINITION_CONTEXT('part definition',#1014,'design');
#1010=PRODUCT_DEFINITION('AirCube 1','AirCube',#1011,#1009);
#1011=PRODUCT_DEFINITION_FORMATION('',$,#1016);
#1012=PRODUCT_RELATED_PRODUCT_CATEGORY('AirCube','AirCube',(#1016));
#1013=APPLICATION_PROTOCOL_DEFINITION('international standard',
'automotive_design',2009,#1014);
#1014=APPLICATION_CONTEXT(
'Core Data for Automotive Mechanical Design Process');
#1015=PRODUCT_CONTEXT('part definition',#1014,'mechanical');
#1016=PRODUCT('AirCube 1','AirCube','KiCad electronic assembly',(#1015));
#1017=PRESENTATION_STYLE_ASSIGNMENT((#1024));
#1018=PRESENTATION_STYLE_ASSIGNMENT((#1025));
#1019=PRESENTATION_STYLE_ASSIGNMENT((#1026));
#1020=PRESENTATION_STYLE_ASSIGNMENT((#1027));
#1021=PRESENTATION_STYLE_ASSIGNMENT((#1028));
#1022=PRESENTATION_STYLE_ASSIGNMENT((#1029));
#1023=PRESENTATION_STYLE_ASSIGNMENT((#1030));
#1024=SURFACE_STYLE_USAGE(.BOTH.,#1031);
#1025=SURFACE_STYLE_USAGE(.BOTH.,#1032);
#1026=SURFACE_STYLE_USAGE(.BOTH.,#1033);
#1027=SURFACE_STYLE_USAGE(.BOTH.,#1034);
#1028=SURFACE_STYLE_USAGE(.BOTH.,#1035);
#1029=SURFACE_STYLE_USAGE(.BOTH.,#1036);
#1030=SURFACE_STYLE_USAGE(.BOTH.,#1037);
#1031=SURFACE_SIDE_STYLE('',(#1038));
#1032=SURFACE_SIDE_STYLE('',(#1039));
#1033=SURFACE_SIDE_STYLE('',(#1040));
#1034=SURFACE_SIDE_STYLE('',(#1041));
#1035=SURFACE_SIDE_STYLE('',(#1042));
#1036=SURFACE_SIDE_STYLE('',(#1043));
#1037=SURFACE_SIDE_STYLE('',(#1044));
#1038=SURFACE_STYLE_FILL_AREA(#1045);
#1039=SURFACE_STYLE_FILL_AREA(#1046);
#1040=SURFACE_STYLE_FILL_AREA(#1047);
#1041=SURFACE_STYLE_FILL_AREA(#1048);
#1042=SURFACE_STYLE_FILL_AREA(#1049);
#1043=SURFACE_STYLE_FILL_AREA(#1050);
#1044=SURFACE_STYLE_FILL_AREA(#1051);
#1045=FILL_AREA_STYLE('Steel - Satin',(#1052));
#1046=FILL_AREA_STYLE('Paint - Enamel Glossy (Red)',(#1053));
#1047=FILL_AREA_STYLE('Opaque(202,209,238)',(#1054));
#1048=FILL_AREA_STYLE('Opaque(0,128,0)',(#1055));
#1049=FILL_AREA_STYLE('Opaque(192,192,192)',(#1056));
#1050=FILL_AREA_STYLE('Opaque(224,181,50)',(#1057));
#1051=FILL_AREA_STYLE('Opaque(210,209,199)',(#1058));
#1052=FILL_AREA_STYLE_COLOUR('Steel - Satin',#1059);
#1053=FILL_AREA_STYLE_COLOUR('Paint - Enamel Glossy (Red)',#1060);
#1054=FILL_AREA_STYLE_COLOUR('Opaque(202,209,238)',#1061);
#1055=FILL_AREA_STYLE_COLOUR('Opaque(0,128,0)',#1062);
#1056=FILL_AREA_STYLE_COLOUR('Opaque(192,192,192)',#1063);
#1057=FILL_AREA_STYLE_COLOUR('Opaque(224,181,50)',#1064);
#1058=FILL_AREA_STYLE_COLOUR('Opaque(210,209,199)',#1065);
#1059=COLOUR_RGB('Steel - Satin',0.627450980392157,0.627450980392157,0.627450980392157);
#1060=COLOUR_RGB('Paint - Enamel Glossy (Red)',0.768627450980392,0.207843137254902,
0.152941176470588);
#1061=COLOUR_RGB('Opaque(202,209,238)',0.792156862745098,0.819607843137255,
0.933333333333333);
#1062=COLOUR_RGB('Opaque(0,128,0)',0.,0.501960784313725,0.);
#1063=COLOUR_RGB('Opaque(192,192,192)',0.752941176470588,0.752941176470588,
0.752941176470588);
#1064=COLOUR_RGB('Opaque(224,181,50)',0.87843137254902,0.709803921568627,
0.196078431372549);
#1065=COLOUR_RGB('Opaque(210,209,199)',0.823529411764706,0.819607843137255,
0.780392156862745);
ENDSEC;
END-ISO-10303-21;
